<svg width="456" height="81" viewBox="0 0 456 81" fill="none" xmlns="http://www.w3.org/2000/svg">
<g filter="url(#filter0_d_131_2)">
<path d="M14.144 28.976C16 26.416 18.528 24.336 21.728 22.736C24.992 21.072 28.608 20.24 32.576 20.24C37.248 20.24 41.472 21.36 45.248 23.6C49.024 25.84 52 29.04 54.176 33.2C56.352 37.296 57.44 42 57.44 47.312C57.44 52.624 56.352 57.392 54.176 61.616C52 65.776 48.992 69.04 45.152 71.408C41.376 73.712 37.184 74.864 32.576 74.864C28.48 74.864 24.832 74.064 21.632 72.464C18.496 70.864 16 68.816 14.144 66.32V74H3.20001V2.95996H14.144V28.976ZM46.304 47.312C46.304 43.664 45.536 40.528 44 37.904C42.528 35.216 40.544 33.2 38.048 31.856C35.616 30.448 32.992 29.744 30.176 29.744C27.424 29.744 24.8 30.448 22.304 31.856C19.872 33.264 17.888 35.312 16.352 38C14.88 40.688 14.144 43.856 14.144 47.504C14.144 51.152 14.88 54.352 16.352 57.104C17.888 59.792 19.872 61.84 22.304 63.248C24.8 64.656 27.424 65.36 30.176 65.36C32.992 65.36 35.616 64.656 38.048 63.248C40.544 61.776 42.528 59.664 44 56.912C45.536 54.16 46.304 50.96 46.304 47.312ZM79.2065 2.95996V74H68.2625V2.95996H79.2065ZM141.479 21.104V74H130.535V67.76C128.807 69.936 126.535 71.664 123.719 72.944C120.967 74.16 118.023 74.768 114.887 74.768C110.727 74.768 106.983 73.904 103.655 72.176C100.391 70.448 97.799 67.888 95.879 64.496C94.023 61.104 93.095 57.008 93.095 52.208V21.104H103.943V50.576C103.943 55.312 105.127 58.96 107.495 61.52C109.863 64.016 113.095 65.264 117.191 65.264C121.287 65.264 124.519 64.016 126.887 61.52C129.319 58.96 130.535 55.312 130.535 50.576V21.104H141.479ZM204.399 46.256C204.399 48.24 204.271 50.032 204.015 51.632H163.599C163.919 55.856 165.487 59.248 168.303 61.808C171.119 64.368 174.575 65.648 178.671 65.648C184.559 65.648 188.719 63.184 191.151 58.256H202.959C201.359 63.12 198.447 67.12 194.223 70.256C190.063 73.328 184.879 74.864 178.671 74.864C173.615 74.864 169.071 73.744 165.039 71.504C161.071 69.2 157.935 66 155.631 61.904C153.391 57.744 152.271 52.944 152.271 47.504C152.271 42.064 153.359 37.296 155.535 33.2C157.775 29.04 160.879 25.84 164.847 23.6C168.879 21.36 173.487 20.24 178.671 20.24C183.663 20.24 188.111 21.328 192.015 23.504C195.919 25.68 198.959 28.752 201.135 32.72C203.311 36.624 204.399 41.136 204.399 46.256ZM192.975 42.8C192.911 38.768 191.471 35.536 188.655 33.104C185.839 30.672 182.351 29.456 178.191 29.456C174.415 29.456 171.183 30.672 168.495 33.104C165.807 35.472 164.207 38.704 163.695 42.8H192.975Z" fill="#717171"/>
<path d="M226.113 2.95996V74H215.169V2.95996H226.113ZM288.961 46.256C288.961 48.24 288.833 50.032 288.577 51.632H248.161C248.481 55.856 250.049 59.248 252.865 61.808C255.681 64.368 259.137 65.648 263.233 65.648C269.121 65.648 273.281 63.184 275.713 58.256H287.521C285.921 63.12 283.009 67.12 278.785 70.256C274.625 73.328 269.441 74.864 263.233 74.864C258.177 74.864 253.633 73.744 249.601 71.504C245.633 69.2 242.497 66 240.193 61.904C237.953 57.744 236.833 52.944 236.833 47.504C236.833 42.064 237.921 37.296 240.097 33.2C242.337 29.04 245.441 25.84 249.409 23.6C253.441 21.36 258.049 20.24 263.233 20.24C268.225 20.24 272.673 21.328 276.577 23.504C280.481 25.68 283.521 28.752 285.697 32.72C287.873 36.624 288.961 41.136 288.961 46.256ZM277.537 42.8C277.473 38.768 276.033 35.536 273.217 33.104C270.401 30.672 266.913 29.456 262.753 29.456C258.977 29.456 255.745 30.672 253.057 33.104C250.369 35.472 248.769 38.704 248.257 42.8H277.537ZM296.083 47.312C296.083 42 297.171 37.296 299.347 33.2C301.587 29.104 304.595 25.936 308.371 23.696C312.211 21.392 316.435 20.24 321.043 20.24C325.203 20.24 328.819 21.072 331.891 22.736C335.027 24.336 337.523 26.352 339.379 28.784V21.104H350.419V74H339.379V66.128C337.523 68.624 334.995 70.704 331.795 72.368C328.595 74.032 324.947 74.864 320.851 74.864C316.307 74.864 312.147 73.712 308.371 71.408C304.595 69.04 301.587 65.776 299.347 61.616C297.171 57.392 296.083 52.624 296.083 47.312ZM339.379 47.504C339.379 43.856 338.611 40.688 337.075 38C335.603 35.312 333.651 33.264 331.219 31.856C328.787 30.448 326.163 29.744 323.347 29.744C320.531 29.744 317.907 30.448 315.475 31.856C313.043 33.2 311.059 35.216 309.523 37.904C308.051 40.528 307.315 43.664 307.315 47.312C307.315 50.96 308.051 54.16 309.523 56.912C311.059 59.664 313.043 61.776 315.475 63.248C317.971 64.656 320.595 65.36 323.347 65.36C326.163 65.36 328.787 64.656 331.219 63.248C333.651 61.84 335.603 59.792 337.075 57.104C338.611 54.352 339.379 51.152 339.379 47.504ZM375.738 28.784C377.338 26.096 379.45 24.016 382.074 22.544C384.762 21.008 387.93 20.24 391.578 20.24V31.568H388.794C384.506 31.568 381.242 32.656 379.002 34.832C376.826 37.008 375.738 40.784 375.738 46.16V74H364.794V21.104H375.738V28.784ZM428.326 20.24C432.486 20.24 436.198 21.104 439.462 22.832C442.79 24.56 445.382 27.12 447.238 30.512C449.094 33.904 450.022 38 450.022 42.8V74H439.174V44.432C439.174 39.696 437.99 36.08 435.622 33.584C433.254 31.024 430.022 29.744 425.926 29.744C421.83 29.744 418.566 31.024 416.134 33.584C413.766 36.08 412.582 39.696 412.582 44.432V74H401.638V21.104H412.582V27.152C414.374 24.976 416.646 23.28 419.398 22.064C422.214 20.848 425.19 20.24 428.326 20.24Z" fill="#F9FAFB"/>
</g>
<defs>
<filter id="filter0_d_131_2" x="0.200012" y="0.959961" width="454.822" height="79.9041" filterUnits="userSpaceOnUse" color-interpolation-filters="sRGB">
<feFlood flood-opacity="0" result="BackgroundImageFix"/>
<feColorMatrix in="SourceAlpha" type="matrix" values="0 0 0 0 0 0 0 0 0 0 0 0 0 0 0 0 0 0 127 0" result="hardAlpha"/>
<feOffset dx="1" dy="2"/>
<feGaussianBlur stdDeviation="2"/>
<feColorMatrix type="matrix" values="0 0 0 0 0 0 0 0 0 0 0 0 0 0 0 0 0 0 0.2 0"/>
<feBlend mode="normal" in2="BackgroundImageFix" result="effect1_dropShadow_131_2"/>
<feBlend mode="normal" in="SourceGraphic" in2="effect1_dropShadow_131_2" result="shape"/>
</filter>
</defs>
</svg>
