<svg width="1224" height="153" viewBox="0 0 1224 153" fill="none" xmlns="http://www.w3.org/2000/svg">
<path d="M135.4 50L115.4 95.2L91.6 47.6H80.6L57.4 96.6L36.8 50H0.4L49.6 152.4H60.6L86.2 104.6L111.6 152.4H122.6L171.8 50H135.4ZM273.559 112C274.959 106.6 275.759 101 275.759 95C275.759 69.2 256.759 47.6 227.959 47.6C198.159 47.6 174.559 70.6 174.559 100C174.559 129.6 198.159 152.4 230.759 152.4C245.359 152.4 258.759 148 270.559 139L258.159 115.6C249.559 120.8 240.959 123.4 231.959 123.4C220.759 123.4 213.359 119.6 209.559 112H273.559ZM208.359 89.6C210.959 80 217.959 74.6 226.559 74.6C235.559 74.6 242.959 80.6 243.159 89.6H208.359ZM438.686 92C438.686 63.2 421.286 47.6 393.286 47.6C375.086 47.6 361.486 54 348.086 67.6L364.086 89.4C373.686 80.8 380.086 77.2 389.086 77.2C399.486 77.2 404.286 82.2 404.286 90V91.6H383.286C359.086 91.6 344.086 102.8 344.086 121.4C344.086 138.2 356.686 152.4 378.486 152.4C390.286 152.4 399.886 148.8 407.286 141.8V150H438.686V92ZM404.286 113.4C404.286 122.4 397.886 128 389.086 128C382.686 128 378.886 125 378.886 120.2C378.886 115.4 382.286 112.6 388.086 112.6H404.286V113.4ZM526.623 50C523.623 49 520.423 48.4 516.823 48.4C506.623 48.4 497.823 52.8 491.623 60.6V50H460.223V150H494.623V104.4C494.623 87.6 502.623 80.4 518.423 80.4H526.623V50ZM633.325 112C634.725 106.6 635.525 101 635.525 95C635.525 69.2 616.525 47.6 587.725 47.6C557.925 47.6 534.325 70.6 534.325 100C534.325 129.6 557.925 152.4 590.525 152.4C605.125 152.4 618.525 148 630.325 139L617.925 115.6C609.325 120.8 600.725 123.4 591.725 123.4C580.525 123.4 573.125 119.6 569.325 112H633.325ZM568.125 89.6C570.725 80 577.725 74.6 586.325 74.6C595.325 74.6 602.725 80.6 602.925 89.6H568.125ZM817.052 100.2C817.052 69.8 796.652 47.6 769.052 47.6C758.452 47.6 750.052 50.6 743.452 56.8V-1.19209e-05H709.052V150H740.452V139.6C746.652 148.2 756.252 152.4 769.052 152.4C797.052 152.4 817.052 130.6 817.052 100.2ZM781.852 100C781.852 113.4 773.252 121.2 762.252 121.2C751.652 121.2 742.852 113.8 742.852 100.2C742.852 86.6 751.652 78.8 762.252 78.8C772.852 78.8 781.852 86.6 781.852 100ZM923.842 92C923.842 63.2 906.442 47.6 878.442 47.6C860.242 47.6 846.642 54 833.242 67.6L849.242 89.4C858.842 80.8 865.242 77.2 874.242 77.2C884.642 77.2 889.442 82.2 889.442 90V91.6H868.442C844.242 91.6 829.242 102.8 829.242 121.4C829.242 138.2 841.842 152.4 863.642 152.4C875.442 152.4 885.042 148.8 892.442 141.8V150H923.842V92ZM889.442 113.4C889.442 122.4 883.042 128 874.242 128C867.842 128 864.042 125 864.042 120.2C864.042 115.4 867.442 112.6 873.242 112.6H889.442V113.4ZM940.38 100C939.78 129 965.18 153 994.98 152.4C1015.58 152.4 1031.58 142.2 1039.78 125.6L1015.98 107.6C1010.58 115.8 1004.38 120.8 995.38 120.8C983.38 120.8 975.58 112.2 975.58 100C975.58 87.8 983.38 79.2 995.38 79.2C1004.38 79.2 1010.58 84 1015.98 92.6L1039.78 74.4C1031.58 57.8 1015.58 47.6 994.98 47.6C965.18 47 939.78 71 940.38 100ZM1163.73 150L1126.93 94.6L1161.33 50H1121.53L1090.33 90.4V-1.19209e-05H1055.93V150H1090.33V97.2L1125.93 150H1163.73ZM1187.07 97.2H1215.07L1221.47 18H1180.47L1187.07 97.2ZM1178.67 130C1178.67 142.8 1188.07 152.4 1201.47 152.4C1214.27 152.4 1223.67 142.8 1223.67 130C1223.67 117.4 1214.27 107.6 1201.47 107.6C1188.07 107.6 1178.67 117.4 1178.67 130Z" fill="url(#paint0_linear)"/>
<defs>
<linearGradient id="paint0_linear" x1="619.5" y1="-37" x2="619.5" y2="214" gradientUnits="userSpaceOnUse">
<stop stop-color="#858585"/>
<stop offset="1" stop-color="#3C3C3C" stop-opacity="0"/>
</linearGradient>
</defs>
</svg>
