<?xml version="1.0" encoding="iso-8859-1"?>
<!-- Generator: Adobe Illustrator 19.0.0, SVG Export Plug-In . SVG Version: 6.00 Build 0)  -->
<svg version="1.1" id="Layer_1" xmlns="http://www.w3.org/2000/svg" xmlns:xlink="http://www.w3.org/1999/xlink" x="0px" y="0px"
	 viewBox="0 0 512 512" style="enable-background:new 0 0 512 512;" xml:space="preserve">
<g>
	<g>
		<g>
			<path d="M104.324,365.96c-3.843,2.76-7.976,5.215-12.284,7.297c-4.973,2.403-7.057,8.382-4.653,13.355
				c1.726,3.571,5.294,5.651,9.011,5.651c1.46,0,2.942-0.321,4.344-0.999c5.344-2.582,10.475-5.631,15.251-9.061
				c4.485-3.222,5.51-9.47,2.288-13.956C115.06,363.764,108.813,362.737,104.324,365.96z"/>
			<path d="M125.808,288.696c-5.045,2.246-7.315,8.157-5.069,13.202c5.314,11.941,5.065,24.605-0.761,38.715
				c-2.107,5.104,0.322,10.952,5.427,13.06c1.248,0.516,2.541,0.759,3.813,0.759c3.928,0,7.654-2.33,9.247-6.186
				c7.917-19.175,8.102-37.504,0.546-54.479C136.765,288.721,130.854,286.45,125.808,288.696z"/>
			<path d="M144.517,246.068c0-12.498-7.599-24-21.396-32.386c-12.049-7.323-28.15-11.786-45.34-12.566
				c-5.505-0.235-10.191,4.019-10.442,9.536c-0.251,5.517,4.019,10.193,9.536,10.443c28.498,1.294,47.642,13.957,47.642,24.973
				c0,11.837-22.349,25.077-52.259,25.077c-29.909,0-52.258-13.24-52.258-25.077c0-1.515,0.331-2.993,1.014-4.517
				c2.256-5.041-0.002-10.957-5.043-13.212s-10.957,0.002-13.213,5.043C0.928,237.473,0,241.74,0,246.068
				c0,25.277,31.739,45.077,72.258,45.077C112.777,291.145,144.517,271.345,144.517,246.068z"/>
			<path d="M509.071,355.908l-98.196-98.196c37.312-24.155,57.705-55.25,57.705-88.552c0-36.441-24.391-70.252-68.679-95.205
				c-42.479-23.933-98.741-37.114-158.423-37.114S125.535,50.022,83.056,73.955c-44.288,24.953-68.679,58.764-68.679,95.205
				c0,33.305,19.248,64.385,52.809,85.271c1.618,1.007,3.375,2.076,5.236,3.208l1.821,1.108c4.715,2.875,10.868,1.381,13.743-3.335
				c2.874-4.716,1.381-10.869-3.335-13.743l-1.836-1.118c-1.801-1.095-3.498-2.127-5.063-3.101
				c-27.566-17.156-43.376-42.047-43.376-68.291c0-28.904,20.774-56.527,58.496-77.78C132.403,69.107,185.18,56.84,241.477,56.84
				s109.076,12.267,148.607,34.54c37.722,21.253,58.496,48.876,58.496,77.78c0,27.249-18.471,53.357-52.192,74.065L248.044,94.88
				c-2.862-2.862-7.166-3.716-10.905-2.165c-3.738,1.552-6.173,5.204-6.166,9.252l0.285,179.357
				c-14.348-0.385-28.557-1.568-42.362-3.559c-5.466-0.787-10.536,3.003-11.325,8.47c-0.789,5.466,3.003,10.537,8.47,11.325
				c14.753,2.128,29.932,3.382,45.249,3.772l0.26,163.843c0.007,4.02,2.418,7.644,6.123,9.202c1.252,0.526,2.568,0.783,3.875,0.783
				c2.561,0,5.079-0.984,6.984-2.842l101.86-99.358l151.607,0.02c0,0,0,0,0.001,0c4.044,0,7.69-2.436,9.238-6.172
				C512.787,363.069,511.932,358.768,509.071,355.908z M346.323,352.958c-2.609,0-5.116,1.02-6.983,2.842l-87.828,85.671
				l-0.501-315.339l226.844,226.844L346.323,352.958z"/>
			<path d="M272.765,230.767c5.522,0,10-4.477,10-10V192.81c0-5.523-4.478-10-10-10c-5.522,0-10,4.477-10,10v27.957
				C262.765,226.29,267.242,230.767,272.765,230.767z"/>
			<path d="M272.765,393.264c5.522,0,10-4.477,10-10V264.449c0-5.523-4.478-10-10-10c-5.522,0-10,4.477-10,10v118.815
				C262.765,388.787,267.242,393.264,272.765,393.264z"/>
		</g>
	</g>
</g>
<g>
</g>
<g>
</g>
<g>
</g>
<g>
</g>
<g>
</g>
<g>
</g>
<g>
</g>
<g>
</g>
<g>
</g>
<g>
</g>
<g>
</g>
<g>
</g>
<g>
</g>
<g>
</g>
<g>
</g>
</svg>
