<?xml version="1.0" encoding="utf-8"?>
<!-- Generator: Adobe Illustrator 16.0.0, SVG Export Plug-In . SVG Version: 6.00 Build 0)  -->
<!DOCTYPE svg PUBLIC "-//W3C//DTD SVG 1.1//EN" "http://www.w3.org/Graphics/SVG/1.1/DTD/svg11.dtd">
<svg version="1.1" id="Layer_1" xmlns="http://www.w3.org/2000/svg" xmlns:xlink="http://www.w3.org/1999/xlink" x="0px" y="0px"
	 width="243.731px" height="69.568px" viewBox="0 0 243.731 69.568" enable-background="new 0 0 243.731 69.568"
	 xml:space="preserve">
<g>
	<path fill="#CF0A2C" d="M4.417,53.57c0.128-2.113,0.256-5.248,0.256-8V8.133h5.567v19.455h0.128
		c1.984-3.456,5.568-5.696,10.559-5.696c7.68,0,13.119,6.399,13.055,15.807c0,11.07-6.976,16.574-13.887,16.574
		c-4.48,0-8.063-1.727-10.367-5.823H9.537l-0.256,5.12H4.417z M10.241,41.154c0,0.705,0.128,1.408,0.256,2.049
		c1.088,3.903,4.352,6.592,8.447,6.592c5.888,0,9.408-4.801,9.408-11.904c0-6.207-3.2-11.519-9.215-11.519
		c-3.84,0-7.424,2.624-8.576,6.912c-0.128,0.64-0.32,1.408-0.32,2.304V41.154z"/>
	<path fill="#CF0A2C" d="M57.125,53.57l-0.448-3.904h-0.192c-1.728,2.432-5.056,4.607-9.472,4.607c-6.271,0-9.471-4.416-9.471-8.895
		c0-7.488,6.656-11.583,18.623-11.52v-0.64c0-2.56-0.704-7.167-7.04-7.167c-2.879,0-5.887,0.896-8.063,2.304l-1.28-3.711
		c2.56-1.664,6.272-2.752,10.175-2.752c9.472,0,11.775,6.463,11.775,12.671v11.583c0,2.688,0.128,5.311,0.512,7.424H57.125z
		 M56.293,37.764c-6.144-0.129-13.119,0.959-13.119,6.975c0,3.648,2.432,5.375,5.312,5.375c4.032,0,6.591-2.559,7.487-5.183
		c0.192-0.576,0.32-1.216,0.32-1.792V37.764z"/>
	<path fill="#CF0A2C" d="M69.197,8.133h5.631V53.57h-5.631V8.133z"/>
	<path fill="#CF0A2C" d="M81.593,47.811c1.664,1.088,4.607,2.24,7.423,2.24c4.096,0,6.016-2.049,6.016-4.608
		c0-2.688-1.6-4.159-5.76-5.696c-5.567-1.982-8.191-5.055-8.191-8.767c0-4.992,4.032-9.087,10.688-9.087
		c3.136,0,5.887,0.896,7.615,1.92l-1.408,4.096c-1.216-0.768-3.456-1.792-6.335-1.792c-3.328,0-5.184,1.92-5.184,4.224
		c0,2.56,1.855,3.712,5.887,5.248c5.376,2.048,8.127,4.735,8.127,9.344c0,5.438-4.224,9.278-11.583,9.278
		c-3.392,0-6.527-0.832-8.704-2.111L81.593,47.811z"/>
	<path fill="#CF0A2C" d="M123.915,53.57l-0.448-3.904h-0.192c-1.728,2.432-5.055,4.607-9.471,4.607
		c-6.271,0-9.471-4.416-9.471-8.895c0-7.488,6.656-11.583,18.622-11.52v-0.64c0-2.56-0.703-7.167-7.039-7.167
		c-2.88,0-5.888,0.896-8.063,2.304l-1.28-3.711c2.56-1.664,6.271-2.752,10.175-2.752c9.471,0,11.775,6.463,11.775,12.671v11.583
		c0,2.688,0.127,5.311,0.512,7.424H123.915z M123.083,37.764c-6.144-0.129-13.119,0.959-13.119,6.975
		c0,3.648,2.432,5.375,5.312,5.375c4.032,0,6.591-2.559,7.487-5.183c0.191-0.576,0.32-1.216,0.32-1.792V37.764z"/>
	<path fill="#CF0A2C" d="M135.94,30.979c0-3.2-0.064-5.824-0.256-8.383h4.928l0.256,4.992h0.191
		c1.729-2.944,4.609-5.696,9.729-5.696c4.223,0,7.424,2.56,8.768,6.208h0.127c0.961-1.728,2.176-3.072,3.457-4.032
		c1.855-1.408,3.902-2.176,6.846-2.176c4.096,0,10.176,2.688,10.176,13.439V53.57h-5.504V36.035c0-5.952-2.176-9.535-6.719-9.535
		c-3.199,0-5.695,2.368-6.656,5.12c-0.256,0.768-0.447,1.792-0.447,2.815V53.57h-5.504V35.011c0-4.928-2.176-8.511-6.463-8.511
		c-3.52,0-6.08,2.815-6.977,5.631c-0.318,0.832-0.447,1.792-0.447,2.752V53.57h-5.504V30.979z"/>
	<path fill="#CF0A2C" d="M193.95,13.893c0.064,1.92-1.344,3.456-3.584,3.456c-1.982,0-3.391-1.536-3.391-3.456
		c0-1.984,1.471-3.52,3.52-3.52C192.606,10.373,193.95,11.909,193.95,13.893z M187.679,53.57V22.596h5.633V53.57H187.679z"/>
	<path fill="#CF0A2C" d="M222.358,48.77h-0.129c-1.664,3.072-5.119,5.504-10.111,5.504c-7.23,0-13.119-6.271-13.119-15.679
		c0-11.583,7.488-16.703,14.016-16.703c4.799,0,8,2.368,9.535,5.375h0.129l0.191-4.671h5.311c-0.127,2.624-0.191,5.312-0.191,8.511
		V66.24h-5.631V48.77z M222.358,35.139c0-0.768-0.064-1.664-0.256-2.368c-0.832-3.456-3.84-6.4-8.064-6.4
		c-5.822,0-9.344,4.928-9.344,11.904c0,6.143,2.945,11.52,9.152,11.52c3.648,0,6.783-2.24,8.062-6.145
		c0.256-0.768,0.449-1.855,0.449-2.688V35.139z"/>
</g>
<g>
	<path fill="#CF0A2C" d="M242.585,26.244c0,2.604-2.044,4.647-4.704,4.647c-2.632,0-4.731-2.044-4.731-4.647
		c0-2.548,2.1-4.592,4.731-4.592C240.541,21.652,242.585,23.696,242.585,26.244z M234.325,26.244c0,2.044,1.512,3.668,3.584,3.668
		c2.016,0,3.5-1.624,3.5-3.64c0-2.044-1.484-3.696-3.528-3.696S234.325,24.228,234.325,26.244z M237.153,28.652h-1.064V24.06
		c0.42-0.084,1.008-0.14,1.764-0.14c0.868,0,1.261,0.14,1.597,0.336c0.252,0.196,0.447,0.56,0.447,1.008
		c0,0.504-0.392,0.896-0.951,1.064v0.056c0.447,0.168,0.699,0.504,0.84,1.12c0.14,0.7,0.224,0.98,0.336,1.148h-1.148
		c-0.14-0.168-0.224-0.588-0.363-1.12c-0.084-0.504-0.364-0.729-0.952-0.729h-0.504V28.652z M237.181,26.048h0.504
		c0.589,0,1.064-0.195,1.064-0.672c0-0.42-0.308-0.7-0.98-0.7c-0.279,0-0.476,0.028-0.588,0.056V26.048z"/>
</g>
</svg>
