<svg xmlns="http://www.w3.org/2000/svg" width="374" height="71" viewBox="0 0 374 71">
    <g fill="none" fill-rule="evenodd">
        <path fill="#4CBBFD" fill-rule="nonzero" d="M62.985 35.266a28.073 28.073 0 0 0-4.562-15.355L69.496 8.837 61.18.519 50.114 11.593a28.113 28.113 0 0 0-30.713 0L8.318.519 0 8.837 11.074 19.91a28.113 28.113 0 0 0 0 30.713L0 61.698l8.318 8.318 11.074-11.074a28.113 28.113 0 0 0 30.713 0l11.074 11.074 8.317-8.318-11.073-11.065a28.073 28.073 0 0 0 4.562-15.367zm-44.709 0a16.473 16.473 0 1 1 31.499 6.722L38.909 31.107l-8.321 8.32 10.87 10.867a16.44 16.44 0 0 1-23.182-15.028z"/>
        <path fill="#FFF" d="M122.802 35.6c0 6.793-3.444 12.926-9.577 15.756l3.255 4.246L109.781 59l-4.482-5.944h-.141c-11.087 0-17.644-8.067-17.644-17.455 0-9.389 6.557-17.456 17.644-17.456 11.086 0 17.644 8.067 17.644 17.456zm-17.644 10.614c6.274 0 9.67-4.859 9.67-10.614 0-5.756-3.396-10.615-9.67-10.615-6.322 0-9.719 4.859-9.671 10.615-.048 5.755 3.35 10.614 9.67 10.614zm30.004 6.51c-5.473 0-8.397-3.396-8.397-9.293V29.372h7.312v12.455c0 3.113 1.038 4.812 3.774 4.812 3.066 0 4.387-1.982 4.387-5.048V29.372h7.171v22.74h-7.17v-3.256c-1.274 2.406-3.633 3.869-7.077 3.869zm29.296 0c-6.793 0-10.709-5.142-10.709-11.982 0-6.794 4.2-11.983 10.804-11.983 3.302 0 5.897 1.557 7.123 3.868v-3.255h7.171v22.74h-7.17v-3.209c-1.227 2.265-4.058 3.822-7.219 3.822zm2.076-5.99c3.586 0 5.426-2.69 5.426-5.992 0-3.255-1.84-5.944-5.426-5.944-3.35 0-5.425 2.5-5.425 5.944s2.076 5.991 5.425 5.991zm18.305-17.362h7.218v3.303c1.32-2.548 3.915-3.916 7.36-3.916 5.519 0 8.302 3.114 8.302 9.294V52.11h-7.265v-11.7c0-3.82-1.085-5.566-4.01-5.566-2.878 0-4.387 1.887-4.387 5.378V52.11h-7.218V29.372zm40.571 17.125c.897 0 1.84-.047 2.5-.141v5.755c-1.037.189-2.736.378-4.811.378-3.397 0-8.067-.755-8.067-8.35V35.08h-3.586v-5.709h3.586v-6.746h7.218v6.746h5.142v5.709h-5.142v7.548c0 3.35 1.368 3.868 3.16 3.868zm15.757 6.322c-6.652 0-10.756-3.255-10.756-7.548h7.17c0 1.557 1.51 2.689 3.728 2.689 1.557 0 2.642-.802 2.642-2.123 0-.897-.425-1.651-1.652-1.934l-5.566-1.416c-3.774-.943-5.709-3.302-5.709-6.557 0-4.246 3.727-7.218 9.719-7.218 6.652 0 10.143 2.783 10.143 7.076h-7.124c0-1.604-1.18-2.5-3.114-2.5-1.557 0-2.594.755-2.594 1.887 0 1.038.707 1.698 1.934 2.029l5.378 1.462c3.491.944 5.755 3.066 5.755 6.322 0 4.67-3.726 7.83-9.954 7.83zm26.372-6.322c.896 0 1.84-.047 2.5-.141v5.755c-1.038.189-2.736.378-4.812.378-3.396 0-8.067-.755-8.067-8.35V35.08h-3.585v-5.709h3.585v-6.746h7.218v6.746h5.142v5.709h-5.142v7.548c0 3.35 1.368 3.868 3.16 3.868zm15.71 6.228c-6.794 0-10.71-5.143-10.71-11.983 0-6.794 4.2-11.983 10.804-11.983 3.302 0 5.897 1.557 7.124 3.868v-3.255h7.17v22.74h-7.17v-3.209c-1.227 2.265-4.058 3.822-7.218 3.822zm2.075-5.992c3.586 0 5.426-2.689 5.426-5.991 0-3.255-1.84-5.944-5.426-5.944-3.35 0-5.425 2.5-5.425 5.944s2.076 5.991 5.425 5.991zm18.305-17.36h7.218v3.302c.99-2.265 3.35-3.916 6.51-3.916 4.057 0 6.133 1.793 7.124 4.199 1.226-2.453 3.915-4.199 7.265-4.199 6.51 0 8.067 4.482 8.067 9.247V52.11h-7.265V39.326c0-3.16-1.18-4.481-3.397-4.481-2.264 0-3.821 1.273-3.821 5.567v11.7h-7.265V39.278c0-3.16-1.132-4.434-3.35-4.434-2.311 0-3.868 1.273-3.868 5.567v11.7h-7.218v-22.74zm41.892 0h7.218v3.254c1.18-2.17 4.01-3.868 7.407-3.868 6.227 0 10.473 4.812 10.473 11.983 0 7.123-4.387 11.983-10.662 11.983-3.35 0-6.085-1.699-7.218-3.822v12.644h-7.218V29.372zm12.36 17.36c3.161 0 5.379-2.453 5.379-5.991 0-3.491-2.218-5.944-5.378-5.944-3.256 0-5.473 2.406-5.473 5.944 0 3.585 2.265 5.991 5.473 5.991zM368.254 29.795c-.405 0-.759-.09-1.06-.27a1.829 1.829 0 0 1-.697-.734 2.192 2.192 0 0 1-.243-1.034c0-.375.081-.717.243-1.027.163-.309.395-.553.696-.733.302-.18.656-.27 1.061-.27.4 0 .753.09 1.057.27.304.18.538.424.7.733.162.31.243.652.243 1.027 0 .38-.081.725-.243 1.034-.162.31-.396.554-.7.734-.304.18-.656.27-1.057.27zm0-.334c.325 0 .609-.077.852-.229.243-.152.43-.357.559-.616.13-.258.194-.545.194-.859 0-.31-.065-.593-.194-.852a1.507 1.507 0 0 0-.56-.616 1.573 1.573 0 0 0-.85-.228c-.325 0-.61.076-.853.228-.243.153-.43.358-.562.616a1.848 1.848 0 0 0-.198.852c0 .314.066.6.198.86.132.258.32.463.562.615.244.152.528.229.852.229zm-.722-2.807h.836c.213 0 .388.073.525.217a.73.73 0 0 1 .205.521.738.738 0 0 1-.125.422.666.666 0 0 1-.354.262l.464.73h-.373l-.425-.691h-.419v.692h-.334v-2.153zm.813 1.172a.391.391 0 0 0 .305-.126.441.441 0 0 0 .114-.308.451.451 0 0 0-.114-.316.391.391 0 0 0-.305-.125h-.471v.875h.471z"/>
    </g>
</svg>
