<svg width="137" height="136" viewBox="0 0 137 136" fill="none" xmlns="http://www.w3.org/2000/svg">
<circle cx="9.86431" cy="65.9823" r="7" transform="rotate(-40.1681 9.86431 65.9823)" fill="white" fill-opacity="0.3"/>
<circle cx="32.0247" cy="47.2762" r="7" transform="rotate(-40.1681 32.0247 47.2762)" fill="white" fill-opacity="0.3"/>
<circle cx="54.1854" cy="28.5702" r="7" transform="rotate(-40.1681 54.1854 28.5702)" fill="white" fill-opacity="0.3"/>
<circle cx="76.3458" cy="9.86414" r="7" transform="rotate(-40.1681 76.3458 9.86414)" fill="white" fill-opacity="0.3"/>
<circle cx="26.6351" cy="85.8505" r="7" transform="rotate(-40.1681 26.6351 85.8505)" fill="white" fill-opacity="0.3"/>
<circle cx="48.7957" cy="67.1444" r="7" transform="rotate(-40.1681 48.7957 67.1444)" fill="white" fill-opacity="0.3"/>
<circle cx="70.9561" cy="48.4384" r="7" transform="rotate(-40.1681 70.9561 48.4384)" fill="white" fill-opacity="0.3"/>
<circle cx="93.1168" cy="29.7323" r="7" transform="rotate(-40.1681 93.1168 29.7323)" fill="white" fill-opacity="0.3"/>
<circle cx="43.4061" cy="105.719" r="7" transform="rotate(-40.1681 43.4061 105.719)" fill="white" fill-opacity="0.3"/>
<circle cx="65.5665" cy="87.0126" r="7" transform="rotate(-40.1681 65.5665 87.0126)" fill="white" fill-opacity="0.3"/>
<circle cx="87.7271" cy="68.3065" r="7" transform="rotate(-40.1681 87.7271 68.3065)" fill="white" fill-opacity="0.3"/>
<circle cx="109.888" cy="49.6005" r="7" transform="rotate(-40.1681 109.888 49.6005)" fill="white" fill-opacity="0.4"/>
<circle cx="60.1768" cy="125.587" r="7" transform="rotate(-40.1681 60.1768 125.587)" fill="white" fill-opacity="0.3"/>
<circle cx="82.3372" cy="106.881" r="7" transform="rotate(-40.1681 82.3372 106.881)" fill="white" fill-opacity="0.3"/>
<circle cx="104.498" cy="88.1747" r="7" transform="rotate(-40.1681 104.498 88.1747)" fill="white" fill-opacity="0.3"/>
<circle cx="126.658" cy="69.4686" r="7" transform="rotate(-40.1681 126.658 69.4686)" fill="white" fill-opacity="0.3"/>
</svg>
