<?xml version="1.0" encoding="utf-8"?>
<!-- Generator: Adobe Illustrator 19.0.0, SVG Export Plug-In . SVG Version: 6.00 Build 0)  -->
<svg version="1.1" id="Layer_1" xmlns="http://www.w3.org/2000/svg" xmlns:xlink="http://www.w3.org/1999/xlink" x="0px" y="0px"
	 viewBox="0 0 1000 1000" style="enable-background:new 0 0 1000 1000;" xml:space="preserve">
<style type="text/css">
	.st0{fill:#7161DE;}
	.st1{fill:#EF489C;}
	.st2{clip-path:url(#XMLID_225_);fill:#EF489C;}
	.st3{clip-path:url(#XMLID_225_);fill:#CC2F86;}
	.st4{clip-path:url(#XMLID_225_);}
	.st5{fill:#FFFFFF;}
	.st6{fill:#FFFFFF;stroke:#FFFFFF;stroke-width:2;stroke-miterlimit:10;}
</style>
<g id="XMLID_221_">
	<path id="XMLID_219_" class="st0" d="M811.7,141.4c-45.7-13.6-93.5-20.4-141.1-20c-25.5,0.2-51.5,2.6-75.4,11.7
		c-46.1,17.7-79.3,58.2-119.6,87c-63.2,45.2-141.8,60.3-217,78.6S105.3,342,53.4,400.2C14.1,444.3-6,505.8,1.6,564.8
		c7.6,58.9,43.6,113.8,95.2,141.8c67.9,36.9,152.9,26.1,222.3,60.1c28.6,14,53.3,35.1,78.8,54.3c93.7,70.4,215.7,118.3,326.7,82.1
		c18.5-6,36.6-14.5,51.1-27.7c21-19.2,32.5-46.6,50.7-68.5c36.8-44.6,96.1-61.9,152.2-74c6.6-1.4,13.6-3,18.4-7.8
		c6.4-6.4,7-16.6,7.1-25.7c1.7-99,2.6-197.9,2.6-296.9c0-49.5-0.2-99-0.6-148.5c-0.1-12.1-0.2-24.2-0.4-36.3
		c-0.1-8.1,3.5-28.4-0.5-35.1c-6.8-11.3-32.6-2.1-44.9-2.5C908.6,178.8,860.5,156,811.7,141.4z"/>
	<path id="XMLID_218_" class="st1" d="M215.9,205.1h43.7c0,0,7.6-8.4,1.2-15.7h-19.8c-6.8,0-12.3-5.5-12.3-12.3
		c0-6.8,5.5-12.3,12.3-12.3h58.4c6.8,0,12.3,5.5,12.3,12.3c0,6.8-5.5,12.3-12.3,12.3h-19.2c-2.6,2.6-6.9,8.7,1.5,15.7h42.9
		c6.8,0,12.3,5.5,12.3,12.3c0,6.8-5.5,12.3-12.3,12.3H215.9c-6.8,0-12.3-5.5-12.3-12.3C203.6,210.7,209.2,205.1,215.9,205.1z"/>
	<path id="XMLID_217_" class="st1" d="M50,285h95.5c7.8,0,14.2-6.4,14.2-14.2l0,0c0-7.8-6.4-14.2-14.2-14.2H50
		c-7.8,0-14.2,6.4-14.2,14.2l0,0C35.8,278.6,42.2,285,50,285z"/>
	<path id="XMLID_216_" class="st1" d="M425.2,149.9h50.5c7.8,0,14.2-6.4,14.2-14.2l0,0c0-7.8-6.4-14.2-14.2-14.2h-50.5
		c-7.8,0-14.2,6.4-14.2,14.2l0,0C410.9,143.5,417.3,149.9,425.2,149.9z"/>
	<path id="XMLID_215_" class="st1" d="M14.2,197.3h17.3c7.8,0,14.2-6.4,14.2-14.2l0,0c0-7.8-6.4-14.2-14.2-14.2H14.2
		C6.4,168.8,0,175.2,0,183l0,0C0,190.9,6.4,197.3,14.2,197.3z"/>
	<g id="XMLID_222_">
		<g id="XMLID_232_">
			<defs>
				<path id="XMLID_6_" d="M811.7,141.4c-45.7-13.6-93.5-20.4-141.1-20c-25.5,0.2-51.5,2.6-75.4,11.7c-46.1,17.7-79.3,58.2-119.6,87
					c-63.2,45.2-141.8,60.3-217,78.6S105.3,342,53.4,400.2C14.1,444.3-6,505.8,1.6,564.8c7.6,58.9,43.6,113.8,95.2,141.8
					c67.9,36.9,152.9,26.1,222.3,60.1c28.6,14,53.3,35.1,78.8,54.3c93.7,70.4,215.7,118.3,326.7,82.1c18.5-6,36.6-14.5,51.1-27.7
					c21-19.2,32.5-46.6,50.7-68.5c36.8-44.6,96.1-61.9,152.2-74c6.6-1.4,13.6-3,18.4-7.8c6.4-6.4,7-16.6,7.1-25.7
					c1.7-99,2.6-197.9,2.6-296.9c0-49.5-0.2-99-0.6-148.5c-0.1-12.1-0.2-24.2-0.4-36.3c-0.1-8.1,3.5-28.4-0.5-35.1
					c-6.8-11.3-32.6-2.1-44.9-2.5C908.6,178.8,860.5,156,811.7,141.4z"/>
			</defs>
			<clipPath id="XMLID_225_">
				<use xlink:href="#XMLID_6_"  style="overflow:visible;"/>
			</clipPath>
			<path id="XMLID_214_" class="st2" d="M811.7,141.4c-45.7-13.6-93.5-20.4-141.1-20c-25.5,0.2-51.5,2.6-75.4,11.7
				c-46.1,17.7-79.3,58.2-119.6,87c-63.2,45.2-141.8,60.3-217,78.6S105.3,342,53.4,400.2C14.1,444.3-6,505.8,1.6,564.8
				c7.6,58.9,43.6,113.8,95.2,141.8c67.9,36.9,152.9,26.1,222.3,60.1c28.6,14,53.3,35.1,78.8,54.3c93.7,70.4,215.7,118.3,326.7,82.1
				c18.5-6,36.6-14.5,51.1-27.7c21-19.2,32.5-46.6,50.7-68.5c36.8-44.6,96.1-61.9,152.2-74c6.6-1.4,13.6-3,18.4-7.8
				c6.4-6.4,7-16.6,7.1-25.7c1.7-99,2.6-197.9,2.6-296.9c0-49.5-0.2-99-0.6-148.5c-0.1-12.1-0.2-24.2-0.4-36.3
				c-0.1-8.1,3.5-28.4-0.5-35.1c-6.8-11.3-32.6-2.1-44.9-2.5C908.6,178.8,860.5,156,811.7,141.4z"/>
			<path id="XMLID_373_" class="st3" d="M270.3,620.2V580h4.6v-14.5h-2.9v-41.7l-0.3-1.2l350.8-78.3c0-0.4-0.1-0.7-0.1-1.1
				c0-6,4.8-10.8,10.8-10.8c6,0,10.8,4.8,10.8,10.8c0,1.7-0.4,3.3-1.1,4.7l118.1,74.9l-0.7,1.1h0v41.7h-41.6h-41.6h-41.6v41.7v41.7
				v41.7v41.7V774v41.7v39.5v2.2v39.5v41.7h-41.6v-41.7v-39.5v-2.2v-39.5V774v-41.7v-41.7v-41.7v-41.7v-41.7h-41.6h-41.6h-39.4h-2.2
				h-37.2h-2.2h-37.2h-2.2H353h-2.2h-37.2h-2.2h-16.7V580h5.5v40.2h-5.5v9.3h5.5v10.4h-13.8v11.7h-2.8v-0.2
				c-1.4,0.6-2.8,1.4-3.9,2.4c-0.9,0.7-1.7,1.6-2.4,2.5c-0.4,0.4-0.6,0.9-1,1.4c-0.3,0.5-0.5,1-0.8,1.5c-0.9,2-1.4,4.2-1.5,6.4
				c0,2.2,0.5,4.4,1.4,6.3c1.8,3.9,5.5,7,9.8,8.1c4.3,1.2,9.3,0.3,13.4-2.5c-1.5,2-3.7,3.5-6.1,4.5c-2.4,1-5.2,1.3-7.8,0.9
				c-5.4-0.7-10.3-4.4-12.7-9.4c-1.2-2.5-1.7-5.3-1.5-8c0.2-2.7,1-5.4,2.4-7.7c1.4-2.3,3.4-4.2,5.7-5.5c1.6-0.8,3.2-1.4,4.9-1.7
				v-10.7h-13.3v-10.4h4.6v-9.3H270.3z M597.7,899.1l17,17l17-17H597.7z M633.2,900.7l-17,17l17,17V900.7z M631.6,936.3l-17-17
				l-17,17H631.6z M596.1,934.8l17-17l-17-17V934.8z M631.6,818h-34l17,17L631.6,818z M616.2,836.6l17,17v-34L616.2,836.6z
				 M596.1,819.6v34l17-17L596.1,819.6z M597.7,894.6h34l-17-17L597.7,894.6z M613.1,876l-17-17v34L613.1,876z M633.2,893.1v-34
				l-17,17L633.2,893.1z M614.7,874.5l17-17h-34L614.7,874.5z M631.6,855.2l-17-17l-17,17H631.6z M616.2,794.9l17,17v-34
				L616.2,794.9z M631.6,776.3h-34l17,17L631.6,776.3z M614.7,796.5l-17,17h34L614.7,796.5z M613.1,794.9l-17-17v34L613.1,794.9z
				 M616.2,753.2l17,17v-34L616.2,753.2z M631.6,734.6h-34l17,17L631.6,734.6z M614.7,754.8l-17,17h34L614.7,754.8z M613.1,753.2
				l-17-17v34L613.1,753.2z M616.2,711.5l17,17v-34L616.2,711.5z M631.6,692.9h-34l17,17L631.6,692.9z M614.7,713.1l-17,17h34
				L614.7,713.1z M613.1,711.5l-17-17v34L613.1,711.5z M616.2,669.8l17,17v-34L616.2,669.8z M631.6,651.2h-34l17,17L631.6,651.2z
				 M614.7,671.4l-17,17h34L614.7,671.4z M613.1,669.8l-17-17v34L613.1,669.8z M616.2,628.1l17,17v-34L616.2,628.1z M631.6,609.5
				h-34l17,17L631.6,609.5z M614.7,629.6l-17,17h34L614.7,629.6z M613.1,628.1l-17-17v34L613.1,628.1z M616.2,586.4l17,17v-34
				L616.2,586.4z M631.6,567.7h-34l17,17L631.6,567.7z M614.7,587.9l-17,17h34L614.7,587.9z M613.1,586.4l-17-17v34L613.1,586.4z
				 M274.2,561.7l17-17l-17-17V561.7z M292.8,543.1l17-17h-34L292.8,543.1z M616.2,544.6l17,17v-34L616.2,544.6z M631.6,526h-34
				l17,17L631.6,526z M614.7,546.2l-17,17h34L614.7,546.2z M613.1,544.6l-17-17v34L613.1,544.6z M631.6,484.3h-34l17,17L631.6,484.3
				z M597.7,521.5h34l-17-17L597.7,521.5z M616.2,502.9l17,17v-34L616.2,502.9z M596.1,520l17-17l-17-17V520z M758.1,527.6l-17,17
				l17,17V527.6z M756.6,526h-34l17,17L756.6,526z M756.6,563.3l-17-17l-17,17H756.6z M721,561.7l17-17l-17-17V561.7z M699.5,544.6
				l17,17v-34L699.5,544.6z M714.9,526h-34l17,17L714.9,526z M714.9,563.3l-17-17l-17,17H714.9z M679.4,561.7l17-17l-17-17V561.7z
				 M657.9,544.6l17,17v-34L657.9,544.6z M673.3,526h-34l17,17L673.3,526z M673.3,563.3l-17-17l-17,17H673.3z M637.7,561.7l17-17
				l-17-17V561.7z M677.1,523.8h41.6h39.3L641.6,450c-1.5,1.9-3.7,3.3-6.1,3.8v28.4v41.7H677.1z M574.6,544.6l17,17v-34L574.6,544.6
				z M590,526h-34l17,17L590,526z M590,563.3l-17-17l-17,17H590z M554.4,561.7l17-17l-17-17V561.7z M533,544.6l17,17v-34L533,544.6z
				 M548.4,526h-34l17,17L548.4,526z M548.4,563.3l-17-17l-17,17H548.4z M512.8,561.7l17-17l-17-17V561.7z M491.3,544.6l17,17v-34
				L491.3,544.6z M506.7,526h-34l17,17L506.7,526z M506.7,563.3l-17-17l-17,17H506.7z M471.2,561.7l17-17l-17-17V561.7z
				 M451.9,544.6l17,17v-34L451.9,544.6z M467.3,526h-34l17,17L467.3,526z M467.3,563.3l-17-17l-17,17H467.3z M431.8,561.7l17-17
				l-17-17V561.7z M412.5,544.6l17,17v-34L412.5,544.6z M427.9,526h-34l17,17L427.9,526z M427.9,563.3l-17-17l-17,17H427.9z
				 M392.4,561.7l17-17l-17-17V561.7z M373.1,544.6l17,17v-34L373.1,544.6z M388.5,526h-34l17,17L388.5,526z M388.5,563.3l-17-17
				l-17,17H388.5z M353,561.7l17-17l-17-17V561.7z M333.7,544.6l17,17v-34L333.7,544.6z M349.1,526h-34l17,17L349.1,526z
				 M349.1,563.3l-17-17l-17,17H349.1z M313.6,561.7l17-17l-17-17V561.7z M313.6,523.8h37.2h2.2h37.2h2.2h37.2h2.2h37.2h2.2h39.4
				h41.6h41.6v-41.7l36-28.7c-3.2-1-5.7-3.5-6.8-6.7l-345.4,77.1h33.7H313.6z M311.3,527.6l-17,17l17,17V527.6z M292.8,546.2l-17,17
				h34L292.8,546.2z M292.8,565.5h-16.1V580h16.1V565.5z M276.7,629.5h16.1v-9.3h-16.1V629.5z"/>
			<g id="XMLID_239_" class="st4">
				<path id="XMLID_367_" class="st5" d="M771,758.5v61.8h-61.7v-61.8H771z M742.6,789.4l25.2,25.2v-50.4L742.6,789.4z M765.4,761.9
					H715l25.2,25.2L765.4,761.9z M740.2,791.8L715,817h50.3L740.2,791.8z M737.9,789.4l-25.2-25.2v50.4L737.9,789.4z"/>
				<path id="XMLID_361_" class="st5" d="M771,817v61.8h-61.7V817H771z M742.6,847.8l25.2,25.2v-50.4L742.6,847.8z M765.4,820.3H715
					l25.2,25.2L765.4,820.3z M740.2,850.2L715,875.4h50.3L740.2,850.2z M737.9,847.8l-25.2-25.2V873L737.9,847.8z"/>
				<path id="XMLID_355_" class="st5" d="M771,878.7v61.8h-61.7v-61.8H771z M742.6,909.6l25.2,25.2v-50.4L742.6,909.6z M765.4,882
					H715l25.2,25.2L765.4,882z M740.2,911.9L715,937.1h50.3L740.2,911.9z M737.9,909.6l-25.2-25.2v50.4L737.9,909.6z"/>
				<path id="XMLID_349_" class="st5" d="M771,696.8v61.8h-61.7v-61.8H771z M742.6,727.7l25.2,25.2v-50.4L742.6,727.7z M765.4,700.1
					H715l25.2,25.2L765.4,700.1z M740.2,730L715,755.2h50.3L740.2,730z M737.9,727.7l-25.2-25.2v50.4L737.9,727.7z"/>
				<path id="XMLID_343_" class="st5" d="M771,635v61.8h-61.7V635H771z M742.6,665.9l25.2,25.2v-50.4L742.6,665.9z M765.4,638.3H715
					l25.2,25.2L765.4,638.3z M740.2,668.2L715,693.4h50.3L740.2,668.2z M737.9,665.9l-25.2-25.2v50.4L737.9,665.9z"/>
				<path id="XMLID_337_" class="st5" d="M771,573.3V635h-61.7v-61.8H771z M742.6,604.1l25.2,25.2v-50.4L742.6,604.1z M765.4,576.6
					H715l25.2,25.2L765.4,576.6z M740.2,606.5L715,631.7h50.3L740.2,606.5z M737.9,604.1l-25.2-25.2v50.4L737.9,604.1z"/>
				<path id="XMLID_331_" class="st5" d="M771,511.5v61.8h-61.7v-61.8H771z M742.6,542.4l25.2,25.2v-50.4L742.6,542.4z M765.4,514.8
					H715l25.2,25.2L765.4,514.8z M740.2,544.7L715,569.9h50.3L740.2,544.7z M737.9,542.4l-25.2-25.2v50.4L737.9,542.4z"/>
				<path id="XMLID_325_" class="st5" d="M771,449.7v61.8h-61.7v-61.8H771z M742.6,480.6l25.2,25.2v-50.4L742.6,480.6z M765.4,453.1
					H715l25.2,25.2L765.4,453.1z M740.2,483L715,508.2h50.3L740.2,483z M737.9,480.6l-25.2-25.2v50.4L737.9,480.6z"/>
				<path id="XMLID_319_" class="st5" d="M771,388v61.8h-61.7V388H771z M742.6,418.9l25.2,25.2v-50.4L742.6,418.9z M765.4,391.3H715
					l25.2,25.2L765.4,391.3z M740.2,421.2L715,446.4h50.3L740.2,421.2z M737.9,418.9l-25.2-25.2v50.4L737.9,418.9z"/>
				<path id="XMLID_313_" class="st5" d="M586.1,388h-61.7v-61.8h61.7V388z M555.2,359.5l-25.2,25.2h50.3L555.2,359.5z M582.7,382.3
					v-50.4l-25.2,25.2L582.7,382.3z M552.9,357.1l-25.2-25.2v50.4L552.9,357.1z M555.2,354.8l25.2-25.2h-50.3L555.2,354.8z"/>
				<path id="XMLID_307_" class="st5" d="M527.7,388h-61.7v-61.8h61.7V388z M496.9,359.5l-25.2,25.2H522L496.9,359.5z M524.4,382.3
					v-50.4l-25.2,25.2L524.4,382.3z M494.5,357.1l-25.2-25.2v50.4L494.5,357.1z M496.9,354.8l25.2-25.2h-50.3L496.9,354.8z"/>
				<path id="XMLID_301_" class="st5" d="M469.4,388h-61.7v-61.8h61.7V388z M438.6,359.5l-25.2,25.2h50.3L438.6,359.5z M466.1,382.3
					v-50.4l-25.2,25.2L466.1,382.3z M436.2,357.1L411,331.9v50.4L436.2,357.1z M438.6,354.8l25.2-25.2h-50.3L438.6,354.8z"/>
				<path id="XMLID_295_" class="st5" d="M411,388h-61.7v-61.8H411V388z M380.2,359.5l-25.2,25.2h50.3L380.2,359.5z M407.7,382.3
					v-50.4l-25.2,25.2L407.7,382.3z M377.9,357.1l-25.2-25.2v50.4L377.9,357.1z M380.2,354.8l25.2-25.2h-50.3L380.2,354.8z"/>
				<path id="XMLID_289_" class="st5" d="M352.7,388h-61.7v-61.8h61.7V388z M321.9,359.5l-25.2,25.2H347L321.9,359.5z M349.4,382.3
					v-50.4l-25.2,25.2L349.4,382.3z M319.5,357.1l-25.2-25.2v50.4L319.5,357.1z M321.9,354.8l25.2-25.2h-50.3L321.9,354.8z"/>
				<path id="XMLID_283_" class="st5" d="M294.4,388h-61.7v-61.8h61.7V388z M263.5,359.5l-25.2,25.2h50.3L263.5,359.5z M291.1,382.3
					v-50.4l-25.2,25.2L291.1,382.3z M261.2,357.1L236,331.9v50.4L261.2,357.1z M263.5,354.8l25.2-25.2h-50.3L263.5,354.8z"/>
				<path id="XMLID_277_" class="st5" d="M647.7,388h-61.7v-61.8h61.7V388z M616.9,359.5l-25.2,25.2H642L616.9,359.5z M644.4,382.3
					v-50.4l-25.2,25.2L644.4,382.3z M614.5,357.1l-25.2-25.2v50.4L614.5,357.1z M616.9,354.8l25.2-25.2h-50.3L616.9,354.8z"/>
				<path id="XMLID_271_" class="st5" d="M709.4,388h-61.7v-61.8h61.7V388z M678.5,359.5l-25.2,25.2h50.3L678.5,359.5z M706.1,382.3
					v-50.4l-25.2,25.2L706.1,382.3z M676.2,357.1L651,331.9v50.4L676.2,357.1z M678.5,354.8l25.2-25.2h-50.3L678.5,354.8z"/>
				<path id="XMLID_265_" class="st5" d="M771,388h-61.7v-61.8H771V388z M740.2,359.5L715,384.7h50.3L740.2,359.5z M767.7,382.3
					v-50.4l-25.2,25.2L767.7,382.3z M737.9,357.1l-25.2-25.2v50.4L737.9,357.1z M740.2,354.8l25.2-25.2H715L740.2,354.8z"/>
				<path id="XMLID_259_" class="st5" d="M771,326.2h-61.7v-61.8H771V326.2z M740.2,297.7L715,322.9h50.3L740.2,297.7z M767.7,320.6
					v-50.4l-25.2,25.2L767.7,320.6z M737.9,295.4l-25.2-25.2v50.4L737.9,295.4z M740.2,293l25.2-25.2H715L740.2,293z"/>
				<path id="XMLID_253_" class="st5" d="M832.7,388H771v-61.8h61.7V388z M801.9,359.5l-25.2,25.2H827L801.9,359.5z M829.4,382.3
					v-50.4l-25.2,25.2L829.4,382.3z M799.5,357.1l-25.2-25.2v50.4L799.5,357.1z M801.9,354.8l25.2-25.2h-50.3L801.9,354.8z"/>
				<path id="XMLID_247_" class="st5" d="M894.4,388h-61.7v-61.8h61.7V388z M863.5,359.5l-25.2,25.2h50.3L863.5,359.5z M891,382.3
					v-50.4l-25.2,25.2L891,382.3z M861.2,357.1L836,331.9v50.4L861.2,357.1z M863.5,354.8l25.2-25.2h-50.3L863.5,354.8z"/>
				<path id="XMLID_241_" class="st5" d="M956,388h-61.7v-61.8H956V388z M925.2,359.5L900,384.7h50.3L925.2,359.5z M952.7,382.3
					v-50.4l-25.2,25.2L952.7,382.3z M922.8,357.1l-25.2-25.2v50.4L922.8,357.1z M925.2,354.8l25.2-25.2H900L925.2,354.8z"/>
				<polygon id="XMLID_10_" class="st6" points="709.4,264.5 771,215.5 771,264.5 				"/>
			</g>
			<g id="XMLID_236_" class="st4">
				<ellipse id="XMLID_9_" class="st5" cx="767.7" cy="206.8" rx="16" ry="16"/>
				<ellipse id="XMLID_8_" class="st5" cx="767.7" cy="206.8" rx="8" ry="8"/>
			</g>
			<g id="XMLID_234_" class="st4">
				<polygon id="XMLID_7_" class="st5" points="233.1,328 767.4,208.8 955,327.8 957,324.7 768.1,204.9 232.3,324.4 				"/>
			</g>
		</g>
		<g id="XMLID_223_">
			<g id="XMLID_224_">
				<path id="XMLID_5_" class="st5" d="M283,533.9c-0.2-4.1-1.3-8-3.2-11.4c-1.9-3.4-4.5-6.2-7.5-8.1c-2-1.3-4.3-2.1-6.5-2.5V496
					H262v17.3h3.7V513c1.9,0.9,3.6,2.1,5.1,3.6c1.2,1.1,2.2,2.3,3.1,3.7c0.5,0.6,0.8,1.4,1.3,2.1c0.4,0.7,0.7,1.5,1.1,2.2
					c1.2,3,1.9,6.3,1.9,9.5c0,3.2-0.6,6.5-1.8,9.4c-2.4,5.8-7.2,10.4-12.9,12c-5.7,1.7-12.2,0.4-17.6-3.7c2,2.9,4.8,5.2,8,6.7
					c3.2,1.4,6.8,1.9,10.3,1.3c7.1-1,13.6-6.5,16.6-13.9C282.4,542,283.2,537.9,283,533.9z"/>
				<g id="XMLID_229_">
					<rect id="XMLID_4_" x="276.7" y="385.8" class="st5" width="2.8" height="102.5"/>
				</g>
				<g id="XMLID_227_">
					<rect id="XMLID_3_" x="250.2" y="385.8" class="st5" width="2.8" height="102.5"/>
				</g>
				<rect id="XMLID_2_" x="243.4" y="407.3" class="st5" width="44.2" height="59.5"/>
				<rect id="XMLID_1_" x="243.4" y="480.6" class="st5" width="44.2" height="15.3"/>
			</g>
		</g>
	</g>
</g>
</svg>
