<?xml version="1.0" encoding="utf-8"?>
<!-- Generator: Adobe Illustrator 19.0.0, SVG Export Plug-In . SVG Version: 6.00 Build 0)  -->
<svg version="1.1" xmlns="http://www.w3.org/2000/svg" xmlns:xlink="http://www.w3.org/1999/xlink" x="0px" y="0px"
	 viewBox="0 0 1122 1122" style="enable-background:new 0 0 1122 1122;" xml:space="preserve">
<style type="text/css">
	.st0{opacity:0.15;fill:#D8D8D8;}
	.st1{fill:#282425;}
	.st2{fill:#292828;}
	.st3{fill:#EF489C;}
	.st4{fill:#B6606A;}
	.st5{fill:#ECB6B2;}
	.st6{fill:#ECD8DA;}
	.st7{fill:#DC9791;}
	.st8{fill:#BCA5A4;}
	.st9{fill:#B9646D;}
	.st10{fill:#578464;}
	.st11{fill:#4B585E;}
	.st12{fill:#211E1D;}
	.st13{fill:#F6ECE5;}
	.st14{fill:#97469E;}
	.st15{fill:#384549;}
	.st16{fill:#EDCCBC;}
	.st17{fill:#2E3A3D;}
	.st18{fill:#E8C6BA;}
	.st19{fill:#E1BBA1;}
	.st20{fill:#DBB69D;}
	.st21{fill:#CD546A;}
	.st22{fill:#DAB093;}
	.st23{fill:#2B2624;}
	.st24{fill:#2A2624;}
	.st25{fill:#322D2A;}
	.st26{fill:#2F2927;}
	.st27{fill:#B47565;}
	.st28{fill:#242C42;}
	.st29{fill:#222C51;}
	.st30{fill:#ECE3E2;}
	.st31{fill:#603B37;}
	.st32{fill:#F79737;}
	.st33{fill:#BB7E70;}
	.st34{fill:#C58778;}
	.st35{fill:#F4D1D9;}
	.st36{fill:#DECDCC;}
	.st37{fill:#B47667;}
	.st38{fill:#B37668;}
	.st39{fill:#2C3253;}
	.st40{fill:#BB7F70;}
	.st41{fill:#BB7C6C;}
	.st42{fill:#6B535E;}
	.st43{fill:#755A61;}
	.st44{fill:#B2776A;}
	.st45{fill:#DB96BE;}
	.st46{fill:#AA6B5C;}
	.st47{fill:#633D39;}
	.st48{fill:#633E39;}
	.st49{fill:#58423F;}
	.st50{fill:#57423F;}
	.st51{fill:none;}
</style>
<g id="Shadow">
	<path class="st0" d="M14.1,1057.4c-3.4,33.5,65.1,22.4,76.1,27.6c11,5.2,20.8,16.4,31.6,22.5c20,11.3,41.6,4.4,62.4-0.5
		c40-9.5,80.3-11.4,120.6-13.3c42.7-2,85.9-3.9,127.5,13c17.2,7,34.4,17.2,52,14.9c15.1-2,29.3-13.1,44-19.6
		c28-12.3,57.9-10.2,85.3,3.1c27.2,13.3,57,8,81.8-16.5c4.4-4.3,8.8-9.3,13.8-9.5c3.2-0.1,6.2,1.8,9.2,3.6
		c33.3,20,69.6,29.7,103.9,15c10.6-4.5,20.8-11.4,31.6-13.9c11.4-2.7,23-0.5,34.4,1.8c26,5.1,52.1,10.1,78.1,15.2
		c22.3,4.3,45.6,8.3,67.7-0.2c11.2-4.3,19.7-15.8,30-22c10.4-6.3,23.1-4.7,34.3-6c8.4-1,18.9-4.9,20.7-19.5
		c2.3-19.2-12.4-29.1-23.5-30.6c-13.6,0-24.7-9.5-38.1-12.8c-13.4-3.3-27-2-40.4,0.4c-26.7,4.8-53.3,15.7-80.3,13.3
		c-24.4-2.1-48.3-15.5-72.7-15.7c-32.4-0.3-63.6,22.4-96,23.7c-50.3,2-93.7-47.3-144.4-45.9c-15.8,0.4-31.4,6.5-46.9,12.5
		c-28.5,11.1-55.8,26.6-85.1,20.2c-25.1-5.4-49.4-19.6-74.5-23.6c-38.4-6.2-76.6,11.3-114.9,17.6c-52.5,8.5-105-4.2-157.5-2.5
		c-28.3,0.9-56.8,2.9-84.5,13.4C50.4,1026.8,16.4,1034.9,14.1,1057.4z"/>
</g>
<g id="Object_1_">
	<g id="_x32_i4F6x_1_">
		<g>
			<path class="st1" d="M650.5,1083.5c-3-2.8-6.5-5.1-9.3-8.2c-5.4-5.9-7.5-13.4-10.2-20.6c-1.5-3.9-2.4-8.1-3.7-12.1
				c-0.3-1.2-1.4-2.5,1.1-2.4c5.2,1.8,9.6,5.3,14,8.4c7.4,5.1,13.5,4.4,20.2-0.9c3.5-2.9,7.1-5.9,11.7-7.2c1.3,0.5,0.9,1.7,0.8,2.6
				c-1.6,15-7.4,27.9-18.7,38.1c-1.2,1-2.8,1.6-4.2,2.4C651.6,1083.5,651,1083.5,650.5,1083.5z"/>
			<path class="st2" d="M592.8,539.4c-1.3,14.6,0.1,29.1,0,43.6c-0.1,20.5-1.5,40.9-3.3,61.3c-2,23.1-3.9,46.1-6.1,69.2
				c-2.1,21.1-5,42-7.8,63c-3.6,26.9-8.1,53.6-11,80.6c-1.7,15.7-3.4,31.4-3.4,47.3c0,11.7-2,23.3-3.2,35
				c-1.5,14.7-2.1,29.6-4.2,44.2c-0.7,4.9-1.2,9.8-1.9,14.7c-0.4,2.7-1.2,5.2-3.4,7c-1.4,1.7-3.3,2.1-5.3,2.1
				c-9.3,0.1-18.7,0.4-28-0.1c-3.4-0.2-7.5,0.2-9.6-3.8c-1.8-3.3-0.4-6.6-0.4-10c0.1-18.2,1.8-36.4,2-54.6
				c0.3-26.3,0.2-52.5-1.4-78.7c-0.8-13.4-0.9-26.8-1.6-40.2c-0.6-12.2-2.9-24.4-4.5-36.5c-3.2-24.1-6.6-48.1-8.2-72.3
				c-2.3-34.2,0-68.4-0.4-102.6c-0.4-38.6,0.4-77.2-1-115.8c2.2-0.3,3.6-1.6,5.1-3.2c8.5-9.1,14.3-20.1,21.8-29.9
				c0.3-0.4,0.6-0.9,1-1.4c1.6-2.4,4.2-4.5,4.6-7.4c0.4-3.2-3.4-4.2-4.7-6.6c-0.2-0.4-0.4-0.8-0.4-1.2c0.5-4.7-0.6-9.2-1.5-13.7
				c-0.7-3.9-2.3-7-6.4-8.3c-4.1-11.1-3.1-12.5,8.4-11.7c8.3,0.6,16.7,1.2,24.8,3.2c11.4,2.9,22.6,2,34,0.8
				c17.4-1.8,34.8-3.8,52.2-5.9c14-1.7,28.1-3.1,42-5.9c3.1-0.6,6.1-1.4,8.7-3.2c2.7-1.9,4.4-1,5.6,1.9c1.3,3.1,2.4,6.3,3.4,9.6
				c6.4,22.6,11,45.6,15.1,68.7c0.2,1,0.3,2,0.1,3c-3.6,5.5-1.6,11.5-1.1,17.2c0.3,2.9,0.7,5.9,0.6,8.8c-0.2,4.6,1.4,8,6.2,9.3
				c1.9,1.8,0.8,3.7,0.2,5.5c-2,5.8-4.8,11.1-8.3,16.1c-1.5,2.2-3.1,4.4-4.3,6.8c-0.8,1.8-2.1,3.8-0.4,5.5c1.8,1.9,3.7,0.3,5.3-0.7
				c3.6-2.2,6.9-4.9,9.9-7.9c1-1,1.8-2.7,3.4-2c1.8,0.8,1.1,2.7,0.8,4.1c-2.2,10.5-3.9,21.1-9.5,30.6c-1.4,2.4-3.2,5.9-0.2,8.1
				c2.9,2.2,5.1-0.9,7.2-2.7c0.7-0.7,1.5-1.6,2.5-1.4c3.2,0.7,5.6-1.4,8.4-2.3c1.2,0.3,1.3,1,0.8,2c-2.5,19.4-5,38.9-10.1,57.9
				c-4.9,18.1-6.9,36.8-9.4,55.4c-3.9,29.1-8.4,58.1-12.2,87.2c-2,15.5-3.2,31.2-4.8,46.8c-1.1,10.8-2.1,21.6-3.5,32.4
				c-1.8,14.6-1.9,29.4-1.7,44c0.3,21.1-2.7,42-4.6,62.9c-0.9,9.8-1.3,19.7-2.2,29.6c-0.4,4.8,0.4,10-3.7,13.9
				c-1.2,1.6-3,1.5-4.6,1.5c-10,0.1-20.1,0.2-30-1c-3-0.4-5.7-1.5-8.3-2.8c-3.4-1.1-3.8-3.8-3.6-6.8c0.9-13.4,2.3-26.8,2.4-40.2
				c0.2-15.3,1.8-30.5,1-45.7c-0.9-17.5-2.1-34.9-3.7-52.4c-1.1-12.2-2.2-24.5-2.3-36.8c-0.1-16.7-1.7-33.3-3-49.9
				c-1.2-15.4-1.9-30.7-2.9-46.1c-1.3-19.2-2.8-38.3-4.7-57.4c-1.8-17.6-3-35.2-4.6-52.7c-1.9-21.1-3-42.3-6.7-63.1
				c-1.5-8.6-4.7-16.8-7.7-25c-1.5-0.5-1.1,0.7-1.1,1.4C593,534.1,593.5,536.8,592.8,539.4z"/>
			<path class="st3" d="M703.1,481.6c-4.3-24.6-9-49.1-16-73.1c-0.2-0.7-0.4-1.3-0.6-2c-1-2.6-1.3-6.1-3.2-7.7c-2.4-2-4.3,2-6.9,2.7
				c-8.8,2.2-17.7,3.4-26.7,4.5c-17.3,2.2-34.7,4.4-52.1,6.4c-12.3,1.4-24.7,2.8-37.1,3.6c-8.2,0.6-16.1-2.6-24.2-3.5
				c-8.7-1-17.4-1.9-26-2.9c-2-0.2-1.7,0.9-1.5,2c0.6,3.2,1.2,6.4,1.8,9.6c-1.8,3.1-5.1,3.9-8.1,5c-13.3,5.3-25.2,13.3-37.3,20.7
				c-1.3,0.8-2.4,2.1-4.2,1.6c-7.9-16.2-13.6-33-15.4-51c-1-10.1-1.9-20.1-2.6-30.2c-0.4-6.2-0.9-12.4-0.6-18.6
				c0.6-13.9,1.8-27.7,3.2-41.6c0.6-5.9,0.6-11.8,0.8-17.7c0.6-18.7,2.2-37.4,3.1-56c0.4-9.7,4.4-19.1,11.7-26.9
				c10-10.6,22-17.8,35.5-23c0.4-0.4,1-0.7,1.5-0.5c7.9,3,16.4,3,24.5,4.6c5.2,1,5.8,2,3.6,6.8c-2,4.3-4.2,8.6-6.7,12.8
				c-3.8,6.6-3.1,9.2,3.7,12.9c2.2,1.2,4.5,2.4,6.7,3.7C545,233,554,246.9,562,261.7c4.1,7.6,8.8,14.8,13.4,22.1
				c2,3.2,5.4,2.5,6.9-1.5c1.9-5,3.6-10.1,5.9-15c8.7-18.6,21.2-33.9,38.8-44.8c1.7-1,3.4-2,5.1-3.1c5.8-3.7,6.4-5.7,4-12
				c-1.6-4.4-4.2-8.3-6.2-12.5c-2.6-5.6-2.4-6.4,3.2-8.9c7.6-3.4,15.5-6.2,23.8-7.4c3.6-0.5,6.5-1.8,8-5.2
				c16.7,4.2,31.6,12,44.9,22.7c12.2,9.8,20.6,22.2,24.7,37.5c2.4,8.7,5.5,17.1,7.9,25.8c1.9,7,2.4,14.1,3,21.2
				c1,11.8,1,23.6,1.9,35.4c1.2,16.9,1,33.8,1.9,50.7c0.7,14.6-0.2,29.3,1.5,43.9c1.7,14.4,3.9,28.8,3.2,43.3
				c-0.4,8.9-0.5,18-2.4,26.8c-1.6,1.6-3.6,1.3-5.6,1.1c-13.5-1-26.9-1.4-40.4,0.2C704.6,482.2,703.8,482.2,703.1,481.6z"/>
			<path class="st4" d="M519,107.2c-0.6-6.2-1.9-12.2-4.5-18c-4.4-10.2-6.1-20.5-1.6-31.2c6.4-15.3,14.4-29.4,30.3-36.5
				c9-4,18.7-6.4,28.4-8.4c11.9-2.5,24-3.3,36.2-3.6c7.2-0.2,14.3-1.5,21.5-0.2c4.1,0.7,7.4,2.5,10.3,5.4c4.5,4.5,8.3,9.6,11.9,14.9
				c8,11.7,14.4,24.3,19.4,37.5c5.2,13.6,2.3,25.9-7.2,36.6c-9,10.3-19.1,19.6-27.7,30.3c-4.3,5.3-10.7,8.2-16.9,11.1
				c-2.9,1.4-6,2.6-8.5,4.7c-1.2,1.8-2.3,3.7-4.9,3.1c-2.6-0.6-3.3-2.8-3.7-5.1c-1.2-7.4-1.1-14.9-0.9-22.4c0.1-4.1,2-7.3,5.6-9.4
				c1.7-1,3.4-2,5.1-3.1c5.6-3.7,6.1-9.3,4.8-15c-0.5-2.3-2.3-4-4.7-4.3c-2.5-0.4-3.8,1.4-5,3.3c-6.1,10.1-6.3,10.1-15.8,2.9
				c-13.9-10.5-26.6-22.3-39-34.6c-3.9-3.9-6.8-8.7-9.7-13.3c-1.6-2.5-2.7-2.4-4.2,0c-3.4,5.4-3.7,11.5-4.6,17.5
				c-1.5,10.1-3,20.1-6.4,29.8c-1.2,3.3-2.9,6.1-5,8.8C520.8,109.5,519.5,109.6,519,107.2z"/>
			<path class="st5" d="M622.5,159c-1.3-0.8-2.7-1.5-3.9-2.4c-2.9-2-6.8-2.9-7.9-6.9c-1.8,0.8-3,3.5-5.5,2.2c-2.3-1.3-1.9-3.8-2.3-6
				c-0.9-5.5-0.5-11-0.9-16.5c-0.5-6.7,2-11.2,8.1-14.3c7.4-3.8,9.3-8.5,8.1-16.4c-0.5-3.4-2.6-5.8-5.8-6.6
				c-3.2-0.8-5.2,1.5-6.6,4.2c-0.4,0.9-0.9,1.8-1.3,2.7c-2.8,5.5-4.4,5.9-9.3,2.4c-8.2-5.8-15.7-12.4-23.2-19.1
				c-11.1-10-22.7-19.6-29.9-33.2c-1.4-2.6-2.3-1.8-3.4,0c-2,3.1-3.9,6.2-4.5,10c-1.4,8.6-2.6,17.3-4.3,25.8c-1.5,7.6-3,15.3-8,21.6
				c-0.4,0.5-0.8,1.2-1.2,1.5c-0.3,0.5-0.8,0.9-1.3,1.1c-0.3,0.7-0.9,1.2-1.6,1.6c-0.3,0.3-0.7,0.6-1.1,0.8c-1.3,1.2-2.9,2-4.3,3.1
				c-3.7,2.7-4.1,7.3-0.5,9.5c3.3,2,6.9,4.2,10.9,4.2c1.4,0,3.1,0.2,4,1.5c0.4,0.5,0.6,1.2,0.6,1.8c0.1,0.8-0.4,1.9,0.2,2.6
				c0.3,0.3,0.7,0.5,1.2,0.7c2.4,0.8,5,1.6,7.3,2.7c3.3,1.5,3.2,1.6,0.4,4c-2.3,2-5.2,2.8-7.4,4.7c0,1.1,0,2.2,0,3.4
				c0,6.8,1.5,8.7,8.2,9.8c2.9,0.5,5.8,0.2,8.8,0.3c1-0.2,2.4-1.6,2.6,0.9c-3.8,1.9-7.7,3.3-11.7,4.4c-0.3,3,1.9,4.9,3.1,7.2
				c5.9,10.5,12.4,20.6,16.5,32c1.7,4.6,2.9,9.5,4.8,14c6.2,15.3,11.3,31,15.2,47.2c0.5,1.9,0.2,5,2.9,4.9c2.3,0,2.2-3,2.6-4.8
				c6.3-28.4,18-54.7,30.3-80.8c3.1-6.6,6.9-13,10.4-19.4C623.7,163.4,625.4,161.1,622.5,159z"/>
			<path class="st6" d="M536.8,165.1c8,13.1,16.5,26.1,21.4,40.7c7.1,20.8,15.7,41.1,20.1,62.7c0.1,0.5,0.1,1.2,1.3,1.3
				c1.5-5.4,3.2-10.8,4.4-16.4c3.3-15.4,9.8-29.7,15.8-44.1c6.3-15.3,13.5-30.1,21.8-44.4c1-1.8,2.5-3.6,0.8-5.8
				c8.5-4.1,15.7-0.3,22.8,3.8c4.5,2.6,9.4,4.3,14.2,6.3c2.3,1,4.2,2.1,5.5,4.3c0.5,4.5-2.7,5.4-6.1,5.9c-9.4,1.4-18.3,4.5-26.9,8.4
				c-2.8,1.3-3.4,2.4-1.9,5.3c2.3,4.5,5.1,8.8,6.9,13.5c2.9,7.5,2.4,10.2-4.9,14.1c-7.9,4.3-14.6,10-21.3,15.8
				c-7.5,6.5-12.4,14.9-17.4,23.2c-4.3,7-7.4,14.6-9.7,22.4c-0.9,3.1-2.7,4.5-5.6,4.9c-2.9,0.4-3.1-2.3-4.2-3.9
				c-11-16-18.3-34.4-31.8-48.7c-4.7-5-10.6-8.4-16.4-11.8c-1.7-1-3.5-1.9-5.1-3c-4.8-3.2-5.4-5.4-2.8-10.6c2.6-5,5.3-10,7.9-15
				c2-4,1.8-4.5-2.8-5.2c-5.8-0.9-11.6-1.9-17.5-2.6c-3-0.3-5.5-2-8.4-2.6c-2.1-4.3-1.6-5.9,2.6-8c8.3-4.2,16.6-8.4,24.6-13.1
				c3.1-1.9,6.3-2.4,9.1,0.8C534,164.4,535.4,164.9,536.8,165.1z"/>
			<path class="st5" d="M724.4,576.8c-2.1,2.2-4.1,4.5-7.6,2.8c-1.3-0.6-1.7,0.5-2.3,1.2c-1,1.2-2,2.4-3.4,3.1
				c-1.8,1-3.7,1.5-5.6,0.3c-2.1-1.3-2-3.5-1.4-5.3c0.9-2.9,2-5.9,3.5-8.6c5.3-9.3,5.3-19.9,8-30c-3.8,3.5-7.5,6.9-11.7,9.8
				c-1.1,0.8-2.4,1.5-3.6,2.2c-1.6,0.8-3.3,0.8-4.7-0.6c-1.4-1.4-1.4-3.2-0.6-4.7c1.7-3.1,3.6-6.1,5.5-9c4.2-6.4,7.8-13,9.3-20.6
				c1.6-1.7,3.6-1.4,5.6-1.3c9.4,0.1,18.9,0.2,28.2-2c2.3-0.6,4.6-0.5,5.3,2.5c-0.6,9.1-0.8,18.3-1.8,27.3
				c-0.9,8.8-5.5,16.1-10.2,23.4c-0.4,0.6-1,1.1-1.3,1.7c-1.9,4-4.6,7-9.6,6.2C725.5,575.7,725.1,576.3,724.4,576.8z"/>
			<path class="st6" d="M748.9,516.5c-0.9-1.1-1.9-2.1-3.5-1.7c-11.7,3.5-23.6,2.3-35.5,2.6c-4.6,0.3-7-2.2-7.3-6.4
				c-0.5-7.6-1-15.1-2.1-22.6c-0.4-2.7,0.5-5,2.7-6.7c4.2-1.6,8.5-1.8,12.9-1.7c11.8,0.2,23.7-0.3,35.5,0.9c3,1.5,6.9,1.1,8.9,4.8
				c1.5,2.6,1.8,5.4,1.3,8.1c-0.8,4.5-2,9-3.3,13.4c-1,3.3-3.2,5.5-6.6,6.4C750,513.8,748.7,514.4,748.9,516.5z"/>
			<path class="st6" d="M461.2,448.5c15.6-10.8,32.2-19.7,49.5-27.3c2.6-0.9,4.1-0.2,5,2.7c1.9,6.4,4.1,12.6,2.5,19.4
				c1,2.3-0.7,3.4-2.1,4.6c-10.2,9.1-21.5,16.8-31.3,26.4c-1.1,1.1-2.5,1.8-4,2.2c-6.9,3.4-11.1,2.4-15.6-3.8
				c-2.1-2.9-4.2-5.9-6.3-9C454.1,456.5,454.5,453.9,461.2,448.5z"/>
			<path class="st5" d="M630.2,1006.3c14.2,3,28.6,2.6,43,2.2c1.8,10.6,2.6,21.2,1,31.9c-5.8,4.3-11.7,8.4-17.8,12.1
				c-2.7,1.6-5.2,1.7-8,0.2c-7-3.7-14-7.3-20-12.6c0.1-10,1-20,3.1-29.8C631.8,1008.6,631.6,1007.4,630.2,1006.3z"/>
			<path class="st5" d="M505.5,1003.5c2.1,1.5,4.6,2.1,7.2,2.3c11.9,0.9,23.9,1.6,35.8-0.5c0,0.9,0,1.8,0,2.6
				c-1.1,13.1-8.4,22.4-18.8,29.6c-3.3,2.2-6.5,4.6-9.2,7.4c-2.6,2.7-5.4,3.2-8.8,2.3c-4.4-1.2-8.7-2.3-13.1-3.5
				c-3.8-1.1-7.6-2-11.6-2.7c-2-0.3-4.4-0.3-5.4-2.6c5.7-6.9,11.4-13.8,17-20.8C501.9,1013.5,504.3,1008.8,505.5,1003.5z"/>
			<path class="st1" d="M481.5,1038.5c11,2.8,22.1,5.6,33.1,8.4c1.5,0.4,2.4-0.5,3.4-1.3c4.5-3.6,8.9-7.4,13.5-10.9
				c8.4-6.3,13.9-14.3,15.8-24.6c0.1-0.8,0.2-1.7,1.1-2.2c0.1,0.7,0.1,1.4,0.2,2.1c1.6,10.2-1.9,17.8-10.5,23.9
				c-6.7,4.8-13.3,10.1-19,16.3c-2.8,3-6.6,4.4-10.1,6.1c-11.2,5.3-22.4,10.8-34.9,12.4c-6.3,0.8-9.4-2.5-7.3-8.4
				c2.6-7,6.8-13.3,10.5-19.7C478.3,1039.1,479.9,1038.6,481.5,1038.5z"/>
			<path class="st5" d="M480.7,476.5c6.8-6.8,14.4-12.8,22-18.7c4.8-3.7,8.8-8.2,13.8-11.6c1-0.7,1.4-1.7,1.6-2.9
				c0.3,0.3,0.5,0.7,0.8,1c6.1,6.1,6.2,6.2,0.8,13.3c-8.7,11.4-15.5,24.1-25.4,34.6c-1.6,1.7-2.6,1.9-4.2,0.5
				c-0.4-2-1.5-3.6-2.8-5.1C484.3,484.4,482.8,480.2,480.7,476.5z"/>
			<path class="st7" d="M527.4,133.8c1.1-0.2,2.6,0.3,3.7,0.7c3.7,1.3,7,3.4,10.9,4c-2,1.5-3.9,3.2-5.9,4.8c-1,0.8-2.1,1.6-3.3,2.1
				c-0.6,0.3-3.2,1.5-3.9,1c-1-0.8-2.2-1.3-2.4-2.7c-0.2-1.4,0.5-2.3,1.5-3c0.4-0.3,0.7-0.5,1.2-0.7c0.3-0.1,0.7-0.1,0.9-0.3
				c-1.3,0.1-2.1-0.5-3.2-1c-0.8-0.4-1.3-0.4-1.4-1.4C525.4,135.9,526,134,527.4,133.8z"/>
			<path class="st5" d="M546,159.8c1.3-1.3,2.9-0.6,4.6-0.9c-0.4,1.3-1.3,1.4-2,1.7C547.9,159.7,546.9,160,546,159.8z"/>
			<path class="st8" d="M724.4,576.8c0.2-0.9,0.8-1.4,1.6-1.7c0.1,1.2,0.2,2.4-0.7,3.4C725,577.9,725.3,577,724.4,576.8z"/>
			<path class="st9" d="M554.3,76.2c-6-1.8-11.5-0.4-16.9,0C540.5,70.2,549.7,69.8,554.3,76.2z"/>
			<path class="st10" d="M546.8,95c-0.4,2-1.3,3.1-3.2,3c-1.9-0.1-2.9-1.2-2.7-3c0.2-1.7,1.3-2.9,3-2.9
				C545.8,92.1,546.5,93.6,546.8,95z"/>
		</g>
	</g>
	<g>
		<g id="XMLID_2_">
			<g>
				<path class="st11" d="M494.7,661.6v2.7c-0.8,3.4-0.9,7-0.8,10.5c0.4,23.8-2.8,47.3-5.9,70.8c-4.6,35.2-9.8,70.3-13.5,105.7
					c-1.3,12.9-2.5,25.8-3.8,38.7c-0.3,3-0.6,5.9-2.9,8.2c-1.6,1.2-3.4,0.7-5.1,0.2c-30.7-8.9-62.2-14.4-93.4-21.2
					c-7.7-1.7-15.5-3.2-23.2-5.1c-1.7-1.8-1.1-3.9-0.5-5.8c10-34.9,15.4-70.8,23.9-106.1c6.6-27.4,14.8-54.3,22.3-81.4
					c1-3.8,0.8-7-0.8-10.6c-5.8-13.2-10.7-26.8-17.3-39.7c-14.4-28.6-30-56.5-45.1-84.6c-3-5.5-6.5-10.7-9.7-16
					c-0.1-0.2-0.2-0.4-0.3-0.6c-0.5-0.8-1-1.5-1.4-2.3c-0.6-1-1-1.3-1.5-1.1c0,0,0,0-0.1-0.1c0.3-1.4-0.2-2.8-1.1-4
					c-0.8-1-1.6-1.8-2.5-2.7c-1.1-3.8-3.2-7.3-4.9-10.9c-3.8-8.2-7.8-16.3-8.2-25.5c-0.6-11.3,1.6-22.2,7.3-32.2
					c2.7-1.4,3.9,0.7,4.9,2.4c6.3,10.8,14.3,20.5,20.2,31.5c3.5,6.5,7.8,12.5,12.1,18.4c3,4.1,5.2,4.3,8.3,0.2
					c5.7-7.5,10.6-15.5,15.6-23.5c1.6-2.5,1.6-5.3,0.7-8.1c-0.5-1.7-1.7-3.7,0.8-5c3.1-0.6,6.2,0.3,9.2,0.9
					c20.1,4,40.4,7.4,60.9,8.9c1.6,0.1,3.2,0.6,4.5,1.7c1,0.9,1.5,2.2,1.9,3.5c8.1,26.8,17.7,53.2,24.4,80.4c0.7,3,1.4,6,2.3,9
					c3.1,17.6,9.2,34.4,13.8,51.6c3.5,12.8,7.7,25.4,8.2,38.8C494,660,494.1,660.9,494.7,661.6z"/>
			</g>
		</g>
		<path class="st12" d="M403.5,2c1.5,0,3,0,4.4,0c2.1,0.7,4.1,0.7,6.2,0c1.5,0,3,0,4.4,0c27.9,2.9,44.8,20,56.8,43.5
			c3.3,6.4,4.3,13.4,5,20.5c1.4,15.3-0.5,30.2-3.2,45.3c-3.9,21.9-8.4,43.7-11.3,65.8c-2.3,17.8-4.8,35.6-4.1,53.7
			c0.1,2.5,0.4,5-1,7.3c-2,1.8-3.6,0.3-5-0.9c-11.3-10-21.5-21-29.5-33.8c-5.4-8.7-7-18.6-6-28.9c0.5-4.5,1-9.1,1.5-13.6
			c0.6-4.6,2.3-8.2,7-9.7c6.7-2.9,9.4-9.4,12-15.3c10.1-22.9,14.6-46.9,11.8-72c-1.6-14.3-7.7-26.9-15.8-38.5
			c-4.9-7-9.8-7.7-16.6-2.4c-9.3,7.4-19.1,14.4-26,24.5c-5.6,8.1-6.8,17.4-7.8,26.9c-0.2,1.5-0.1,3-0.3,4.4c-0.9,4.8-3.3,6.9-8,5.8
			c-6.8-1.6-10,3-7.8,9.9c1.3,4.1,4.6,6.7,8.5,7.7c5.7,1.5,7.6,5.4,8.2,10.6c1.3,11.1,2,22.3,2.7,33.5c0,20-6.5,36.9-23,49.2
			c-6.3,4.7-13.4,7.2-21.2,8.1c-8.1,0.9-16.1,2.1-23.7,5c-3,1-4.5,3.5-6.1,6.1c-2.1,3.5-4.1,7.1-6,10.8c-1.1,2.2-2,5-5.1,4.7
			c-2.9-0.3-2.3-3.3-3.2-5.2c-3-17.5-1.1-34.6,4.5-51.5c4.2-12.8,6.7-26,10-39c6.2-25,14.2-49.4,24.9-72.7
			c6.9-15.1,16.2-28.8,27-41.3c7-8,16.5-12.8,26.2-16.9C397,2.3,400.4,3.1,403.5,2z"/>
		<path class="st13" d="M270.7,372.1c0.3,0,0.5-0.1,0.8,0c2.6,3.9,2.6,7.6,0,11.6c-0.3,0-0.5,0-0.8,0
			C270.7,379.8,270.7,375.9,270.7,372.1z"/>
		<path class="st12" d="M414.1,2c-2.1,1.4-4.1,1.5-6.2,0C410,2,412,2,414.1,2z"/>
		<path class="st14" d="M299.7,252.7c-2.8-1.1-3.2-3-2.6-5.9c0.9-4.4,2.8-8.4,4.9-12.4c1.3-2.6,2.8-3.8,4.6-5.9
			c1.9-2.2,3.1-5.8,4.6-8.3c1.7-3,3.3-6,5-9c1.1-2,2.5-3.7,5.1-3.6c7.6-0.9,14.4,1.7,20.5,5.6c19.3,12.4,40.7,21.4,58.7,35.9
			c2.4,2,5.4,2.4,8.3,2.7c15.5,1.8,30.8,5.1,46.4,6.1c4.4,0.3,8.8,0.7,13.2,1.1c2.6,0.2,4.9,0.7,6.9,2.4c4.4,3.3,4.1,8.5,4.2,12.9
			c0.1,15.3-1.2,30.5-8.3,44.6c-5.8,11.5-8.4,24.1-9.7,36.9c-2.3,22.4-5,44.8-4.5,67.3c0.3,14.4,1.9,28.8,1.8,43.2
			c0,3.5-0.6,6.7-3,9.3c-2.9,3.8-6.9,4.1-12.3,1c-9-1.1-18-2.5-27-3.3c-13.7-1.3-27.1-4.5-40.7-6.8c-2.5-0.4-4.9-0.9-7.3-1.3
			c-2.8,1.3-4.1-0.7-5.4-2.5c-1.8-2.7-3.2-5.7-4.3-8.7c-9-24.3-19.6-48.1-27.7-72.7c-0.9-2.8-2.3-5.5-1.9-8.5
			c3.3-14.8,7.8-29.3,10.7-44.2c0.4-1.9,0.6-3.8,0.8-5.7c0.7-1.7,0.8-3.6,0.7-5.4c0.3-7.4,3.8-13.8,6.8-20.4c1.3-3,2.7-5.9,3.7-9
			c1.6-4.8,0.9-6.5-3.3-9.2c-14-9-28.6-16.9-44-23.3C302.5,254.8,300.8,254.3,299.7,252.7z"/>
		<path class="st15" d="M299.8,882c2.1-1.6,5.6,0.6,6.8-1.7c1-1.8,0.3-4.6,0.5-7c4.2-39,4.9-78.2,5.3-117.4
			c0.4-33.8,1.5-67.5,2.7-101.3c1.3-35.8,1.3-71.7,0.4-107.5c-0.2-7.5-0.8-15-0.8-22.5c0.1-1.6,0.2-3.1,0.5-5.9
			c5.3,8.6,10.2,16.2,14.6,24.1c9.5,17.1,19.4,34.1,28.1,51.6c10.7,21.3,23.3,41.7,30.6,64.6c0.7,2.1,1.4,4.3,2.7,6.1
			c3.9,5.6,2.9,11.1,1.1,17.2c-6.3,21.8-12.4,43.6-18.3,65.5c-4.6,16.7-7.8,33.8-11.3,50.7c-4.6,22.3-8.9,44.7-15.4,66.5
			c-0.6,2.1-1,4.3-1.4,6.4c-6.6,1.1-10.1,6.1-13.4,11.3c-2,1.7-4.5,2.2-7,1.9c-7-0.8-14-0.8-21-0.8C302.8,883.7,301,883.6,299.8,882
			z"/>
		<path class="st16" d="M329.9,372.9c2.5,10.5,6.9,20.3,10.5,30.4c5.2,14.7,11.5,29,17.4,43.4c1.9,4.6,3.2,9.4,5.5,13.8
			c1.1,2.1,2.2,4.3,4.9,4.5c3.4,6.8,1.6,12.5-2.9,18.2c-4.6,5.9-8.3,12.5-12.6,18.7c-3.6,5.2-6.6,5.1-10.2-0.1
			c-11.5-16.2-21.1-33.6-32.4-50c-0.9-1.3-1.3-3-3-3.7c-2.4-7-7.1-12.5-11.1-18.4c-7.6-11.1-14.3-22.7-20.7-34.5
			c-2-3.7-2.8-7.7-3.8-11.7c0-3.9,0-7.7,0-11.6c4.3-29,11.8-57.3,19-85.7c2.9-11.3,5.6-22.6,9.2-33.6c8.4,2,15.9,6.1,23.5,10
			c9.1,4.7,17.8,10.3,26.8,15.3c3.8,2.1,4.8,4.9,3.5,8.8c-1,2.9-2.1,5.8-3.3,8.6c-3.2,7.1-7,13.9-7.9,21.8c-0.5,1.2-0.7,2.4-0.8,3.6
			c-4.4,12.8-8.6,25.7-13.4,38.3c-1,2.6-0.9,5.2,0.5,7.7C329.5,368.8,330,370.8,329.9,372.9z"/>
		<path class="st15" d="M332.6,881.2c1-0.7,0.7-1.9,1.1-2.8c2.2-5.5,6.2-8,12.2-6.9c9-0.6,17.3,2.8,25.9,4.6
			c24.4,5,48.7,10.4,73.1,15.8c7.6,1.7,15,4,22.5,6.1c1.1,0.3,2.3,0.6,3.4,0.9c4.1,1,5.1,2.9,3.7,6.7c-4.3,11.1-10.7,20.8-19.8,28.8
			c-3.5,3.1-7.4,4.8-12,4.6c-7.8-0.4-15.6-0.8-23.3-1.2c-15.7,1.4-30.6-4.3-45.9-6c-6.5-1.7-13.2-2.9-19.8-4.3
			c-5.5-1.2-10.6-3.3-15.6-5.9c-7.6-4-10.5-10.4-10-18.6c0.3-5.7,1.6-11.3,2.3-17C330.5,884,331.7,882.7,332.6,881.2z"/>
		<path class="st16" d="M443.3,476.6c4.1-0.7,8.5,2.4,12.3-1c4.3,21.6,8.9,43.1,12,64.9c1.4,9.4,3.3,18.8,3,28.4
			c-7.6-30.3-17.9-59.8-26.9-89.7C443.5,478.3,443.4,477.5,443.3,476.6z"/>
		<path class="st2" d="M344.1,1076.1c-1.5,0-2.9,0-4.4,0c-2.8-0.3-5.5-0.5-8.3-0.8c-4.3-0.5-6.4-3.3-6.8-7.3c-0.4-5-0.5-10-1.1-14.9
			c-0.3-2.8,0.3-4.5,3-5.3c1.1-1.2,2.5-1.4,4-1.2c10.2,0.8,20.5-0.2,30.8,0.9c6.1,0.6,12.2-1.3,18.3-1.9c1.2-0.2,2.6,0.1,3.9-0.9
			c-2.2-2.1-4.6-4-6.9-5.9c-11-9.7-20.8-20.4-29.1-32.5c-3.6-5.2-4-10.3-0.5-15.6c2-3.1,3.3-6.6,5.2-9.7c1.7-2.8,4-4.7,7.6-4.3
			c2.9,0.6,4.9,2.5,6.9,4.5c6.8,6.9,12.8,14.6,19.7,21.5c7.9,7.8,16.4,14.8,24.9,21.8c1.2,1,2.6,2,4,2.8c6.2,3.7,6.2,3.7,9.3-2.5
			c0.8-1.6,1.8-3.1,3.7-3.5c6.2-3.9,9.7-3.1,13.5,3.1c2.8,4.7,6.4,8.8,10.3,12.6c5.4,5.3,9.9,11.3,13.8,17.8c0.9,1.5,1.6,3.2,2,4.9
			c1.7,6.3-1.2,10.2-7.7,10.4c-4.6,0.1-9.1,0-13.7-0.2c-20.3-1.1-40.3,1.9-60.3,3.9c-11.9,1.1-23.8,1.7-35.7,2.6
			C348.3,1076.1,346.2,1076.1,344.1,1076.1z"/>
		<path class="st17" d="M332.6,881.2c-0.9,9-3.7,17.7-2.8,26.9c0.6,5.7,3.8,9,8.3,11.7c9.6,5.8,20.5,6.9,31.1,9.2
			c1.6,0.4,3.2,0.6,4.2,2c2,4.5-0.1,12.8-4,15.9c-3.7,1.4-7.3-0.2-10.9-0.2c-6.6,0-13.2,0-19.8,0c-2.2,0-4.4,0-6.2-1.6
			c-11-0.3-22.1,0.9-33-1.7c-5.4-1.3-8.6-3.9-9.6-9.4c-2.7-13.7-4-27.7-5.2-41.6c-0.4-4.4,1.6-7.3,6-8.5c3-0.8,5.8-2,9-1.8
			c8.9,0.3,17.9-0.4,26.8,0.9C328.8,883.3,330.9,882.7,332.6,881.2z"/>
		<path class="st18" d="M332.6,945c12.4,0.1,24.8-0.4,37.2,0.8c1.3,1.4,1,3,0.6,4.5c-2.3,8.6-5.7,16.8-8.6,25.2
			c-0.3,0.8-0.9,1.5-1.7,1.9c-3.5-0.4-5.5,1.5-7,4.3c-2.2,4-4.4,8-6.5,12c-1.8,3.5-1.1,6.7,1,10c8,12.1,17.9,22.6,28.5,32.5
			c0.5,0.5,0.9,1.1,1.4,1.6c1.2,3,4.8,4.8,3.8,8.7c-8.4,1.6-16.7,3.1-25.3,2.1c-5.5-0.6-11.2-0.2-16.7-0.1c-4.3,0.1-8.5-0.5-12.7-1
			c2-12.7,6.9-24.6,9-37.3c2.4-14.4,1.6-28.8,0.2-43.1C335,959.9,333.7,952.5,332.6,945z"/>
		<path class="st16" d="M388.4,146.3c-1-12-1.5-24.1-3.3-36.1c-0.5-3.3-1.8-5-5.2-6c-8.3-2.3-12.6-7.9-12.2-14.7
			c0.4-5.3,4.4-8.2,9.5-6.8c5.5,1.5,7,0.5,7.6-5.3c0.5-4.2,0.6-8.5,1.3-12.7c1.4-9.1,5.1-17.1,11.5-23.9
			c8.3-8.6,16.9-16.7,27.7-22.2c2.7-1.4,5-0.9,7.4,0.7c3.3,2.3,5.9,5.3,8,8.7c12.1,19.4,16.1,40.3,13.4,63
			c-2.3,19.2-6.7,37.6-16.8,54.3c-1.9,3.2-4,6.2-8,7.2c-2,0.4-3.9,1-5.7,2.1c-4,2.2-8.4,1.3-12.5,0.4
			C403.1,153.4,394.9,152.1,388.4,146.3z"/>
		<path class="st18" d="M388.4,146.3c5.4,1.2,10.1,4.2,15.6,5.6c7.6,1.9,15,3.7,22.7,0.8c0.8-0.3,1.7-0.1,2.6-0.1
			c-4.2,1.2-5.5,4.2-6.1,8.3c-2.2,15.3-4,30.5,5.7,44.2c6,8.4,12.5,16.4,19.9,23.6c3.5,3.4,6.7,7.4,11.3,9.6
			c6.2,6.9,12.4,13.8,15.1,22.9c-11.2-1.1-22.5-2.1-33.7-3.4c-12.7-1.6-25.3-3.5-38-5.4c-1-0.1-2-0.7-2.7-1.3
			c-13.5-11.1-29.1-18.9-44.2-27.4c-4.2-2.4-8.4-4.8-12.4-7.6c-6.9-4.9-15-6.6-22.9-8.6c6.9-3.6,14.7-4.7,22.2-5
			c22.7-0.9,42.7-23.5,44.3-46.5C387.9,152.8,388.2,149.6,388.4,146.3z"/>
		<path class="st16" d="M360.1,977.6c1.5-7.9,5.3-15.1,7.5-22.8c0.8-2.9,1.5-5.9,2.2-8.9c2-4.8,3.1-9.8,3.6-14.9
			c0.7-0.6,1.3-1.1,2.3-0.9c14.4,3.2,28.9,5.6,43.5,7.6c-1.8,0.1-3.2,0.6-4,2.7c-4.6,12-8.3,24.2-10.1,37
			c-0.8,5.8,0.9,11.1,3.4,16.2c5,10.3,11.3,19.6,19.6,27.6c-2.6,3.3-3.8,7.3-4.7,11.3c-10.6-3.2-17.7-11.2-25.8-17.6
			c-11.6-9.2-20.9-20.8-30.8-31.6C364.9,981,362.9,978.8,360.1,977.6z"/>
		<path class="st19" d="M341.7,322.7c-0.3-0.9,0-2-0.9-2.7c0.3-1,0.6-2,1.5-2.8C342.4,319.2,342.8,321,341.7,322.7z"/>
		<path class="st20" d="M381.3,1046.7c-1.2-2.9-3.9-5.3-3.8-8.7c3,2.4,6.1,4.8,9.2,7.3C385,1046.9,383.2,1046.9,381.3,1046.7z"/>
		<path class="st21" d="M425.5,131.2c-3.6-0.6-8.3-1.6-11.9-5.4c-0.7-0.7-2-1.1-1.6-2.4c0.3-0.9,1.5-0.7,2.3-1.1
			c6-3,12-0.1,17.9,0.3c2.1,0.1,4.2,2.1,4.4,4.4c0.1,2.1-2.3,2.4-3.9,3C430.8,130.7,428.9,131.4,425.5,131.2z"/>
		<path class="st22" d="M428.1,79.1c1.8,7.9,4.7,15.3,7,23c1.4,4.4-1.8,8.5-7.2,11.1c-0.7-1.6,0.8-2.4,1.4-3.4
			c2.9-4.5,3.5-9,0.7-13.6C426.8,90.7,427.3,84.9,428.1,79.1z"/>
		<path class="st23" d="M406.4,52.5c1.8,0,2.5,0,3.2,0c1.5,0.1,3.3,0.6,3.3,2.3c0,1.9-2,1-3.1,1c-4.4,0-8.7,1.2-13,2
			c-0.9,0.2-2.3,1.6-3-0.2c-0.5-1.5,0.8-2.4,2-3C399.6,53,403.6,52.9,406.4,52.5z"/>
		<path class="st24" d="M451.1,65.5c-5.5-2.9-10.1-5.7-15.8-6.7C439.8,55,448.9,58.7,451.1,65.5z"/>
		<path class="st25" d="M409,77.1c-0.2,1.7-1,2.8-2.7,2.7c-1.7-0.1-2.7-1.2-2.6-2.9c0.1-1.5,1-2.4,2.6-2.4
			C408,74.4,408.9,75.4,409,77.1z"/>
		<path class="st26" d="M441.7,83.8c-1.7-0.1-2.8-0.9-2.7-2.7c0.1-1.7,1.2-2.7,2.8-2.6c1.5,0,2.4,1,2.5,2.5
			C444.4,82.7,443.4,83.6,441.7,83.8z"/>
	</g>
	<g>
		<g>
			<g id="cPWrMh_1_">
				<g>
					<path class="st27" d="M812.8,142c0.9,0.7,1.8,1.4,2.5,2.2c2.5,2.8,4.1,3.9,8.2,4.1c9,0.4,17.8-3.2,25.5-7.6
						c4.1-2.3,7.9-5,11.9-7.5c-1.2,11,2.1,21.7,2,32.7c0,2.8,1.4,5.2,2.9,7.4c-4.3,0.1-7.8,2.5-11.6,3.9c-11,4.1-22.2,5.8-33.9,4.8
						c0-7.2-2.8-13.6-5.8-19.9c-1.9-3.9-4.9-7.3-6.9-11.2c-2.1-4.2-3.6-8.6-4.5-13.2c-0.1-0.4-0.1-0.9,0.1-1.2
						c0.5-0.7,1.6-0.2,2.3,0.4C807.8,138.8,810.5,140.2,812.8,142z"/>
					<path class="st28" d="M728.3,585.6c-5.6-1.3-11.4-0.8-17.1-1.4c-1.9-0.2-3.7-0.3-4.5-2.4c-1.1-1.9,0.1-4.2-1.1-6
						c0-0.6-0.1-1.1-0.1-1.7c0.5-2.6,0.4-5.2-0.5-7.7c-0.1-1.4-0.2-2.8-0.3-4.3c1.1-8.3,0.4-16.7,0.6-25.1
						c0.4-19.7,1.9-39.2,5.5-58.6c0.2-0.7,0.6-1.6,1.2-1.7c5.6-0.1,9.4-4.4,14.1-6.4c2.6,0.7,2.6,2.8,2.6,4.8c0,0.4-0.1,0.8-0.2,1.2
						c-1.7,5.3-1.7,5.3,3.1,7.9c2,3.1,2.1,6.7,3.1,10.1c5.2,17,8.7,34.4,11.5,52c2,12.4,8.6,22.8,16.8,32.1c2.2,2.5,4.3,4.9,6.4,7.4
						c2,2.4,1.5,3.8-1.7,4.1c-11-2.5-22.3-1.7-33.4-2.9C732.3,587,730.1,586.9,728.3,585.6z"/>
					<path class="st29" d="M705,566.3c1.6,2.5,1.7,5,0.5,7.7C705.3,571.5,705.2,568.9,705,566.3z"/>
					<path class="st29" d="M705.6,575.7c1.8,1.8,0.7,4,1.1,6c-0.3,0-0.5,0-0.8-0.1C705.8,579.7,705.7,577.7,705.6,575.7z"/>
					<path class="st30" d="M854.1,1078.1c0-0.3-0.1-0.5-0.1-0.8c1.6-1.6,3.4-1.7,5.2-0.3c0,0.3,0,0.6,0,0.8
						C857.5,1077.9,855.8,1078,854.1,1078.1z"/>
					<path class="st31" d="M725.3,172c-2.8-15.4,1-29,10.9-41.1c10.2-12.4,16.5-26.4,19.1-42.3c2.3-14.4,8.9-27.2,16.3-39.7
						c1.6-2.7,4-4.8,6.3-7c16.9-15.7,35.7-28.8,56.2-39.3c6.4-3.3,12.7-4,18.8,1c1.5,1.3,3.5,1.3,5.3,1.6
						c10.7,1.7,18.8,7.3,25.6,15.6c13.8,16.8,21.8,36.2,28.8,56.7c5.6,16.4,7.1,32.9,7.2,49.6c0.1,14.1,0.7,28.2,2.1,42.2
						c1.1,11.8,5.3,22.4,16,29.3c2.8,1.8,5,4.3,5.7,7.7c1.1,3.6-0.9,5-3.9,5.5c-4.2,0.7-8.2-0.1-12.2-1.3
						c-14.3-4.4-27.7-11.1-41.3-17.3c-9.3-4.3-15.8-11.9-21.6-20.1c-1.5-1.9-2.5-4.2-2.7-6.6c-0.5-8-1.2-16.1-2.4-24
						c-0.4-2.8,0-5.6,0.4-8.4c1.2-8.4,4.1-16.3,7-24.2c4.4-11.6,9.1-23.1,11.7-35.3c3.5-16.5,0.5-31.4-9.9-44.7
						c-4.5-5.7-9.6-10.9-15.1-15.7c-2.1-1.8-3.7-1.8-6.1-0.6c-6.2,3.1-11.3,7.5-16.2,12.4c-10.3,10.3-20.2,20.9-28.1,33.2
						c-7.2,11.2-8.6,23.6-9.4,36.4c-0.4,6.2,1.1,13.1,2.5,19.1c2.6,11.6,12.4,19.8,14.4,31.4c0.4,2.4,0.4,4.8,0.9,7.2
						c1.1,4.9,4.3,8.7,6,13.4c1.8,5.1,3.2,9.5,3.8,14.9c1.4,13.6-2.8,25.8-8.9,37.7c-3.4,6.7-6.8,13.5-9.8,20.4
						c-2.7,6.1-3.8,12.5-3.3,19.2c0.5,7,0.7,14,1.3,20.9c1.3,14.5-2.5,27.7-10.9,39.5c-3.9,5.5-7.5,11.1-10.7,17
						c-0.7,1.3-1.4,2.5-2.2,3.6c-1.1,1.6-2.5,2.8-4.6,2.5c-2.1-0.3-3-1.9-3.7-3.7c-1.3-3.7-1.6-7.5-2.2-11.3
						c-1.3-9.1-5.7-16.6-11.5-23.5c-5.3-6.2-11.4-11.6-17.3-17.2c-7.4-5.6-13.2-12.4-16.3-21.2c-4.1-10.2-2.1-20.2,0.8-30.1
						c2.5-8.5,5.9-16.7,7.4-25.4c1.9-10.8,2.2-21.6-2.9-31.8C725.4,176.2,725.4,174.1,725.3,172z"/>
					<path class="st32" d="M865.8,173.4c7.4,10.5,16.9,18.1,29,22.9c10.6,4.2,20.8,9.2,31.6,12.8c3.7,1.2,7.4,2.1,11.3,2.1
						c3.4,0,5.4-1.3,5.8-4.8c5.3,6.8,8.3,14.5,9.8,22.8c1.2,6.7,2.4,13.4,2.8,20.2c0.4,5.6-0.2,11.3-0.7,17
						c-0.5,5.8-0.9,11.6-0.5,17.4c0.2,4.5,0.3,9.1-2.6,13.1c-2.3,1.9-4.9,1.4-7.4,0.8c-12.2-3-25-2.6-36.8-7.6c-1.9-0.8-3,0-3.5,1.9
						c-0.1,0.6-0.3,1.1-0.4,1.7c-1.7,14.1-5.3,28-6.1,42.3c-0.4,6.3-1.5,12.6-2.8,18.8c-1,4.7-1.2,13.2-3.8,17.2
						c-2.3,3.6-9.9,5.9-13.7,7.6c-5.1,2.2-10.4,4-15.6,5.7c-8.8,2.9-19.1,9.1-28.3,7.3c-22.7-4.3-45-10.7-67.8-14.6
						c-5.6-0.9-11.1-2.7-16.5-4.4c-2.3-0.7-4.6-1.7-5.8-4.1c-1.9-5.1-2.6-10.5-2.9-15.9c-0.8-11.6-2.2-23.2-3.7-34.8
						c-1.3-9.9-0.1-19.9-1-29.8c-0.1-1.3-0.2-3,1.8-3.3c6.9,6.6,14.1,12.9,20.1,20.4c6,7.5,9,16,10.2,25.4c0.3,2.3,0.9,4.5,1.2,6.7
						c0.3,1.7,0.9,3.1,2.7,3.5c1.8,0.4,2.9-0.8,3.8-2.2c2.2-3.7,4.2-7.4,6.5-11.1c3.4-5.4,7.1-10.7,10.4-16.2
						c5.6-9.3,7.6-19.6,7-30.3c-0.4-8.3-0.9-16.5-1.5-24.8c-0.6-7.8,1.6-14.9,5-21.8c4.4-9,8.9-17.9,12.8-27
						c3.6-8.3,5.2-17.1,4.3-26.3c0.9-1.2,2.2-1.3,3.5-1.2c12.4,1.1,23.9-2.4,35.2-6.9C861.1,173.1,863.3,171.6,865.8,173.4z"/>
					<path class="st28" d="M834.6,593.7c-3.1-1-6.3-1.5-9.5-1.9c-0.8,0.4-1.7,0.5-2.5,0.3c-6.3-1.7-12.7-1.7-19.1-1.6
						c-3.1-1.2-6.7,1-9.7-1.2c0.1-6-3.4-10.7-6.1-15.6c-0.7-1.3-2.1-2.8-0.9-4.3c1.4-1.6,3.2-0.3,4.7,0.3c2.5,1.1,4.6,2.9,7,4
						c1.3,0.6,2.7,1.1,4,0c1.3-1.1,0.9-2.6,0.4-4c-1.4-4.4-1.3-4.4,3.1-5.5c4.6-1.1,5.8-3.8,3.2-7.8c-1.4-2.2-3.1-4.1-4.9-6
						c-7.2-8.1-13.5-17-19.9-25.7c-4.9-6.6-8.5-13.8-11.1-21.6c-4-12.2-8.5-24.2-10.7-36.9c-0.4-2-0.9-3.9,0-5.9
						c5.9-5,13-8.1,19.6-12c11.1-6.4,23.2-9.7,35.5-13c16.1-4.2,32.6-7.1,48.3-12.8c9.9-3.6,20.3-4.5,30.5-6
						c8-1.2,15.4-4.1,22.3-8.3c1.4-0.8,2.7-2.2,4.6-1.7c4.2,8.8,5.7,18.5,7.7,27.9c4.6,21.1,9.3,42.2,13.5,63.4
						c3.2,15.7,5.5,31.7,6.5,47.7c0.6,9.5,1.6,19,2.9,28.4c0.7,4.7-1,7.9-4.8,10.5c-4.8,3.4-10,6-15.6,7.8c-1.3,1.5-3.1,2.5-4.9,3.3
						c-5.2,2.3-10.5,4.4-15.8,6.4c-4.6,1.7-6.9,0.5-8.6-4.1c-2.4-6.6-2.9-13.7-3.6-20.5c-1.2-11.7-4-23-6.2-34.4
						c-0.5-2.8-1.3-5.5-1.4-8.4c0-0.8,0-1.5-0.1-1.4c0,0.1,0.1,1.2,0.1,2.2c-0.8,5.1-2.3,10-3.9,14.9c-3.4,10.6-6.1,21.3-7,32.5
						c-0.3,3.7-0.9,7.3-1.5,11c-0.9,5.5-2.8,6.9-8.2,5.8c-4.5-1-9.1-0.5-13.6-0.8c-7.3-0.5-14.3-2.1-21.5-3.4
						C836.7,595.2,835.5,594.6,834.6,593.7z"/>
					<path class="st33" d="M894.3,533.6c3.8,18.3,7.9,36.6,9.5,55.3c0.3,3.1,1.3,6.1,2.1,9.1c0.9,3.5,3,4.5,6.4,3.2
						c7.2-3,14.5-5.9,21.7-8.8c-10.4,36.6-20.2,73.3-24.8,111.2c-2.1,17.5-2.4,34.9,1.7,52.3c2,8.7,0.5,17.6,0.8,26.5
						c0.6,18.7-0.5,37.3-3.4,55.8c-4.7,29.8-9.5,59.6-12.8,89.7c-1.8,16.5-2.5,33.2-3.6,49.8c-0.5,8.3-1.3,16.5-3,24.6
						c-1.6,6.1-4,11.9-6.4,17.6c-1.4,3.3-2,6.8-3.2,10.2c-0.3,0.9-0.8,2.1-1.9,2c-1.2-0.1-1.4-1.3-1.6-2.3c-0.4-3-1.2-5.8-1.6-8.8
						c-0.4-3.2-2.2-4.8-5.3-5c-1.7-0.1-3.4-0.4-5.1-0.5c-3.5-0.3-6,1.1-7.4,4.4c-1.2,3-2.5,6.1-3.9,9c-0.6,1.3-1.1,3.5-3,3
						c-1.8-0.5-2.2-2.5-2-4.3c0.4-5.1,0.1-10.2,0.6-15.3c0.6-5.9,0.8-11.9,0.9-17.8c8-21.4,11.5-43.4,9.2-66.2
						c-1-9.6-1.3-19.3-1.6-29c-0.5-14.8-2.4-29.5-3.7-44.3c-0.3-3.7-0.9-7.4-1-11.1c-0.9-26.5-4.3-52.8-6.6-79.2
						c-1.4-16.2-0.9-32.4-0.4-48.7c0.8-30.8,0.2-61.6-3.8-92.2c-1.3-10.1-3.8-20.1-6.6-30c4.2,0.7,8.4,1.3,12.6,2.2
						c6.6,1.4,13.2,1.8,19.9,1.9c1.8,0,3.7,0,5.5,0.5c6,1.4,7,1,7.5-5.4c1.5-20,7.3-39.1,12.8-58.2
						C893.2,534,893.3,533.1,894.3,533.6z"/>
					<path class="st34" d="M923.6,406.6c-9.9,7.4-21,11.3-33.2,12.1c-13.7,1-26.2,6.2-39.3,9.5c-13.6,3.4-27.3,6.9-40.9,10.1
						c-10.6,2.5-20.3,7.2-29.8,12.4c-5.9,3.2-11.6,6.6-17.4,10c-1.5,3.1-4.8,3.7-7.3,5.5c-6.9,4.9-14.4,9-20.2,15.4
						c-1.1,1.2-2.3,3-4.5,2.6c-5.6-0.2-6.2-1.8-2.9-8.5c0.5-2,0.2-4.2,1.6-6.1c-1.3,0.4-2.5,0.8-3.8,1.1c-4,3.7-8.1,7.2-14,6.6
						c-0.2-3,0.4-5.7,1.9-8.3c1.7-4,4.8-7.1,7.5-10.4c0.5-0.6,0.9-1.3,1.6-1.9c-0.6,0.4-0.9,0.9-1.3,1.4c-3.1,3-4.7,7.2-8.7,9.2
						c-2.1,1.9-4,3.9-6.3,5.5c-3.5,2.5-5.8,1.3-6.5-3.1c3.8-4.8,7.7-9.6,11.5-14.4c-0.4-1.3-0.8,0.1-1.2,0c-2.7,1-5.8,3.4-8.1,0.2
						c-2.4-3.4,0.7-5.6,3-7.8c2.9-2.7,5.5-5.7,8.5-8.3c1.9-1.7,2.7-3.4,2.4-5.8c1.8,0.2,3.3-0.3,4.7-1.5c10.2-8.1,22.2-11.7,35-13.3
						c10.4-1,21-0.1,31.2-3.4c5.8-1.9,11.2-4.7,16.8-7.2c3.5-1.6,7-3,10.8-4c5.9-1.8,11.2-4.8,16.5-7.9c7.4-4.2,15.3-6.2,23.3-9.2
						c9.6-3.6,19.1-7.3,28.7-10.9c6.5-2.5,7.7-5.9,9-12.3c1.1-5.6,2.1-11.2,2.9-16.9c1.6-10.7,2.9-21.5,4.4-32.3
						c1-7.8,2.7-15.6,4-23.5c0.5-2.9,1.3-4.3,4.7-2.7c10.5,5,22.2,4.3,33.2,7c3.6,0.9,7.2,1.6,11,1.1c0.2,8.6-1.2,17-2.9,25.3
						c-3.6,18.3-5.5,36.8-8,55.2C939.6,389.8,934.2,399.7,923.6,406.6z"/>
					<path class="st35" d="M726.2,226c6.4-18.1,8.5-36.2-0.9-54c-2.8,3.5-6.7,5.7-10.2,8.2c-6.4,4.5-12.3,9.4-14.4,17.3
						c-1.1,4.1-1.7,8.3-2.9,12.4c-4.7,16.5-9.2,32.8-11.7,49.8c0,0.3-0.1,0.5,0.1,0.7c0.2,0.2,0.4,0.3,0.7,0.3
						c4.6,0.9,9.2,1.6,13.7,3c4,1.3,9.1,2.7,13.3,2.4c2.7,0.2,5.6,1.1,8.2-0.5c-1.1-4.8-2.5-9.5-2-14.6
						C720.7,242.4,723.3,234.2,726.2,226z"/>
					<path class="st36" d="M849.1,994.3c1.7,2.9,1.2,6,1,9.2c-0.5,8.1-1,16.1-1.5,24.2c-0.1,1.3,0.3,2.5,1.4,4.2
						c2-4.6,3.9-8.8,5.5-13.1c1.3-3.4,3.8-4.9,7.3-4.7c2.6,0.1,5.1,0.3,7.6,0.6c3.1,0.4,4.7,2.2,5.1,5.4c0.4,3.7,1,7.3,1.9,11.1
						c3.2-9.9,6.5-19.8,11.5-29.1c0.7,7.9-1.3,15.5-2.7,23.2c-2.3,12.2-6.3,23.9-10.3,35.6c-2.8,8.2-7.9,14.1-16.7,16
						c-1.7,0.1-3.5,0.2-5.2,0.3c-9.7-1.7-16.5-11.2-15.3-22.3c0.7-6.7,0.1-13.6,0.3-20.4c0.3-12.8,4.8-24.8,7.9-37
						C847.2,996.4,847.1,994.5,849.1,994.3z"/>
					<path class="st33" d="M803.4,589.5c7.4-0.7,14.6-0.1,21.6,2.3c-5.6,21.5-9.9,43.3-11.8,65.5c-1.2,14.4-2.4,28.9,0,43.4
						c1.1,6.4,0.3,13.1,0.8,19.6c1.4,18.6,3.2,37.2,4.7,55.8c1.3,16.5-0.2,33-1.6,49.5c-1.6,17.6-3,35.1-2.6,52.8
						c0.3,13.5-0.5,27.1,1.1,40.5c1.3,10.6,3.6,21.2,3.3,31.8c-0.3,13.7,3.6,27.1,2.5,40.8c-3.7,9.3-8.1,18.2-13.9,26.3
						c-0.6,0.8-1,1.7-1.7,2.4c-0.8,0.8-1.5,1.9-2.8,1.4c-1.1-0.4-1.1-1.5-1.4-2.5c-1.8-6.8-4.4-9.2-11.3-10.1
						c-2.3-0.3-4.5-0.5-6.8-0.7c-1.4-0.1-3.1-0.3-2.3-2.5c6-22.2,6-44.5,3.4-67.3c-2.6-21.8-11.5-41.6-17.2-62.4
						c-5.9-21.8-10.6-43.9-14.4-66.3c-3.5-20.4-6.3-40.8-6.7-61.5c-0.3-12.7-0.4-25.4-0.7-38c-0.4-14.8-3.1-29.1-7.3-43.2
						c-2.6-8.8-3.2-17.9-4.5-26.9c-2.8-18.2-4.3-36.5-5.3-54.8c13.3,1.6,26.8,0.3,39.9,3.6c3.6-0.3,7.3,1.4,10.9-0.1
						c2.4-0.4,4.9-0.6,7.4-0.2C792.1,589.7,797.7,589.4,803.4,589.5z"/>
					<path class="st36" d="M781.1,1006.1c0.2,1.8,1.6,1.6,2.9,1.6c3.1,0.1,6.2,0.2,9.2,1.1c6.3,1.7,10.1,5.5,9.8,12.8
						c5.1-6,9.2-12.3,12.5-19.1c1.2-2.4,2-5,3-7.5c0.6-1.4,0.9-3.1,2.9-3.3c2.5,3.9,0.5,8,0.3,11.9c-0.6,8.6-4.8,16-9.2,23.1
						c-5.6,9.2-10.8,18.7-15.2,28.6c-5,11-13.4,17.9-24.6,21.4c-10.6,3.3-19.7-6-16.8-17.1c3.1-11.8,8.5-22.6,15.4-32.6
						c1.9-2.7,3.4-5.6,4-8.8C776,1013.6,778,1009.6,781.1,1006.1z"/>
					<path class="st37" d="M778.8,590.1c-3.8,2.7-7.1-0.4-10.6-0.8c2.1-0.1,2.4-0.5,0.8-2.2c-6-6.5-11.8-13.1-16.3-20.7
						c-4.9-8.1-7.5-16.9-8.7-26.1c-2.3-16.8-6.7-33.1-11.3-49.4c-0.6-2.2-1.1-4.4-1.7-6.6c9.5-9.5,20.5-16.9,32.1-23.4
						c4.6,22.8,9.7,45.5,23.5,64.9c6.5,9.2,13.4,18.1,20.9,26.6c0.1,0.1,0.2,0.2,0.3,0.3c2.2,2.9,5.7,5.6,4,9.7
						c-1.6,3.8-5.7,3.1-9.1,3.4c-0.2,1.8,1.2,2.8,1.8,4.2c0.7,1.8,0.6,3.4-0.7,4.8c-1.4,1.5-3,1.4-4.7,0.6c-4-1.8-7.3-5-12.8-6.5
						c2.5,4.4,4.6,8,6.6,11.6c1.4,2.5,2.7,5.1,1.1,8c-1.3,2.2-3.3,1.3-5.2,1.1c-5-2.1-7.3-6.9-10.9-10.4
						C778,582.7,781.3,586.1,778.8,590.1z"/>
					<path class="st38" d="M725.9,470.7c1.7-1.2,3.3-2.4,5.6-4.1c-0.4,3.9-2.7,6.2-3.5,9.1C727.7,473.9,728.4,471.6,725.9,470.7z"/>
					<path class="st37" d="M696.7,270.9c-0.1-8.5-0.1-8.7,8.2-7.1c5.7,1.1,11.4,1.5,17.2,2c3.5,8,8.6,14.8,15.8,19.9
						c-0.7,0.5-0.8,1.2-0.7,1.9c1.4,15.5,0,31.2,3.5,46.6c0.5,2.2,0.5,4.5,0.6,6.8c0.4,9.8,1.5,19.5,3.5,29.1
						c2.8,2.8,2.2,6.6,2.9,10c0.9,4.7,1.5,9.5,2.6,14.2c0.2,5.1,2.2,9.9,3.3,14.8c0.9,3.6,2.7,7.1,1.9,11.1
						c-13,1.5-25.1,5.5-35.3,13.9c-1.6,1.3-2.9,2.3-4-0.4c-4.5-34-10.6-67.8-11.7-102.2c-0.3-10.3-2.7-20.6-4.5-30.8
						c-0.5-2.7-0.8-5.3-1-8C698.3,285.3,698.1,278.1,696.7,270.9z"/>
					<path class="st39" d="M722,458.9c-3,3.2-4.8,7.3-8.2,10.1c-0.9-0.2-0.9-1-0.9-1.7c2.7-3.3,5.3-6.6,8-9.9
						C722.4,457,722.1,458,722,458.9z"/>
					<path class="st40" d="M810.5,143.3c-2.9-2.8-5.5-6.1-7.2-8.7c-5-7.5-9.2-16.4-10.6-25.4c-0.9-5.8,0.1-12.2,0.2-18.1
						c0.3-25,14.6-42.6,31.1-59.2c2.7-2.7,5.7-5.2,8.1-8.2c4.4-5.8,10.9-8.6,16.8-12.2c1.5-0.9,2.4-1.1,4,0.4
						c5.5,5,10.9,10,15.6,15.7c11.1,13.6,15,29,11.5,46.2c-3,14.7-9.2,28.4-14.2,42.5c-2,5.5-3.4,11.1-4.8,16.8
						c-2.6,4-7,5.7-10.8,8.1c-8.5,5.2-17.9,8.4-28,8.1C818,149.3,814,146.6,810.5,143.3z"/>
					<path class="st41" d="M749.6,394.6c-2.5-5.5-2.4-11.5-3.5-17.2c-0.5-2.5-0.5-5-1.4-7.4c8.1,4.5,17.1,6.3,25.9,7.8
						c18.5,3,36.5,8.4,54.9,11.9c4.7,0.9,9.4,2,14.1,2.9c-7.8,4.8-15.7,9.4-24.3,12.7c-20.4,0.8-40-4.3-59.8-7.7
						C753.4,397.1,750.9,397,749.6,394.6z"/>
					<path class="st42" d="M788.7,588.8c1.8,0.9,3.5,0.9,5.2-0.4c3,2.1,6.5-0.7,9.6,1c-5.8,0.4-11.5,1.5-17.3,0.4
						C786.6,588.7,787.9,589.3,788.7,588.8z"/>
					<path class="st43" d="M894.3,533.6c-0.5,0.3-1,0.6-1.5,0.9c-0.1-1.1,0.1-2.1,1.1-2.8C894,532.4,894.2,533,894.3,533.6z"/>
					<path class="st28" d="M749.6,394.6c10,2.9,20.2,4.3,30.4,6.1c11.7,2,23.5,3,35.2,4.6c-6.6,1.3-12.5,4.7-18.4,7.5
						c-9.1,4.4-18.6,6.6-28.7,6.6c-4.3,0-8.5,0.4-12.8,0.6c-2.1-7.6-4.2-15.1-6.3-22.7C748.9,396.4,748.7,395.4,749.6,394.6z"/>
					<path class="st44" d="M722,458.9c-0.2-0.7-0.3-1.4-1.1-1.6c1.2-1.1,2.3-2.2,3.5-3.2C723.9,456.1,723.4,457.8,722,458.9z"/>
					<path class="st28" d="M788.7,588.8c-0.5,1.1-1.7,0.7-2.6,1.1c-2.4,0.1-4.9,0.1-7.3,0.2c0.6-4.8-2.3-9-2.8-14.2
						C780.8,580.2,783.6,585.6,788.7,588.8z"/>
					<path class="st45" d="M819.8,117.5c0.2,0.2,0.5,0.3,0.8,0.5c1.2,0.8,2.1-0.7,3.5-1c4.4-0.9,7.7,3.4,11.9,3.1
						c0.1,0.3-0.1,0.7-0.4,1c-3.5,3.8-9.1,7.6-14.5,6.6c-2.4-0.4-4.8-2.3-6.2-4.3c-0.6-0.8-1.1-1.5-1.6-2.4
						c-0.5-0.8-1.7-2.3-1.5-3.3c1.2-0.1,2.4,0,3.5-0.4c0.5-0.2,1-0.4,1.5-0.6C818.1,116.5,818.9,116.9,819.8,117.5z"/>
					<path class="st46" d="M828,106.4c-0.4-0.4-1-0.9-1.2-1c-0.8-0.5-1.5-1.2-2.1-1.8c-1.4-1.4-2.4-3.1-2.7-5.1
						c-0.5-3.3,1.3-6.4,3.5-8.8c2.4-2.6,4.3-5.5,5.8-8.7c0.7-1.6,1.9-2.9,2.7-4.5c0.4-0.8,0.7-1.6,1-2.5c0.1-0.4,0.8-1.9,0.7-2.3
						c0.6,1.3,0.4,2.9,0.1,4.3c-1,4.4-3.4,8.4-6.3,11.9c-1,1.2-2.2,2.4-3.1,3.8c-0.6,0.8-1,1.7-1.6,2.4c-0.8,1.1-1.5,1.8-1.6,3.2
						c0,1.4,0.2,2.8,1.1,3.9c1.3,1.5,4.8,2.8,4.5,5.3c0,0.2-0.1,0.3-0.2,0.4C828.5,106.9,828.3,106.7,828,106.4z"/>
					<path class="st47" d="M873.4,57.4c-3.4-2.4-6-4.5-8.9-6.2c-1.8-1.1-4-1.5-5.9-2.4c-1.1-0.5-3.1,0.4-3.1-1.3
						c0-1.9,2-1.6,3.4-1.7C865.3,45.4,871.9,50.3,873.4,57.4z"/>
					<path class="st48" d="M810.5,51.6c2.7-4.8,12.8-9.8,17-9c1.1,0.2,1.8,0.7,2.1,1.8c0.2,0.8-0.3,1.4-1,1.5
						C822.6,46.9,816.9,49.2,810.5,51.6z"/>
					<path class="st49" d="M815,69.4c0.1-2.1,1-3.7,3.2-3.7c1.9,0,3.4,1.2,3.3,3.1c-0.1,2-1,4.1-3.4,4.2
						C816,73.1,814.9,71.6,815,69.4z"/>
					<path class="st50" d="M863.6,75.6c0.1,1.9-0.5,3.5-2.7,3.5c-2.3,0-3.4-1.5-3.3-3.6c0.1-1.8,0.5-4,2.9-3.9
						C862.7,71.8,863.6,73.5,863.6,75.6z"/>
				</g>
			</g>
			<path class="st51" d="M923.6,406.6c-9.9,7.4-21,11.3-33.2,12.1c-13.7,1-26.2,6.2-39.3,9.5c-13.6,3.4-27.3,6.9-40.9,10.1
				c-10.6,2.5-20.3,7.2-29.8,12.4c-5.9,3.2-11.6,6.6-17.4,10c-1.5,3.1-4.8,3.7-7.3,5.5c-6.9,4.9-14.4,9-20.2,15.4
				c-1.1,1.2-2.3,3-4.5,2.6c-5.6-0.2-6.2-1.8-2.9-8.5c0.5-2,0.2-4.2,1.6-6.1c-1.3,0.4-2.5,0.8-3.8,1.1c-4,3.7-8.1,7.2-14,6.6
				c-0.2-3,0.4-5.7,1.9-8.3c1.7-4,4.8-7.1,7.5-10.4c0.5-0.6,0.9-1.3,1.6-1.9c-0.6,0.4-0.9,0.9-1.3,1.4c-3.1,3-4.7,7.2-8.7,9.2
				c-2.1,1.9-4,3.9-6.3,5.5c-3.5,2.5-5.8,1.3-6.5-3.1c3.8-4.8,7.7-9.6,11.5-14.4c-0.4-1.3-0.8,0.1-1.2,0c-2.7,1-5.8,3.4-8.1,0.2
				c-2.4-3.4,0.7-5.6,3-7.8c2.9-2.7,5.5-5.7,8.5-8.3c1.9-1.7,2.7-3.4,2.4-5.8c1.8,0.2,3.3-0.3,4.7-1.5c10.2-8.1,22.2-11.7,35-13.3
				c10.4-1,21-0.1,31.2-3.4c5.8-1.9,11.2-4.7,16.8-7.2c3.5-1.6,7-3,10.8-4c5.9-1.8,11.2-4.8,16.5-7.9c7.4-4.2,15.3-6.2,23.3-9.2
				c9.6-3.6,19.1-7.3,28.7-10.9c6.5-2.5,7.7-5.9,9-12.3c1.1-5.6,2.1-11.2,2.9-16.9c1.6-10.7,2.9-21.5,4.4-32.3
				c1-7.8,2.7-15.6,4-23.5c0.5-2.9,1.3-4.3,4.7-2.7c10.5,5,22.2,4.3,33.2,7c3.6,0.9,7.2,1.6,11,1.1c0.2,8.6-1.2,17-2.9,25.3
				c-3.6,18.3-5.5,36.8-8,55.2C939.6,389.8,934.2,399.7,923.6,406.6z"/>
		</g>
		<path class="st35" d="M785.4,433.4c-2.1-3.6-4.1-7.3-6.8-10.5c-1.1-1.3-3.1-2.1-3.8-3.7c-0.9-2.1,1.3-3,3.2-3.1
			c3-0.2,5.4,2.5,7.1,5c2.3,3.5,4.2,7.3,5.7,11.2c1.5,3.8,3.5,7.4,3.1,11.6c-0.2,1.9-1.7,3.4-3.5,3.4c-0.8,0-1.5-0.6-1.6-1.5
			c-0.1-1.5-0.2-3.8-0.2-4C788.1,438.9,786.9,436,785.4,433.4z"/>
	</g>
</g>
</svg>
