<?xml version="1.0" encoding="utf-8"?>
<!-- Generator: Adobe Illustrator 19.0.0, SVG Export Plug-In . SVG Version: 6.00 Build 0)  -->
<svg version="1.1" id="Layer_1" xmlns="http://www.w3.org/2000/svg" xmlns:xlink="http://www.w3.org/1999/xlink" x="0px" y="0px"
	 viewBox="0 0 1000 1000" style="enable-background:new 0 0 1000 1000;" xml:space="preserve">
<style type="text/css">
	.st0{fill:#999999;}
	.st1{fill:url(#XMLID_8_);}
	.st2{fill:url(#XMLID_9_);}
	.st3{fill:url(#XMLID_10_);}
	.st4{fill:#FAFAFA;}
	.st5{opacity:0.1;fill:#FFFFFF;}
	.st6{fill:#263238;}
	.st7{font-family:'CeraPro-Black';}
	.st8{font-size:86.4772px;}
	.st9{fill:none;stroke:#263238;stroke-width:10;stroke-miterlimit:10;}
</style>
<g id="XMLID_235_">
	<g id="XMLID_237_">
		<path id="XMLID_231_" class="st0" d="M653.3,891.7H504.8h-16.5H357.4v14.6h0c0,1.8,1.5,3.3,5.1,3.9c14.2,2.4,107.4,0.9,142.8,0.3
			c35.4,0.6,128.7,2.1,142.8-0.3c3.6-0.6,5.1-2,5.1-3.9h0V891.7z"/>
		<linearGradient id="XMLID_8_" gradientUnits="userSpaceOnUse" x1="505.323" y1="886.553" x2="505.323" y2="758.3481">
			<stop  offset="0" style="stop-color:#E6E6E6"/>
			<stop  offset="1" style="stop-color:#B3B3B3"/>
		</linearGradient>
		<path id="XMLID_230_" class="st1" d="M632.8,876.5c-22.7-11-23.4-35.1-23.4-35.1l-7.3-87.7l-0.7-26.3H519h-27.3h-82.4l-0.7,26.3
			l-7.3,87.7c0,0-0.7,24.1-23.4,35.1c0,0-32.9,16.1-15.4,18.3c14.2,1.8,107.4,0.7,142.8,0.2c35.4,0.5,128.7,1.6,142.8-0.2
			C665.7,892.6,632.8,876.5,632.8,876.5z"/>
		<linearGradient id="XMLID_9_" gradientUnits="userSpaceOnUse" x1="505.8048" y1="585.4666" x2="505.8048" y2="851.0709">
			<stop  offset="0" style="stop-color:#E6E6E6"/>
			<stop  offset="1" style="stop-color:#CCCCCC"/>
		</linearGradient>
		<path id="XMLID_228_" class="st2" d="M994.2,731.7c0,16.2-13.1,29.2-29.2,29.2H46.7c-16.2,0-29.2-13.1-29.2-29.2V122
			c0-16.2,13.1-29.2,29.2-29.2H965c16.2,0,29.2,13.1,29.2,29.2V731.7z"/>
		<linearGradient id="XMLID_10_" gradientUnits="userSpaceOnUse" x1="823.4267" y1="465.2573" x2="-55.7737" y2="244.3635">
			<stop  offset="0" style="stop-color:#1A1A1A"/>
			<stop  offset="1" style="stop-color:#4D4D4D"/>
		</linearGradient>
		<path id="XMLID_226_" class="st3" d="M994.2,122v549.8H17.4V122c0-16.2,13.1-29.2,29.2-29.2H965C981.1,92.7,994.2,105.8,994.2,122
			z"/>
		<rect id="XMLID_225_" x="17.4" y="152.8" class="st4" width="976.8" height="454.2"/>
		<path id="XMLID_220_" class="st5" d="M994.2,122v549.8H846.1l-265.8-579H965C981.1,92.7,994.2,105.8,994.2,122z"/>
	</g>
</g>
<text id="XMLID_256_" transform="matrix(1 0 0 1 357.3516 353.8908)" class="st6 st7 st8">Loading</text>
<g id="XMLID_2_">
	<path id="XMLID_1_" class="st9" d="M843.6,517.3H189.4c-17.3,0-31.4-14-31.4-31.4v-30.5c0-17.3,14-31.4,31.4-31.4h654.2
		c17.3,0,31.4,14,31.4,31.4v30.5C875,503.3,861,517.3,843.6,517.3z"/>
	<path id="XMLID_3_" class="st6" d="M481.7,504.7H191.6c-11.2,0-20.3-10.4-20.3-23.2v-23c0-12.8,9.1-23.2,20.3-23.2
		c96.7,0,193.4,0,290.1,0c-0.3,11.8-0.5,23.9-0.5,36.3C481.2,482.9,481.4,494,481.7,504.7z"/>
	<path id="XMLID_5_" class="st6" d="M544,504.7h-21.4c0-11.9,0-23.9,0-35.8c0-11.2,0-22.4,0-33.7c7.1,0,14.3,0,21.4,0
		c0,11.8,0,23.9,0,36.3C543.9,482.9,544,494,544,504.7z"/>
	<path id="XMLID_4_" class="st6" d="M513.4,505.4h-21.4c0-11.9,0-23.9,0-35.8c0-11.2,0-22.4,0-33.7c7.1,0,14.3,0,21.4,0
		c0,11.8,0,23.9,0,36.3C513.3,483.6,513.3,494.7,513.4,505.4z"/>
	<path id="XMLID_6_" class="st6" d="M574.2,504.7h-21.4c0-11.9,0-23.9,0-35.8c0-11.2,0-22.4,0-33.7c7.1,0,14.3,0,21.4,0
		c0,11.8,0,23.9,0,36.3C574.1,482.9,574.1,494,574.2,504.7z"/>
</g>
</svg>
