<svg width="1" height="1" viewBox="0 0 1 1" fill="none" xmlns="http://www.w3.org/2000/svg">
<path d="M0.770859 0.375798C0.779945 0.379743 0.780625 0.381329 0.78125 0.390524C0.78125 0.464149 0.781953 0.537782 0.781242 0.611407C0.779906 0.699579 0.703727 0.780274 0.610445 0.781149C0.463547 0.781587 0.316641 0.782509 0.169742 0.781134C0.0816797 0.779782 0.000859378 0.704477 7.81566e-06 0.610337L0 0.390524C0 0.390524 0.00241407 0.377313 0.0124453 0.375227C0.0215078 0.373345 0.0305937 0.380938 0.03125 0.390524C0.03125 0.464024 0.0305937 0.537524 0.0312656 0.611024C0.0323984 0.683118 0.0946719 0.74918 0.171 0.749899C0.317711 0.750337 0.464422 0.751259 0.611125 0.749891C0.683 0.748782 0.74925 0.687477 0.75 0.610149V0.390524C0.75 0.390524 0.754945 0.371345 0.770859 0.375798V0.375798Z" fill="white"/>
<path d="M0.393555 0.000149851C0.403937 0.00281391 0.405734 0.00723579 0.40625 0.0155014V0.602783L0.629578 0.379455C0.629578 0.379455 0.636086 0.374376 0.642102 0.374947C0.653477 0.376017 0.6605 0.39154 0.65168 0.401548L0.40168 0.651548C0.392313 0.659814 0.375875 0.654509 0.375 0.640501V0.0155014C0.375594 0.00614204 0.383258 -0.00114702 0.393555 0.000149851V0.000149851Z" fill="white"/>
<path d="M0.141841 0.37494C0.145412 0.375362 0.147623 0.375737 0.151669 0.379471L0.401669 0.629471C0.412755 0.641463 0.395255 0.666065 0.379568 0.651565L0.129568 0.401565C0.123865 0.395393 0.124763 0.392838 0.125037 0.389292C0.125818 0.379385 0.139857 0.374862 0.141841 0.37494V0.37494Z" fill="white"/>
</svg>
