<svg viewBox="0 0 485 182" xmlns="http://www.w3.org/2000/svg" style="background:#fff">
  <g transform="translate(47.000000, 48.000000)" fill="none" fill-rule="evenodd">
    <path d="M128.188992,56.8617138 L128.11634,55.89 L127.141914,55.89 L121.093914,55.89 L120,55.89 L120.044795,56.9829967 C120.543867,69.160365 128.753532,77.226 143.353914,77.226 C157.279143,77.226 166.747914,69.9911483 166.747914,59.04 C166.747914,53.1184522 164.693534,48.927976 160.778833,46.0661622 C157.767516,43.8647614 154.166963,42.6239073 148.19641,41.3293443 C147.797486,41.2428476 147.381679,41.1543122 146.883403,41.0494613 C146.587521,40.9871995 145.525896,40.7649683 145.582237,40.77678 C134.739308,38.5036128 131.299914,36.5289237 131.299914,30.648 C131.299914,24.5666916 136.273043,20.694 144.613914,20.694 C152.728938,20.694 157.857573,25.6502434 158.096406,33.4521278 L158.127565,34.47 L159.145914,34.47 L165.109914,34.47 L166.184425,34.47 L166.159635,33.3957757 C165.87899,21.2345154 157.719276,13.05 144.529914,13.05 C131.603206,13.05 123.067914,20.8283391 123.067914,30.9 C123.067914,36.8048062 125.120118,40.9168746 129.040993,43.6642805 C132.027939,45.7572714 135.488151,46.8668408 141.592112,48.0992319 C141.87798,48.1569488 142.176238,48.2165293 142.531319,48.2869684 C142.751113,48.3305699 142.99935,48.379656 143.465218,48.471754 C149.240597,49.6144477 151.788878,50.3197385 154.113641,51.6715769 C156.999603,53.3497493 158.431914,55.7468655 158.431914,59.46 C158.431914,65.9068018 153.01151,69.582 143.521914,69.582 C134.437247,69.582 128.799402,65.0259561 128.188992,56.8617138 Z M183.757914,12 L183.757914,10.95 L182.707914,10.95 L176.743914,10.95 L175.693914,10.95 L175.693914,12 L175.693914,75 L175.693914,76.05 L176.743914,76.05 L182.707914,76.05 L183.757914,76.05 L183.757914,75 L183.757914,63.7670749 L192.246333,55.5000934 L207.405119,75.6316029 L207.720167,76.05 L208.243914,76.05 L215.635914,76.05 L217.751388,76.05 L216.472208,74.3650882 L197.959461,49.9804575 L215.032611,32.9882236 L216.835378,31.194 L214.291914,31.194 L206.311914,31.194 L205.874807,31.194 L205.566824,31.5041754 L183.757914,53.4683087 L183.757914,12 Z M259.105914,56.394 L260.092338,56.394 L260.153869,55.4094972 C260.164692,55.2363423 260.180741,54.9501209 260.19678,54.6052845 C260.209476,54.3323225 260.219947,54.0663344 260.227431,53.8148552 C260.235542,53.5423343 260.239914,53.2944351 260.239914,53.076 C260.239914,39.8967033 251.510612,30.186 238.609914,30.186 C225.733454,30.186 216.559914,40.5227549 216.559914,53.58 C216.559914,67.0161336 225.317654,77.058 238.693914,77.058 C248.808096,77.058 256.621781,71.0568937 259.437034,61.9542432 L259.857728,60.594 L258.433914,60.594 L252.217914,60.594 L251.476351,60.594 L251.228365,61.2928697 C249.460493,66.2750553 244.674125,69.582 238.777914,69.582 C231.069511,69.582 225.695993,64.2882888 224.727978,56.394 L259.105914,56.394 Z M224.972323,49.422 C226.333447,42.3536376 231.531935,37.662 238.609914,37.662 C245.90509,37.662 250.939644,42.199681 252.040866,49.422 L224.972323,49.422 Z M286.699914,38.334 L287.749914,38.334 L287.749914,37.284 L287.749914,32.244 L287.749914,31.194 L286.699914,31.194 L277.921914,31.194 L277.921914,20.064 L277.921914,19.014 L276.871914,19.014 L270.907914,19.014 L269.857914,19.014 L269.857914,20.064 L269.857914,31.194 L262.759914,31.194 L261.709914,31.194 L261.709914,32.244 L261.709914,37.284 L261.709914,38.334 L262.759914,38.334 L269.857914,38.334 L269.857914,63.492 C269.857914,71.7449923 274.138534,76.218 281.995914,76.218 C283.367352,76.218 284.549613,76.1358985 285.542361,75.9980169 C286.155788,75.9128186 286.579398,75.8245666 286.81294,75.7596938 L287.581914,75.5460899 L287.581914,74.748 L287.581914,69.372 L287.581914,68.0692146 L286.308863,68.3459648 C286.257979,68.3570265 286.1549,68.3780018 286.007661,68.4056092 C285.758175,68.4523879 285.48028,68.4993296 285.182145,68.5431729 C284.418645,68.6554524 283.661373,68.7274153 282.964187,68.7400455 C282.892473,68.7413447 282.8217,68.742 282.751914,68.742 C279.309872,68.742 277.921914,67.1252576 277.921914,63.072 L277.921914,38.334 L286.699914,38.334 Z M311.773914,77.058 C322.935724,77.058 330.816731,69.9948331 332.795914,59.9999604 L333.044223,58.746 L331.765914,58.746 L325.717914,58.746 L324.910564,58.746 L324.703155,59.5262538 C323.007659,65.9045484 318.405708,69.582 311.773914,69.582 C303.497642,69.582 297.787914,63.0533472 297.787914,53.664 C297.787914,44.2020218 303.487725,37.662 311.773914,37.662 C318.405708,37.662 323.007659,41.3394516 324.703155,47.7177462 L324.910564,48.498 L325.717914,48.498 L331.765914,48.498 L333.044223,48.498 L332.795914,47.2440396 C330.816731,37.2491669 322.935724,30.186 311.773914,30.186 C298.807945,30.186 289.639914,40.5958108 289.639914,53.664 C289.639914,66.660313 298.820569,77.058 311.773914,77.058 Z M347.893914,12 L347.893914,10.95 L346.843914,10.95 L340.879914,10.95 L339.829914,10.95 L339.829914,12 L339.829914,75 L339.829914,76.05 L340.879914,76.05 L346.843914,76.05 L347.893914,76.05 L347.893914,75 L347.893914,49.716 C347.893914,42.0124523 352.582874,37.494 359.695914,37.494 C366.489563,37.494 369.901914,41.4268794 369.901914,48.876 L369.901914,75 L369.901914,76.05 L370.951914,76.05 L376.915914,76.05 L377.965914,76.05 L377.965914,75 L377.965914,47.7 C377.965914,37.1776416 371.450406,30.186 360.703914,30.186 C355.175195,30.186 350.731176,32.2115513 347.893914,35.1187318 L347.893914,12 Z" fill="#000000"/>
    <path d="M20.9032258,2.83147321 L47.9032258,0 L74.9032258,2.83147321 L95.8064516,30.6662946 L47.9032258,86 L0,30.6662946 L20.9032258,2.83147321 Z" fill="#FDB300"/>
    <g transform="translate(0.000000, 30.666295)">
      <polygon fill="#EA6C00" points="19.403 0 47.903 55.334 0 0"/>
      <polygon fill="#EA6C00" transform="translate(71.854839, 27.666853) scale(-1, 1) translate(-71.854839, -27.666853)" points="67.306 0 95.806 55.334 47.903 0"/>
      <polygon fill="#FDAD00" points="19.403 0 76.403 0 47.903 55.334"/>
    </g>
    <polygon fill="#FDD231" points="47.903 0 20.903 2.831 19.403 30.666"/>
    <polygon fill="#FDD231" transform="translate(62.153226, 15.333147) scale(-1, 1) translate(-62.153226, -15.333147)" points="76.403 0 49.403 2.831 47.903 30.666"/>
    <polygon fill="#FDAD00" transform="translate(85.354839, 16.748884) scale(-1, 1) translate(-85.354839, -16.748884)" points="74.903 30.666 95.806 2.831 94.306 30.666"/>
    <polygon fill="#FDAD00" points="0 30.666 20.903 2.831 19.403 30.666"/>
    <polygon fill="#FEEEB7" points="47.903 0 19.403 30.666 76.403 30.666"/>
  </g>
</svg>
