<?xml version="1.0" encoding="UTF-8" standalone="no"?>
<!-- Created with Inkscape (http://www.inkscape.org/) -->

<svg
   xmlns:dc="http://purl.org/dc/elements/1.1/"
   xmlns:cc="http://creativecommons.org/ns#"
   xmlns:rdf="http://www.w3.org/1999/02/22-rdf-syntax-ns#"
   xmlns:svg="http://www.w3.org/2000/svg"
   xmlns="http://www.w3.org/2000/svg"
   xmlns:sodipodi="http://sodipodi.sourceforge.net/DTD/sodipodi-0.dtd"
   xmlns:inkscape="http://www.inkscape.org/namespaces/inkscape"
   width="35.934467mm"
   height="49.893684mm"
   viewBox="0 0 127.32685 176.78864"
   id="svg11477"
   version="1.1"
   inkscape:version="0.91 r13725"
   sodipodi:docname="emoji-zulip.svg">
  <defs
     id="defs11479" />
  <sodipodi:namedview
     id="base"
     pagecolor="#ffffff"
     bordercolor="#666666"
     borderopacity="1.0"
     inkscape:pageopacity="0.0"
     inkscape:pageshadow="2"
     inkscape:zoom="0.98994949"
     inkscape:cx="-50.492311"
     inkscape:cy="26.501485"
     inkscape:document-units="px"
     inkscape:current-layer="g12721"
     showgrid="false"
     inkscape:window-width="1855"
     inkscape:window-height="1056"
     inkscape:window-x="65"
     inkscape:window-y="24"
     inkscape:window-maximized="1"
     fit-margin-top="0"
     fit-margin-left="0"
     fit-margin-right="0"
     fit-margin-bottom="0" />
  <metadata
     id="metadata11482">
    <rdf:RDF>
      <cc:Work
         rdf:about="">
        <dc:format>image/svg+xml</dc:format>
        <dc:type
           rdf:resource="http://purl.org/dc/dcmitype/StillImage" />
        <dc:title></dc:title>
      </cc:Work>
    </rdf:RDF>
  </metadata>
  <g
     inkscape:label="Layer 1"
     inkscape:groupmode="layer"
     id="layer1"
     transform="translate(-308.38382,-228.89256)">
    <g
       transform="translate(308.05236,223.50481)"
       id="g11307">
      <g
         id="g11309">
        <g
           id="g11311">
          <g
             id="g11313">
            <path
               style="fill:#2f2f2f"
               inkscape:connector-curvature="0"
               d="m 42.65,49.41 c 0.64,-3.54 3.53,-5.97 6.46,-5.38 2.92,0.57 4.79,3.94 4.15,7.49 -0.63,3.56 -3.52,5.96 -6.43,5.4 -2.93,-0.59 -4.81,-3.94 -4.18,-7.51 z"
               id="path11315" />
            <path
               style="fill:#2f2f2f"
               inkscape:connector-curvature="0"
               d="m 73.25,59.81 c -2.96,0.08 -5.43,-2.75 -5.47,-6.37 -0.05,-3.61 2.34,-6.63 5.32,-6.71 2.99,-0.12 5.44,2.75 5.49,6.36 0.05,3.61 -2.35,6.63 -5.34,6.72 z"
               id="path11317" />
            <g
               id="g11319">
              <path
                 style="fill:#ed6c30"
                 inkscape:connector-curvature="0"
                 d="m 122.07,99.51 c -3.77,1.07 -7.34,2.71 -11.34,2.52 -3.78,-0.18 -7.23,-1.91 -10.18,-4.17 -1.2,-0.92 -3.41,-2.29 -3.87,-3.83 -0.5,-1.66 1.09,-2.7 2.41,-3.2 1.9,-0.72 3.76,-1.49 5.56,-2.43 3.62,-1.89 6.97,-4.28 9.93,-7.09 7.7,-7.27 12.68,-17.33 13.05,-27.98 0.18,-5.02 -0.52,-10.23 -1.48,-15.15 -0.96,-4.93 -2.93,-9.66 -5.68,-13.86 -2.42,-3.69 -5.8,-6.34 -4.71,-11.39 0.41,-1.86 1.31,-2.29 0.69,-4.43 -0.46,-1.55 -0.98,-2.56 -2.74,-2.74 -0.77,-0.08 -1.49,-0.05 -2.13,0.08 -3.71,0.77 -5.33,4.78 -5.4,8.64 -0.09,6.17 3.01,11.39 4.74,17.11 1.68,5.57 2.91,11.57 2.17,17.4 -0.71,5.53 -3.19,11.16 -6.54,15.58 -1.75,2.32 -4.05,4.65 -6.62,6.06 -3.9,2.14 -4.75,0.06 -2.49,-3.12 3.64,-5.07 4.67,-11.43 5.25,-17.5 C 103.71,39.35 101.94,27.6 94.79,19.22 91.86,15.78 87.6,12 83.52,9.99 73.71,5.19 60.3,3.35 50.22,8.38 42.7,12.12 36.31,18.31 32.64,25.79 c -2.53,5.14 -4.6,11.29 -5.38,17 -0.8,5.82 -0.29,11.82 1.33,17.45 1.47,5.09 4.07,8.28 6.89,12.58 1.03,1.58 0.09,2.02 -1.58,1.45 C 32.82,73.9 31.72,73.35 30.73,72.79 28.71,71.62 26.98,70 25.37,68.32 22.75,65.59 20.82,62.22 19.43,58.72 18.08,55.3 17.2,51.64 17.06,47.96 c -0.2,-5.57 0.67,-11.07 2.28,-16.36 0.81,-2.69 1.51,-5.45 1.92,-8.16 0.14,-0.89 0.42,-1.67 0.42,-2.73 -0.01,-2.06 0.01,-4.02 -0.41,-5.9 -0.63,-2.77 -1.66,-6.22 -4.19,-7 -0.88,-0.27 -1.95,-0.22 -3.25,0.31 -2.28,0.93 -2.14,2.32 -1.68,4.42 0.42,1.89 0.58,3.52 0.09,5.42 -0.47,1.82 -1.14,3.69 -2.07,5.42 -2.59,4.76 -5,9.43 -6.06,14.81 -0.95,4.91 -1.64,10.12 -1.47,15.14 0.59,17.17 12.8,31.9 28.6,37.52 -1.33,1.34 -2.72,2.56 -4.14,3.31 -3.82,2.03 -9.11,1.68 -12.34,-1.1 -3.37,-2.89 -7.49,-6.44 -12.25,-5.9 -1.24,0.14 -2.08,1.35 -2.17,2.53 -0.13,1.64 1.25,2.75 2.38,3.7 2.2,1.86 4.62,3.56 6.64,5.59 3.01,3.02 5.66,6.36 9.76,7.92 7.69,2.92 13.82,-1.16 20.48,-4.37 1.3,-0.63 3.55,-0.73 3.95,0.99 0.98,4.19 -4.11,7.82 -6.78,10.2 -1.78,1.58 -4.01,2.77 -6.43,2.76 -2.06,-0.01 -4.88,-0.62 -5.29,2 -0.37,2.41 0.31,4.44 2.4,5.79 1.26,0.81 2.76,1.23 4.23,1.34 2.51,0.2 4.79,0.22 7.17,-0.64 2.82,-1.02 5.46,-2.57 8.03,-4.1 4.39,-2.61 8.09,-6.12 11.7,-9.71 2.77,-2.73 6.31,-6.76 10.36,-3.58 4.79,3.76 6.78,10.15 11.7,14.02 4.2,3.31 7.87,6.35 13.59,4.4 2.02,-0.69 4.89,-2.17 5.32,-4.4 0.52,-2.75 -1.89,-3.01 -3.87,-3.34 -6.3,-1.08 -9.03,-6.06 -11.26,-11.57 -0.61,-1.51 -1.02,-5.6 1.92,-4.47 1.11,0.43 1.71,2.01 2.43,2.89 0.95,1.17 2.12,2.19 3.31,3.11 2.38,1.83 5.13,3.4 8.02,4.27 8.01,2.42 17.86,-0.38 23.16,-6.83 0.71,-0.86 2.06,-2.8 2.1,-3.96 0.06,-1.84 -1.74,-2.63 -3.29,-2.19 z"
                 id="path11321" />
            </g>
            <path
               style="fill:#855c52"
               inkscape:connector-curvature="0"
               d="m 63.51,71.27 c 1.12,-0.81 1.95,-1.69 2.46,-3.06 0.3,-0.8 0.93,-2.22 1.92,-1.38 0.71,0.61 1.32,2.79 1.43,3.66 0.12,0.98 0.02,2.12 -0.01,3.11 -0.08,2.45 -2.09,5.07 -3.9,6.67 -2.19,1.92 -6.09,3.45 -8.96,3.53 -0.88,0.02 -2.4,0.29 -3.18,-0.22 -1.6,-1.05 1.56,-2.97 2.3,-3.6 2.25,-1.93 4.08,-3.67 5.33,-6.38 0.45,-0.96 1.11,-1.34 1.96,-1.88 0.22,-0.15 0.45,-0.3 0.65,-0.45 z"
               id="path11323" />
          </g>
          <path
             style="fill:#2f2f2f"
             inkscape:connector-curvature="0"
             d="m 42.65,49.41 c 0.64,-3.54 3.53,-5.97 6.46,-5.38 2.92,0.57 4.79,3.94 4.15,7.49 -0.63,3.56 -3.52,5.96 -6.43,5.4 -2.93,-0.59 -4.81,-3.94 -4.18,-7.51 z"
             id="path11325" />
          <path
             style="fill:#2f2f2f"
             inkscape:connector-curvature="0"
             d="m 73.25,59.81 c -2.96,0.08 -5.43,-2.75 -5.47,-6.37 -0.05,-3.61 2.34,-6.63 5.32,-6.71 2.99,-0.12 5.44,2.75 5.49,6.36 0.05,3.61 -2.35,6.63 -5.34,6.72 z"
             id="path11327" />
        </g>
        <path
           style="fill:#fcd4b5"
           inkscape:connector-curvature="0"
           d="m 57.82,82.85 c -1.7,0.72 -3.65,0.99 -5.58,0.78 C 51.73,83.58 51.21,83.49 50.7,83.37 48.05,82.74 45.54,81.24 43.89,78.84 43.18,77.82 42.7,76.74 42.4,75.65 42.1,74.51 42,73.36 42.07,72.24 42.39,66.72 46.94,62 52.71,62.73 c 5.5,0.7 10.04,5.72 10.37,11.27 0.25,4.57 -2.08,7.51 -5.26,8.85 z"
           id="path11329" />
        <path
           style="fill:#2f2f2f"
           inkscape:connector-curvature="0"
           d="m 52.63,67.24 c -3.71,-0.5 -6.49,3.49 -5.51,7.35 0.16,0.63 0.42,1.24 0.8,1.82 2.91,4.49 10.6,3.52 10.26,-2.75 -0.17,-3.16 -2.61,-6.02 -5.55,-6.42 z"
           id="path11331" />
      </g>
      <g
         id="g11333">
        <path
           style="fill:#fcd4b5"
           inkscape:connector-curvature="0"
           d="m 105.24,84.16 c -0.46,1.35 -2.1,2.23 -3.3,2.59 -0.62,0.19 -2.73,0.66 -2.24,-0.79 0.47,-1.39 2.29,-2.34 3.55,-2.72 0.81,-0.25 2.52,-0.6 1.99,0.92 z"
           id="path11335" />
        <path
           style="fill:#fcd4b5"
           inkscape:connector-curvature="0"
           d="m 112.84,75.81 c 0.35,-0.02 0.68,0.1 0.85,0.45 0.67,1.33 -1.14,3.1 -2.01,3.74 -1.78,1.31 -3.2,-0.11 -1.79,-2.06 0.37,-0.51 0.75,-0.96 1.24,-1.38 0.36,-0.3 1.09,-0.72 1.71,-0.75 z"
           id="path11337" />
        <path
           style="fill:#fcd4b5"
           inkscape:connector-curvature="0"
           d="m 120.13,70.09 c -0.66,1.69 -2.54,3.53 -2.93,2.25 -0.3,-1 0.28,-2.28 0.82,-3.06 0.38,-0.52 1.14,-1.65 1.88,-1.16 0.58,0.37 0.55,1.15 0.23,1.97 z"
           id="path11339" />
        <g
           id="g11341">
          <path
             style="fill:#fcd4b5"
             inkscape:connector-curvature="0"
             d="m 123.85,62.09 c -0.08,0.52 -0.22,1.02 -0.36,1.29 -0.31,0.58 -1.37,1.94 -1.9,1.09 -0.51,-0.79 -0.19,-2.28 0.21,-3.04 0.28,-0.52 0.58,-1 1.03,-1.27 1.03,-0.58 1.18,0.75 1.02,1.93 z"
             id="path11343" />
          <path
             style="fill:#fcd4b5"
             inkscape:connector-curvature="0"
             d="m 125.26,53.11 c 0.06,0.5 0.05,0.98 -0.03,1.26 -0.15,0.61 -0.79,2.11 -1.47,1.47 -0.63,-0.58 -0.68,-2.01 -0.48,-2.81 0.13,-0.54 0.29,-1.05 0.64,-1.4 0.78,-0.79 1.22,0.38 1.34,1.48 z"
             id="path11345" />
          <path
             style="fill:#fcd4b5"
             inkscape:connector-curvature="0"
             d="m 125.4,45.58 c 0.06,0.6 0.04,1.16 -0.01,1.33 -0.09,0.4 -0.44,1.19 -0.84,1.33 -0.53,0.18 -0.76,-0.64 -0.82,-1.03 -0.07,-0.42 -0.02,-0.91 -0.02,-1.34 0.01,-0.58 0.22,-1.7 0.89,-1.91 0.51,-0.14 0.72,0.77 0.8,1.62 z"
             id="path11347" />
        </g>
      </g>
      <g
         id="g11349">
        <path
           style="fill:#fcd4b5"
           inkscape:connector-curvature="0"
           d="m 17.52,78.92 c 0.07,1.44 1.41,2.78 2.49,3.47 0.55,0.37 2.48,1.42 2.42,-0.13 -0.07,-1.49 -1.58,-2.94 -2.7,-3.67 -0.72,-0.46 -2.28,-1.3 -2.21,0.33 z"
           id="path11351" />
        <path
           style="fill:#fcd4b5"
           inkscape:connector-curvature="0"
           d="m 11.74,68.69 c -0.37,-0.13 -0.74,-0.1 -1.02,0.21 -1.1,1.18 0.23,3.56 0.96,4.5 1.45,1.9 3.35,0.86 2.48,-1.59 C 13.93,71.16 13.68,70.58 13.29,70 13.02,69.56 12.38,68.91 11.74,68.69 Z"
           id="path11353" />
        <path
           style="fill:#fcd4b5"
           inkscape:connector-curvature="0"
           d="m 5.91,60.54 c 0.18,1.95 1.57,4.44 2.37,3.22 0.6,-0.95 0.41,-2.44 0.07,-3.43 -0.23,-0.66 -0.68,-2.06 -1.6,-1.77 -0.71,0.21 -0.92,1.03 -0.84,1.98 z"
           id="path11355" />
        <g
           id="g11357">
          <path
             style="fill:#fcd4b5"
             inkscape:connector-curvature="0"
             d="M 4.48,51.09 C 4.41,51.66 4.39,52.22 4.46,52.54 4.6,53.24 5.29,54.97 6.1,54.26 6.88,53.6 7,51.95 6.82,51.05 6.69,50.42 6.52,49.83 6.13,49.42 5.23,48.49 4.67,49.82 4.48,51.09 Z"
             id="path11359" />
          <path
             style="fill:#fcd4b5"
             inkscape:connector-curvature="0"
             d="m 5.76,41.35 c -0.21,0.5 -0.35,1 -0.36,1.32 -0.03,0.68 0.18,2.42 1.08,1.98 0.84,-0.41 1.31,-1.88 1.36,-2.76 0.02,-0.6 0.02,-1.18 -0.24,-1.65 -0.59,-1.08 -1.4,0 -1.84,1.11 z"
             id="path11361" />
          <path
             style="fill:#fcd4b5"
             inkscape:connector-curvature="0"
             d="m 7.89,33.49 c -0.24,0.61 -0.4,1.2 -0.4,1.39 -0.03,0.44 0.09,1.38 0.47,1.64 0.5,0.34 0.98,-0.43 1.17,-0.82 0.2,-0.42 0.3,-0.94 0.43,-1.39 0.17,-0.6 0.28,-1.84 -0.36,-2.25 -0.47,-0.31 -0.97,0.57 -1.31,1.43 z"
             id="path11363" />
        </g>
      </g>
      <g
         id="g11365">
        <path
           style="fill:#fcd4b5"
           inkscape:connector-curvature="0"
           d="m 35.08,102.7 c 1.9,-0.45 4.16,-2.19 2.85,-2.79 -1.02,-0.48 -2.48,-0.06 -3.4,0.41 -0.62,0.32 -1.95,0.97 -1.53,1.83 0.32,0.67 1.16,0.77 2.08,0.55 z"
           id="path11367" />
        <path
           style="fill:#fcd4b5"
           inkscape:connector-curvature="0"
           d="m 28.2,105.38 c 0.66,-0.05 3.81,-0.72 2.58,-1.96 -0.6,-0.6 -2.04,-0.19 -2.72,0.08 -0.46,0.18 -1.01,0.39 -1.31,0.79 -0.48,0.66 -0.01,1.12 0.71,1.11 0.23,0 0.48,0 0.74,-0.02 z"
           id="path11369" />
        <path
           style="fill:#fcd4b5"
           inkscape:connector-curvature="0"
           d="m 20.69,105.3 c 0.23,0.08 0.43,0.14 0.55,0.17 0.56,0.14 2.5,0.7 2.8,-0.06 0.43,-1.04 -1.71,-1.33 -2.28,-1.37 -0.42,-0.02 -1.68,-0.06 -1.93,0.37 -0.24,0.4 0.36,0.7 0.86,0.89 z"
           id="path11371" />
      </g>
      <g
         id="g11373">
        <path
           style="fill:#fcd4b5"
           inkscape:connector-curvature="0"
           d="m 116.79,108.38 c 1.24,-0.18 2.73,-1.25 2.78,-2.28 0.09,-1.99 -2.46,-1.21 -3.42,-0.6 -0.61,0.39 -1.07,0.99 -1,1.75 0.09,0.96 0.81,1.25 1.64,1.13 z"
           id="path11375" />
        <path
           style="fill:#fcd4b5"
           inkscape:connector-curvature="0"
           d="m 110.38,111.02 c 0.8,0 1.73,-0.41 2.37,-0.88 0.83,-0.62 0.7,-1.46 -0.22,-1.87 -0.64,-0.29 -1.46,-0.08 -2.06,0.17 -0.62,0.26 -1.36,0.67 -1.42,1.4 -0.08,0.88 0.55,1.18 1.33,1.18 z"
           id="path11377" />
        <path
           style="fill:#fcd4b5"
           inkscape:connector-curvature="0"
           d="m 102.51,111.06 c 0.78,0.56 2.99,0.49 3.52,0.22 0.9,-0.46 0.13,-1.24 -0.51,-1.48 -0.74,-0.28 -1.64,-0.22 -2.39,-0.02 -0.27,0.08 -0.67,0.2 -0.8,0.47 -0.19,0.36 -0.09,0.62 0.18,0.81 z"
           id="path11379" />
      </g>
      <g
         id="g11381">
        <path
           style="fill:#fcd4b5"
           inkscape:connector-curvature="0"
           d="m 28.85,123.04 c -0.5,-0.31 -1.16,-0.92 -1.02,-1.59 0.17,-0.83 0.96,-1.12 1.73,-1.08 1.28,0.07 3.65,1.77 1.82,2.98 -0.63,0.42 -1.95,0.05 -2.53,-0.31 z"
           id="path11383" />
        <path
           style="fill:#fcd4b5"
           inkscape:connector-curvature="0"
           d="m 34.04,124.15 c -0.15,-0.05 -0.28,-0.14 -0.35,-0.29 -0.65,-1.22 1.28,-0.81 1.85,-0.63 1.71,0.55 0.78,1.19 -0.62,1.02 -0.26,-0.03 -0.6,0 -0.88,-0.1 z"
           id="path11385" />
      </g>
      <g
         id="g11387">
        <path
           style="fill:#fcd4b5"
           inkscape:connector-curvature="0"
           d="m 13.54,12.24 c 0.04,-0.46 0.24,-0.86 0.73,-0.94 0.35,-0.05 0.49,0.04 0.77,0.29 0.67,0.6 1.06,1.62 0.92,2.51 -0.11,0.7 -0.68,1.28 -1.4,0.93 -0.76,-0.37 -1.09,-2.01 -1.02,-2.79 z"
           id="path11389" />
        <path
           style="fill:#fcd4b5"
           inkscape:connector-curvature="0"
           d="m 14.27,17.89 c 0.25,-0.31 0.54,-0.46 0.88,-0.25 0.94,0.61 -0.37,2.96 -1.27,2.95 -0.55,-0.01 -0.52,-0.31 -0.42,-0.75 0.07,-0.35 0.36,-1.4 0.81,-1.95 z"
           id="path11391" />
      </g>
      <g
         id="g11393">
        <path
           style="fill:#fcd4b5"
           inkscape:connector-curvature="0"
           d="m 3.71,91.93 c -0.44,-1 0.26,-1.87 1.28,-1.87 0.64,0 0.97,0.17 1.44,0.56 0.39,0.32 0.52,0.6 0.58,1.11 0.11,0.94 -0.35,1.64 -1.31,1.53 -0.8,-0.09 -1.64,-0.6 -1.99,-1.33 z"
           id="path11395" />
        <path
           style="fill:#fcd4b5"
           inkscape:connector-curvature="0"
           d="m 8.22,94.7 c -0.19,-0.67 0.02,-1.3 1.02,-1.14 0.74,0.12 1.28,0.87 1.41,1.58 0.17,0.98 -0.62,1.26 -1.43,0.87 -0.45,-0.22 -0.84,-0.78 -1,-1.31 z"
           id="path11397" />
      </g>
      <g
         id="g11399">
        <path
           style="fill:#fcd4b5"
           inkscape:connector-curvature="0"
           d="m 114.61,11.11 c -0.05,-0.46 -0.26,-0.86 -0.75,-0.93 -0.35,-0.05 -0.49,0.05 -0.77,0.31 -0.66,0.62 -1.03,1.64 -0.87,2.53 0.12,0.7 0.71,1.27 1.42,0.9 0.76,-0.39 1.06,-2.03 0.97,-2.81 z"
           id="path11401" />
        <path
           style="fill:#fcd4b5"
           inkscape:connector-curvature="0"
           d="m 114.1,16.74 c -0.61,-0.59 -1.07,0.14 -0.91,1 0.1,0.56 0.29,1.19 0.82,1.48 0.5,0.27 1.09,0.19 1.03,-0.49 -0.04,-0.52 -0.43,-1.31 -0.73,-1.74 -0.08,-0.09 -0.14,-0.18 -0.21,-0.25 z"
           id="path11403" />
      </g>
      <g
         id="g11405">
        <path
           style="fill:#fcd4b5"
           inkscape:connector-curvature="0"
           d="m 93.33,124.45 c 0.42,-0.11 0.75,-0.25 0.91,-0.41 0.47,-0.45 0.75,-1.17 -0.01,-1.5 -0.66,-0.29 -1.57,-0.17 -2.31,-0.01 -0.55,0.12 -1.67,0.5 -1.44,1.24 0.27,0.87 2.22,0.84 2.85,0.68 z"
           id="path11407" />
        <path
           style="fill:#fcd4b5"
           inkscape:connector-curvature="0"
           d="m 87.12,123.86 c 0.18,0.04 0.37,0.04 0.54,-0.06 1.43,-0.8 -0.76,-1.62 -1.44,-1.8 -2.06,-0.54 -1.54,0.69 -0.03,1.4 0.27,0.13 0.6,0.37 0.93,0.46 z"
           id="path11409" />
      </g>
    </g>
    <g
       transform="matrix(0.91407678,0,0,0.91407678,50.814548,-102.13878)"
       id="g12721">
      <g
         id="g12766"
         transform="translate(2.9330815e-6,0)"
         style="fill:#0b5721;fill-opacity:1">
        <path
           inkscape:connector-curvature="0"
           style="fill:#0b5721;fill-opacity:1"
           d="m 296.72857,539.95506 13.6,-21.1 -12,0 c -0.1,-0.6 -0.2,-1.3 -0.2,-2 0,-0.7 0.1,-1.4 0.2,-2 l 19.4,0 0.3,0.7 -13.8,21.1 12.8,0 c 0.1,0.7 0.2,1.4 0.2,2.1 0,0.7 0,1.3 -0.2,1.9 l -20.1,0 -0.2,-0.7 z"
           id="path5570" />
        <path
           inkscape:connector-curvature="0"
           style="fill:#0b5721;fill-opacity:1"
           d="m 323.82857,514.75506 c 0.4,-0.1 0.8,-0.1 1.3,-0.2 0.5,0 0.9,0 1.2,0 0.4,0 0.8,0 1.3,0 0.5,0 0.9,0.1 1.3,0.2 l 0,14.1 c 0,1.6 0.2,2.9 0.4,4 0.3,1.1 0.8,1.9 1.4,2.5 0.6,0.6 1.3,1 2.2,1.3 0.9,0.2 1.9,0.4 3,0.4 1.7,0 3.2,-0.2 4.4,-0.6 l 0,-21.7 c 0.4,-0.1 0.8,-0.1 1.2,-0.2 0.5,0 0.9,0 1.2,0 0.4,0 0.8,0 1.2,0 0.5,0 0.9,0.1 1.2,0.2 l 0,25 c -1.2,0.3 -2.6,0.7 -4.2,1 -1.6,0.3 -3.3,0.5 -5.1,0.5 -1.6,0 -3.2,-0.1 -4.7,-0.4 -1.5,-0.3 -2.7,-0.9 -3.8,-1.7 -1.1,-0.9 -2,-2.1 -2.6,-3.7 -0.6,-1.6 -1,-3.7 -1,-6.2 l 0,-14.5 z"
           id="path5577" />
        <path
           inkscape:connector-curvature="0"
           style="fill:#0b5721;fill-opacity:1"
           d="m 352.92857,503.65506 c 0.4,-0.1 0.8,-0.1 1.2,-0.2 0.5,0 0.9,0 1.2,0 0.3,0 0.8,0 1.2,0 0.5,0 0.9,0.1 1.2,0.2 l 0,29.1 c 0,0.9 0.1,1.7 0.2,2.2 0.2,0.5 0.4,0.9 0.7,1.2 0.3,0.3 0.6,0.5 1,0.6 0.4,0.1 0.8,0.1 1.2,0.1 0.3,0 0.6,0 1,0 0.4,0 0.7,-0.1 1,-0.2 0.3,1.2 0.5,2.4 0.5,3.8 -0.5,0.2 -1,0.3 -1.7,0.3 -0.7,0.1 -1.3,0.1 -1.9,0.1 -1,0 -1.9,-0.1 -2.7,-0.4 -0.8,-0.2 -1.6,-0.6 -2.2,-1.2 -0.6,-0.5 -1.1,-1.3 -1.5,-2.2 -0.4,-0.9 -0.6,-2 -0.6,-3.4 l 0,-30 z"
           id="path5584" />
        <path
           inkscape:connector-curvature="0"
           style="fill:#0b5721;fill-opacity:1"
           d="m 375.02857,514.75506 0,25.8 c -0.4,0.1 -0.8,0.1 -1.2,0.2 -0.5,0 -0.9,0 -1.2,0 -0.3,0 -0.7,0 -1.2,0 -0.5,0 -0.9,-0.1 -1.2,-0.2 l 0,-25.8 c 0,0 0.9,0.2 2.6,0.2 1.6,-0.1 2.2,-0.2 2.2,-0.2 z"
           id="path5591" />
        <path
           inkscape:connector-curvature="0"
           style="fill:#0b5721;fill-opacity:1"
           d="m 370.22857,508.05506 c -0.1,-0.4 -0.1,-0.7 -0.1,-1.1 0,-0.4 0,-0.8 0,-1.1 0,-0.3 0,-0.7 0,-1.1 0,-0.4 0.1,-0.8 0.1,-1.1 0.4,-0.1 0.8,-0.1 1.2,-0.1 0.4,0 0.8,0 1.1,0 0.3,0 0.7,0 1.1,0 0.4,0 0.8,0.1 1.2,0.1 0.1,0.3 0.1,0.7 0.1,1.1 0,0.4 0,0.8 0,1.1 0,0.3 0,0.7 0,1.1 0,0.4 0,0.8 -0.1,1.1 -0.4,0.1 -0.7,0.1 -1.2,0.1 -0.4,0 -0.8,0 -1.1,0 -0.3,0 -0.7,0 -1.2,0 -0.3,0 -0.7,0 -1.1,-0.1 z"
           id="path5598" />
        <path
           inkscape:connector-curvature="0"
           style="fill:#0b5721;fill-opacity:1"
           d="m 387.82857,518.35506 c 0.3,-0.5 0.7,-1.1 1.2,-1.6 0.5,-0.5 1,-1 1.7,-1.4 0.6,-0.4 1.4,-0.7 2.2,-1 0.8,-0.2 1.7,-0.4 2.7,-0.4 1.5,0 2.9,0.3 4.2,0.8 1.3,0.5 2.4,1.3 3.3,2.3 0.9,1.1 1.6,2.4 2.2,4 0.5,1.6 0.8,3.5 0.8,5.8 0,4.4 -1.2,7.9 -3.6,10.4 -2.4,2.5 -5.8,3.7 -10.2,3.7 -0.7,0 -1.5,-0.1 -2.3,-0.2 -0.8,-0.1 -1.4,-0.2 -2,-0.4 l 0,15 c -0.4,0.1 -0.8,0.1 -1.3,0.2 -0.5,0 -0.9,0 -1.2,0 -0.4,0 -0.8,0 -1.2,0 -0.5,0 -0.9,-0.1 -1.2,-0.2 l 0,-40.6 c 0.3,-0.1 0.7,-0.1 1,-0.2 0.4,0 0.7,0 1.1,0 0.3,0 0.7,0 1.1,0 0.4,0 1.2,0.2 1.6,0.3 l -0.1,3.5 z m 0.2,17.9 c 0.6,0.2 1.3,0.4 2,0.5 0.7,0.1 1.5,0.2 2.6,0.2 1.2,0 2.3,-0.2 3.3,-0.6 1,-0.4 1.9,-1 2.6,-1.8 0.7,-0.8 1.3,-1.8 1.7,-3 0.4,-1.2 0.6,-2.7 0.6,-4.4 0,-2.7 -0.5,-4.8 -1.5,-6.4 -1,-1.6 -2.6,-2.4 -4.9,-2.4 -0.8,0 -1.6,0.2 -2.4,0.5 -0.8,0.3 -1.4,0.8 -2.1,1.4 -0.6,0.6 -1.1,1.4 -1.5,2.3 -0.4,0.9 -0.6,2 -0.6,3.3 l 0,10.4 z"
           id="path5605" />
      </g>
      <text
         xml:space="preserve"
         style="font-style:normal;font-variant:normal;font-weight:normal;font-stretch:normal;font-size:34.1875px;line-height:125%;font-family:Ubuntu;-inkscape-font-specification:Ubuntu;letter-spacing:0px;word-spacing:0px;fill:#000000;fill-opacity:1;stroke:none;stroke-width:1px;stroke-linecap:butt;stroke-linejoin:miter;stroke-opacity:1"
         x="310.39078"
         y="529.03253"
         id="text12762"
         sodipodi:linespacing="125%"><tspan
           sodipodi:role="line"
           id="tspan12764"
           x="310.39078"
           y="529.03253"
           style="font-style:normal;font-variant:normal;font-weight:normal;font-stretch:normal;font-size:34.1875px;font-family:Ubuntu;-inkscape-font-specification:Ubuntu" /></text>
    </g>
  </g>
</svg>
