<?xml version="1.0" encoding="utf-8"?>
<!-- Generator: Adobe Illustrator 19.0.0, SVG Export Plug-In . SVG Version: 6.00 Build 0)  -->


<svg version="1.1" id="Layer_1" xmlns="http://www.w3.org/2000/svg" xmlns:xlink="http://www.w3.org/1999/xlink" x="0px" y="0px"
	 viewBox="0 0 988.6 156" style="enable-background:new 0 0 988.6 156;" xml:space="preserve">
<defs>
	<style>
		@import url(//db.onlinewebfonts.com/c/06d1b1518a180e5a9cca2c23401ec40a?family=Circular+Std+Bold);
	</style>
</defs>

<style type="text/css">
	.st0{
		font-family:'CircularStdBold';
		src: url('../fonts/CircularStdBold/CircularStdBold.woff');
	}
	.st1{font-size:132px;}
	.st2{clip-path:url(#XMLID_54_);}
	.st3{fill:#F79737;}
	.st4{display:none;fill:#E9F401;}
	.st5{display:none;fill:#E7F405;}
	.st6{fill:#FF6A48;}
	.st7{fill:#EF489C;}
	.st8{fill:#C146A4;}
	.st9{fill:#97469E;}
	.st10{text-align:center;}
</style>
<image style="display:none;overflow:visible;" width="11726" height="5247" id="XMLID_43_" xlink:href="logo_new_des_ekdum_final_wala_wala.png"  transform="matrix(4.962099e-002 0 0 4.962099e-002 1020.3466 -52.1846)">
</image>
<g id="XMLID_50_">
	<defs>
		<rect id="XMLID_1_" x="0" y="28.5" width="1058.9" height="216"/>
		<text id="XMLID_2_" transform="matrix(1 0 0 1 7.534027e-005 124.0666)" class="st0 st1">hackinthenorth.</text>
	</defs>
	<clipPath id="XMLID_54_">
		<use xlink:href="#XMLID_2_"  style="overflow:visible;"/>
	</clipPath>
	<g id="XMLID_51_" class="st2">
		<g id="XMLID_52_">
			<path id="XMLID_49_" class="st3" d="M948.4,199.5c35.2-65.1,34.1-132.1,33.7-161.5c-0.2-15.7-1.4-28.8-2.5-38c-7-8-14-16-21-24
				c-6.5-3.3-16.2-7.4-28.5-9c-30.1-3.9-54.4,10.2-66,16.5c-62.3,33.6-85.3,17.3-120,40.5c-68.7,46-102.7,193-34.5,255
				c37.9,34.5,98.7,34.7,141,19.5C905.6,278.7,930.6,232.4,948.4,199.5z"/>
			<path id="XMLID_48_" class="st4" d="M883.2-45c1.7-6.8-13-15.7-28-23c-54,0.5-98.1,7.2-129.1,13.6c-48.8,10-80.7,16.6-118.5,39.4
				c-19.7,11.9-53,35.5-81,75c-10.1,14.2-19.2,34-37.5,73.5c-33.8,73-31.1,82.7-27.5,87.5c10,13.4,36.9,3,74.9-1.8
				c110.8-14,166.8,38.1,190.8,11.5c25-27.7-40.5-78.8-17.8-151.2C734.2,1,840.3-32.2,847.7-32.9c0.2,0,2.6-0.2,5.7-0.7
				c4.2-0.7,8-1.8,13.8-3.4C881.5-41.1,882.9-43.7,883.2-45z"/>
			<path id="XMLID_47_" class="st5" d="M875.5-71.8C877-41.3,630.3-56,560.8,51.9c-44.9,69.5,17.8,137.7-33,178.5
				c-49.8,40-166.2,19.6-185.8-23c-22.1-48,73.8-134.1,100.4-157.8c1.9-1.7,3.4-3,4.5-4C586.7-77.2,775-117,859.5-84.2
				C870-80.2,875.2-76.2,875.5-71.8z"/>
			<path id="XMLID_46_" class="st6" d="M944.6-89.5c1.5,2.9,0.4,5.5,2.8,8.5c5.2,6.8,17.3,3.7,18,5.6C967.8-69.1,861.1-24,861.1-24
				C801.6,1.1,722.8,56.5,646.6,192c-83,0.5-166,1-249,1.5c32.6-38.7,80.6-87.7,147-133.5c70.1-48.4,136.6-76.4,186-93
				c8.9,0.1,22-0.2,37.5-3c6.6-1.2,29.2-4.4,57-19.5c30.2-16.5,52-40,90.5-41.8c0.5,0,0.9,0,1.2,0C922.3-97.5,940.4-97.6,944.6-89.5
				z"/>
			<path id="XMLID_45_" class="st7" d="M946.2-100.6c3.5,3,5.9,6.5,5.9,6.5c0,0,0,0,0,0c1.2,1.9,1.8,3.2,1.8,3.2
				c1.8,4.3,1.5,8.3,1.1,10.6c-21.6,0-55.8,0.6-97.4,4.4c-14.8,1.2-36.2,3.3-61.7,7.3c-18.2,8.9-45.6,21.2-80.2,32.5
				c-39.3,12.9-69,18.3-75,19.5c-41.1,8.5-105,57.7-207,228c-56-0.5-112-1-168-1.5c6.8-16.6,48.9-116.3,127.5-177
				c38.9-30.1,84-49.5,84-49.5c25.5-11,45.6-16.4,54-18.7C531.1-35.2,904-136.2,946.2-100.6z"/>
			<path id="XMLID_44_" class="st8" d="M918.9-107.9c0,0,7.6,4.3,7.6,4.3c2,1.2,3.3,2,3.3,2c3.1,2,5.7,3.7,7.7,5.2
				c-41.1-8.8-316.6-63-528.1,116.2C328,88.8,283.6,169.1,259.6,225c-48,2-96,4-144,6c13-43.8,45.4-130.3,126-204
				c23.9-21.9,80.9-72.8,168-94.5c30.2-7.5,45-6.8,82.6-10.7c51.8-5.4,126.9-17.6,219.7-48.3C711.9-126.5,853.6-144.7,918.9-107.9z"
				/>
			<path id="XMLID_42_" class="st9" d="M884.8-132.7c5.7,3,10.9,6.3,10.9,6.3c3.1,2,5.7,3.7,7.7,5.2
				C856.9-131.9,505.8-206.7,259,17.3c-74.5,67.6-119.2,144.1-146.4,206.2c-92.7-8.3-185.5-16.5-278.2-24.8c9-23.8,26-57.7,60-91.1
				c18.3-18,34.4-28.7,67.6-51.4C83.3-26.6,70.7-20.6,84.5-28.3c55.7-31.1,84.4-30.6,321.5-89.3c32-7.9,57.9-14.5,73.5-18.4
				C479.6-136,760.4-198.2,884.8-132.7z"/>
		</g>
	</g>
</g>

</svg>
