<svg width="143" height="59" viewBox="0 0 143 59" fill="none" xmlns="http://www.w3.org/2000/svg">
<g opacity="0.8">
<path d="M59.4775 29.5C59.4775 45.7924 46.163 59 29.7388 59C13.3145 59 0 45.7924 0 29.5C0 13.2076 13.3145 0 29.7388 0C46.163 0 59.4775 13.2076 59.4775 29.5Z" fill="white"/>
<path d="M91.9919 21.9755V16.9133H74.9377L71.9281 33.6575H77.5111C78.1217 32.821 78.776 32.2153 79.4739 31.8403C80.1717 31.4365 81.0731 31.2346 82.1781 31.2346C83.0214 31.2346 83.7628 31.3788 84.4026 31.6673C85.0423 31.9557 85.5947 32.3595 86.06 32.8787C86.5252 33.3979 86.8742 34.0037 87.1068 34.6959C87.3394 35.3882 87.4557 36.1237 87.4557 36.9025C87.4557 37.6525 87.3249 38.388 87.0632 39.1091C86.8306 39.8014 86.4816 40.4216 86.0164 40.9696C85.5802 41.4888 85.0277 41.9215 84.3589 42.2676C83.7192 42.5849 82.9923 42.7435 82.1781 42.7435C80.7824 42.7435 79.6338 42.3397 78.7324 41.5321C77.8309 40.6956 77.3075 39.5851 77.1622 38.2005H70.9686C70.9976 39.787 71.3175 41.1859 71.9281 42.3974C72.5678 43.58 73.4111 44.5752 74.4579 45.3828C75.5047 46.1904 76.6969 46.7962 78.0345 47.2C79.4012 47.575 80.826 47.7625 82.3089 47.7625C83.8501 47.7913 85.304 47.5461 86.6706 47.0269C88.0373 46.4789 89.2295 45.7145 90.2472 44.7338C91.294 43.7531 92.1227 42.5993 92.7334 41.2725C93.344 39.9168 93.6493 38.4601 93.6493 36.9025C93.6493 35.4892 93.4312 34.1623 92.9951 32.922C92.588 31.6528 91.9773 30.5568 91.1632 29.6337C90.3781 28.7107 89.404 27.9752 88.2408 27.4271C87.0777 26.8791 85.7401 26.6051 84.2281 26.6051C83.0068 26.6051 81.9164 26.7926 80.9568 27.1675C79.9973 27.5137 79.0958 28.105 78.2526 28.9415L78.1653 28.8549L79.3866 21.9755H91.9919Z" fill="white"/>
<path d="M102.271 21.3698V16.3076H96.0772V21.3698H102.271ZM96.0772 24.8311V47.2H102.271V24.8311H96.0772Z" fill="white"/>
<path d="M106.275 24.8311V47.2H112.469V37.1189C112.469 36.1093 112.571 35.1719 112.774 34.3065C112.978 33.4412 113.312 32.6912 113.777 32.0567C114.272 31.3932 114.912 30.874 115.697 30.4991C116.482 30.1241 117.441 29.9366 118.575 29.9366C118.953 29.9366 119.346 29.9654 119.753 30.0231C120.16 30.052 120.509 30.0952 120.8 30.1529V24.4417C120.305 24.2975 119.855 24.2254 119.448 24.2254C118.663 24.2254 117.907 24.3408 117.18 24.5715C116.453 24.8023 115.769 25.134 115.13 25.5667C114.49 25.9705 113.923 26.4753 113.429 27.081C112.934 27.6579 112.542 28.2925 112.251 28.9847H112.164V24.8311H106.275Z" fill="white"/>
<path d="M136.768 33.6143H126.692C126.721 33.1816 126.808 32.6912 126.954 32.1432C127.128 31.5952 127.405 31.076 127.783 30.5856C128.19 30.0952 128.713 29.6914 129.353 29.3741C130.022 29.028 130.85 28.8549 131.839 28.8549C133.351 28.8549 134.47 29.2588 135.197 30.0664C135.953 30.874 136.477 32.0567 136.768 33.6143ZM126.692 37.5083H142.961C143.078 35.7776 142.932 34.119 142.525 32.5326C142.118 30.9462 141.449 29.5328 140.519 28.2925C139.617 27.0522 138.454 26.0714 137.029 25.3503C135.605 24.6004 133.933 24.2254 132.013 24.2254C130.298 24.2254 128.728 24.5283 127.303 25.134C125.907 25.7397 124.7 26.5762 123.683 27.6435C122.665 28.6819 121.88 29.9222 121.327 31.3644C120.775 32.8066 120.499 34.3642 120.499 36.0372C120.499 37.7679 120.76 39.3543 121.284 40.7965C121.836 42.2388 122.607 43.4791 123.595 44.5175C124.584 45.5559 125.791 46.3635 127.216 46.9404C128.64 47.4884 130.24 47.7625 132.013 47.7625C134.572 47.7625 136.753 47.1856 138.556 46.0318C140.359 44.878 141.696 42.9599 142.569 40.2773H137.117C136.913 40.9696 136.361 41.633 135.459 42.2676C134.558 42.8733 133.482 43.1762 132.231 43.1762C130.487 43.1762 129.149 42.7291 128.219 41.8349C127.288 40.9408 126.779 39.4985 126.692 37.5083Z" fill="white"/>
<path fill-rule="evenodd" clip-rule="evenodd" d="M12.2231 26.2585C10.3506 28.1487 10.3773 31.1868 12.2828 33.0442L23.3484 43.8311L37.7983 29.4404L35.0341 26.7556L24.8887 36.9197C24.0947 37.7152 22.8051 37.7346 21.9872 36.9632L15.8998 31.2225C15.0559 30.4266 15.0382 29.0976 15.8605 28.2798L32.522 11.7107C30.6128 10.284 27.8867 10.447 26.1659 12.1841L12.2231 26.2585ZM35.4557 14.5124L20.7529 28.9263L23.4594 31.6682L35.2645 20.2435L42.8062 27.4864C43.6326 28.2801 43.6496 29.5894 42.8441 30.404L26.514 46.9165C28.4223 48.732 31.4532 48.6919 33.3116 46.8159L47.2545 32.7415C49.127 30.8513 49.1002 27.8133 47.1948 25.9558L41.3252 20.2341L35.4557 14.5124Z" fill="#000040"/>
</g>
<g opacity="0.8">
<path d="M59.4775 29.5C59.4775 45.7924 46.163 59 29.7388 59C13.3145 59 0 45.7924 0 29.5C0 13.2076 13.3145 0 29.7388 0C46.163 0 59.4775 13.2076 59.4775 29.5Z" fill="white"/>
<path d="M91.9919 21.9755V16.9133H74.9377L71.9281 33.6575H77.5111C78.1217 32.821 78.776 32.2153 79.4739 31.8403C80.1717 31.4365 81.0731 31.2346 82.1781 31.2346C83.0214 31.2346 83.7628 31.3788 84.4026 31.6673C85.0423 31.9557 85.5947 32.3595 86.06 32.8787C86.5252 33.3979 86.8742 34.0037 87.1068 34.6959C87.3394 35.3882 87.4557 36.1237 87.4557 36.9025C87.4557 37.6525 87.3249 38.388 87.0632 39.1091C86.8306 39.8014 86.4816 40.4216 86.0164 40.9696C85.5802 41.4888 85.0277 41.9215 84.3589 42.2676C83.7192 42.5849 82.9923 42.7435 82.1781 42.7435C80.7824 42.7435 79.6338 42.3397 78.7324 41.5321C77.8309 40.6956 77.3075 39.5851 77.1622 38.2005H70.9686C70.9976 39.787 71.3175 41.1859 71.9281 42.3974C72.5678 43.58 73.4111 44.5752 74.4579 45.3828C75.5047 46.1904 76.6969 46.7962 78.0345 47.2C79.4012 47.575 80.826 47.7625 82.3089 47.7625C83.8501 47.7913 85.304 47.5461 86.6706 47.0269C88.0373 46.4789 89.2295 45.7145 90.2472 44.7338C91.294 43.7531 92.1227 42.5993 92.7334 41.2725C93.344 39.9168 93.6493 38.4601 93.6493 36.9025C93.6493 35.4892 93.4312 34.1623 92.9951 32.922C92.588 31.6528 91.9773 30.5568 91.1632 29.6337C90.3781 28.7107 89.404 27.9752 88.2408 27.4271C87.0777 26.8791 85.7401 26.6051 84.2281 26.6051C83.0068 26.6051 81.9164 26.7926 80.9568 27.1675C79.9973 27.5137 79.0958 28.105 78.2526 28.9415L78.1653 28.8549L79.3866 21.9755H91.9919Z" fill="white"/>
<path d="M102.271 21.3698V16.3076H96.0772V21.3698H102.271ZM96.0772 24.8311V47.2H102.271V24.8311H96.0772Z" fill="white"/>
<path d="M106.275 24.8311V47.2H112.469V37.1189C112.469 36.1093 112.571 35.1719 112.774 34.3065C112.978 33.4412 113.312 32.6912 113.777 32.0567C114.272 31.3932 114.912 30.874 115.697 30.4991C116.482 30.1241 117.441 29.9366 118.575 29.9366C118.953 29.9366 119.346 29.9654 119.753 30.0231C120.16 30.052 120.509 30.0952 120.8 30.1529V24.4417C120.305 24.2975 119.855 24.2254 119.448 24.2254C118.663 24.2254 117.907 24.3408 117.18 24.5715C116.453 24.8023 115.769 25.134 115.13 25.5667C114.49 25.9705 113.923 26.4753 113.429 27.081C112.934 27.6579 112.542 28.2925 112.251 28.9847H112.164V24.8311H106.275Z" fill="white"/>
<path d="M136.768 33.6143H126.692C126.721 33.1816 126.808 32.6912 126.954 32.1432C127.128 31.5952 127.405 31.076 127.783 30.5856C128.19 30.0952 128.713 29.6914 129.353 29.3741C130.022 29.028 130.85 28.8549 131.839 28.8549C133.351 28.8549 134.47 29.2588 135.197 30.0664C135.953 30.874 136.477 32.0567 136.768 33.6143ZM126.692 37.5083H142.961C143.078 35.7776 142.932 34.119 142.525 32.5326C142.118 30.9462 141.449 29.5328 140.519 28.2925C139.617 27.0522 138.454 26.0714 137.029 25.3503C135.605 24.6004 133.933 24.2254 132.013 24.2254C130.298 24.2254 128.728 24.5283 127.303 25.134C125.907 25.7397 124.7 26.5762 123.683 27.6435C122.665 28.6819 121.88 29.9222 121.327 31.3644C120.775 32.8066 120.499 34.3642 120.499 36.0372C120.499 37.7679 120.76 39.3543 121.284 40.7965C121.836 42.2388 122.607 43.4791 123.595 44.5175C124.584 45.5559 125.791 46.3635 127.216 46.9404C128.64 47.4884 130.24 47.7625 132.013 47.7625C134.572 47.7625 136.753 47.1856 138.556 46.0318C140.359 44.878 141.696 42.9599 142.569 40.2773H137.117C136.913 40.9696 136.361 41.633 135.459 42.2676C134.558 42.8733 133.482 43.1762 132.231 43.1762C130.487 43.1762 129.149 42.7291 128.219 41.8349C127.288 40.9408 126.779 39.4985 126.692 37.5083Z" fill="white"/>
<path fill-rule="evenodd" clip-rule="evenodd" d="M12.2231 26.2585C10.3506 28.1487 10.3773 31.1868 12.2828 33.0442L23.3484 43.8311L37.7983 29.4404L35.0341 26.7556L24.8887 36.9197C24.0947 37.7152 22.8051 37.7346 21.9872 36.9632L15.8998 31.2225C15.0559 30.4266 15.0382 29.0976 15.8605 28.2798L32.522 11.7107C30.6128 10.284 27.8867 10.447 26.1659 12.1841L12.2231 26.2585ZM35.4557 14.5124L20.7529 28.9263L23.4594 31.6682L35.2645 20.2435L42.8062 27.4864C43.6326 28.2801 43.6496 29.5894 42.8441 30.404L26.514 46.9165C28.4223 48.732 31.4532 48.6919 33.3116 46.8159L47.2545 32.7415C49.127 30.8513 49.1002 27.8133 47.1948 25.9558L41.3252 20.2341L35.4557 14.5124Z" fill="#000040"/>
</g>
<g opacity="0.8">
<path d="M59.4775 29.5C59.4775 45.7924 46.163 59 29.7388 59C13.3145 59 0 45.7924 0 29.5C0 13.2076 13.3145 0 29.7388 0C46.163 0 59.4775 13.2076 59.4775 29.5Z" fill="white"/>
<path d="M91.9919 21.9755V16.9133H74.9377L71.9281 33.6575H77.5111C78.1217 32.821 78.776 32.2153 79.4739 31.8403C80.1717 31.4365 81.0731 31.2346 82.1781 31.2346C83.0214 31.2346 83.7628 31.3788 84.4026 31.6673C85.0423 31.9557 85.5947 32.3595 86.06 32.8787C86.5252 33.3979 86.8742 34.0037 87.1068 34.6959C87.3394 35.3882 87.4557 36.1237 87.4557 36.9025C87.4557 37.6525 87.3249 38.388 87.0632 39.1091C86.8306 39.8014 86.4816 40.4216 86.0164 40.9696C85.5802 41.4888 85.0277 41.9215 84.3589 42.2676C83.7192 42.5849 82.9923 42.7435 82.1781 42.7435C80.7824 42.7435 79.6338 42.3397 78.7324 41.5321C77.8309 40.6956 77.3075 39.5851 77.1622 38.2005H70.9686C70.9976 39.787 71.3175 41.1859 71.9281 42.3974C72.5678 43.58 73.4111 44.5752 74.4579 45.3828C75.5047 46.1904 76.6969 46.7962 78.0345 47.2C79.4012 47.575 80.826 47.7625 82.3089 47.7625C83.8501 47.7913 85.304 47.5461 86.6706 47.0269C88.0373 46.4789 89.2295 45.7145 90.2472 44.7338C91.294 43.7531 92.1227 42.5993 92.7334 41.2725C93.344 39.9168 93.6493 38.4601 93.6493 36.9025C93.6493 35.4892 93.4312 34.1623 92.9951 32.922C92.588 31.6528 91.9773 30.5568 91.1632 29.6337C90.3781 28.7107 89.404 27.9752 88.2408 27.4271C87.0777 26.8791 85.7401 26.6051 84.2281 26.6051C83.0068 26.6051 81.9164 26.7926 80.9568 27.1675C79.9973 27.5137 79.0958 28.105 78.2526 28.9415L78.1653 28.8549L79.3866 21.9755H91.9919Z" fill="white"/>
<path d="M102.271 21.3698V16.3076H96.0772V21.3698H102.271ZM96.0772 24.8311V47.2H102.271V24.8311H96.0772Z" fill="white"/>
<path d="M106.275 24.8311V47.2H112.469V37.1189C112.469 36.1093 112.571 35.1719 112.774 34.3065C112.978 33.4412 113.312 32.6912 113.777 32.0567C114.272 31.3932 114.912 30.874 115.697 30.4991C116.482 30.1241 117.441 29.9366 118.575 29.9366C118.953 29.9366 119.346 29.9654 119.753 30.0231C120.16 30.052 120.509 30.0952 120.8 30.1529V24.4417C120.305 24.2975 119.855 24.2254 119.448 24.2254C118.663 24.2254 117.907 24.3408 117.18 24.5715C116.453 24.8023 115.769 25.134 115.13 25.5667C114.49 25.9705 113.923 26.4753 113.429 27.081C112.934 27.6579 112.542 28.2925 112.251 28.9847H112.164V24.8311H106.275Z" fill="white"/>
<path d="M136.768 33.6143H126.692C126.721 33.1816 126.808 32.6912 126.954 32.1432C127.128 31.5952 127.405 31.076 127.783 30.5856C128.19 30.0952 128.713 29.6914 129.353 29.3741C130.022 29.028 130.85 28.8549 131.839 28.8549C133.351 28.8549 134.47 29.2588 135.197 30.0664C135.953 30.874 136.477 32.0567 136.768 33.6143ZM126.692 37.5083H142.961C143.078 35.7776 142.932 34.119 142.525 32.5326C142.118 30.9462 141.449 29.5328 140.519 28.2925C139.617 27.0522 138.454 26.0714 137.029 25.3503C135.605 24.6004 133.933 24.2254 132.013 24.2254C130.298 24.2254 128.728 24.5283 127.303 25.134C125.907 25.7397 124.7 26.5762 123.683 27.6435C122.665 28.6819 121.88 29.9222 121.327 31.3644C120.775 32.8066 120.499 34.3642 120.499 36.0372C120.499 37.7679 120.76 39.3543 121.284 40.7965C121.836 42.2388 122.607 43.4791 123.595 44.5175C124.584 45.5559 125.791 46.3635 127.216 46.9404C128.64 47.4884 130.24 47.7625 132.013 47.7625C134.572 47.7625 136.753 47.1856 138.556 46.0318C140.359 44.878 141.696 42.9599 142.569 40.2773H137.117C136.913 40.9696 136.361 41.633 135.459 42.2676C134.558 42.8733 133.482 43.1762 132.231 43.1762C130.487 43.1762 129.149 42.7291 128.219 41.8349C127.288 40.9408 126.779 39.4985 126.692 37.5083Z" fill="white"/>
<path fill-rule="evenodd" clip-rule="evenodd" d="M12.2231 26.2585C10.3506 28.1487 10.3773 31.1868 12.2828 33.0442L23.3484 43.8311L37.7983 29.4404L35.0341 26.7556L24.8887 36.9197C24.0947 37.7152 22.8051 37.7346 21.9872 36.9632L15.8998 31.2225C15.0559 30.4266 15.0382 29.0976 15.8605 28.2798L32.522 11.7107C30.6128 10.284 27.8867 10.447 26.1659 12.1841L12.2231 26.2585ZM35.4557 14.5124L20.7529 28.9263L23.4594 31.6682L35.2645 20.2435L42.8062 27.4864C43.6326 28.2801 43.6496 29.5894 42.8441 30.404L26.514 46.9165C28.4223 48.732 31.4532 48.6919 33.3116 46.8159L47.2545 32.7415C49.127 30.8513 49.1002 27.8133 47.1948 25.9558L41.3252 20.2341L35.4557 14.5124Z" fill="#000040"/>
</g>
<g opacity="0.8">
<path d="M59.4775 29.5C59.4775 45.7924 46.163 59 29.7388 59C13.3145 59 0 45.7924 0 29.5C0 13.2076 13.3145 0 29.7388 0C46.163 0 59.4775 13.2076 59.4775 29.5Z" fill="white"/>
<path d="M91.9919 21.9755V16.9133H74.9377L71.9281 33.6575H77.5111C78.1217 32.821 78.776 32.2153 79.4739 31.8403C80.1717 31.4365 81.0731 31.2346 82.1781 31.2346C83.0214 31.2346 83.7628 31.3788 84.4026 31.6673C85.0423 31.9557 85.5947 32.3595 86.06 32.8787C86.5252 33.3979 86.8742 34.0037 87.1068 34.6959C87.3394 35.3882 87.4557 36.1237 87.4557 36.9025C87.4557 37.6525 87.3249 38.388 87.0632 39.1091C86.8306 39.8014 86.4816 40.4216 86.0164 40.9696C85.5802 41.4888 85.0277 41.9215 84.3589 42.2676C83.7192 42.5849 82.9923 42.7435 82.1781 42.7435C80.7824 42.7435 79.6338 42.3397 78.7324 41.5321C77.8309 40.6956 77.3075 39.5851 77.1622 38.2005H70.9686C70.9976 39.787 71.3175 41.1859 71.9281 42.3974C72.5678 43.58 73.4111 44.5752 74.4579 45.3828C75.5047 46.1904 76.6969 46.7962 78.0345 47.2C79.4012 47.575 80.826 47.7625 82.3089 47.7625C83.8501 47.7913 85.304 47.5461 86.6706 47.0269C88.0373 46.4789 89.2295 45.7145 90.2472 44.7338C91.294 43.7531 92.1227 42.5993 92.7334 41.2725C93.344 39.9168 93.6493 38.4601 93.6493 36.9025C93.6493 35.4892 93.4312 34.1623 92.9951 32.922C92.588 31.6528 91.9773 30.5568 91.1632 29.6337C90.3781 28.7107 89.404 27.9752 88.2408 27.4271C87.0777 26.8791 85.7401 26.6051 84.2281 26.6051C83.0068 26.6051 81.9164 26.7926 80.9568 27.1675C79.9973 27.5137 79.0958 28.105 78.2526 28.9415L78.1653 28.8549L79.3866 21.9755H91.9919Z" fill="white"/>
<path d="M102.271 21.3698V16.3076H96.0772V21.3698H102.271ZM96.0772 24.8311V47.2H102.271V24.8311H96.0772Z" fill="white"/>
<path d="M106.275 24.8311V47.2H112.469V37.1189C112.469 36.1093 112.571 35.1719 112.774 34.3065C112.978 33.4412 113.312 32.6912 113.777 32.0567C114.272 31.3932 114.912 30.874 115.697 30.4991C116.482 30.1241 117.441 29.9366 118.575 29.9366C118.953 29.9366 119.346 29.9654 119.753 30.0231C120.16 30.052 120.509 30.0952 120.8 30.1529V24.4417C120.305 24.2975 119.855 24.2254 119.448 24.2254C118.663 24.2254 117.907 24.3408 117.18 24.5715C116.453 24.8023 115.769 25.134 115.13 25.5667C114.49 25.9705 113.923 26.4753 113.429 27.081C112.934 27.6579 112.542 28.2925 112.251 28.9847H112.164V24.8311H106.275Z" fill="white"/>
<path d="M136.768 33.6143H126.692C126.721 33.1816 126.808 32.6912 126.954 32.1432C127.128 31.5952 127.405 31.076 127.783 30.5856C128.19 30.0952 128.713 29.6914 129.353 29.3741C130.022 29.028 130.85 28.8549 131.839 28.8549C133.351 28.8549 134.47 29.2588 135.197 30.0664C135.953 30.874 136.477 32.0567 136.768 33.6143ZM126.692 37.5083H142.961C143.078 35.7776 142.932 34.119 142.525 32.5326C142.118 30.9462 141.449 29.5328 140.519 28.2925C139.617 27.0522 138.454 26.0714 137.029 25.3503C135.605 24.6004 133.933 24.2254 132.013 24.2254C130.298 24.2254 128.728 24.5283 127.303 25.134C125.907 25.7397 124.7 26.5762 123.683 27.6435C122.665 28.6819 121.88 29.9222 121.327 31.3644C120.775 32.8066 120.499 34.3642 120.499 36.0372C120.499 37.7679 120.76 39.3543 121.284 40.7965C121.836 42.2388 122.607 43.4791 123.595 44.5175C124.584 45.5559 125.791 46.3635 127.216 46.9404C128.64 47.4884 130.24 47.7625 132.013 47.7625C134.572 47.7625 136.753 47.1856 138.556 46.0318C140.359 44.878 141.696 42.9599 142.569 40.2773H137.117C136.913 40.9696 136.361 41.633 135.459 42.2676C134.558 42.8733 133.482 43.1762 132.231 43.1762C130.487 43.1762 129.149 42.7291 128.219 41.8349C127.288 40.9408 126.779 39.4985 126.692 37.5083Z" fill="white"/>
<path fill-rule="evenodd" clip-rule="evenodd" d="M12.2231 26.2585C10.3506 28.1487 10.3773 31.1868 12.2828 33.0442L23.3484 43.8311L37.7983 29.4404L35.0341 26.7556L24.8887 36.9197C24.0947 37.7152 22.8051 37.7346 21.9872 36.9632L15.8998 31.2225C15.0559 30.4266 15.0382 29.0976 15.8605 28.2798L32.522 11.7107C30.6128 10.284 27.8867 10.447 26.1659 12.1841L12.2231 26.2585ZM35.4557 14.5124L20.7529 28.9263L23.4594 31.6682L35.2645 20.2435L42.8062 27.4864C43.6326 28.2801 43.6496 29.5894 42.8441 30.404L26.514 46.9165C28.4223 48.732 31.4532 48.6919 33.3116 46.8159L47.2545 32.7415C49.127 30.8513 49.1002 27.8133 47.1948 25.9558L41.3252 20.2341L35.4557 14.5124Z" fill="#000040"/>
</g>
</svg>
