<svg width="847" height="204" viewBox="0 0 847 204" fill="none" xmlns="http://www.w3.org/2000/svg">
<g clip-path="url(#clip0_514_17)">
<path fill-rule="evenodd" clip-rule="evenodd" d="M51.217 23.1133C44.181 24.2853 39.207 26.9523 33.299 32.7213C15.539 50.0653 20.699 79.2953 43.325 89.5173C67.51 100.443 95.103 81.1313 92.728 54.9403C91.704 43.6443 83.627 31.3783 74 26.5003C70.191 24.5703 59.096 21.6983 57.066 22.1173C56.755 22.1813 54.123 22.6303 51.217 23.1133ZM412 94.0003V134H420.5H429V130.568V127.135L434.046 130.531C439.809 134.409 444.244 135.513 450.579 134.644C463.668 132.85 472.894 121.826 473.785 106.915C474.395 96.7023 472.337 89.8003 466.808 83.5193C457.425 72.8593 442.143 70.7963 433.184 78.9793C431.365 80.6413 429.679 82.0003 429.438 82.0003C429.197 82.0003 429 75.7003 429 68.0003V54.0003H420.5H412V94.0003ZM291.579 58.0473C280.312 62.0293 273.866 67.9033 268.59 79.0003C265.773 84.9273 265.5 86.3873 265.5 95.5523C265.5 105.165 265.665 105.937 269.278 113.248C280.883 136.729 311.732 142.234 332.5 124.529L336.5 121.12L330.89 115.461L325.28 109.802L320.39 113.303C303.329 125.52 283.533 115.691 283.614 95.0433C283.653 85.1003 288.16 77.6483 296.395 73.9083C303.748 70.5693 311.598 71.6653 319.68 77.1593C321.979 78.7213 324.229 79.9743 324.68 79.9433C325.131 79.9123 327.73 77.1433 330.456 73.7913L335.413 67.6963L331.559 64.3653C325.606 59.2193 318.058 56.7463 307 56.3213C299.261 56.0233 296.403 56.3433 291.579 58.0473ZM512.481 75.3943C510.821 76.1173 508.009 78.3653 506.231 80.3893L503 84.0703V79.5354V75.0003H493.985H484.97L485.235 104.25L485.5 133.5L494.161 133.788L502.823 134.075L503.161 118.108C503.464 103.85 503.721 101.846 505.562 99.3823C508.739 95.1303 512.277 92.9073 516.837 92.2953L521 91.7373V82.8683V74.0003L518.25 74.0393C516.737 74.0613 514.142 74.6703 512.481 75.3943ZM546.5 74.4043C545.95 74.6023 542.688 75.5633 539.25 76.5403C532.255 78.5283 532.167 78.7303 534.938 86.5003C536.016 89.5243 537.27 91.4223 538.111 91.3033C538.875 91.1953 542.425 90.5613 546 89.8943C549.664 89.2103 554.185 88.9983 556.362 89.4073C560.989 90.2763 565 93.9753 565 97.3743C565 99.7383 564.848 99.7973 561.261 98.8073C554.919 97.0553 542.094 98.2463 536.998 101.06C530.48 104.658 528 108.914 528 116.5C528 123.57 530.236 127.895 535.847 131.676C542.295 136.021 553.9 135.914 560.481 131.448C564.933 128.427 565 128.428 565 131.5C565 133.971 565.1 134 573.5 134H582V114.182C582 92.3843 581.018 86.6063 576.485 81.7493C571.712 76.6353 566.383 74.6593 556.5 74.3373C551.55 74.1763 547.05 74.2063 546.5 74.4043ZM621.5 75.5043C619.85 76.3963 617.35 78.2234 615.945 79.5634C614.54 80.9034 613.186 82.0003 612.936 82.0003C612.685 82.0003 612.485 80.5373 612.49 78.7503L612.5 75.5003L603.75 75.2113L595 74.9223V104.5V134.078L603.75 133.789L612.5 133.5L613 114.161L613.5 94.8223L616.306 92.4113C620.015 89.2233 624.985 89.2243 628.694 92.4113L631.5 94.8233L631.809 114.411L632.119 134H640.559H649V111.316C649 90.2433 648.849 88.3203 646.879 84.2503C643.901 78.0973 638.698 74.8914 630.78 74.3284C626.205 74.0034 623.686 74.3223 621.5 75.5043ZM681.844 75.3943C668.085 80.3093 660.684 90.4573 660.619 104.5C660.562 116.785 666.734 126.506 678 131.877C682.514 134.029 684.934 134.499 691.5 134.499C700.271 134.5 705.296 132.67 712 127.032L715.5 124.089L710.41 118.966L705.32 113.843L701.559 116.395C694.369 121.275 687.008 120.749 681.461 114.96C679.053 112.446 678.535 110.965 678.236 105.733C677.625 95.0503 683.528 88.3663 692.736 89.3153C696.443 89.6973 698.486 90.6613 703.45 94.3753C704.227 94.9563 706.364 93.4473 709.82 89.8753L715.021 84.5003L710.883 80.7513C704.091 74.5983 690.89 72.1623 681.844 75.3943ZM739.442 76.8053C726.403 83.1083 719.749 97.6663 723.398 111.908C726.031 122.186 731.524 128.57 741.413 132.846C746.493 135.042 756.066 135.413 762.135 133.649C767.883 131.978 777.069 125.793 776.906 123.704C776.854 123.042 774.855 120.778 772.464 118.674L768.116 114.848L763.355 117.638C755.157 122.442 744.039 120.77 741.085 114.288C740.488 112.978 740 111.702 740 111.453C740 111.204 749 111 760 111H780V104.538C780 92.6023 773.854 81.5403 764.568 76.7623C761.85 75.3633 758.011 74.5374 753 74.2724C746.302 73.9194 744.852 74.1893 739.442 76.8053ZM808.662 75.5494C796.643 79.9574 789 91.2023 789 104.477C789 116.552 795.104 126.448 805.786 131.694C810.698 134.106 812.693 134.498 820 134.486C827.245 134.474 829.238 134.082 833.5 131.829C836.25 130.376 839.762 127.857 841.304 126.232L844.109 123.277L839.107 119.09L834.105 114.902L829.901 117.684C826.544 119.906 824.554 120.467 820.029 120.467C813.532 120.467 809.864 118.572 807.495 113.991L805.949 111H826.606H847.263L846.784 103.53C845.873 89.3333 837.669 77.9273 826.307 75.0593C820.661 73.6333 813.33 73.8374 808.662 75.5494ZM342.286 76.7503C342.571 77.7133 346.938 89.0753 351.989 102C357.04 114.925 361.882 127.348 362.749 129.606C364.851 135.083 364 137 359.466 137C357.487 137 354.982 136.525 353.897 135.945C352.127 134.998 351.635 135.531 349.072 141.178C346.482 146.884 346.37 147.567 347.859 148.576C353.459 152.368 363.959 153.082 369.86 150.072C376.396 146.737 377.312 144.839 393.942 100.166C398.924 86.7833 403 75.6453 403 75.4163C403 75.1873 398.978 75.0003 394.062 75.0003H385.125L380.128 90.7503C377.379 99.4123 374.826 107.742 374.454 109.259C373.516 113.092 372.335 113.492 371.553 110.243C371.189 108.734 368.38 100.188 365.31 91.2503L359.728 75.0003H350.747C342.663 75.0003 341.819 75.1753 342.286 76.7503ZM745.763 89.5653C742.97 91.0813 740 95.6603 740 98.4503C740 99.7603 741.781 100 751.5 100C764.157 100 764.497 99.7953 761.483 93.9673C758.682 88.5503 751.394 86.5103 745.763 89.5653ZM813.096 89.2113C810.366 90.6753 807.475 94.4273 806.515 97.7503C805.867 99.9953 805.892 100 817.933 100C824.57 100 830 99.7613 830 99.4683C830 97.7963 826.977 92.2343 825.216 90.6653C822.575 88.3143 816.196 87.5483 813.096 89.2113ZM436.192 90.9663C432.516 93.2723 429.056 99.8223 429.022 104.538C428.987 109.322 433.001 116.244 437 118.297C441.185 120.445 446.919 119.906 451.031 116.978C454.052 114.827 457.012 108.481 456.978 104.23C456.946 100.192 453.538 93.3983 450.569 91.4533C446.435 88.7443 440.077 88.5293 436.192 90.9663ZM549.308 109.01C546.051 110.321 543.66 114.509 544.425 117.559C545.254 120.86 550.923 123.39 555.354 122.436C560.013 121.433 563.795 119.255 564.336 117.261C566.243 110.236 566.222 110.156 562.257 109.054C557.777 107.81 552.332 107.791 549.308 109.01ZM144.12 112.155C132.747 113.985 121.282 122.537 115.895 133.207C106.263 152.288 114.269 176.036 133.5 185.431C141.108 189.148 153.632 190.121 162.118 187.654C187.655 180.23 197.862 148.132 181.5 126.704C177.536 121.512 167.468 114.44 162.156 113.114C156.004 111.58 149.759 111.248 144.12 112.155Z" fill="white"/>
<path fill-rule="evenodd" clip-rule="evenodd" d="M142.762 1.94192C135.172 4.36792 128.032 9.05892 122.411 15.3109C98.425 41.9889 111.27 82.2819 146.703 91.5109C177.669 99.5759 209.409 70.8219 204.205 39.4179C201.971 25.9339 192.807 12.6309 181 5.73292C171.168 -0.0110769 154.149 -1.69808 142.762 1.94192ZM35.5 111.347C14.029 116.951 0 135.243 0 157.637C0 176.323 9.793 191.85 26.887 200.265C33.234 203.39 33.886 203.5 45.979 203.5C58.003 203.5 58.769 203.372 65.288 200.285C87.435 189.794 98.536 163.212 90.087 140.896C85.425 128.581 74.502 117.603 62.324 112.995C55.151 110.281 42.552 109.507 35.5 111.347Z" fill="#9500CC"/>
<ellipse cx="58" cy="59" rx="36" ry="37" fill="#9500CC"/>
<ellipse cx="150" cy="152" rx="40" ry="41" fill="#9500CC"/>
</g>
<defs>
<clipPath id="clip0_514_17">
<rect width="847" height="204" fill="white"/>
</clipPath>
</defs>
</svg>
