<svg width="507" height="99" viewBox="0 0 507 99" fill="none" xmlns="http://www.w3.org/2000/svg">
<g clip-path="url(#clip0_514_14)">
<path fill-rule="evenodd" clip-rule="evenodd" d="M184 32.03V42.06L180.916 39.78C176.765 36.711 168.383 36.599 164.323 39.559C155.194 46.215 154.406 65.88 162.964 73.5C166.38 76.542 177.904 76.378 181.244 73.241C183.788 70.85 185 71.149 185 74.167C185 75.537 185.758 76 188 76H191V49V22H187.5H184V32.03ZM336.957 23.093C333.797 24.256 331.445 28.175 330.511 33.838C329.917 37.434 329.299 38.348 326.897 39.186C323.038 40.531 323.088 43 326.975 43H329.95L330.225 59.25L330.5 75.5H334H337.5L337.775 59.25L338.05 43H342.525C346.632 43 347 42.794 347 40.5C347 38.204 346.633 38 342.5 38C338.042 38 338 37.968 338 34.571C338 29.826 340.316 27.798 345.322 28.159C348.958 28.422 349.441 28.183 350.075 25.814C350.654 23.647 350.398 23.073 348.64 22.602C345.55 21.772 339.902 22.01 336.957 23.093ZM211.5 38.826C204.418 42.175 201.126 48.066 201.044 57.538C200.926 71.058 211.643 79.047 225.852 76.031C231.715 74.787 232 74.589 232 71.747C232 69.133 231.724 68.846 229.75 69.409C217.768 72.829 209.617 69.565 208.752 61L208.5 58.5L221.371 58.219L234.243 57.938L233.786 52.428C232.808 40.636 221.835 33.939 211.5 38.826ZM253.5 38.202C249.175 39.706 244.478 44.523 243.017 48.95C241.19 54.486 242.074 65.277 244.639 68.739C249.733 75.615 258.24 78.29 267.325 75.872C272.124 74.594 272.523 74.253 272.819 71.175C273.101 68.236 272.929 67.967 271.319 68.829C267.925 70.645 260.283 71.249 256.498 69.999C252.558 68.699 249.01 64.083 249.004 60.25C249 58.032 249.184 58 262 58H275L274.978 54.25C274.953 49.936 272.152 43.24 269.391 40.892C267.113 38.954 261.497 36.97 258.601 37.079C257.445 37.122 255.15 37.628 253.5 38.202ZM298.03 38.537C296.121 39.39 293.813 40.765 292.9 41.591C291.4 42.948 291.178 42.847 290.601 40.546C290.095 38.53 289.341 38 286.981 38H284V65.5V93H288.15H292.3L291.724 82.08L291.147 71.16L294.713 73.58C299.859 77.072 307.68 76.982 311.959 73.381C316.91 69.215 318.399 65.441 318.422 57C318.454 45.105 314.194 38.684 305.5 37.521C302.973 37.183 300.222 37.557 298.03 38.537ZM362.008 39.186C356.602 41.971 353.471 46.372 352.556 52.473C350.03 69.317 360.528 79.496 376.852 76.031C382.632 74.805 383 74.557 383 71.888C383 69.204 382.824 69.089 379.75 69.775C377.962 70.174 374.1 70.5 371.168 70.5C366.409 70.5 365.522 70.149 362.918 67.234C361.075 65.172 360 62.868 360 60.984V58H372.624H385.248L384.788 52.459C383.776 40.255 372.586 33.736 362.008 39.186ZM409.469 38.018C407.801 38.527 405.458 39.856 404.261 40.972C401.447 43.593 401 43.528 401 40.5C401 38.389 400.533 38 398 38H395V57V76H398.402H401.804L402.171 62.75C402.57 48.348 403.345 45.928 408.206 43.915C409.783 43.261 412.507 43.06 414.559 43.445C419.857 44.439 421 48.004 421 63.531V76.127L424.25 75.813L427.5 75.5L427.778 62.414C428.088 47.83 427.021 42.797 423 39.873C419.941 37.649 413.549 36.773 409.469 38.018ZM448.684 38.449C440.938 41.211 438 46.294 438 56.933C438 65.491 439.659 69.909 444.045 73.032C447.611 75.571 455.405 76.709 461.454 75.575C464.527 74.998 465 74.53 465 72.07V69.23L458.53 69.75C450.756 70.374 447.772 68.869 445.973 63.419C444.373 58.57 445.238 50.498 447.712 47.184C450.341 43.663 455.008 42.36 459.764 43.82C463.711 45.031 464.406 44.724 465.436 41.31C466.005 39.424 465.57 38.974 462.298 38.066C457.294 36.676 453.342 36.787 448.684 38.449ZM484.594 37.998C480.469 39.293 475.153 44.791 473.996 48.956C472.582 54.045 472.773 62.522 474.389 66.389C477.834 74.633 487.479 78.556 497.848 75.931C503.178 74.581 503.518 74.311 503.819 71.178C504.109 68.15 503.964 67.949 502.174 68.907C499.105 70.549 489.79 71.293 486.802 70.135C483.619 68.901 481.277 65.637 480.39 61.198L479.75 58H492.969H506.188L505.498 52.75C504.651 46.307 502.369 42.119 498.46 39.836C494.717 37.65 488.375 36.809 484.594 37.998ZM169.117 44.631C161.846 49.724 162.627 66.183 170.313 69.833C174.806 71.967 180.096 70.258 182.248 65.977C185.622 59.268 183.827 46.584 179.15 44.08C176.221 42.513 171.794 42.755 169.117 44.631ZM211.748 45.524C210.36 46.913 209.011 49.163 208.751 50.524L208.277 53H217.639C227.926 53 228.414 52.634 225.537 47.072C222.985 42.136 215.928 41.344 211.748 45.524ZM253.75 44.054C251.966 45.12 249 50.05 249 51.95C249 52.61 252.534 53 258.5 53C269.128 53 269.567 52.629 265.717 46.898C263.839 44.102 262.732 43.457 259.467 43.255C257.285 43.12 254.712 43.48 253.75 44.054ZM295.331 45.392C292.834 47.539 292.516 48.536 292.223 55.142C291.824 64.123 293.837 68.953 298.5 70.202C306.472 72.337 310.99 67.637 310.996 57.2C311 50.435 309.236 45.732 306.055 44.03C302.792 42.283 298.279 42.856 295.331 45.392ZM362.452 45.646C361.104 47.101 360 49.351 360 50.646C360 52.944 360.216 53 369 53C373.95 53 378 52.617 378 52.149C378 49.759 375.567 44.839 373.961 43.979C370.371 42.058 365.065 42.826 362.452 45.646ZM483.593 45.25C482.208 46.487 480.785 48.737 480.429 50.25L479.783 53H488.892C497.802 53 498 52.949 498 50.635C498 49.334 497.067 47.084 495.927 45.635C493.192 42.158 487.261 41.972 483.593 45.25Z" fill="white"/>
<path fill-rule="evenodd" clip-rule="evenodd" d="M3.20094 3.25C4.54194 5.038 7.57394 9.088 9.93994 12.25L14.2399 18H28.0169H41.7939L47.7209 24.75C53.4869 31.318 81.7739 66.225 83.2249 68.565C83.6239 69.208 83.1229 70.484 82.1119 71.399C80.3579 72.986 79.4589 72.045 62.8859 51.291C53.3239 39.316 43.9849 27.827 42.1339 25.759L38.7669 22H28.8839C20.0229 22 17.1969 22.767 19.9009 24.439C20.3969 24.745 34.1719 41.647 50.5119 61.998C66.8519 82.349 80.5089 98.979 80.8609 98.954C81.5519 98.903 104.121 70.609 104.357 69.496C104.436 69.125 92.1249 53.357 76.9999 34.456L49.4999 0.091L25.1309 0.046L0.762939 0L3.20094 3.25ZM57.2129 1.75C58.0499 2.712 68.9839 16.325 81.5099 32C94.0359 47.675 105.233 61.501 106.392 62.724L108.5 64.949L113.25 59.009C115.862 55.742 118 52.604 118 52.035C118 51.466 112.15 43.817 105 35.038C97.8499 26.259 91.9999 18.834 91.9999 18.538C91.9999 18.242 104.262 17.974 119.25 17.942L146.5 17.884L153 9.798C156.575 5.351 159.65 1.327 159.833 0.856C160.017 0.385 136.659 0 107.928 0C58.2639 0 55.7649 0.086 57.2129 1.75ZM101.729 22.604C101.098 23.235 120.825 48.036 121.891 47.951C122.627 47.892 142 23.481 142 22.612C142 21.817 102.524 21.81 101.729 22.604ZM183.355 30.5C183.352 35.45 183.521 37.601 183.731 35.28C183.94 32.959 183.943 28.909 183.736 26.28C183.53 23.651 183.358 25.55 183.355 30.5ZM191.233 48.687L191 75.873L187.75 76.277L184.5 76.68L187.781 76.84C189.637 76.93 191.274 76.45 191.548 75.734C191.816 75.038 191.906 62.551 191.75 47.984L191.465 21.5L191.233 48.687ZM293.75 39.758C292.238 40.696 291 41.879 291 42.387C291 42.894 291.788 42.628 292.75 41.795C293.712 40.962 295.4 39.781 296.5 39.17C297.6 38.56 298.05 38.059 297.5 38.057C296.95 38.055 295.262 38.82 293.75 39.758ZM347 40.445C347 42.643 346.52 42.928 342.25 43.265L337.5 43.64L342.75 43.82C347.957 43.999 348 43.975 348 41C348 39.35 347.775 38 347.5 38C347.225 38 347 39.1 347 40.445ZM394.466 57L394.5 76.5H398.5H402.5L402.548 64.248L402.596 51.997L402.267 63.998L401.938 76H398.491H395.043L394.737 56.75L394.432 37.5L394.466 57ZM497.5 39.17C498.6 39.781 500.197 40.779 501.049 41.39C501.901 42 501.538 41.487 500.243 40.25C498.948 39.013 497.351 38.014 496.694 38.03C496.037 38.047 496.4 38.56 497.5 39.17ZM160.589 42.077C159.165 43.769 158.014 45.681 158.03 46.327C158.047 46.972 158.559 46.6 159.167 45.5C159.775 44.4 161.19 42.487 162.311 41.25C163.432 40.013 164.085 39 163.763 39C163.441 39 162.013 40.385 160.589 42.077ZM246.437 42.25L243.5 45.5L246.75 42.563C249.779 39.825 250.46 39 249.687 39C249.515 39 248.052 40.462 246.437 42.25ZM269.696 41.014C270.904 42.389 272.574 45.086 273.407 47.007C274.24 48.928 274.939 49.915 274.961 49.2C275.023 47.122 272.405 42.665 269.852 40.505L267.5 38.514L269.696 41.014ZM477.437 42.25L474.5 45.5L477.75 42.563C479.538 40.948 481 39.485 481 39.313C481 38.54 480.175 39.221 477.437 42.25ZM174.663 43.931C176.953 44.305 179.45 45.036 180.211 45.556C180.972 46.075 180.736 45.712 179.686 44.75C178.523 43.683 176.358 43.049 174.139 43.125L170.5 43.25L174.663 43.931ZM213.629 43.791C213.36 44.226 214.796 44.418 216.82 44.219C222.354 43.672 223.013 43.168 218.309 43.079C216.004 43.036 213.898 43.356 213.629 43.791ZM258.5 43.742C260.7 43.965 263.4 44.902 264.5 45.824C266.484 47.487 266.485 47.482 264.595 45.25C263.132 43.522 261.741 43.039 258.595 43.168L254.5 43.336L258.5 43.742ZM299.762 43.707C301.006 43.946 302.806 43.937 303.762 43.687C304.718 43.437 303.7 43.241 301.5 43.252C299.3 43.263 298.518 43.468 299.762 43.707ZM325.25 43.689C326.212 43.941 327.788 43.941 328.75 43.689C329.712 43.438 328.925 43.232 327 43.232C325.075 43.232 324.288 43.438 325.25 43.689ZM363.441 44.574C362.374 45.44 362.175 45.789 363 45.35C363.825 44.911 366.525 44.263 369 43.91L373.5 43.267L369.441 43.134C367.058 43.055 364.581 43.65 363.441 44.574ZM410.25 43.689C411.212 43.941 412.788 43.941 413.75 43.689C414.712 43.438 413.925 43.232 412 43.232C410.075 43.232 409.288 43.438 410.25 43.689ZM454.25 43.689C455.212 43.941 456.788 43.941 457.75 43.689C458.712 43.438 457.925 43.232 456 43.232C454.075 43.232 453.288 43.438 454.25 43.689ZM491 43.727C492.375 43.978 494.4 44.929 495.5 45.841C497.484 47.487 497.485 47.482 495.595 45.25C494.432 43.877 492.679 43.053 491.095 43.136L488.5 43.272L491 43.727ZM225.61 49.5C226.433 53.177 227.005 53.975 226.985 51.417C226.976 50.363 226.513 48.825 225.954 48C225.213 46.905 225.12 47.309 225.61 49.5ZM472.641 50.21C472.303 51.47 472.087 54.975 472.16 58C472.286 63.213 472.331 63.109 473.007 56C473.759 48.093 473.654 46.427 472.641 50.21ZM234 53.97V57.94L221.332 58.22C212.046 58.425 208.595 58.84 208.407 59.775C208.266 60.476 208.379 60.589 208.658 60.025C208.966 59.404 214.259 59 222.083 59H235V54.5C235 52.025 234.775 50 234.5 50C234.225 50 234 51.787 234 53.97ZM385 53.97V57.94L372.25 58.253L359.5 58.565L372.75 58.783L386 59V54.5C386 52.025 385.775 50 385.5 50C385.225 50 385 51.787 385 53.97ZM420.392 63C420.392 70.425 420.549 73.463 420.742 69.75C420.934 66.037 420.934 59.962 420.742 56.25C420.549 52.538 420.392 55.575 420.392 63ZM183.32 57C183.32 60.575 183.502 62.038 183.723 60.25C183.945 58.462 183.945 55.538 183.723 53.75C183.502 51.962 183.32 53.425 183.32 57ZM437.32 57C437.32 60.575 437.502 62.038 437.723 60.25C437.945 58.462 437.945 55.538 437.723 53.75C437.502 51.962 437.32 53.425 437.32 57ZM156.3 57C156.3 60.025 156.487 61.263 156.716 59.75C156.945 58.237 156.945 55.763 156.716 54.25C156.487 52.737 156.3 53.975 156.3 57ZM164.3 57C164.3 60.025 164.487 61.263 164.716 59.75C164.945 58.237 164.945 55.763 164.716 54.25C164.487 52.737 164.3 53.975 164.3 57ZM241.31 57.5C241.315 60.8 241.502 62.029 241.725 60.232C241.947 58.435 241.943 55.735 241.715 54.232C241.486 52.729 241.304 54.2 241.31 57.5ZM445.3 57C445.3 60.025 445.487 61.263 445.716 59.75C445.945 58.237 445.945 55.763 445.716 54.25C445.487 52.737 445.3 53.975 445.3 57ZM351.232 57C351.232 58.925 351.438 59.712 351.689 58.75C351.941 57.788 351.941 56.212 351.689 55.25C351.438 54.288 351.232 55.075 351.232 57ZM249.015 60.25C249.024 61.487 249.473 63.175 250.014 64C250.715 65.069 250.82 64.575 250.38 62.281L249.762 59.062L262.631 58.748L275.5 58.435L262.25 58.217C249.107 58.002 249 58.018 249.015 60.25ZM480.116 60.25C480.201 61.897 480.353 62.039 480.684 60.779C481.075 59.288 482.822 59.017 493.818 58.747L506.5 58.435L493.25 58.217C480.081 58.001 480.001 58.014 480.116 60.25ZM446 63.723C446 64.303 446.927 65.841 448.059 67.139L450.119 69.5L448.362 66.5C446.05 62.552 446 62.493 446 63.723ZM317 66.799C317 67.421 315.554 69.634 313.787 71.715C310.907 75.108 310.864 75.241 313.379 73C316.543 70.18 318.449 67.116 317.581 66.248C317.261 65.928 317 66.176 317 66.799ZM230.66 68.769C231.298 69.174 232.018 70.855 232.26 72.503C232.659 75.221 232.714 75.151 232.85 71.75C232.969 68.783 232.635 68.003 231.25 68.015C230.114 68.025 229.907 68.29 230.66 68.769ZM379.5 69.086C377.821 69.879 377.932 69.947 380.186 69.512C382.603 69.046 382.913 69.321 383.276 72.247C383.674 75.454 383.682 75.446 383.84 71.75C384.008 67.817 383.215 67.33 379.5 69.086ZM463.66 68.769C464.298 69.174 465.018 70.855 465.26 72.503C465.659 75.221 465.714 75.151 465.85 71.75C465.969 68.783 465.635 68.003 464.25 68.015C463.114 68.025 462.907 68.29 463.66 68.769ZM247.689 72.75C249.494 74.537 251.54 75.986 252.235 75.97C252.931 75.953 252.6 75.443 251.5 74.836C250.4 74.229 248.354 72.78 246.954 71.616C245.553 70.452 245.884 70.963 247.689 72.75ZM218.75 70.706C219.988 70.944 222.012 70.944 223.25 70.706C224.488 70.467 223.475 70.272 221 70.272C218.525 70.272 217.512 70.467 218.75 70.706ZM259.762 70.707C261.006 70.946 262.806 70.937 263.762 70.687C264.718 70.437 263.7 70.241 261.5 70.252C259.3 70.263 258.518 70.468 259.762 70.707ZM369.75 70.706C370.988 70.944 373.012 70.944 374.25 70.706C375.488 70.467 374.475 70.272 372 70.272C369.525 70.272 368.512 70.467 369.75 70.706ZM440.918 71.363C442.249 73.003 446 75.483 446 74.723C446 74.532 444.538 73.305 442.75 71.997C440.739 70.525 440.04 70.283 440.918 71.363ZM489.75 70.706C490.988 70.944 493.012 70.944 494.25 70.706C495.488 70.467 494.475 70.272 492 70.272C489.525 70.272 488.512 70.467 489.75 70.706ZM181.384 73.274L179.5 75.5L181.662 73.675C183.755 71.907 183.839 71.907 184.296 73.675C184.7 75.238 184.785 75.257 184.884 73.809C185.069 71.111 183.426 70.86 181.384 73.274ZM291.232 74C291.232 75.925 291.438 76.713 291.689 75.75C291.941 74.787 291.941 73.213 291.689 72.25C291.438 71.287 291.232 72.075 291.232 74ZM296.441 75.426C297.707 76.453 300.141 76.949 303.441 76.853L308.5 76.706L303 76.092C299.975 75.755 296.825 75.113 296 74.665C295.175 74.218 295.374 74.56 296.441 75.426ZM166.345 76.235C166.98 76.639 169.525 76.969 172 76.969C174.475 76.969 177.02 76.639 177.655 76.235C178.289 75.831 175.745 75.5 172 75.5C168.255 75.5 165.711 75.831 166.345 76.235ZM226 76C223.94 76.66 223.852 76.816 225.5 76.885C226.6 76.931 228.175 76.533 229 76C230.752 74.868 229.536 74.868 226 76ZM330 76.25C330 76.662 331.8 77 334 77C336.2 77 338 76.662 338 76.25C338 75.838 336.2 75.5 334 75.5C331.8 75.5 330 75.838 330 76.25ZM377 76C374.94 76.66 374.852 76.816 376.5 76.885C377.6 76.931 379.175 76.533 380 76C381.752 74.868 380.536 74.868 377 76ZM448.345 76.235C448.98 76.639 452.2 76.969 455.5 76.969C458.8 76.969 462.02 76.639 462.655 76.235C463.289 75.831 460.07 75.5 455.5 75.5C450.93 75.5 447.711 75.831 448.345 76.235ZM498 76C495.94 76.66 495.852 76.816 497.5 76.885C498.6 76.931 500.175 76.533 501 76C502.752 74.868 501.536 74.868 498 76ZM285.75 93.706C286.988 93.944 289.012 93.944 290.25 93.706C291.488 93.467 290.475 93.272 288 93.272C285.525 93.272 284.512 93.467 285.75 93.706Z" fill="#1DA8DB"/>
</g>
<defs>
<clipPath id="clip0_514_14">
<rect width="507" height="99" fill="white"/>
</clipPath>
</defs>
</svg>
