<?xml version="1.0" encoding="utf-8"?>
<!-- Generator: Adobe Illustrator 20.1.0, SVG Export Plug-In . SVG Version: 6.00 Build 0)  -->
<svg version="1.1" id="Layer_1" xmlns="http://www.w3.org/2000/svg" xmlns:xlink="http://www.w3.org/1999/xlink" x="0px" y="0px"
	 viewBox="0 0 897.7 203.4" style="enable-background:new 0 0 897.7 203.4;" xml:space="preserve">
<style type="text/css">
	.st0{fill:#1DACF8;}
</style>
<g id="_x32_yWtqs.tif">
	<g>
		<path class="st0" d="M107.9,3c4.7,0.7,9.4,1.3,14,2.2c40.7,8.4,72,41.3,78.6,82.3c8.4,52.5-26.4,103-78.4,113.7
			c-4.7,1-9.5,1.5-14.2,2.3c-4.7,0-9.3,0-14,0c-4-0.6-8-1.1-12-1.8C43,194.7,10.3,163,2.3,124.3c-1-4.8-1.5-9.6-2.3-14.4
			c0-4.5,0-9,0-13.5c0.4-3,0.8-6.1,1.3-9.1C7.7,46.7,39.4,13.5,79.7,5.2c4.7-1,9.5-1.5,14.2-2.3C98.5,3,103.2,3,107.9,3z
			 M111.3,94.9c-6.9,0-13.8,0-20.7,0c-3,0-3.6-0.6-3.6-3.5c0-2.6,0-5.3,0-7.9c0-3.1-0.6-3.6-3.7-2.7c-7.9,2.1-15.8,4.3-23.7,6.5
			c-5.6,1.5-11.3,3-16.9,4.7c-0.7,0.2-1.1,1.1-1.7,1.7c0.7,0.4,1.3,1,2.1,1.3c0.4,0.2,1,0,1.6,0c5.8,0,11.6,0,17.4,0
			c3.5,0,4,0.5,4,3.9c0,2.8,0,5.6,0,8.3c0,4.1,0.4,4.5,4.5,4.5c13.3,0,26.6,0,39.9,0c4.2,0,4.4,0.2,4.4,4.3c0,2.3,0,4.5,0,6.8
			c0,3.3,0.6,3.8,3.7,2.9c11.1-3,22.2-6,33.2-9c2.6-0.7,5.2-1.4,7.8-2.2c0.6-0.2,0.9-1.1,1.4-1.7c-0.6-0.4-1.1-0.9-1.7-1.2
			c-0.5-0.2-1.2-0.1-1.8-0.1c-6.1,0-12.2,0-18.3,0c-2.7,0-3.3-0.6-3.3-3.3c0-3.2,0-6.3,0-9.5c0-3.1-0.6-3.7-3.7-3.7
			C125.1,94.9,118.2,94.9,111.3,94.9z M135.7,70.7c0-4.9,0-9.8,0-14.7c0-3-0.7-3.5-3.5-2.8c-4.8,1.3-9.5,2.6-14.3,3.9
			c-2.2,0.6-3.2,1.9-3.2,4.2c0,7.9,0,15.8,0,23.7c0,2.6,0.7,3.3,3.4,3.3c4.7,0,9.5,0,14.2,0c2.8,0,3.5-0.7,3.5-3.5
			C135.7,80.2,135.7,75.4,135.7,70.7z M65.9,136.2c0,5,0,9.9,0,14.9c0,2.4,0.7,3,3,2.4c5-1.3,10-2.7,15-4c2-0.5,3-1.8,2.9-3.9
			c0-8,0-16.1,0-24.1c0-2.4-0.7-3.1-3.1-3.1c-4.9,0-9.8,0-14.7,0c-2.5,0-3.2,0.7-3.2,3.3C65.9,126.5,65.9,131.4,65.9,136.2z
			 M114.7,135.6C114.7,135.6,114.7,135.6,114.7,135.6c0,0.7,0,1.4,0,2c0,2.8,0.7,3.3,3.4,2.6c3.2-0.9,6.4-1.7,9.6-2.6
			c2-0.5,3.9-0.9,5.9-1.6c1.6-0.6,2.5-1.9,2-3.5c-0.3-0.9-1.6-2-2.5-2c-5.3-0.2-10.5-0.1-15.8-0.1c-1.6,0-2.5,1-2.6,2.6
			C114.6,133.8,114.7,134.7,114.7,135.6z M76.3,76.4c2.6,0,5.1,0,7.7,0c1.5,0,2.7-0.5,2.8-2.3c0.1-2.1,0.1-4.2,0-6.3
			c0-1.3-1-1.9-2.2-1.6c-5.6,1.5-11.2,2.9-16.7,4.7C67,71.2,66.1,73,66,74.2c-0.2,1.6,1.4,2.1,2.8,2.1
			C71.3,76.4,73.8,76.4,76.3,76.4z"/>
		<path class="st0" d="M897.7,123.5c-0.5,2.2-0.9,4.4-1.6,6.5c-4.3,14.4-16.9,23.5-32.4,23.6c-15.1,0.1-27.7-8.9-32.2-22.9
			c-4.9-15.1,0.1-31.6,12.2-40.1c17.9-12.6,49.1-6,53.5,22.7c0.1,0.4,0.3,0.8,0.4,1.2C897.7,117.5,897.7,120.5,897.7,123.5z
			 M882.1,119.2c-0.2-1.9-0.3-3.7-0.6-5.4c-1.5-8.9-8.2-14.9-16.7-15.2c-9.2-0.4-16.5,4.8-18.4,13.8c-0.8,3.7-0.9,7.8-0.4,11.6
			c1.2,9.1,8.4,15.3,17.1,15.6c8.8,0.3,16-5.3,18.2-14.4C881.8,123.2,881.9,121.1,882.1,119.2z"/>
		<path class="st0" d="M479.5,54.9c5.1,0,10,0,15.2,0c0,19.1,0,38.2,0,57.2c0.3,0.2,0.6,0.4,0.9,0.6c0.4-0.7,0.7-1.5,1.2-2.1
			c7.2-7.6,14.5-15.3,21.8-22.8c0.6-0.6,1.4-1.3,2.2-1.3c6.4-0.1,12.8-0.1,19.8-0.1c-9.2,9.4-17.9,18.4-26.9,27.5
			c9.1,12.4,18.1,24.8,27.4,37.5c-3.7,0-7,0-10.2,0c-2.9,0-6.3,0.9-8.7-0.4c-2.4-1.3-3.8-4.5-5.5-6.9c-4.6-6.3-9.2-12.6-13.9-19.2
			c-2.7,2.8-5.2,5.4-7.7,8.1c-0.4,0.5-0.4,1.4-0.4,2.1c0,5.3,0,10.7,0,16.1c-5.1,0-10.1,0-15.3,0C479.5,119.3,479.5,87.2,479.5,54.9
			z"/>
		<path class="st0" d="M262.3,54.9c5.1,0,10.1,0,15.3,0c0,12.4,0,24.7,0,37.5c1.3-1.2,2.1-2,3-2.7c8.1-5.9,17-6.7,26.1-3.2
			c8.6,3.4,12.4,10.6,13.3,19.4c0.5,4.2,0.4,8.6,0.4,12.8c0,10,0,20,0,30c0,0.8,0,1.6,0,2.6c-5.3,0-10.4,0-15.7,0c0-0.9,0-1.7,0-2.5
			c0-11.5,0-23,0-34.5c0-1.4,0-2.9-0.2-4.3c-1.1-7.5-5.5-11.4-12.9-11.4c-7.2-0.1-12.4,4.3-13.5,11.6c-0.3,1.6-0.4,3.3-0.4,4.9
			c0,11.2,0,22.4,0,33.6c0,0.8,0,1.6,0,2.6c-5.2,0-10.2,0-15.4,0C262.3,119.3,262.3,87.2,262.3,54.9z"/>
		<path class="st0" d="M716.4,123.2c-16.2,0-31.9,0-47.7,0c-0.9,6.4,4.6,13.8,11.9,16.1c9.6,3,17.2-0.6,22.2-10.4
			c4.2,1.3,8.5,2.7,13,4.1c-0.4,1-0.6,1.9-1,2.8c-4.9,11.7-17.1,18.7-30.4,17.8c-20.4-1.3-33.8-17.9-31.4-39.1
			c1.6-14,8.8-24.1,22.5-28.5c20.3-6.7,39.3,6.3,40.9,27.6C716.5,116.6,716.4,119.8,716.4,123.2z M700.7,111.7
			c-0.1-8.7-7-14.6-16.5-14.3c-8.3,0.3-15.5,7.1-15.1,14.3C679.6,111.7,690.1,111.7,700.7,111.7z"/>
		<path class="st0" d="M391,151.5c-4.3,0-8.6,0-13-0.1c-0.5,0-1.4-0.9-1.4-1.4c-0.3-1.9-0.4-3.9-0.6-6c-0.3,0.3-0.6,0.4-0.7,0.6
			c-7.1,9.6-20.8,11-29.8,6.8c-7.5-3.5-11.6-9.4-11.7-17.8c-0.1-8.1,4.3-14.6,12.4-17.3c5.6-1.9,11.7-2.5,17.6-3.7
			c2.2-0.4,4.5-0.6,6.7-1c3.9-0.6,5.4-2.8,4.6-6.7c-0.8-3.9-3.4-6.2-7-7.1c-8.9-2.2-17,1.1-18.5,10.5c0,0.1-0.1,0.3-0.3,0.5
			c-4.5-1-9.1-2-13.9-3.1c0.3-4.2,1.9-7.8,4.4-11c4.6-6,11-9,18.3-10c5.6-0.7,11.1-0.4,16.5,1.3c9.9,3,15.9,10.8,16.1,21.2
			c0.2,10.1,0,20.2,0.1,30.2C390.5,142.1,390.8,146.6,391,151.5z M375.6,121.6c-5.5,0.8-10.2,1.5-14.8,2.3c-2.4,0.4-4.9,0.9-7.1,1.9
			c-3.2,1.5-4.5,4.3-4.2,7.8c0.2,3.3,2,5.6,5,6.9c7.2,3.1,17.2-1,19.5-8.5C374.9,128.8,375,125.3,375.6,121.6z"/>
		<path class="st0" d="M466.4,105.9c-4.8,1.7-9.3,3.4-13.8,5c-0.2-0.3-0.3-0.5-0.4-0.7c-3.1-8-8.4-11.7-16.2-11.4
			c-7.9,0.3-14.1,5.1-16.4,12.8c-1.7,5.7-1.5,11.5,0.8,17c2.9,6.8,9.1,10.8,16.5,10.8c7.7-0.1,12.9-3.7,15.9-10.8
			c0.1-0.3,0.3-0.5,0.5-1.1c4.5,1.6,8.9,3.2,13.7,4.9c-0.9,1.9-1.5,3.8-2.4,5.5c-6.1,10.7-15.7,15.7-27.8,15.8
			c-15,0.1-27.7-9.1-32.2-23.3c-4.8-14.9,0.3-31.2,12.2-39.7c13-9.2,32.2-7.9,42.7,3.1C462.9,97,465.2,101,466.4,105.9z"/>
		<path class="st0" d="M544.3,133.9c4.6-1.3,8.9-2.5,13.4-3.7c0.2,0.6,0.4,1.1,0.5,1.7c2.1,7.9,11.9,12,19,7.9
			c2.5-1.4,3.8-3.5,3.7-6.5c-0.1-2.9-1.8-4.9-4.4-5.7c-3.6-1.2-7.4-1.8-11.1-2.8c-3.1-0.9-6.3-1.6-9.1-3.1
			c-11.2-5.7-13.7-19.5-5.3-29c5.1-5.8,11.7-8.2,19.3-8.2c5,0,9.9,0.8,14.3,3.3c5.8,3.2,9.3,8.1,10.8,14.8c-4.4,1.2-8.6,2.5-13,3.7
			c-0.2-0.4-0.3-0.8-0.4-1.1c-2.1-6.8-8.7-10.3-15.5-8c-3.6,1.2-5.9,4.1-5.8,7.2c0.2,3.2,2.5,5.5,6.3,6.4c3.7,0.8,7.4,1.4,11,2.3
			c2.3,0.6,4.6,1.3,6.8,2.4c13.6,6.6,15.2,24.1,3,33.1c-4.4,3.2-9.4,4.6-14.8,4.9c-7.8,0.3-15.1-1.1-21.3-6.3
			C547.7,143.8,545.1,139.5,544.3,133.9z"/>
		<path class="st0" d="M631.4,100.2c0,8.7,0,16.8,0,25c0,2,0,4.1,0,6.1c0.2,4.6,2.4,6.9,7,7.2c2.1,0.1,4.2,0,6.7,0
			c0,3.7,0,7.8-0.1,11.8c0,0.4-0.8,1-1.4,1.1c-5.7,1.4-11.3,1.6-16.8-0.6c-6.9-2.8-10.4-8.2-10.6-15.4c-0.3-10.7-0.1-21.5-0.2-32.3
			c0-0.9,0-1.8,0-2.9c-4.2,0-8.1,0-12,0c0-4.7,0-9.1,0-13.6c2.1-0.2,4.1-0.2,6.1-0.6c4-0.8,6.6-3.4,7-7.5c0.3-3.9,0.1-7.8,0.1-11.9
			c4.9,0,9.5,0,14.3,0c0,6.4,0,12.9,0,19.7c4.6,0,9,0,13.5,0c0,4.7,0,9.1,0,13.7C640.5,100.2,636.1,100.2,631.4,100.2z"/>
		<path class="st0" d="M768.6,86c0,5.4,0,10.6,0,15.4c-3.4,0.2-6.8,0-10,0.6c-7.8,1.3-12.4,7.5-12.5,16.6
			c-0.2,10.1-0.1,20.1-0.1,30.2c0,0.8,0,1.6,0,2.6c-5.3,0-10.4,0-15.6,0c0-21.6,0-43.1,0-64.8c5,0,9.9,0,15,0c0,3.1,0,6.1,0,9.9
			C751.1,87.4,759,84.8,768.6,86z"/>
		<path class="st0" d="M816.4,151.5c-0.7,0-1.3,0-1.9,0c-4.4,0-8.7,0-13.2,0c0-21.7,0-43.2,0-64.9c5,0,10,0,15.1,0
			C816.4,108.1,816.4,129.7,816.4,151.5z"/>
		<path class="st0" d="M762.7,141.6c0-6.1,4.7-10.9,10.7-11c6.2-0.1,11.1,4.7,11.1,10.9c0,6-4.8,10.8-10.9,10.9
			C767.6,152.4,762.8,147.6,762.7,141.6z"/>
		<path class="st0" d="M809,53.5c5.6,0.1,10.2,4.7,10.1,10.3c-0.1,5.6-4.8,10-10.4,9.9c-5.6-0.1-9.9-4.6-9.9-10.1
			C798.8,57.8,803.3,53.4,809,53.5z"/>
	</g>
</g>
</svg>
