<svg width="462" height="204" viewBox="0 0 462 204" fill="none" xmlns="http://www.w3.org/2000/svg">
<path fill-rule="evenodd" clip-rule="evenodd" d="M138.55 79.1412C138.55 54.3998 159.167 47.3309 170.36 47.3309C171.342 33.9783 184.498 5.58292 214.541 0.793524C247.058 -4.3904 265.595 17.0914 271.682 28.4802C286.409 28.4802 312.917 39.0838 312.917 71.4831C312.917 98.5808 288.175 107.613 275.804 109.184H163.88C155.044 108.595 138.55 97.4026 138.55 79.1412ZM272.271 55.0817C272.271 81.7595 250.643 103.386 223.966 103.386C197.288 103.386 175.661 81.7595 175.661 55.0817C175.661 28.4038 197.288 6.77707 223.966 6.77707C250.643 6.77707 272.271 28.4038 272.271 55.0817ZM218.666 37.0375L200.621 55.0826L218.666 73.1276L214.154 77.6388L191.598 55.0826L214.154 32.5263L218.666 37.0375ZM229.266 37.0375L247.311 55.0826L229.266 73.1276L233.777 77.6388L256.333 55.0826L233.777 32.5263L229.266 37.0375Z" fill="url(#paint0_linear_518_26)"/>
<g opacity="0.7">
<path d="M8.44485 138.551V203.985H0V138.551H8.44485ZM54.3684 138.551L24.9708 169.438L55.0075 203.985H43.2754L16.6628 172.503V167.379L43.6877 138.551H54.3684Z" fill="white"/>
<path d="M69.1577 179.793C69.1577 191.355 73.9517 197.136 83.5378 197.136C93.124 197.136 97.918 191.355 97.918 179.793C97.918 168.476 93.124 162.817 83.5378 162.817C73.9517 162.817 69.1577 168.476 69.1577 179.793ZM60.7129 179.976C60.7129 163.961 68.3212 155.953 83.5378 155.953C98.7545 155.953 106.363 163.961 106.363 179.976C106.363 195.961 98.7545 203.954 83.5378 203.954C68.3818 203.954 60.7735 195.961 60.7129 179.976Z" fill="white"/>
<path d="M149.957 165.731C146.548 164.084 142.653 163.26 138.272 163.26C128.623 163.26 123.8 168.4 123.8 178.681C123.8 190.853 128.623 196.938 138.272 196.938C142.653 196.938 146.548 196.344 149.957 195.154V165.731ZM158.403 201.102C152.589 203.024 145.423 203.985 136.902 203.985C122.629 203.985 115.492 195.657 115.492 179.001C115.492 163.626 123.069 155.939 138.225 155.939C142.364 155.939 146.275 156.702 149.957 158.227V138.551H158.403V201.102Z" fill="white"/>
<path d="M191.863 155.953C205.497 155.953 212.314 162.71 212.314 176.224C212.314 178.146 212.177 180.205 211.904 182.401H178.259C178.259 192.224 183.982 197.136 195.424 197.136C200.871 197.136 205.71 196.526 209.941 195.305V202.169C205.71 203.389 200.568 203.999 194.512 203.999C178.046 203.999 169.814 195.809 169.814 179.427C169.814 163.778 177.165 155.953 191.863 155.953ZM178.259 175.355H204.19C204.006 166.935 199.898 162.725 191.863 162.725C183.342 162.725 178.808 166.935 178.259 175.355Z" fill="white"/>
<path d="M233.038 138.551V203.985H224.593V138.551H233.038ZM278.961 138.551L249.564 169.438L279.6 203.985H267.868L241.254 172.503V167.379L268.279 138.551H278.961Z" fill="white"/>
<path d="M296.492 138.551V203.985H288.045V138.551H296.492Z" fill="white"/>
<path d="M316.849 179.793C316.849 191.355 321.643 197.136 331.229 197.136C340.815 197.136 345.609 191.355 345.609 179.793C345.609 168.476 340.815 162.817 331.229 162.817C321.643 162.817 316.849 168.476 316.849 179.793ZM308.404 179.976C308.404 163.961 316.012 155.953 331.229 155.953C346.446 155.953 354.054 163.961 354.054 179.976C354.054 195.961 346.446 203.954 331.229 203.954C316.073 203.954 308.465 195.961 308.404 179.976Z" fill="white"/>
<path d="M406.778 155.953V203.999H400.979L399.519 197.868C393.707 201.956 387.863 203.999 381.989 203.999C370.972 203.999 365.464 198.036 365.464 186.108V155.953H373.909V186.245C373.909 193.384 377.439 196.953 384.5 196.953C389.339 196.953 393.949 194.924 398.333 190.867V155.953H406.778Z" fill="white"/>
<path d="M452.7 165.731C449.292 164.084 445.397 163.26 441.013 163.26C431.366 163.26 426.543 168.4 426.543 178.681C426.543 190.853 431.366 196.938 441.013 196.938C445.397 196.938 449.292 196.344 452.7 195.154V165.731ZM461.145 201.102C455.333 203.024 448.166 203.985 439.645 203.985C425.371 203.985 418.235 195.657 418.235 179.001C418.235 163.626 425.812 155.939 440.968 155.939C445.108 155.939 449.018 156.702 452.7 158.227V138.551H461.145V201.102Z" fill="white"/>
</g>
<defs>
<linearGradient id="paint0_linear_518_26" x1="306.532" y1="-3.39785e-05" x2="175.634" y2="130.547" gradientUnits="userSpaceOnUse">
<stop stop-color="#95E4B7"/>
<stop offset="0.483932" stop-color="#10C1DF"/>
<stop offset="1" stop-color="#1C88D6"/>
</linearGradient>
</defs>
</svg>
