<svg width="552" height="300" viewBox="0 0 552 300" fill="none" xmlns="http://www.w3.org/2000/svg">
<path fill-rule="evenodd" clip-rule="evenodd" d="M134 121.773C134 83.7042 165.712 72.8273 182.927 72.8273C184.437 52.2819 204.672 8.59035 250.881 1.22098C300.895 -6.75544 329.406 26.2983 338.769 43.8221C361.42 43.8221 402.192 60.1376 402.192 109.99C402.192 151.685 364.137 165.583 345.109 168H172.96C159.37 167.094 134 149.872 134 121.773ZM339.675 84.7533C339.675 125.802 306.41 159.079 265.378 159.079C224.345 159.079 191.081 125.802 191.081 84.7533C191.081 43.7045 224.345 10.4278 265.378 10.4278C306.41 10.4278 339.675 43.7045 339.675 84.7533ZM257.225 56.9891L229.47 84.7547L257.225 112.52L250.286 119.462L215.593 84.7547L250.286 50.0477L257.225 56.9891ZM273.529 56.9891L301.284 84.7547L273.529 112.52L280.468 119.462L315.16 84.7547L280.468 50.0477L273.529 56.9891Z" fill="url(#paint0_linear_515_35)"/>
<g opacity="0.7">
<path d="M10.0902 222V300H-0.000244141V222H10.0902ZM64.9627 222L29.8365 258.818L65.7263 300H51.7081L19.9096 262.473V256.364L52.2007 222H64.9627Z" fill="white"/>
<path d="M82.6358 271.146C82.6358 284.928 88.3639 291.819 99.8181 291.819C111.272 291.819 117 284.928 117 271.146C117 257.655 111.272 250.909 99.8181 250.909C88.3639 250.909 82.6358 257.655 82.6358 271.146ZM72.5453 271.364C72.5453 252.273 81.6362 242.728 99.8181 242.728C118 242.728 127.091 252.273 127.091 271.364C127.091 290.419 118 299.946 99.8181 299.946C81.7086 299.946 72.6177 290.419 72.5453 271.364Z" fill="white"/>
<path d="M179.182 254.4C175.11 252.436 170.456 251.454 165.22 251.454C153.691 251.454 147.928 257.582 147.928 269.836C147.928 284.345 153.691 291.6 165.22 291.6C170.456 291.6 175.11 290.891 179.182 289.473V254.4ZM189.275 296.564C182.328 298.854 173.765 300 163.583 300C146.529 300 138.001 290.073 138.001 270.218C138.001 251.891 147.055 242.727 165.164 242.727C170.11 242.727 174.783 243.636 179.182 245.455V222H189.275V296.564Z" fill="white"/>
<path d="M229.256 242.728C245.546 242.728 253.692 250.782 253.692 266.891C253.692 269.182 253.528 271.637 253.201 274.255H213.001C213.001 285.964 219.838 291.818 233.511 291.818C240.019 291.818 245.801 291.091 250.857 289.637V297.818C245.801 299.273 239.657 300 232.42 300C212.746 300 202.91 290.237 202.91 270.709C202.91 252.055 211.693 242.728 229.256 242.728ZM213.001 265.855H243.984C243.765 255.819 238.856 250.8 229.256 250.8C219.074 250.8 213.657 255.819 213.001 265.855Z" fill="white"/>
<path d="M278.457 222V300H268.366V222H278.457ZM333.329 222L298.203 258.818L334.093 300H320.075L288.274 262.473V256.364L320.565 222H333.329Z" fill="white"/>
<path d="M354.276 222V300H344.184V222H354.276Z" fill="white"/>
<path d="M378.602 271.146C378.602 284.928 384.33 291.819 395.785 291.819C407.239 291.819 412.967 284.928 412.967 271.146C412.967 257.655 407.239 250.909 395.785 250.909C384.33 250.909 378.602 257.655 378.602 271.146ZM368.512 271.364C368.512 252.273 377.603 242.728 395.785 242.728C413.966 242.728 423.057 252.273 423.057 271.364C423.057 290.419 413.966 299.946 395.785 299.946C377.675 299.946 368.584 290.419 368.512 271.364Z" fill="white"/>
<path d="M486.059 242.728V300H479.13L477.386 292.691C470.441 297.564 463.459 300 456.439 300C443.276 300 436.695 292.891 436.695 278.673V242.728H446.785V278.837C446.785 287.346 451.003 291.6 459.44 291.6C465.222 291.6 470.731 289.182 475.968 284.346V242.728H486.059Z" fill="white"/>
<path d="M540.932 254.4C536.859 252.436 532.205 251.454 526.968 251.454C515.441 251.454 509.678 257.582 509.678 269.836C509.678 284.345 515.441 291.6 526.968 291.6C532.205 291.6 536.859 290.891 540.932 289.473V254.4ZM551.023 296.564C544.078 298.854 535.514 300 525.333 300C508.277 300 499.751 290.073 499.751 270.218C499.751 251.891 508.804 242.727 526.914 242.727C531.86 242.727 536.532 243.636 540.932 245.455V222H551.023V296.564Z" fill="white"/>
</g>
<defs>
<linearGradient id="paint0_linear_515_35" x1="392.371" y1="-5.22822e-05" x2="190.96" y2="200.792" gradientUnits="userSpaceOnUse">
<stop stop-color="#656565"/>
<stop offset="0.483932" stop-color="#737373"/>
<stop offset="1" stop-color="#545454"/>
</linearGradient>
</defs>
</svg>
