<svg width="275" height="90" viewBox="0 0 275 90" fill="none" xmlns="http://www.w3.org/2000/svg">
<g clip-path="url(#clip0_512_2)">
<path d="M97.4758 13.1126V9.01465H119.006V13.1126H110.666V36.0003H105.817V13.1126H97.4758ZM127.716 24.1414V36.0003H122.946V9.01465H127.611V19.2002H127.848C128.322 18.0582 129.056 17.1578 130.048 16.499C131.05 15.8313 132.323 15.4975 133.87 15.4975C135.275 15.4975 136.5 15.7918 137.546 16.3804C138.591 16.9689 139.399 17.8298 139.97 18.963C140.55 20.0962 140.84 21.4797 140.84 23.1136V36.0003H136.07V23.8515C136.07 22.4899 135.719 21.4314 135.016 20.6759C134.322 19.9117 133.347 19.5296 132.091 19.5296C131.247 19.5296 130.492 19.714 129.824 20.083C129.165 20.4431 128.647 20.9658 128.269 21.651C127.901 22.3362 127.716 23.1663 127.716 24.1414ZM145.702 36.0003V15.7611H150.327V19.1343H150.538C150.907 17.9659 151.539 17.0655 152.435 16.4331C153.34 15.7918 154.372 15.4712 155.532 15.4712C155.795 15.4712 156.09 15.4844 156.415 15.5107C156.748 15.5283 157.025 15.559 157.245 15.6029V19.9907C157.043 19.9205 156.722 19.859 156.283 19.8063C155.852 19.7448 155.435 19.714 155.031 19.714C154.161 19.714 153.38 19.9029 152.686 20.2806C152 20.6496 151.46 21.1635 151.065 21.8223C150.67 22.4811 150.472 23.241 150.472 24.1018V36.0003H145.702ZM168.54 36.3956C166.511 36.3956 164.759 35.9739 163.283 35.1306C161.816 34.2786 160.687 33.0751 159.897 31.5203C159.106 29.9566 158.711 28.1163 158.711 25.9993C158.711 23.9174 159.106 22.0902 159.897 20.5178C160.696 18.9366 161.812 17.7068 163.243 16.8284C164.675 15.9411 166.357 15.4975 168.29 15.4975C169.537 15.4975 170.715 15.6996 171.821 16.1037C172.937 16.499 173.921 17.1139 174.773 17.9484C175.634 18.7829 176.31 19.8458 176.802 21.1371C177.294 22.4196 177.54 23.9481 177.54 25.7226V27.1852H160.951V23.9701H172.968C172.959 23.0565 172.761 22.2439 172.375 21.5324C171.988 20.8121 171.448 20.2455 170.754 19.8326C170.069 19.4198 169.269 19.2133 168.356 19.2133C167.381 19.2133 166.524 19.4505 165.786 19.9249C165.049 20.3904 164.473 21.0053 164.06 21.7696C163.656 22.525 163.45 23.3552 163.441 24.26V27.0666C163.441 28.2437 163.656 29.2539 164.087 30.0972C164.517 30.9317 165.119 31.573 165.892 32.021C166.665 32.4602 167.57 32.6798 168.606 32.6798C169.3 32.6798 169.928 32.5832 170.491 32.3899C171.053 32.1879 171.54 31.8936 171.953 31.5071C172.366 31.1206 172.678 30.6418 172.889 30.0708L177.342 30.5715C177.061 31.7487 176.525 32.7764 175.735 33.6549C174.953 34.5245 173.952 35.2009 172.731 35.6841C171.51 36.1584 170.113 36.3956 168.54 36.3956ZM190.535 36.3956C188.506 36.3956 186.754 35.9739 185.278 35.1306C183.811 34.2786 182.682 33.0751 181.892 31.5203C181.101 29.9566 180.706 28.1163 180.706 25.9993C180.706 23.9174 181.101 22.0902 181.892 20.5178C182.691 18.9366 183.807 17.7068 185.238 16.8284C186.67 15.9411 188.352 15.4975 190.285 15.4975C191.532 15.4975 192.71 15.6996 193.816 16.1037C194.932 16.499 195.916 17.1139 196.768 17.9484C197.629 18.7829 198.305 19.8458 198.797 21.1371C199.289 22.4196 199.535 23.9481 199.535 25.7226V27.1852H182.946V23.9701H194.963C194.954 23.0565 194.756 22.2439 194.37 21.5324C193.983 20.8121 193.443 20.2455 192.749 19.8326C192.064 19.4198 191.265 19.2133 190.351 19.2133C189.376 19.2133 188.519 19.4505 187.782 19.9249C187.044 20.3904 186.468 21.0053 186.055 21.7696C185.651 22.525 185.445 23.3552 185.436 24.26V27.0666C185.436 28.2437 185.651 29.2539 186.082 30.0972C186.512 30.9317 187.114 31.573 187.887 32.021C188.66 32.4602 189.565 32.6798 190.601 32.6798C191.295 32.6798 191.923 32.5832 192.486 32.3899C193.048 32.1879 193.535 31.8936 193.948 31.5071C194.361 31.1206 194.673 30.6418 194.884 30.0708L199.337 30.5715C199.056 31.7487 198.52 32.7764 197.73 33.6549C196.948 34.5245 195.947 35.2009 194.726 35.6841C193.505 36.1584 192.108 36.3956 190.535 36.3956ZM207.639 36.0003L201.92 15.7611H206.782L210.34 29.9918H210.524L214.161 15.7611H218.97L222.607 29.9127H222.805L226.31 15.7611H231.185L225.453 36.0003H220.486L216.691 22.323H216.414L212.619 36.0003H207.639ZM240.34 36.4088C239.057 36.4088 237.902 36.1804 236.874 35.7236C235.855 35.258 235.047 34.5728 234.45 33.668C233.861 32.7633 233.567 31.6476 233.567 30.3212C233.567 29.1792 233.778 28.2349 234.199 27.4882C234.621 26.7416 235.196 26.1442 235.925 25.6962C236.655 25.2482 237.476 24.91 238.389 24.6816C239.312 24.4444 240.265 24.2731 241.249 24.1677C242.435 24.0447 243.397 23.9349 244.134 23.8383C244.872 23.7329 245.408 23.5748 245.742 23.364C246.085 23.1443 246.256 22.8061 246.256 22.3494V22.2703C246.256 21.2777 245.962 20.509 245.373 19.9644C244.785 19.4198 243.937 19.1474 242.83 19.1474C241.662 19.1474 240.735 19.4022 240.05 19.9117C239.373 20.4212 238.917 21.0229 238.679 21.7169L234.226 21.0844C234.577 19.8546 235.157 18.8268 235.965 18.0011C236.773 17.1666 237.761 16.5429 238.93 16.13C240.098 15.7084 241.389 15.4975 242.804 15.4975C243.779 15.4975 244.749 15.6117 245.716 15.8401C246.682 16.0685 247.565 16.4462 248.364 16.9733C249.164 17.4916 249.805 18.1987 250.288 19.0947C250.78 19.9907 251.026 21.1108 251.026 22.4548V36.0003H246.44V33.22H246.282C245.992 33.7822 245.584 34.3093 245.057 34.8012C244.539 35.2844 243.884 35.6753 243.094 35.9739C242.312 36.2638 241.394 36.4088 240.34 36.4088ZM241.578 32.9038C242.536 32.9038 243.366 32.7149 244.069 32.3372C244.771 31.9507 245.312 31.4412 245.689 30.8087C246.076 30.1762 246.269 29.4867 246.269 28.74V26.355C246.12 26.478 245.865 26.5922 245.505 26.6976C245.153 26.803 244.758 26.8953 244.319 26.9743C243.88 27.0534 243.445 27.1237 243.014 27.1852C242.584 27.2467 242.211 27.2994 241.894 27.3433C241.183 27.4399 240.546 27.598 239.984 27.8176C239.422 28.0373 238.978 28.3447 238.653 28.74C238.328 29.1265 238.165 29.6272 238.165 30.2421C238.165 31.1206 238.486 31.7838 239.127 32.2318C239.769 32.6798 240.586 32.9038 241.578 32.9038ZM258.062 43.59C257.412 43.59 256.81 43.5373 256.257 43.4319C255.712 43.3353 255.277 43.2211 254.952 43.0893L256.059 39.3735C256.753 39.5755 257.373 39.6722 257.917 39.6634C258.462 39.6546 258.941 39.4833 259.353 39.1495C259.775 38.8245 260.131 38.2798 260.421 37.5156L260.829 36.422L253.49 15.7611H258.55L263.214 31.0459H263.425L268.103 15.7611H273.176L265.072 38.4511C264.694 39.5228 264.194 40.4408 263.57 41.2051C262.946 41.9781 262.182 42.5666 261.277 42.9707C260.381 43.3836 259.309 43.59 258.062 43.59ZM113.327 61.4331C113.204 60.2823 112.686 59.3863 111.772 58.745C110.868 58.1038 109.69 57.7832 108.241 57.7832C107.222 57.7832 106.348 57.9369 105.619 58.2443C104.89 58.5518 104.332 58.969 103.945 59.4961C103.559 60.0232 103.361 60.6249 103.353 61.3013C103.353 61.8635 103.48 62.351 103.735 62.7639C103.998 63.1768 104.354 63.5281 104.802 63.818C105.25 64.0991 105.746 64.3363 106.291 64.5296C106.836 64.7228 107.385 64.8853 107.938 65.0171L110.468 65.6496C111.487 65.8868 112.466 66.2074 113.406 66.6115C114.355 67.0156 115.203 67.525 115.949 68.14C116.705 68.7549 117.302 69.4971 117.741 70.3668C118.181 71.2365 118.4 72.2554 118.4 73.4238C118.4 75.005 117.996 76.3973 117.188 77.6007C116.38 78.7954 115.211 79.731 113.683 80.4074C112.163 81.075 110.323 81.4088 108.162 81.4088C106.063 81.4088 104.24 81.0838 102.694 80.4337C101.156 79.7837 99.953 78.8349 99.0833 77.5876C98.2225 76.3402 97.7569 74.8205 97.6866 73.0285H102.496C102.566 73.9684 102.856 74.7502 103.366 75.3739C103.875 75.9976 104.538 76.4632 105.355 76.7706C106.181 77.0781 107.103 77.2318 108.122 77.2318C109.185 77.2318 110.117 77.0737 110.916 76.7574C111.724 76.4324 112.357 75.9844 112.813 75.4134C113.27 74.8337 113.503 74.1573 113.512 73.3842C113.503 72.6815 113.296 72.1017 112.892 71.6449C112.488 71.1794 111.922 70.7928 111.193 70.4854C110.472 70.1691 109.629 69.888 108.663 69.6421L105.593 68.8515C103.37 68.2805 101.613 67.4152 100.322 66.2557C99.0394 65.0874 98.3981 63.5369 98.3981 61.6044C98.3981 60.0144 98.8286 58.6221 99.6894 57.4274C100.559 56.2327 101.741 55.306 103.234 54.6471C104.727 53.9795 106.418 53.6457 108.307 53.6457C110.222 53.6457 111.9 53.9795 113.34 54.6471C114.79 55.306 115.927 56.2239 116.753 57.401C117.579 58.5694 118.005 59.9134 118.031 61.4331H113.327ZM132.654 60.7611V64.4505H121.019V60.7611H132.654ZM123.892 55.9121H128.661V74.9127C128.661 75.554 128.758 76.0459 128.951 76.3885C129.153 76.7223 129.417 76.9507 129.742 77.0737C130.067 77.1967 130.427 77.2581 130.822 77.2581C131.121 77.2581 131.393 77.2362 131.639 77.1923C131.894 77.1483 132.087 77.1088 132.219 77.0737L133.023 80.8027C132.768 80.8905 132.404 80.9871 131.929 81.0925C131.464 81.1979 130.893 81.2594 130.216 81.277C129.022 81.3121 127.946 81.1321 126.988 80.7368C126.031 80.3327 125.271 79.709 124.708 78.8657C124.155 78.0224 123.883 76.9683 123.892 75.7033V55.9121ZM149.543 72.4882V60.7611H154.313V81.0003H149.688V77.4031H149.477C149.02 78.5363 148.269 79.463 147.224 80.1834C146.187 80.9037 144.909 81.2638 143.39 81.2638C142.063 81.2638 140.89 80.9696 139.871 80.381C138.861 79.7837 138.071 78.9184 137.5 77.7852C136.929 76.6432 136.643 75.2641 136.643 73.6478V60.7611H141.413V72.9099C141.413 74.1924 141.764 75.2114 142.467 75.9668C143.17 76.7223 144.092 77.1 145.234 77.1C145.937 77.1 146.618 76.9287 147.277 76.5861C147.936 76.2436 148.476 75.7341 148.897 75.0577C149.328 74.3725 149.543 73.516 149.543 72.4882ZM166.729 81.3561C165.139 81.3561 163.716 80.9476 162.459 80.1306C161.203 79.3137 160.211 78.1278 159.481 76.573C158.752 75.0181 158.388 73.1295 158.388 70.907C158.388 68.6582 158.757 66.7608 159.495 65.2148C160.241 63.6599 161.247 62.4872 162.512 61.6966C163.777 60.8972 165.187 60.4975 166.742 60.4975C167.928 60.4975 168.903 60.6996 169.667 61.1037C170.431 61.499 171.037 61.9777 171.485 62.5399C171.933 63.0933 172.28 63.616 172.526 64.1079H172.724V54.0147H177.507V81.0003H172.816V77.8116H172.526C172.28 78.3035 171.925 78.8262 171.459 79.3796C170.993 79.9242 170.379 80.3898 169.614 80.7763C168.85 81.1628 167.888 81.3561 166.729 81.3561ZM168.059 77.4426C169.07 77.4426 169.931 77.1703 170.642 76.6257C171.354 76.0723 171.894 75.3036 172.263 74.3198C172.632 73.3359 172.816 72.1896 172.816 70.8807C172.816 69.5718 172.632 68.4342 172.263 67.4679C171.903 66.5017 171.367 65.7506 170.655 65.2148C169.952 64.6789 169.087 64.411 168.059 64.411C166.997 64.411 166.109 64.6877 165.398 65.2411C164.686 65.7945 164.15 66.5588 163.79 67.5338C163.43 68.5089 163.25 69.6245 163.25 70.8807C163.25 72.1456 163.43 73.2744 163.79 74.2671C164.159 75.2509 164.699 76.0283 165.411 76.5993C166.131 77.1615 167.014 77.4426 168.059 77.4426ZM182.59 81.0003V60.7611H187.36V81.0003H182.59ZM184.988 57.8886C184.233 57.8886 183.583 57.6382 183.038 57.1375C182.493 56.628 182.221 56.0175 182.221 55.306C182.221 54.5856 182.493 53.9751 183.038 53.4744C183.583 52.9649 184.233 52.7102 184.988 52.7102C185.752 52.7102 186.402 52.9649 186.938 53.4744C187.483 53.9751 187.755 54.5856 187.755 55.306C187.755 56.0175 187.483 56.628 186.938 57.1375C186.402 57.6382 185.752 57.8886 184.988 57.8886ZM201.093 81.3956C199.117 81.3956 197.404 80.9608 195.954 80.0911C194.505 79.2215 193.38 78.0048 192.581 76.4412C191.79 74.8776 191.395 73.0504 191.395 70.9597C191.395 68.8691 191.79 67.0375 192.581 65.4651C193.38 63.8927 194.505 62.6717 195.954 61.802C197.404 60.9324 199.117 60.4975 201.093 60.4975C203.07 60.4975 204.783 60.9324 206.232 61.802C207.681 62.6717 208.801 63.8927 209.592 65.4651C210.391 67.0375 210.791 68.8691 210.791 70.9597C210.791 73.0504 210.391 74.8776 209.592 76.4412C208.801 78.0048 207.681 79.2215 206.232 80.0911C204.783 80.9608 203.07 81.3956 201.093 81.3956ZM201.119 77.5744C202.191 77.5744 203.087 77.2801 203.808 76.6916C204.528 76.0942 205.064 75.2948 205.415 74.2934C205.775 73.292 205.955 72.1764 205.955 70.9466C205.955 69.708 205.775 68.588 205.415 67.5865C205.064 66.5763 204.528 65.7726 203.808 65.1752C203.087 64.5779 202.191 64.2792 201.119 64.2792C200.021 64.2792 199.108 64.5779 198.379 65.1752C197.658 65.7726 197.118 66.5763 196.758 67.5865C196.407 68.588 196.231 69.708 196.231 70.9466C196.231 72.1764 196.407 73.292 196.758 74.2934C197.118 75.2948 197.658 76.0942 198.379 76.6916C199.108 77.2801 200.021 77.5744 201.119 77.5744Z" fill="white"/>
<path d="M8.89551 32.2519L48.0866 4.62109L63.66 34.4539L56.4859 39.5681L69.9107 64.7838L34.1114 89.9996L19.5145 77.1432L26.0671 67.8737L35.5497 75.8647L56.3083 61.5875L47.9978 45.7833L32.7263 56.3668L26.1737 49.1039L50.8922 31.6126L44.464 19.7328L16.1051 38.9821L8.89551 32.2519Z" fill="white"/>
<path d="M48.0876 4.62152L39.4042 4L0 31.6486L8.89665 32.2523L48.0876 4.62152Z" fill="#312F2F"/>
<path d="M0 31.6484L7.44045 38.5916L16.1062 38.9823L8.89665 32.2522L0 31.6484Z" fill="#525050"/>
<path d="M34.1136 89.9995L25.1815 89.4848L10.7979 76.6104L19.5169 77.1432L34.1136 89.9995Z" fill="#525050"/>
<path d="M26.0695 67.8744L17.1728 67.2529L10.7979 76.6111L19.5169 77.1439L26.0695 67.8744Z" fill="#6B6B6B"/>
<path d="M56.3089 61.5879L47.3946 61.1084L31.2529 72.2425L35.5502 75.865L56.3089 61.5879Z" fill="#312F2F"/>
<path d="M47.9991 45.7842L56.3097 61.5885L47.3954 61.109L41.8018 50.0815L47.9991 45.7842Z" fill="#312F2F"/>
<path d="M32.7277 56.3672L23.9554 55.9232L17.3496 48.6426L26.1752 49.1044L32.7277 56.3672Z" fill="#525050"/>
<path d="M50.8938 31.6124L41.944 31.1152L17.3496 48.642L26.1752 49.1038L50.8938 31.6124Z" fill="#6B6B6B"/>
<path d="M44.4655 19.7334L50.8938 31.6132L41.944 31.116L38.2148 23.9775L44.4655 19.7334Z" fill="#525050"/>
</g>
<defs>
<clipPath id="clip0_512_2">
<rect width="275" height="90" fill="white"/>
</clipPath>
</defs>
</svg>
