<svg width="397" height="453" viewBox="0 0 397 453" fill="none" xmlns="http://www.w3.org/2000/svg">
<path d="M130.018 270.875C127.025 259.703 127.788 247.937 132.31 235.578C136.831 223.218 145.171 208.184 157.329 190.474C169.28 171.995 176.916 158.181 180.237 149.034C183.558 139.886 183.824 130.111 181.037 119.71C177.425 106.227 169.815 96.2916 158.209 89.9048C146.988 83.4149 134.839 81.9221 121.76 85.4264C95.6039 92.435 81.3869 113.999 79.1092 150.118L22.4512 141.765C23.3033 112.634 31.2436 88.4161 46.2723 69.112C61.5825 49.3196 82.5081 35.8676 109.049 28.756C139.052 20.7167 166.968 23.3525 192.797 36.6635C218.523 49.5893 235.154 70.1133 242.689 98.2356C247.128 114.801 247.167 131.1 242.805 147.133C238.34 162.781 229.184 180.924 215.338 201.563C202.72 220.634 194.648 234.358 191.121 242.735C187.491 250.727 186.759 258.768 188.927 266.858C190.166 271.481 192.328 276.475 195.415 281.842L143.487 295.756C136.675 287.259 132.186 278.965 130.018 270.875ZM172.583 420.499C161.85 414.291 154.78 404.831 151.374 392.118C147.967 379.405 149.36 367.678 155.551 356.935C162.024 345.704 171.607 338.388 184.301 334.987C196.995 331.585 208.708 332.989 219.441 339.196C230.559 345.301 237.873 354.902 241.383 368C244.789 380.713 243.204 392.493 236.628 403.338C230.437 414.081 220.994 421.153 208.301 424.554C195.607 427.956 183.701 426.604 172.583 420.499Z" fill="#FFFFFF" fill-opacity="0.2"/>
<path d="M296.743 246.527C299.057 242.591 302.579 239.549 307.309 237.399C312.038 235.249 318.577 233.433 326.926 231.951C335.434 230.197 341.435 228.521 344.928 226.922C348.421 225.324 351.245 222.693 353.4 219.029C356.194 214.279 356.882 209.388 355.466 204.354C354.185 199.4 351.241 195.568 346.634 192.859C337.421 187.44 327.417 189.41 316.624 198.769L303.288 180.515C311.72 172.69 320.732 168.219 330.324 167.102C340.132 165.93 349.711 168.093 359.06 173.592C369.629 179.808 376.616 188.392 380.022 199.345C383.508 210.162 382.338 220.523 376.512 230.43C373.08 236.265 368.505 240.788 362.786 244C357.147 247.076 349.507 249.524 339.867 251.342C331.008 253.072 324.911 254.6 321.578 255.927C318.324 257.119 315.859 259.139 314.183 261.989C313.225 263.617 312.419 265.609 311.764 267.963L293.472 257.205C293.976 252.936 295.067 249.376 296.743 246.527ZM266.43 299.929C265.205 295.19 265.909 290.582 268.543 286.104C271.176 281.625 274.862 278.77 279.598 277.538C284.551 276.25 289.262 276.92 293.734 279.55C298.205 282.18 301.053 285.864 302.278 290.603C303.639 295.421 302.963 300.137 300.249 304.751C297.615 309.229 293.862 312.045 288.99 313.197C284.253 314.429 279.649 313.731 275.178 311.101C270.706 308.471 267.79 304.747 266.43 299.929Z" fill="#FFFFFF" fill-opacity="0.2"/>
</svg>
