<svg width="621" height="621" viewBox="0 0 621 621" fill="none" xmlns="http://www.w3.org/2000/svg">
<path d="M405.699 553.746H313.481H303.234H221.945V562.812C221.945 563.93 222.877 564.862 225.113 565.234C233.931 566.725 291.808 565.793 313.791 565.421C335.775 565.793 393.714 566.725 402.47 565.234C404.706 564.862 405.637 563.992 405.637 562.812V553.746H405.699Z" fill="#999999"/>
<path d="M392.969 544.307C378.872 537.476 378.437 522.509 378.437 522.509L373.904 468.048L373.469 451.715H322.299H305.346H254.175L253.741 468.048L249.207 522.509C249.207 522.509 248.773 537.476 234.676 544.307C234.676 544.307 214.245 554.305 225.113 555.671C233.931 556.789 291.808 556.106 313.791 555.795C335.775 556.106 393.714 556.789 402.47 555.671C413.4 554.305 392.969 544.307 392.969 544.307Z" fill="url(#paint0_linear)"/>
<path d="M617.399 454.386C617.399 464.446 609.264 472.519 599.266 472.519H29.0019C18.9417 472.519 10.8687 464.384 10.8687 454.386V75.762C10.8687 65.7018 19.0038 57.6288 29.0019 57.6288H599.266C609.326 57.6288 617.399 65.7639 617.399 75.762V454.386Z" fill="url(#paint1_linear)"/>
<path d="M617.398 75.762V417.188H10.8054V75.762C10.8054 65.7018 18.9405 57.6288 28.9386 57.6288H599.265C609.263 57.5667 617.398 65.7018 617.398 75.762Z" fill="url(#paint2_linear)"/>
<path d="M617.398 94.8888H10.8054V376.947H617.398V94.8888Z" fill="#FAFAFA"/>
<path opacity="0.1" d="M617.398 75.762V417.188H525.428L360.366 57.6288H599.265C609.263 57.5667 617.398 65.7018 617.398 75.762Z" fill="white"/>
<path d="M371.578 222.214C367.852 225.319 362.574 224.884 358.475 221.717V258.667C358.475 262.393 355.991 265.374 352.389 265.374C348.788 265.374 346.304 262.393 346.304 258.667C346.304 262.393 343.323 265.374 339.721 265.374C336.119 265.374 333.139 262.393 333.139 258.667C333.139 262.393 330.53 265.374 326.929 265.374C323.327 265.374 320.719 262.393 320.719 258.667C320.719 262.393 317.738 265.374 314.136 265.374C310.534 265.374 307.553 262.393 307.553 258.667C307.553 262.393 304.945 265.374 301.343 265.374C297.742 265.374 295.133 262.393 295.133 258.667C295.133 262.393 292.153 265.374 288.551 265.374C284.949 265.374 281.968 262.393 281.968 258.667C281.968 262.393 278.987 265.374 275.386 265.374C271.784 265.374 268.803 262.393 268.803 258.667V224.263C264.642 227.679 259.488 228.176 255.7 225.319C251.167 221.717 250.732 214.451 254.768 209.111L268.803 189.922C268.927 189.798 268.803 189.798 268.803 189.736V179.365C268.803 157.071 288.923 139 313.701 139C338.479 139 358.599 157.071 358.599 179.365V188.245L372.324 206.006C376.298 211.284 375.987 218.55 371.578 222.214Z" fill="white" stroke="#263238" stroke-width="3" stroke-miterlimit="10"/>
<path d="M268.803 223.704L275.075 216.439" stroke="#263238" stroke-width="3" stroke-miterlimit="10"/>
<path d="M351.52 214.7L358.351 221.407" stroke="#263238" stroke-width="3" stroke-miterlimit="10"/>
<path d="M293.146 176.881L299.791 182.097" stroke="#263238" stroke-width="3" stroke-miterlimit="10"/>
<path d="M299.046 176.198L293.891 182.78" stroke="#263238" stroke-width="3" stroke-miterlimit="10"/>
<path d="M327.239 176.881L333.884 182.097" stroke="#263238" stroke-width="3" stroke-miterlimit="10"/>
<path d="M333.263 176.26L327.86 182.656" stroke="#263238" stroke-width="3" stroke-miterlimit="10"/>
<path d="M299.791 206.316H330.034H299.791Z" fill="#FAFAFA" stroke="#263238" stroke-width="3" stroke-miterlimit="10"/>
<path d="M320.222 213.147L320.346 206.441L327.549 206.565L327.425 213.272C327.425 215.135 325.687 216.687 323.699 216.687C321.898 216.687 320.098 215.135 320.222 213.147Z" fill="#FAFAFA" stroke="#263238" stroke-width="3" stroke-miterlimit="10"/>
<path d="M209.284 317.752H205.705V310.222H197.71V317.752H192.458L199.941 298.323H191.714L182.558 322.353V324.445H197.71V329H205.705V324.445H209.284V317.752ZM212.012 313.429C212.012 322.586 216.428 329.558 224.748 329.558C233.068 329.558 237.483 322.586 237.483 313.429C237.483 304.366 233.114 297.765 224.748 297.765C216.381 297.765 212.012 304.366 212.012 313.429ZM229.303 313.476C229.303 319.286 227.769 322.214 224.748 322.214C221.727 322.214 220.193 319.286 220.193 313.476C220.193 307.712 221.634 305.109 224.748 305.109C227.862 305.109 229.303 307.712 229.303 313.476ZM267.111 317.752H263.532V310.222H255.538V317.752H250.286L257.769 298.323H249.542L240.385 322.353V324.445H255.538V329H263.532V324.445H267.111V317.752ZM283.611 329H305.456V321.796H291.605V316.45H301.087V309.757H291.605V305.528H304.899V298.323H283.611V329ZM337.581 329L329.493 317.612C332.515 315.753 334.327 312.639 334.327 308.874C334.327 302.506 329.307 298.323 322.475 298.323H310.437V329H318.431V319.472H321.731L328.657 329H337.581ZM318.431 305.295H322.521C324.752 305.295 326.193 306.69 326.193 308.874C326.193 311.059 324.752 312.5 322.521 312.5H318.431V305.295ZM367.902 329L359.814 317.612C362.836 315.753 364.648 312.639 364.648 308.874C364.648 302.506 359.628 298.323 352.796 298.323H340.758V329H348.752V319.472H352.052L358.978 329H367.902ZM348.752 305.295H352.842C355.073 305.295 356.514 306.69 356.514 308.874C356.514 311.059 355.073 312.5 352.842 312.5H348.752V305.295ZM368.817 313.662C368.631 322.539 376.347 329.697 385.318 329.558C394.242 329.697 402.097 322.539 401.911 313.662C402.097 304.877 394.242 297.58 385.318 297.765C376.347 297.58 368.631 304.877 368.817 313.662ZM393.731 313.662C393.731 318.774 390.105 322.214 385.364 322.214C382.901 322.214 380.856 321.424 379.322 319.89C377.788 318.31 376.998 316.218 376.998 313.662C376.998 308.595 380.437 305.109 385.364 305.109C390.105 305.109 393.731 308.595 393.731 313.662ZM433.627 329L425.54 317.612C428.561 315.753 430.374 312.639 430.374 308.874C430.374 302.506 425.354 298.323 418.521 298.323H406.483V329H414.478V319.472H417.778L424.703 329H433.627ZM414.478 305.295H418.568C420.799 305.295 422.24 306.69 422.24 308.874C422.24 311.059 420.799 312.5 418.568 312.5H414.478V305.295Z" fill="#263238"/>
<defs>
<linearGradient id="paint0_linear" x1="313.806" y1="550.549" x2="313.806" y2="470.934" gradientUnits="userSpaceOnUse">
<stop stop-color="#E6E6E6"/>
<stop offset="1" stop-color="#B3B3B3"/>
</linearGradient>
<linearGradient id="paint1_linear" x1="314.106" y1="363.575" x2="314.106" y2="528.515" gradientUnits="userSpaceOnUse">
<stop stop-color="#E6E6E6"/>
<stop offset="1" stop-color="#CCCCCC"/>
</linearGradient>
<linearGradient id="paint2_linear" x1="511.348" y1="288.925" x2="-34.6354" y2="151.75" gradientUnits="userSpaceOnUse">
<stop stop-color="#1A1A1A"/>
<stop offset="1" stop-color="#4D4D4D"/>
</linearGradient>
</defs>
</svg>
