<svg width="100" height="100" viewBox="0 0 100 100" fill="none" xmlns="http://www.w3.org/2000/svg">
<path d="M99.1627 57.5658L100 49.5829L99.0149 41.6162L89.8375 38.2791L88.1793 35.629L86.4883 31.752L85.733 30.2797L86.2912 29.0692L89.936 19.254L85.1092 14.0684L78.2958 9.56977L69.1512 13.7085L68.1333 13.2832L61.6319 10.0442L58.2006 0.91608L50.2216 0L42.2426 0.883362L38.9099 9.66792L36.6771 11.3529L30.7667 13.9866L21.4086 9.66792L14.6281 14.2156L9.83417 19.4504L14.1192 30.4433L10.0804 38.4754L0.919385 41.878L0 49.8446L0.886548 57.8112L10.0312 61.2629L11.6401 63.9293L13.2983 67.839L14.0207 69.3113L13.4461 70.5055L9.68642 80.2716L14.464 85.5227L21.228 90.1031L30.4219 86.0625L31.7682 86.635L31.7518 86.6514L38.8278 90.0867L42.374 99.1657L50.3694 100L58.3484 99.0185L61.5827 90.2012L63.799 88.4999L69.6766 85.8008L79.0839 90.0049L85.8151 85.3754L90.5434 80.0916L86.1271 69.1477L90.0673 61.0666L99.1627 57.5658ZM50.156 65.7778C41.2083 65.7778 33.9681 58.5146 33.9681 49.5665C33.9681 40.6184 41.2247 33.3551 50.156 33.3551C59.0872 33.3551 66.3438 40.6184 66.3438 49.5665C66.3438 58.5146 59.1036 65.7778 50.156 65.7778Z" fill="#F79737"/>
</svg>
