<svg width="1920" height="593" viewBox="0 0 1920 593" fill="none" xmlns="http://www.w3.org/2000/svg">
<mask id="mask0" mask-type="alpha" maskUnits="userSpaceOnUse" x="0" y="0" width="1920" height="594">
<rect width="1920" height="594" fill="#C4C4C4"/>
</mask>
<g mask="url(#mask0)">
<path d="M5 172L-59 198.5V349H1284L1162.5 174L1154.5 168.5L1140.5 175.5L1078.5 231.5L1025 256.5L994.5 244.5L928 185.5L893.5 133.5L886 105.5L872 64.5L849.5 29L800.5 84.5L777 105.5L745.5 134L724.5 146.5L705 134L527.5 187.5L484 189.5L446 186.5L393 173L332.5 146.5L315 134L245.5 117.5L217 100L201.5 77L179.5 25L162.5 7L148 17L135.5 29L130.5 37.5L115.5 40.5L80.5 95.5L48 116L5 172Z" fill="#C146A4"/>
<path d="M1857 124L1889 97L1917.5 115.5L1937.5 128.5L1915.5 124.5L1895.5 129.5L1880 125L1865.5 128.5L1848 126.5L1857 124Z" fill="#C146A4"/>
<path d="M5 172L52.5 123L89.5 103.5L120 69.5L102.5 117L80 142L46 184.5L10.5 259L-15 192L-9.5 177L5 172Z" fill="black" fill-opacity="0.06"/>
<path d="M1968.98 147.851L2017 188.419V277H1433L1543.92 219.311L1647.77 174.648L1671.59 179.115L1691.31 193.63L1762.41 144.873L1775.81 140.407L1829.5 131.5L1857 124L1889 97L1925.44 120.681L1968.98 147.851Z" fill="#97469E" fill-opacity="0.5"/>
<path d="M1512.5 200.5L1424.5 221L1525.5 162.5L1617.5 65L1683.5 143.5L1765 185L1641.5 175.5L1577 215L1512.5 200.5Z" fill="#F79737"/>
<path d="M1570.38 308.648L1920 369.794V593H1008V297.712L1234.14 248L1427.55 308.648H1570.38Z" fill="#97469E"/>
<path d="M903.967 280.692L1920 422.196V592H0V296.084L204.298 280.692L479.504 107.413L501.322 113.867L555.372 95L574.711 121.315L607.438 107.413L903.967 280.692Z" fill="#F79737"/>
<path d="M914.589 571.203L921 585H864.288L741 517L914.589 571.203Z" fill="black" fill-opacity="0.07"/>
<path d="M1490.81 422.614L1520 442L1376.05 431.561L1148 357L1490.81 422.614Z" fill="black" fill-opacity="0.1"/>
<path d="M958.354 380.681L1573 592H1109.91L946.962 521.064L628 152L876.632 311.233L958.354 380.681Z" fill="black" fill-opacity="0.04"/>
<path d="M517 227.438L481.33 159L393.147 329.598L247 456.059L269.294 536.895L429.807 585L517 227.438Z" fill="black" fill-opacity="0.04"/>
<path d="M1515.04 488L1908 559L1654.96 537.65L1391 488H1515.04Z" fill="black" fill-opacity="0.08"/>
<path d="M1791.96 210.499L1773 210.498L1901.18 263.368L1791.96 210.499Z" fill="#3C3494"/>
<path d="M1203.5 210L1087 316H1459L1580 210L1448.5 147.5L1417.5 95L1412 75.5L1399.5 57L1394.5 66.5L1379.5 77.5L1371.5 88L1359 110.5L1334 133.5L1325 138.5L1311.5 127L1302.5 115L1293 127L1289 129L1278 152.5L1246 182L1219.5 193L1203.5 210Z" fill="#5472D8"/>
<path d="M1394.5 66.5L1399.5 57L1412 75.5L1417.5 95L1431.5 118.5L1399.5 103L1361.5 125L1334 133.5L1359 110.5L1371.5 88L1379.5 77.5L1394.5 66.5Z" fill="#C4C4C4"/>
<path d="M1284 140L1288.5 129L1293 127L1302.5 115L1311.5 127L1320 134L1307.5 138L1297 135L1284 140Z" fill="#C4C4C4"/>
<path d="M1117 234L1038.5 291.5L965.5 383L1920 391V264L1683 143.5L1617.5 65L1525 163L1349.5 264H1305.5L1265.5 290L1178.5 281L1117 234Z" fill="#2F469E"/>
<path d="M1512.5 200.5L1424.5 221L1525.5 162.5L1617.5 65L1683.5 143.5L1765 185L1641.5 175.5L1577 215L1512.5 200.5Z" fill="#F79737"/>
<path d="M1680 279.5L1644.5 240L1642 262.5L1633 284L1676.5 308.5L1721 352L1846 370L1765.5 320.5L1680 279.5Z" fill="black" fill-opacity="0.1"/>
<path d="M1577 215.5L1547 269L1474.5 322.5L1400 319L1392.5 298L1460 269L1553.5 209.5L1602 129.5L1577 215.5Z" fill="black" fill-opacity="0.1"/>
<path d="M1108.5 251L1071 284L1105 276.5V266.5L1108.5 251Z" fill="black" fill-opacity="0.1"/>
<path d="M1131 260L1137.5 269H1141.5L1131 260Z" fill="black" fill-opacity="0.1"/>
<path d="M1234.14 248L1427.55 308.648H1495.5L1602.5 288L1638.5 301.5L1751.5 344.5L1920 390V593H1008V297.712L1234.14 248Z" fill="#97469E"/>
<path d="M1696 340L1611.5 298L1620.5 312L1655.5 346L1664.5 376.5L1639.5 421L1744 449L1839.5 433.5L1908 447L1952 424L1902 385.5L1755 346L1696 340Z" fill="black" fill-opacity="0.06"/>
<path d="M148 223.5L210 192.5L246.5 223.5L286.5 237L428.5 332.5H-3.99997V223.5L30.0001 214L81 169L111.5 203.5L148 223.5Z" fill="#303030"/>
<path d="M972 332.5L1062.5 298L1149 290.5L1213 267.5L1193.5 298L1114 324L1078.5 352L1017.5 359L961 364L972 332.5Z" fill="black" fill-opacity="0.06"/>
<path d="M35.5 222L73 187.5L43.5 234L7 267L-17.5 241.5L35.5 222Z" fill="black" fill-opacity="0.1"/>
<path d="M903.967 280.692L1920 422.196V592H0V296.084L204.298 280.692L479.504 107.413L501.322 113.867L555.372 95L574.711 121.315L607.438 107.413L903.967 280.692Z" fill="#463F9D"/>
<path d="M198 279L-19 295.5V592.5H1939.5V423L1138.5 313L904.5 278.5L799.5 219L747 295.5L712 306.5L656 368.5L395 326.5L268.5 239.5L198 279Z" fill="#211B5C"/>
<path d="M220 204.5L210 192.5L224.5 229L233 259.5L271 238.5L236 222.5L220 204.5Z" fill="black" fill-opacity="0.1"/>
<path d="M914.589 571.203L921 585H864.288L741 517L914.589 571.203Z" fill="black" fill-opacity="0.07"/>
<path d="M1490.81 422.614L1520 442L1376.05 431.561L1148 357L1490.81 422.614Z" fill="black" fill-opacity="0.1"/>
<path d="M945.354 371.681L1560 583H1096.91L933.962 512.064L607.5 107.5L863.632 302.233L945.354 371.681Z" fill="black" fill-opacity="0.06"/>
<path d="M800.5 84.5L849.5 29L872.5 65L892 128.5L872.5 116L829.5 103L811.5 100.5L800.5 93L781.5 101.5L800.5 84.5Z" fill="#EF489C"/>
<path d="M560 131.5L555.5 94.5L529.5 160.5L475.5 222L393.147 329.598L247 456.059L269.294 536.895L429.807 585L529.5 348L550 160.5L560 131.5Z" fill="black" fill-opacity="0.06"/>
<path d="M1515.04 488L1908 559L1654.96 537.65L1391 488H1515.04Z" fill="black" fill-opacity="0.08"/>
<path d="M1791.96 210.499L1926.5 303.5L1914 274L1901.18 263.368L1791.96 210.499Z" fill="black" fill-opacity="0.1"/>
<path d="M1658 177L1618 65L1683 143L1680.5 154L1768 225.5L1688 184L1658 177Z" fill="black" fill-opacity="0.1"/>
<path d="M1415 240L1500 189.5L1486.5 206.5L1415 240Z" fill="black" fill-opacity="0.1"/>
<path d="M1816.5 133.5L1831 131.5L1858.5 123.5L1889 97L1952.5 139.5L1903.5 127.5L1880.5 125.5L1837.5 133.5H1816.5Z" fill="#C146A4"/>
<path d="M111.5 203.5L81 169.5L91.5 196.5L99.5 238.5L104 232L109 229L104 215L106 207L111.5 203.5Z" fill="black" fill-opacity="0.1"/>
<path d="M46 251.5L62.5 230.5L67 223.5L56 246L46 251.5Z" fill="black" fill-opacity="0.1"/>
<path d="M184.5 214L198.5 206.5L203.5 203L191.5 212.5L184.5 214Z" fill="black" fill-opacity="0.06"/>
<path d="M1236.5 248L1298.5 303.5L1284.94 321.5L1424 308L1236.5 248Z" fill="black" fill-opacity="0.06"/>
<path d="M179.5 25L202 78L214 122L282 147.5H216.5L166.5 165.5L180.5 114.5L183.5 78L164.5 9L179.5 25Z" fill="black" fill-opacity="0.06"/>
<path d="M359.5 175C346.5 171.667 302.3 156.5 297.5 154.5L336 171L359.5 175Z" fill="black" fill-opacity="0.06"/>
</g>
</svg>
