<?xml version="1.0" encoding="utf-8"?>
<!-- Generator: Adobe Illustrator 19.0.0, SVG Export Plug-In . SVG Version: 6.00 Build 0)  -->
<svg version="1.1" id="Layer_1" xmlns="http://www.w3.org/2000/svg" xmlns:xlink="http://www.w3.org/1999/xlink" x="0px" y="0px"
	 viewBox="0 0 560 560" style="enable-background:new 0 0 560 560;" xml:space="preserve">
<style type="text/css">
	.st0{fill:#97469E;}
	.st1{fill:#C146A4;}
	.st2{fill:#EF489C;}
	.st3{fill:#FF6A48;}
	.st4{fill:#F79737;}
</style>
<path id="XMLID_1_" class="st0" d="M397.1,173.3h-245c-3.2,0-5.7-2.6-5.7-5.7v-9.7c0-3.2,2.6-5.7,5.7-5.7H397c3.2,0,5.7,2.6,5.7,5.7
	v9.7C402.8,170.7,400.2,173.3,397.1,173.3z"/>
<path class="st0" d="M154.1,152.2h241.1c4.2,0,7.6,3.4,7.6,7.6V173c0,4.2-3.4,7.6-7.6,7.6H154.1c-4.2,0-7.6-3.4-7.6-7.6v-13.1
	C146.4,155.7,149.9,152.2,154.1,152.2z"/>
<path class="st1" d="M154.1,200.6h241.1c4.2,0,7.6,3.4,7.6,7.6v13.1c0,4.2-3.4,7.6-7.6,7.6H154.1c-4.2,0-7.6-3.4-7.6-7.6v-13.1
	C146.4,204,149.9,200.6,154.1,200.6z"/>
<path class="st2" d="M154.1,249h241.1c4.2,0,7.6,3.4,7.6,7.6v13.1c0,4.2-3.4,7.6-7.6,7.6H154.1c-4.2,0-7.6-3.4-7.6-7.6v-13.1
	C146.5,252.4,149.9,249,154.1,249z"/>
<path class="st3" d="M154.1,297.3h241.1c4.2,0,7.6,3.4,7.6,7.6v13.1c0,4.2-3.4,7.6-7.6,7.6H154.1c-4.2,0-7.6-3.4-7.6-7.6V305
	C146.4,300.8,149.9,297.3,154.1,297.3z"/>
<path class="st4" d="M154.1,345.7h241.1c4.2,0,7.6,3.4,7.6,7.6v13.1c0,4.2-3.4,7.6-7.6,7.6H154.1c-4.2,0-7.6-3.4-7.6-7.6v-13.1
	C146.4,349.1,149.9,345.7,154.1,345.7z"/>
</svg>
