<svg width="970" height="203" viewBox="0 0 970 203" fill="none" xmlns="http://www.w3.org/2000/svg">
<path d="M59.371 65.3C62.431 65.3 65.851 63.32 65.851 60.26C65.851 56.84 60.991 51.98 53.791 51.98C50.731 51.98 47.311 53.96 47.311 57.02C47.311 60.26 51.991 65.3 59.371 65.3ZM87.271 101.66C85.471 101.66 83.851 102.38 83.851 104.36C83.671 105.62 83.491 107.06 83.491 107.06C83.491 119.12 67.291 127.76 56.851 132.62C59.731 110.12 62.611 83.66 62.611 79.7C62.611 76.82 57.931 72.14 51.271 72.14C35.071 72.14 17.791 100.04 17.791 104.54C17.791 105.62 19.951 108.5 24.091 108.5C24.991 108.5 26.071 108.32 27.331 107.96C27.331 107.96 33.451 94.64 41.731 86.54C39.571 98.6 39.031 117.5 35.251 141.62C17.251 149.54 0.151015 160.16 0.151015 179.78C0.151015 194.18 9.51101 201.74 20.311 201.74C44.971 201.74 51.811 166.46 55.411 142.52C73.771 134.96 93.571 125.96 93.571 106.52C93.571 102.92 89.611 101.66 87.271 101.66ZM15.451 190.4C14.191 190.4 11.311 186.26 11.311 180.14C11.311 172.58 15.811 161.78 33.271 152.42C31.471 161.24 23.911 190.4 15.451 190.4ZM171.013 105.98C171.013 103.64 167.773 101.66 164.893 101.66C163.633 101.66 162.553 102.2 161.833 103.1C160.213 104.72 149.593 132.62 139.153 138.38C138.793 134.78 138.433 134.06 138.433 130.64C138.433 115.16 150.133 81.32 150.133 80.24C150.133 75.2 143.293 71.96 138.073 71.96C127.093 71.96 120.973 120.38 98.6532 136.4C98.2932 134.6 98.1132 132.44 98.1132 130.28C98.1132 112.46 109.813 85.64 109.813 80.42C109.813 75.02 102.433 71.96 98.6532 71.96C86.4132 71.96 78.6732 117.14 78.6732 127.4C78.6732 145.94 90.9132 150.98 99.1932 150.98C108.913 150.98 112.513 144.68 119.173 131.72C120.433 142.52 129.793 149.9 138.973 149.9C155.713 149.9 171.013 109.4 171.013 105.98ZM281.46 101.66C280.2 101.66 279.12 102.2 278.4 103.1C276.24 105.26 266.52 132.44 255.72 138.38C255.54 136.22 255.36 134.06 255.36 131.9C255.36 109.76 266.7 83.48 266.7 80.24C266.7 75.2 259.86 71.96 254.64 71.96C243.48 71.96 227.82 97.7 222.24 107.42C223.86 94.46 224.4 85.82 224.4 83.48C224.4 74.84 217.2 69.98 212.16 69.98C203.34 69.98 190.92 87.8 181.2 105.98C184.44 92.84 187.68 81.5 187.68 81.5C187.68 75.2 182.1 72.68 177.6 72.68C161.22 72.68 155.82 135.14 155.82 139.1C155.82 147.2 162.12 150.62 167.7 150.62C172.2 150.62 173.82 148.64 174.54 144.5C179.94 134.78 188.04 104 204.6 85.82C204.06 92.48 203.16 101.12 202.26 107.78C199.2 131.54 197.76 136.94 197.76 140.54C197.76 147.38 204.96 150.44 209.28 150.44C220.62 150.44 212.88 138.02 240.78 96.8C238.08 106.52 235.74 117.32 235.74 126.5C235.74 139.82 240.6 150.08 255.54 150.08C272.64 150.08 287.58 108.86 287.58 105.98C287.58 103.64 284.34 101.66 281.46 101.66ZM364.716 106.88C364.716 103.82 362.016 102.56 359.676 102.56C358.776 102.56 358.056 102.74 357.516 103.28C356.616 104.9 352.656 123.98 328.896 135.32C337.716 124.16 343.836 106.88 343.836 95.36C343.836 81.86 335.016 73.94 324.576 73.94C313.956 73.94 307.116 82.94 301.356 91.76C302.256 89.06 303.336 87.08 303.336 82.04C303.336 75.56 298.116 73.22 293.616 73.22C276.516 73.22 261.396 172.58 261.396 189.68V191.3C261.396 195.26 262.116 202.46 273.096 202.46C286.596 202.46 279.576 169.88 288.936 140.18C292.896 144.5 300.456 148.28 306.396 148.28C336.636 148.28 364.716 120.74 364.716 106.88ZM324.396 83.3C324.756 85.1 324.936 86.18 324.936 87.98C324.936 111.56 307.116 134.24 301.356 134.24C299.736 134.24 299.376 131.9 293.796 131.54C295.416 127.76 310.896 86.72 324.396 83.3ZM404.745 105.98C404.745 103.64 401.325 101.66 398.625 101.66C397.365 101.66 396.285 102.2 395.565 103.1C393.405 105.26 383.505 132.44 372.885 138.38C372.345 134.78 372.165 134.06 372.165 130.64C372.165 111.74 383.685 85.64 383.685 80.24C383.685 75.2 376.845 71.96 371.805 71.96C360.825 71.96 352.545 116.78 352.545 127.58C352.545 142.88 363.885 150.08 372.525 150.08C389.805 150.08 404.745 108.86 404.745 105.98ZM385.845 64.58C388.905 64.58 392.325 62.6 392.325 59.54C392.325 59 392.145 58.28 391.785 57.56C389.805 53.24 384.585 51.26 380.085 51.26C377.025 51.26 373.605 53.24 373.605 56.12C373.605 56.84 373.785 57.38 374.145 58.1C376.125 62.42 381.345 64.58 385.845 64.58ZM401.313 150.62C405.633 150.62 407.253 148.82 408.153 145.22C413.913 136.94 421.653 110.66 440.373 90.68C436.953 101.48 433.173 116.6 433.173 127.58C433.173 142.88 444.513 150.08 453.333 150.08C470.433 150.08 485.373 108.68 485.373 106.88C485.373 103.1 481.773 101.66 479.253 101.66C472.593 101.66 466.833 131 453.513 138.38C453.333 136.22 453.153 134.06 453.153 131.9C453.153 109.76 464.493 83.48 464.493 80.24C464.493 75.2 457.653 71.96 452.433 71.96C441.633 71.96 424.533 94.82 412.653 114.8C416.433 98.24 421.293 81.5 421.293 81.5C421.293 75.2 415.713 72.68 411.213 72.68C394.833 72.68 389.253 135.14 389.253 139.1C389.253 147.2 395.733 150.62 401.313 150.62ZM556.513 101.66C554.713 101.66 553.093 102.38 553.093 104.36C553.093 105.62 552.913 107.24 552.913 107.24C552.913 119.12 536.533 127.94 532.213 132.62C535.273 110.12 538.153 83.66 538.153 79.7C538.153 77 533.293 72.14 526.633 72.14C522.853 72.14 520.513 74.66 518.893 79.34C515.473 76.28 510.793 74.12 505.213 74.12C480.733 74.12 470.293 111.38 470.293 128.84C470.293 141.62 478.933 149 486.133 149C494.593 149 505.393 135.5 513.133 122.9C512.593 128.84 511.693 135.14 510.613 141.62C492.613 149.54 475.693 160.16 475.693 179.96C475.693 194.18 484.873 201.74 495.673 201.74C520.333 201.74 527.173 166.46 530.773 142.52C543.193 134.96 562.813 125.96 562.813 106.7C562.813 102.92 558.853 101.66 556.513 101.66ZM490.813 190.4C489.553 190.4 486.673 186.26 486.673 180.14C486.673 172.58 491.173 161.78 508.813 152.42C507.013 161.24 499.273 190.4 490.813 190.4ZM489.553 138.38C489.553 110.12 506.293 82.94 510.253 82.94C512.233 82.94 513.853 86 516.373 91.4C516.013 94.46 515.653 97.7 515.293 101.3C510.793 108.14 499.813 132.8 489.553 138.92V138.38ZM703.743 105.8V105.62C703.743 103.28 700.863 101.84 698.343 101.84C694.023 101.84 675.663 155.3 663.783 155.3C658.923 155.3 657.843 147.74 657.843 140.36C657.843 136.4 658.203 132.62 658.383 129.92C661.443 95 679.623 52.7 680.343 44.06V43.7C680.343 38.84 674.763 35.6 669.543 35.6C659.823 35.6 627.603 84.56 622.743 92.3C626.163 64.58 639.303 9.85999 639.303 9.85999V8.95999C639.303 4.63999 635.883 0.499991 625.263 0.499991C617.343 0.499991 579.003 97.16 576.483 103.28C580.983 79.16 590.163 43.16 590.163 43.16V41.54C590.163 34.88 586.023 31.82 579.903 31.82C577.923 31.82 576.123 32.18 574.863 33.62C565.863 44.42 553.083 122.18 551.823 136.22V136.76C551.643 138.38 551.463 140 551.463 141.62C551.463 147.38 553.263 152.6 562.623 152.6C574.323 152.6 571.263 137.12 610.503 47.84C607.083 64.22 604.023 81.32 602.583 97.88L602.043 101.84C601.863 103.1 601.863 104.36 601.863 105.62C601.863 112.1 603.663 118.94 612.843 118.94C622.383 118.94 624.003 103.1 653.703 63.32C648.123 81.14 640.743 107.06 639.303 124.88C639.123 127.04 638.943 129.2 638.943 131.18C638.943 149.18 646.143 165.02 664.143 165.02C682.503 165.02 703.563 108.14 703.743 105.8ZM742.772 105.98C742.772 103.64 739.352 101.66 736.652 101.66C735.392 101.66 734.312 102.2 733.592 103.1C731.432 105.26 721.532 132.44 710.912 138.38C710.372 134.78 710.192 134.06 710.192 130.64C710.192 111.74 721.712 85.64 721.712 80.24C721.712 75.2 714.872 71.96 709.832 71.96C698.852 71.96 690.572 116.78 690.572 127.58C690.572 142.88 701.912 150.08 710.552 150.08C727.832 150.08 742.772 108.86 742.772 105.98ZM723.872 64.58C726.932 64.58 730.352 62.6 730.352 59.54C730.352 59 730.172 58.28 729.812 57.56C727.832 53.24 722.612 51.26 718.112 51.26C715.052 51.26 711.632 53.24 711.632 56.12C711.632 56.84 711.812 57.38 712.172 58.1C714.152 62.42 719.372 64.58 723.872 64.58ZM739.341 150.62C743.661 150.62 745.281 148.82 746.181 145.22C751.941 136.94 759.681 110.66 778.401 90.68C774.981 101.48 771.201 116.6 771.201 127.58C771.201 142.88 782.541 150.08 791.361 150.08C808.461 150.08 823.401 108.68 823.401 106.88C823.401 103.1 819.801 101.66 817.281 101.66C810.621 101.66 804.861 131 791.541 138.38C791.361 136.22 791.181 134.06 791.181 131.9C791.181 109.76 802.521 83.48 802.521 80.24C802.521 75.2 795.681 71.96 790.461 71.96C779.661 71.96 762.561 94.82 750.681 114.8C754.461 98.24 759.321 81.5 759.321 81.5C759.321 75.2 753.741 72.68 749.241 72.68C732.861 72.68 727.281 135.14 727.281 139.1C727.281 147.2 733.761 150.62 739.341 150.62ZM908.4 102.02C907.32 102.02 906.24 102.38 905.52 103.28C902.82 105.8 891.84 139.64 877.26 139.64C872.4 139.64 870.78 132.08 870.78 122.18C870.78 107.24 874.38 87.08 876.72 78.8C906.78 60.44 920.46 33.98 920.46 17.06C920.46 5.71999 914.52 0.319994 906.42 0.319994C884.46 0.319994 864.3 42.62 855.66 79.16C852.24 76.28 847.74 74.12 842.16 74.12C817.86 74.12 807.42 111.38 807.42 128.84C807.42 141.62 816.06 149 823.08 149C832.08 149 843.96 133.52 851.88 120.2C854.4 135.68 863.76 149 879.6 149C899.58 149 913.98 107.06 913.98 105.98C913.98 104.36 911.28 102.02 908.4 102.02ZM910.2 7.87999C910.92 7.87999 911.1 8.95999 911.1 10.4C911.1 32.18 897.78 51.08 881.04 64.58C887.88 44.24 904.26 7.87999 910.2 7.87999ZM826.5 138.92C826.5 110.48 843.24 82.94 847.2 82.94C849.18 82.94 850.8 85.82 853.14 91.04C852.6 95 852.06 98.78 851.7 102.38C846.84 110.3 836.4 133.16 826.5 138.92ZM969.227 107.24C969.227 103.1 967.247 101.3 964.007 101.3C960.047 101.3 962.027 104.36 958.787 109.94C954.647 116.78 944.027 119.84 932.147 123.8C926.387 113.36 922.247 106.52 922.247 95.18C922.247 82.76 932.867 72.14 937.187 72.14C940.967 72.14 941.867 78.8 943.487 81.86C944.207 84.2 946.727 85.28 948.887 85.28C951.587 85.28 952.307 84.02 952.307 81.86C952.307 72.14 943.847 62.96 931.067 62.96C917.567 62.96 902.987 72.86 902.987 92.84C902.987 108.86 911.447 120.02 916.847 129.56C907.127 133.88 898.127 141.98 898.127 152.42C898.127 162.32 907.127 168.26 916.487 168.26C928.367 168.26 938.807 157.64 938.807 143.96C938.807 139.28 937.547 134.96 935.747 130.64C945.467 127.58 969.227 122 969.227 107.24ZM921.527 144.14C921.527 152.6 916.487 159.26 911.987 159.26C910.187 159.26 908.927 157.1 908.927 153.86C908.927 149.18 911.807 142.34 920.447 137.12C921.167 139.64 921.527 141.98 921.527 144.14Z" fill="white"/>
</svg>
