<?xml version="1.0" encoding="utf-8"?>
<!-- Generator: Adobe Illustrator 21.0.2, SVG Export Plug-In . SVG Version: 6.00 Build 0)  -->
<svg version="1.1" id="Layer_1" xmlns="http://www.w3.org/2000/svg" xmlns:xlink="http://www.w3.org/1999/xlink" x="0px" y="0px"
	 viewBox="0 0 822 479.5" style="enable-background:new 0 0 822 479.5;" xml:space="preserve">
<style type="text/css">
	.st0{clip-path:url(#SVGID_2_);fill:url(#SVGID_3_);}
	.st1{clip-path:url(#SVGID_5_);fill:url(#SVGID_6_);}
	.st2{clip-path:url(#SVGID_8_);fill:url(#SVGID_9_);}
	.st3{clip-path:url(#SVGID_11_);fill:url(#SVGID_12_);}
	.st4{clip-path:url(#SVGID_14_);fill:url(#SVGID_15_);}
	.st5{clip-path:url(#SVGID_17_);fill:url(#SVGID_18_);}
	.st6{clip-path:url(#SVGID_20_);fill:url(#SVGID_21_);}
	.st7{clip-path:url(#SVGID_23_);fill:url(#SVGID_24_);}
	.st8{clip-path:url(#SVGID_26_);fill:url(#SVGID_27_);}
	.st9{clip-path:url(#SVGID_29_);fill:url(#SVGID_30_);}
</style>
<g>
	<g>
		<defs>
			<path id="SVGID_1_" d="M113.9,239.8c0,32.1,26.2,58.3,58.3,58.3c1.4,0,2.8-0.1,4.2-0.2l0.4-0.4l0.4,0.4
				c29.8-2.5,53.3-27.6,53.3-58.1c0-32.1-26.2-58.3-58.3-58.3C140.1,181.5,113.9,207.7,113.9,239.8"/>
		</defs>
		<clipPath id="SVGID_2_">
			<use xlink:href="#SVGID_1_"  style="overflow:visible;"/>
		</clipPath>
		
			<radialGradient id="SVGID_3_" cx="-608.397" cy="543.4166" r="0.3314" gradientTransform="matrix(175.9031 0 0 -175.9031 107202.6719 95801.1406)" gradientUnits="userSpaceOnUse">
			<stop  offset="0" style="stop-color:#119DC3"/>
			<stop  offset="1" style="stop-color:#1A4073"/>
		</radialGradient>
		<rect x="113.9" y="181.5" class="st0" width="116.6" height="116.6"/>
	</g>
	<g>
		<defs>
			<path id="SVGID_4_" d="M138.8,241.5c-1.1,0.3-1.2,0.4-0.8,2.2c1.2-0.1,1.2-0.1,2.5,1.6l1.4-1.3l-1.1-1.7l-1.8-1L138.8,241.5z
				 M132.5,239.3c0.9,1.6,0.9,1.6,3.1,2.1l0.6-0.5c-0.2-0.1-0.5-0.4-1-1.1c-0.6-0.7-0.8-1.1-1.2-1.1
				C133.6,238.7,133.2,238.9,132.5,239.3 M132.1,239.2l0.3,0.1c0-0.4-0.2-1.8-1.5-1.8c-0.8,0-1.2-0.1-2-0.2
				C129.2,237.6,129.8,238.5,132.1,239.2 M116.6,228.4L116.6,228.4L116.6,228.4z M228.1,229c-0.2-0.9-0.4-2.1-0.9-3.3
				C227.6,226.8,227.9,228,228.1,229 M163.2,217.7c0,0,1.6,1.3,1.9,2l1.3-1.4L163.2,217.7L163.2,217.7z M220.4,209.7
				c0.3,0.5,0.7,1.1,1,1.6l-0.1-0.2l0,0c-0.3-0.5-0.7-1.1-1-1.6C220.3,209.6,220.3,209.7,220.4,209.7 M198.3,207.5
				c-0.5,0.2-0.9,1-1.1,1.6l0.1,0.2l0.1,0.1l0.1,0.1l0.1,0.2l0.1,0.2l0.1,0.1l0.1,0.2l0.1,0.1l0.1,0.1l0.1,0.2l0.1,0.2l0.1,0.1
				l0.1,0.1l0.1,0.1l0.1,0.1l0.1,0.2c0-1,0.3-1.5,1-1.7L198.3,207.5L198.3,207.5z M188.7,201.9c-0.7,0.1-1.2,0.3-1.7,0.7
				c0.4,0.3,0.9,0.7,1.3,0.9c2.7-0.4,2.7-1,2.7-1.5v-0.2c-0.3,0-0.7-0.1-1-0.1C189.6,201.7,189.2,201.8,188.7,201.9 M202.7,199.4
				c0.1,0.3,0,0.7,0.2,1.1l0.1,0.1c0.8,0.9,0.9,1.2,1,1.3C203.9,201.7,203.5,200.7,202.7,199.4L202.7,199.4L202.7,199.4z
				 M131.5,198.3L131.5,198.3l-0.2,0.1l-0.3,0.3l0.2-0.1l0.2-0.2l0.2-0.2l0.1-0.2L131.5,198.3l0.1-0.1l0.2-0.2L131.5,198.3z
				 M164.2,197.5c-1.1,0.4-1.1,0.4-1.8,0.9c0.1,0,0.1,0,0.6,1.1c1-0.5,2.8,0.2,2.9,1.2c-1,1.3-1.6,2-2.3,3.2c-0.7,0-1.5,0.2-2.2,0.3
				c0.8,0.1,1.6,0.1,2.4,0.2l1,1.8c1.8-3.6,3-2.8,4.2-1.6c0.3-0.3,0.9-0.9,1-1.8l0-0.3c-0.9,0.3-0.8-1-0.7-1.8c-0.8-0.5-1-0.9-1-1.5
				c-0.2,0-0.6-0.2-1.2-0.4c-0.7-0.3-1-0.3-1.3-0.3c-0.1-0.3-0.3-0.7-0.4-1c-0.4,0.2-0.6,0.4-1.3,0.9
				C163.9,198.5,164,198.2,164.2,197.5L164.2,197.5z M162,196.4c-0.1,0.3-0.4,0.8-0.2,2.3l0,0.1C162.1,198.2,162.1,197.4,162,196.4
				L162,196.4z M154,195c-0.1,0.5-0.6,0.8-0.7,1.4c0,0.4,0.2,0.7,0.1,1.1c-0.1,0.2-0.2,0.4-0.2,0.6c-0.1,0-0.8,0.1-1.2,0.3
				c0.7,1.3,2.9,1.5,5.7-0.7l0.3-0.3c-1.1-0.2-1.3-0.6-1.4-0.8c-0.2,0-0.5,0.1-1.2,0.3c-0.3-0.2-0.6-0.5-0.9-0.8
				C154.5,195.4,154.5,195.4,154,195L154,195z M154,195L154,195L154,195z M162.3,194.1c-0.6,0.3-0.9,0.5-0.9,0.5l0,0.1
				c-0.2,0.4-0.4,0.7-0.6,1.1c0.1,0,0.6,0.1,1.5-0.7l0.1-0.1C162.3,194.7,162.4,194.4,162.3,194.1L162.3,194.1z M156,194.5l0.1,0.3
				c1.7,0,1.7,0,1.8,0c-0.4,0.2-0.8,0.5-1.2,0.7c0.6,0.1,0.8,0.8,1.3,0.9c0.3,0.1,0.6,0.1,0.9,0.2c0.3-0.4,0.6-0.7,0.9-1.1l0.1-0.2
				c-0.3,0.2-0.8,0.4-1.1,0.6c0-0.3-0.1-0.7-0.1-1c0-0.3,0.1-0.5,0.4-0.8l-0.1,0c-0.3-0.1-0.7,0-1-0.1c-0.2,0-0.2-0.2-0.3-0.2
				C156.7,194.1,156.3,194.3,156,194.5 M141.7,216.9c-0.7-0.4-1.2-1-1.9-1.2c1.6-1.7,2.3-1.8,4.8-0.9c0.6,2.2,1,3.6,2.6,4.4l-0.1,0
				c-2,0.8-3.4,2.9-5.8,2.6c0.3-0.9,1-1.7,1-2.8l1.4-1c-0.2,0-0.4,0-0.6,0c-0.4,0-0.8,0-1.1,0.1c0,0-1,0.9-2,1.8
				c-0.3,0.3-0.7,0.7-1.7,1.1C138.7,219.8,139.1,218.5,141.7,216.9 M139.9,194.6c0.1-0.2,0.2-0.4,0.2-0.5c-0.9,0.1-0.9,0.1-2.9,1.3
				c-0.1-0.1-0.3-0.2-0.5-0.3c-0.5,0.2-0.5,0.2-3.9,2.7c0.1-0.2,0.2-0.4,0.3-0.5c-0.6,0.5-0.6,0.5-1.3,1.2c0.2-0.1,0.4-0.3,0.6-0.4
				c0.2,0.1,0.4,0.2,0.5,0.2c0.7-0.4,1.5-0.3,2.2-0.6c-0.2,0.3-0.4,0.7-0.6,1c0.6-0.5,0.6-0.5,1.5-0.9c0.4,0,0.5,0,0.5,0.1
				c-0.2,0.5-0.2,0.5-1.8,2.4c0.4,0.1,1,0.4,1.4,0.5c-15,13.7-15,13.7-16.5,15.8c-0.5,2.9-0.5,2.9-1.4,4.4c-0.5,1.1-0.9,2-1.2,2.9
				c-0.2,0.5-0.3,1-0.5,1.5c-0.2,1-0.2,2.1-0.6,3.2h0.6c0,0,0.1-3.6,2-5.7c0.4-1.4,0.4-1.4,0.9-2.3c-1.6,6.7-1.6,6.7-1.7,7.7
				c-0.4,1.8-0.8,3.2-1.1,4.7c0.2,1.6,0.4,3.8,0.7,5.5c8.8,5.6,12.9,16.2,13,16.3c-6.1,9.6-1,12.4,2.4,14.3c0.2,0.8,0.5,1.7,0.7,2.6
				c1.4,1.4,5.7,5.4,9.4,6.4c1.3,6.7,5.1,11.9,11.4,15.3c0.4,0.4,0.7,0.8,1.1,1.1c2.2,0.7,4.2,1.9,6.5,2.5c0.1-0.2,0.2-0.4,0.3-0.6
				c-0.1-0.1-0.2-0.2-0.3-0.4l-1.2-0.6c-1-1.4-1-1.4-0.7-2.5l-1.5-0.4c1.4-0.3,1.7-0.4,3-0.3c-0.2-0.3-0.4-0.7-0.7-0.9
				c1.2-0.5,2.6-0.7,3.7-1.6c0.3,0.1,0.7,0.2,0.9,0.3l1-0.7c0-2.6,0-2.6-0.4-4.1c6.9-4.2,6.9-4.2,5.9-6.8c4-4.3,4-4.3,4.1-7
				c0-0.3,0-0.7,0-1c-0.1,0-9.1-0.3-14.6-5.6c-0.8,0.1-2,0.2-3.9,1.7c-0.5-0.3-1.1-0.8-1.6-1.1l1.3-1.4c-2.2-4.3-2.7-4.3-4.3-4.6
				c-3.1-0.4-3.1-0.4-4.1-3.4L148,255c-2-2-4.5-3-7.2-4l-1.8,0.2c-1.6-0.9-2.2-1.3-3.6-2.2c-2.1,2-2.8,1.6-7.1-1.3
				c0-0.4-1.3-2.5-3.6-3.9l-0.4-1c0.1-1,0.2-1.9,0.4-2.9c0.9-1,1-1.3,1.4-2.5c-1.1-0.1-1.8,0.3-3,1.8c-0.5-0.2-1.1-0.5-1.6-0.7
				c-0.2-0.7-0.8-3.4-0.4-6.2c0.9-0.5,0.9-0.5,2.8-4c3.4,0.1,3.4,0.1,5.5,1.5c0.5-0.3,1.2-0.7,1.7-0.9l0.5,1.7
				c0.7,0.1,0.8,0.1,1.8-0.3c-0.4,2.3,0.2,4.6,0.1,6.9c0.8-0.7,1.9-1.6,2.7-2.3l-0.8-1.8c0.3-1.1,0.5-1.7,1.5-3.4
				c-0.1,0.5-0.2,0.9-0.4,1.4c1.1-0.8,2.5-1.1,3.7-1.9c1,0,1.7,0.1,2.5,0.3c2.5-3,2.5-3,3.2-3.8c4.2-1.8,4.2-1.8,15-4.8
				c-1-0.2-1-0.2-1.8-1.2c0.4-0.4,0.9-1,1.3-1.4c-0.1,0-0.1,0-4.8,0.9c2.3-1.9,4.6-2.1,8.7-1.9c1,0,1,0,4.9-3.3
				c-1.1,0.1-1.4,0.2-2.9,0.8c0.2-0.9,0.2-0.9,0.6-1.8c-0.3-0.5-0.6-1.1-0.8-1.6c0.3-0.8,0.3-0.8,0.7-1.7c-1.2-0.6-2.3-0.6-3.6-0.3
				c-1.8-3-1.8-3-2.7-3.2c0,0.5-0.1,1.2-0.1,1.7c-0.6-0.1-1.2-0.1-1.8-0.2c-2.2,2.6-4.9,4.8-7.2,7.3c-1.2-1.4-1.9-5.6-2-7
				c0.7-0.4,1.6-0.9,2.3-1.2l1.8-0.9c5.7-3.6,5.7-3.6,7.8-2.6c0.5-0.4,1.1-1,1.6-1.5l-0.4-1.1c-1.1,0.5-1.5,0.6-2.2,0.8
				c-0.6-1.3-0.2-2.6-0.4-4l-0.2-0.1c-2.2,4.2-2.2,4.2-4.7,4c-0.1-0.1-0.1-0.4-0.2-0.5c-1.1-0.1-1.2-0.2-2.3-0.6
				c-0.5,0.2-1.2,0.5-1.7,0.8c0.1-0.2,0.2-0.4,0.2-0.5c-0.3-0.1-0.7-0.2-1.1-0.2c0-0.4-0.1-0.9-0.2-1.2c-4.9,2.5-4.9,2.4-5.6,1.6
				c2.3-0.5,2.5-0.5,5-1.8c-0.4-0.1-0.7-0.2-1.1-0.3l0.4-1.1c-0.5-0.2-0.9-0.3-1.4-0.5c-1.2,0.5-1.7,0.5-2.7,0.1
				c0.3-0.5,0.8-1.2,1.1-1.6c-0.7-0.2-1.1-0.3-3.1,0.2c0.1-0.3,0.3-0.7,0.5-0.9c-0.1-0.1-0.2-0.3-0.3-0.4c0.1-0.1,0.2-0.3,0.3-0.4
				c-0.4,0-0.9,0-1.2,0c0.3-0.3,0.6-0.7,0.9-1C142.1,193.5,142.1,193.5,139.9,194.6 M172.2,191.3c-0.1,0-0.2,0.1-0.4,0.2
				c-0.4-0.2-1.1,0-1.9,0.2c-0.7,0.2-1.1,0.2-1.3,0.2c0.1,0.5,0.2,0.8,0.8,1.7c-2.1,1.6-2.7,2.1-4.1,2.1c0.2,0,0.5,0.1,1.1,0.5
				c1.8-0.6,2-0.6,2.5-1.2c0.3,0,0.5,0.1,0.8,0.4c0.3-0.4,0.7-0.9,0.9-1.3c1-0.1,1.5-0.6,2-2.1C172.8,191.7,172.4,191.3,172.2,191.3
				C172.2,191.3,172.2,191.3,172.2,191.3 M163,191.3c-2,1.2-2,1.2-2.5,1.4c1-0.2,1-0.2,1.5-0.4c0,0.2,0,0.3,0,0.5
				c0.1,0,0.2-0.1,0.7-0.5c0.2-0.2,0.2-0.2,0.4-1.1L163,191.3z M180.4,190.4l-0.3,0.1l-0.1,0c-0.3,0.1-0.4,0.4-0.7,0.5
				c-0.1,0-0.2,0-0.3,0c-0.1,0-0.3-0.1-0.4,0c-0.3,0.2-0.2,0.6-0.2,1.1c-0.4-0.1-0.7-0.5-1.2-0.4c-0.6,0.1-1.1,0-1.1,0
				c-0.1,0-0.6-0.2-1.4-0.6c0,0.4-0.1,0.9-0.2,1.3c-0.2,0-0.3-0.1-0.8-0.5c-0.7,1.1-1.3,1.9-2.5,3.1c0.5,0,1.5,0.4,1.5,0.4
				c0.7,0.6,1.3,1.7,1.9,2.4c0.1,0.5,0,0.8-0.2,1.6c0.3,0.3,0.6,0.7,0.9,1.1c-0.4,0.9-0.7,1.6-1,2.3l-0.2,0.3
				c-0.1,1,0.6,1.8,0.7,2.7c0.9,0.2,1.3,1.2,2.3,1.2c0.8,0,0.7-0.6,0.7-1.3c1.2-0.2,5.4-2.7,8.2-6.3c-0.4,0-1.7-0.6-1.7-1
				c0.2-0.3,0.4-0.3,2-0.3c-0.4-0.6-0.9-1.3-1.4-1.9c0.3,0,0.5,0,1.2,0.2c-0.1-0.3-0.3-0.7-0.4-1.1c-2.1-1.8-2.8-4.1-2.8-4.1l0-0.1
				c-1,0.9-1.1,0.9-1.6,0.6c-0.3-0.3-0.5-0.5-0.8-0.7c0.4-0.1,0.7-0.1,1.1-0.2L180.4,190.4L180.4,190.4z M203.8,208.9l0,1.2
				l-1.4,0.9C202.7,210.1,203.3,209.6,203.8,208.9 M196.1,188.5l0.3-0.1c1,0.5,1.6,0.8,3.1,1.7c-1.3-0.5-2.6-1-4-1.4
				c1.6,0.7,1.6,0.7,2.1,1.1c-0.2,0.1-0.4,0.1-0.5,0.2c0.4,0.2,1,0.5,1.5,0.7c1,0.9,1.7,2,2.6,3c0.7,0.7,1.6,1.7,2.2,2.4
				c-0.9-0.3-2.1-0.8-2.9-1.1l-0.5-0.4c0.5,0,1.2,0.1,1.6,0.1l-1.1-1l-1.3-0.5c-0.8,0.5-0.9,0.5-3.5-0.4c-0.3,0.3-0.7,0.6-1.2,0.8
				c2.3,2.7,2.5,3,3.7,5.1c-0.3,1.5-0.3,1.5,2.5,3.8c0.1-0.1,0.3-0.2,0.5-0.3c-0.2-0.8-0.2-0.8-1.1-1.9l0.2,0.1l0.3,0.3l0.3,0.3
				l0.3,0.3l0.3,0.3l0.2,0.3l0.2,0.2l0.2,0.3h0.5c0.5-1.4,0.5-1.4-2.8-5.6l0.9,0.1l1.6,2.2c0.4,0.1,0.9,0.1,1.3,0
				c0.4-0.3,0.5-0.4,0.6-0.5c2.8,5.5,2.8,5.5,2.8,6.7c-0.7-0.2-0.7-0.2-1.5-0.6c-0.1,0.3-0.2,0.7-0.3,1.1c-0.6-0.2-0.8-0.3-2.4-2
				c-0.1,0.5-0.1,0.5,1.4,2.3c-0.1,0.3-0.4,0.6-0.6,0.8c0,0.5,0,1.3,0,1.8c-2-0.7-2-0.7-3-1.3c-0.3-0.2-0.3-0.3-0.4-0.4l-0.2-0.3
				l-0.2-0.3l-0.2-0.3l-0.2-0.3l-0.2-0.3l-0.2-0.3l-0.2-0.3c-0.3,0.2-0.7,0.5-0.9,0.7c0.1,0.4,0.3,1.1,2.8,2.8
				c0,0.6,0.1,1.5,0.1,2.1c0.2,0.2,0.6,0.6,0.8,0.8l-0.1,0.4c0.9,0.1,0.9,0.1,3.4,4c-0.4,0.2-0.8,0.4-4.9,0.7c0.7,1.5,1.6,3,2.3,4.5
				l-0.4,0.4l0.1,0.2l0.1,0.2l0.1,0.2l0.1,0.2l0.1,0.2l0,0.2l0.1,0.2l0.1,0.2c3.7-1.3,3.9-1.4,5.8-2.2c-0.4-0.9-0.8-1.7-1.2-2.6
				c1.3-1.2,0.6-3.1,1.7-4.4c0.4-0.2,0.8-0.3,1.2-0.5c2.9,2.9,3,3,4.5,2.5c0.5,0.7,0.5,0.7,1.1,1.5c-0.5-0.9-0.8-1.5-2.7-4.1
				c-0.1,0.1-0.2,0.3-0.2,0.5c-0.5-0.2-0.5-0.2-1.4-0.9c0.1-0.1,0.3-0.3,0.4-0.4c1.1,0.1,1.1,0.1,6.7,4.7c0.3-1.9-1.5-2.8-2-4.4
				c0.5-0.8,0.5-0.9,0.2-1.4c-0.8-1.1-1.4-2.4-2.1-3.6c0.3,0,0.7,0,1,0c0-0.2,0-0.4,0-0.5c-0.2-0.2-0.4-0.4-0.6-0.6l0-0.1l0.1-0.1v0
				l0-0.1V206l0-0.1l0-0.1l0-0.1c2.2,1.4,2.2,1.4,3.5,3.3c-0.7-0.3-0.8-0.4-1.2-0.9c-0.1,0.1-0.1,0.2-0.2,0.4
				c-0.3,1.7-0.3,1.7-0.2,4.1c0.2,0.4,0.5,0.8,0.8,1.2c0.6,0.6,0.6,0.6,1.9,1.7c-0.1-0.8-0.2-1.8-0.3-2.5c0.1-0.1,0.3-0.2,0.5-0.2
				c0.4,0.7,0.8,1.6,1.2,2.3c1.5,2.4,1.7,2.8,1.8,4.2l-0.2,0.2c0,0,0,0-3.4,1.4c0,0.8,0,1.1-0.4,2.3c-1.7-0.2-4.8-3.5-4.9-3.6
				c-1.4,0.8-4.2,2.4-8.2,3.5l0.4,0.4c0,0.2,0,0.4,0,0.5l-0.2,0l-0.2,0l-0.2,0l-0.2,0l-0.2,0l-0.2,0l-0.2,0.1l-0.2,0
				c-1.7,4.4-3.1,8.1-7.8,14.8l1.5,1.3c0.8,6.1,0.8,6.1-0.1,8.1c7.6,6.8,7.6,6.8,9.3,7.3c0.3-0.5,0.7-1.2,1.1-1.7
				c2.4-0.6,4.5-1.2,6.5-1.8c6.1-1.9,6.4-2,5.3,11c-0.4,1.3-0.8,2.6-1.2,3.8c-3.1,5-4.9,10.7-8.5,15.4c0.9-0.6,2.1-1.5,5.6-5.8
				c3.4-4.5,3.6-4.8,5.3-7.9c2.7-5.2,2.8-5.4,4-8.6c1.8-5.7,1.9-5.9,2.5-9.3c0.8-5.9,0.9-6.4,1-10.4c-0.1-2.5-0.3-5.9-0.6-8.4l0-0.2
				c0-0.1-1.7-6.5-2.8-8.8c0-0.1,0-0.3,0.1-0.4c0.6,0.9,1,1.8,1.3,2.8c-0.4-1.4-0.8-2.9-1.2-4.1c-2.1-5.5-2.2-5.7-3.8-8.7
				c-0.8-1.4-1.4-2.4-1.9-3.2c-0.4-0.7-0.9-1.3-1.3-1.9c-0.2-0.3-0.8-1-1-1l0,0.1c-0.9-1.2-0.9-1.2-2.3-3.4c0.8,0.9,1,1.3,1.2,1.5
				l0-0.1c0.1,0.1,0.1,0.1,0.7,0.8l0.7,0.8c0.6,0.9,1.3,2,2,3c-1.2-2-1.7-2.7-3.2-4.6c-3.6-4.3-3.8-4.6-6.5-7
				c-3.3-2.8-5.8-5-10.7-7.9c-2.8-1.6-5.9-2.9-9.1-3.9C195.5,188.1,195.5,188.1,196.1,188.5"/>
		</defs>
		<clipPath id="SVGID_5_">
			<use xlink:href="#SVGID_4_"  style="overflow:visible;"/>
		</clipPath>
		
			<radialGradient id="SVGID_6_" cx="-608.1564" cy="543.7493" r="0.3314" gradientTransform="matrix(168.8071 0 0 -168.8071 102833.7891 92030.2109)" gradientUnits="userSpaceOnUse">
			<stop  offset="0" style="stop-color:#FFFFFF"/>
			<stop  offset="1" style="stop-color:#B1B1B1"/>
		</radialGradient>
		<rect x="116.1" y="186.2" class="st1" width="113.2" height="110.5"/>
	</g>
	<g>
		<defs>
			<path id="SVGID_7_" d="M113.9,321.1c16.1,11.5,34.8,17.8,53.7,18.6L120,292.1c-2.2-2.2-4.2-4.5-6-6.9V321.1z M101.5,169
				c-19.5,19.5-29.3,45.1-29.3,70.7v0.2c0,24.2,8.7,48.3,26.2,67.4v-67.5l0,0c0-18.9,7.2-37.8,21.6-52.3
				c28.9-28.9,75.6-28.9,104.5,0c28.9,28.9,28.9,75.7,0,104.5c-16.8,16.8-39.6,23.7-61.4,21l25.5,25.5c19.9-3.3,39.1-12.6,54.5-28
				c39.1-39.1,39.1-102.4,0-141.5c-19.5-19.5-45.2-29.3-70.8-29.3C146.6,139.7,121,149.5,101.5,169"/>
		</defs>
		<clipPath id="SVGID_8_">
			<use xlink:href="#SVGID_7_"  style="overflow:visible;"/>
		</clipPath>
		
			<radialGradient id="SVGID_9_" cx="-609.4056" cy="543.7392" r="0.3315" gradientTransform="matrix(301.8943 0 0 -301.8943 184148.2812 164391.5156)" gradientUnits="userSpaceOnUse">
			<stop  offset="0" style="stop-color:#FFFFFF"/>
			<stop  offset="1" style="stop-color:#231F20"/>
		</radialGradient>
		<rect x="72.2" y="139.7" class="st2" width="209.9" height="200"/>
	</g>
	<g>
		<g>
			<defs>
				<path id="SVGID_10_" d="M309.2,216.3h40.3c4.2,0,7.1,1,8.7,2.9c1.6,1.9,2.4,5.1,2.4,9.5c-0.1,4.4-0.9,7.6-2.5,9.5
					c-1.6,1.9-4.5,2.9-8.5,2.9h-40.3V216.3z M289.9,200.3V281h19.4v-24h37.3c5.5,0,9.4,0.9,11.8,2.7c2.4,1.8,3.5,4.7,3.5,8.7V281
					h19.4v-16.7c0-3.2-0.6-5.7-1.8-7.5c-1.2-1.8-2.5-3.1-4-3.9c-1.5-0.8-4-1.8-7.5-3.2c3.6-2.1,6.5-4.8,8.6-7.9
					c2.1-3.1,3.2-7.5,3.2-13.1c0-5.6-0.7-10.3-2.1-14c-1.4-3.7-3.3-6.6-5.8-8.7c-2.5-2.1-5.5-3.6-8.9-4.4c-3.4-0.9-7.4-1.3-11.9-1.3
					H289.9z"/>
			</defs>
			<clipPath id="SVGID_11_">
				<use xlink:href="#SVGID_10_"  style="overflow:visible;"/>
			</clipPath>
			
				<linearGradient id="SVGID_12_" gradientUnits="userSpaceOnUse" x1="-610.3115" y1="544.4009" x2="-609.9802" y2="544.4009" gradientTransform="matrix(0 233.1798 233.1798 0 -126607.5938 142504.875)">
				<stop  offset="0" style="stop-color:#119DC3"/>
				<stop  offset="1" style="stop-color:#1A4073"/>
			</linearGradient>
			<rect x="289.9" y="200.3" class="st3" width="91.5" height="80.7"/>
		</g>
		<g>
			<defs>
				<path id="SVGID_13_" d="M444.1,215.4h0.9l15.4,30h-32.2L444.1,215.4z M430.1,200.3L387.4,281h22.5l10.5-20.3h47.8l10.4,20.3
					h22.7l-42.4-80.7H430.1z"/>
			</defs>
			<clipPath id="SVGID_14_">
				<use xlink:href="#SVGID_13_"  style="overflow:visible;"/>
			</clipPath>
			
				<linearGradient id="SVGID_15_" gradientUnits="userSpaceOnUse" x1="-610.3115" y1="543.4615" x2="-609.9802" y2="543.4615" gradientTransform="matrix(0 233.1798 233.1798 0 -126279.9688 142504.875)">
				<stop  offset="0" style="stop-color:#119DC3"/>
				<stop  offset="1" style="stop-color:#1A4073"/>
			</linearGradient>
			<rect x="387.4" y="200.3" class="st4" width="113.8" height="80.7"/>
		</g>
		<g>
			<defs>
				<path id="SVGID_16_" d="M527.1,216.3h34.7c6.7,0,11.4,1.1,13.8,3.3c2.5,2.2,3.7,5.7,3.7,10.5v21.2c0,3.4-0.5,6.1-1.4,8
					c-0.9,2-2.7,3.4-5.2,4.3c-2.5,0.9-6.2,1.4-10.9,1.4h-34.7V216.3z M507.8,200.3V281h62.4c6.9,0,12.5-1,16.6-3.1
					c4.2-2.1,7.2-5.3,9.1-9.7c1.9-4.4,2.8-10.1,2.8-17.1v-21.4c-0.1-5.4-0.6-9.9-1.8-13.6c-1.1-3.7-2.8-6.7-5.1-9
					c-2.3-2.3-5.2-4.1-8.8-5.1c-3.6-1.1-7.9-1.6-12.9-1.6H507.8z"/>
			</defs>
			<clipPath id="SVGID_17_">
				<use xlink:href="#SVGID_16_"  style="overflow:visible;"/>
			</clipPath>
			
				<linearGradient id="SVGID_18_" gradientUnits="userSpaceOnUse" x1="-610.3115" y1="542.518" x2="-609.9802" y2="542.518" gradientTransform="matrix(0 233.1798 233.1798 0 -125950.9688 142504.875)">
				<stop  offset="0" style="stop-color:#119DC3"/>
				<stop  offset="1" style="stop-color:#1A4073"/>
			</linearGradient>
			<rect x="507.8" y="200.3" class="st5" width="90.9" height="80.7"/>
		</g>
		<g>
			<defs>
				<rect id="SVGID_19_" x="615.2" y="200.3" width="19.3" height="80.7"/>
			</defs>
			<clipPath id="SVGID_20_">
				<use xlink:href="#SVGID_19_"  style="overflow:visible;"/>
			</clipPath>
			
				<linearGradient id="SVGID_21_" gradientUnits="userSpaceOnUse" x1="-610.3115" y1="541.8988" x2="-609.9802" y2="541.8988" gradientTransform="matrix(0 233.1798 233.1798 0 -125734.9688 142504.875)">
				<stop  offset="0" style="stop-color:#119DC3"/>
				<stop  offset="1" style="stop-color:#1A4073"/>
			</linearGradient>
			<rect x="615.2" y="200.3" class="st6" width="19.3" height="80.7"/>
		</g>
		<g>
			<g>
				<defs>
					<polygon id="SVGID_22_" points="647.7,200.3 686.6,236.7 651.3,281 677.3,281 713,236.1 676.1,200.3 					"/>
				</defs>
				<clipPath id="SVGID_23_">
					<use xlink:href="#SVGID_22_"  style="overflow:visible;"/>
				</clipPath>
				
					<linearGradient id="SVGID_24_" gradientUnits="userSpaceOnUse" x1="-610.3115" y1="541.4188" x2="-609.9802" y2="541.4188" gradientTransform="matrix(0 233.1798 233.1798 0 -125567.5938 142504.875)">
					<stop  offset="0" style="stop-color:#119DC3"/>
					<stop  offset="1" style="stop-color:#1A4073"/>
				</linearGradient>
				<rect x="647.7" y="200.3" class="st7" width="65.3" height="80.7"/>
			</g>
			<g>
				<defs>
					<polygon id="SVGID_25_" points="721.8,200.3 704.3,217.3 717.9,230.5 749.8,200.6 749.8,200.3 					"/>
				</defs>
				<clipPath id="SVGID_26_">
					<use xlink:href="#SVGID_25_"  style="overflow:visible;"/>
				</clipPath>
				
					<linearGradient id="SVGID_27_" gradientUnits="userSpaceOnUse" x1="-610.3116" y1="541.0125" x2="-609.98" y2="541.0125" gradientTransform="matrix(0 233.1832 233.1832 0 -125427.9375 142506.9531)">
					<stop  offset="0" style="stop-color:#119DC3"/>
					<stop  offset="1" style="stop-color:#1A4073"/>
				</linearGradient>
				<rect x="704.3" y="200.3" class="st8" width="45.5" height="30.2"/>
			</g>
			<g>
				<defs>
					<polygon id="SVGID_28_" points="704.3,260.6 720.6,281 746.6,281 717.3,244.3 					"/>
				</defs>
				<clipPath id="SVGID_29_">
					<use xlink:href="#SVGID_28_"  style="overflow:visible;"/>
				</clipPath>
				
					<linearGradient id="SVGID_30_" gradientUnits="userSpaceOnUse" x1="-610.3117" y1="541.0284" x2="-609.9803" y2="541.0284" gradientTransform="matrix(0 233.1797 233.1797 0 -125431.3906 142504.8438)">
					<stop  offset="0" style="stop-color:#119DC3"/>
					<stop  offset="1" style="stop-color:#1A4073"/>
				</linearGradient>
				<rect x="704.3" y="244.3" class="st9" width="42.2" height="36.7"/>
			</g>
		</g>
	</g>
</g>
</svg>
