<svg width="492" height="410" viewBox="0 0 492 410" fill="none" xmlns="http://www.w3.org/2000/svg">
<g clip-path="url(#clip0)">
<path opacity="0.1" d="M349.671 409.995C377.43 409.995 399.933 407.777 399.933 405.042C399.933 402.306 377.43 400.088 349.671 400.088C321.911 400.088 299.408 402.306 299.408 405.042C299.408 407.777 321.911 409.995 349.671 409.995Z" fill="#6C63FF"/>
<path d="M215.404 5.9972C237.541 -2.22946 264.491 4.84576 287.505 15.1646C359.786 47.5812 412.445 109.117 454.283 171.809C469.432 194.51 483.82 218.21 489.515 243.551C501.11 295.131 470.868 348.528 419.434 367.24C401.943 373.61 382.727 376.221 363.482 377.676C329.259 380.268 293.827 379.239 259.879 369.641C235.669 362.781 212.768 351.747 190.802 339.556C129.459 305.493 73.4381 261.259 33.0997 207.224C15.4079 183.524 0.440875 156.806 0.00960557 129.461C-0.421664 102.115 17.4025 74.6376 46.7288 69.9877C58.8534 68.067 71.6787 70.0661 84.1905 72.124C102.613 75.157 121.285 78.3467 139.496 77.0237C158.31 75.6469 182.78 68.2973 186.21 50.3398C189.842 31.0593 193.297 14.2141 215.404 5.9972Z" fill="#F79737"/>
<path d="M119.589 376.697C119.589 376.697 143.24 375.271 140.452 391.842C140.452 391.842 141.005 394.782 138.349 396.1C138.349 396.1 138.31 394.87 135.923 395.286C135.076 395.432 134.213 395.475 133.355 395.414C132.195 395.333 131.092 394.877 130.214 394.115C130.214 394.115 123.563 391.371 120.981 380.504C120.981 380.504 119.065 378.137 119.143 377.525L123.132 379.23C123.132 379.23 121.77 382.111 122.843 384.502C122.843 384.502 122.97 379.338 123.74 379.455C123.892 379.48 125.813 380.435 125.813 380.435C125.813 380.435 123.465 385.447 125.235 389.093C125.235 389.093 124.563 382.914 126.543 380.798L129.356 382.439C129.356 382.439 126.612 387.618 128.474 391.842C128.474 391.842 127.984 385.359 129.944 382.836L132.493 384.796C132.493 384.796 129.915 389.901 131.488 393.41C131.488 393.41 131.689 385.859 133.042 385.291C133.042 385.291 135.271 387.251 135.61 388.064C135.61 388.064 133.845 391.768 134.938 393.723C134.938 393.723 135.61 388.696 136.163 388.672C136.163 388.672 138.379 392.003 138.614 394.287C138.614 394.287 138.516 390.891 136.698 388.353C136.698 388.353 138.844 388.721 140.099 390.112C140.099 390.112 139.751 387.755 136.154 387.549C136.154 387.549 134.321 385.026 133.826 384.869C133.826 384.869 137.408 384.57 139.579 385.536C139.579 385.536 137.668 383.311 133.169 384.321L130.655 382.272C130.655 382.272 135.374 381.626 137.369 382.341C137.369 382.341 135.071 380.381 129.979 381.807L127.244 380.17C127.244 380.17 131.263 379.303 133.659 379.617C133.659 379.617 131.13 378.255 126.44 379.73L124.48 378.852C124.48 378.852 127.42 378.274 128.288 378.181C129.155 378.088 129.194 377.853 129.194 377.853C127.329 377.54 125.413 377.752 123.661 378.465C123.661 378.465 119.515 376.981 119.589 376.697Z" fill="#FFBE2E"/>
<path opacity="0.1" d="M135.88 400.372C145.126 400.372 152.621 399.106 152.621 397.545C152.621 395.984 145.126 394.718 135.88 394.718C126.634 394.718 119.139 395.984 119.139 397.545C119.139 399.106 126.634 400.372 135.88 400.372Z" fill="#6C63FF"/>
<path d="M87.9053 365.55C87.9053 365.55 101.24 364.746 99.6672 374.09C99.7503 374.564 99.6807 375.051 99.4684 375.483C99.2561 375.915 98.9121 376.267 98.4861 376.491C98.4861 376.491 98.4616 375.8 97.1188 376.035C96.6415 376.117 96.156 376.14 95.6731 376.104C95.0172 376.063 94.3933 375.807 93.899 375.374C93.899 375.374 90.1548 373.82 88.6845 367.696C88.6845 367.696 87.6064 366.358 87.6456 366.015L89.8999 366.995C89.8999 366.995 89.1305 368.622 89.7333 369.969C89.7333 369.969 89.8068 367.054 90.2234 367.123C90.3116 367.123 91.3947 367.686 91.3947 367.686C91.3947 367.686 90.0715 370.513 91.0712 372.586C91.0712 372.586 90.689 369.102 91.8063 367.906L93.3893 368.833C93.3893 368.833 91.8456 371.772 92.8992 374.134C92.8992 374.134 92.6297 370.479 93.7275 369.058L95.1634 370.175C95.1634 370.175 93.6932 373.051 94.5998 375.031C94.5998 375.031 94.7125 370.773 95.477 370.454C95.477 370.454 96.7316 371.562 96.9228 372.017C96.9228 372.017 95.9426 374.105 96.5454 375.207C96.5454 375.207 96.9228 372.375 97.2364 372.36C97.2364 372.36 98.4861 374.237 98.6135 375.526C98.551 374.335 98.1794 373.182 97.5354 372.179C98.2564 372.311 98.9227 372.652 99.4516 373.159C99.4516 373.159 99.2604 371.831 97.2266 371.714C97.2266 371.714 96.1926 370.288 95.9181 370.204C95.9181 370.204 97.9372 370.033 99.1624 370.577C99.1624 370.577 98.0843 369.323 95.5456 369.891L94.1293 368.735C94.1293 368.735 96.7904 368.372 97.9176 368.774C97.9176 368.774 96.6189 367.666 93.7471 368.475L92.2082 367.549C93.3937 367.29 94.6078 367.186 95.8201 367.24C95.8201 367.24 94.3989 366.471 91.7524 367.304L90.6498 366.814C90.6498 366.814 92.3111 366.486 92.7963 366.437C93.2815 366.388 93.3109 366.25 93.3109 366.25C92.2581 366.076 91.1776 366.196 90.1891 366.598C90.1891 366.598 87.8661 365.711 87.9053 365.55Z" fill="#FFBE2E"/>
<path opacity="0.1" d="M97.0893 378.896C102.302 378.896 106.528 378.181 106.528 377.299C106.528 376.417 102.302 375.702 97.0893 375.702C91.8763 375.702 87.6504 376.417 87.6504 377.299C87.6504 378.181 91.8763 378.896 97.0893 378.896Z" fill="#6C63FF"/>
<path d="M415.97 374.531C415.97 374.531 432.069 373.551 430.182 384.82C430.278 385.393 430.192 385.981 429.935 386.502C429.678 387.023 429.264 387.449 428.751 387.721C428.751 387.721 428.721 386.883 427.099 387.167C426.522 387.266 425.934 387.294 425.35 387.251C424.56 387.199 423.809 386.89 423.213 386.369C423.213 386.369 418.685 384.502 416.925 377.103C416.925 377.103 415.622 375.491 415.675 375.08L418.391 376.236C418.391 376.236 417.464 378.196 418.194 379.828C418.194 379.828 418.283 376.31 418.802 376.398C418.91 376.398 420.214 377.074 420.214 377.074C420.214 377.074 418.616 380.504 419.822 382.954C419.822 382.954 419.366 378.75 420.713 377.309L422.625 378.421C422.625 378.421 420.758 381.949 422.027 384.825C422.027 384.825 421.699 380.416 423.007 378.696L424.742 380.048C424.742 380.048 422.987 383.522 424.056 385.928C424.056 385.928 424.198 380.793 425.119 380.401C425.119 380.401 426.634 381.739 426.864 382.287C426.864 382.287 425.663 384.811 426.408 386.143C426.408 386.143 426.864 382.714 427.241 382.714C427.241 382.714 428.751 384.982 428.908 386.535C428.835 385.099 428.387 383.707 427.609 382.498C428.48 382.663 429.284 383.078 429.922 383.694C429.922 383.694 429.687 382.091 427.232 381.949C427.232 381.949 425.987 380.229 425.653 380.127C425.653 380.127 428.104 379.921 429.574 380.577C429.574 380.577 428.271 379.068 425.208 379.754L423.497 378.358C423.497 378.358 426.707 377.917 428.07 378.402C428.07 378.402 426.501 377.064 423.036 378.039L421.174 376.927C421.174 376.927 423.909 376.339 425.541 376.55C425.541 376.55 423.821 375.624 420.64 376.628L419.307 376.03C419.307 376.03 421.311 375.633 421.899 375.575C422.488 375.516 422.517 375.349 422.517 375.349C421.248 375.138 419.945 375.282 418.753 375.766C418.753 375.766 415.921 374.717 415.97 374.531Z" fill="#FFBE2E"/>
<path opacity="0.1" d="M427.055 390.651C433.347 390.651 438.449 389.789 438.449 388.725C438.449 387.662 433.347 386.8 427.055 386.8C420.762 386.8 415.66 387.662 415.66 388.725C415.66 389.789 420.762 390.651 427.055 390.651Z" fill="#6C63FF"/>
<path d="M399.929 255.58C399.62 253.855 399.442 252.109 399.395 250.357C399.395 248.255 396.538 246.393 396.538 246.393C396.538 246.393 394.773 242.311 393.597 241.709C392.421 241.106 388.789 235.765 388.789 235.765C388.748 234.712 388.364 233.701 387.697 232.884C386.609 231.454 385.615 229.955 384.722 228.396C384.232 227.798 384.477 227.377 383.742 223.893C383.702 223.712 383.658 223.536 383.604 223.369C383.604 223.291 383.555 223.222 383.526 223.144C384.306 222.361 384.85 221.375 385.095 220.298C385.341 219.221 385.277 218.096 384.913 217.053C384.781 216.639 384.541 216.266 384.217 215.975C383.389 215.299 382.066 215.578 381.213 214.937L382.12 210.929C382.335 209.949 382.448 208.709 381.59 208.18C381.268 208.027 380.93 207.914 380.581 207.842C379.11 207.352 378.258 205.799 377.875 204.304C377.508 202.865 377.408 201.37 377.581 199.894C377.748 198.473 378.165 197.092 378.317 195.666C378.593 193.029 377.958 190.376 376.518 188.15C375.958 187.189 375.133 186.41 374.141 185.906C373.234 185.499 372.181 185.416 371.333 184.926C369.51 183.764 369.603 181.006 368.147 179.423C366.692 177.841 364.114 177.846 361.992 178.389C359.87 178.933 357.758 179.859 355.582 179.629C354.18 179.472 352.867 178.835 351.46 178.688C351.058 178.65 350.652 178.668 350.255 178.742V178.698C349.216 178.884 348.26 179.463 348.015 180.447C347.96 180.682 347.937 180.922 347.946 181.163C347.946 181.736 348.084 182.334 348.093 182.883C348.111 183.101 348.086 183.32 348.017 183.528C347.949 183.736 347.84 183.928 347.696 184.093C347.417 184.392 347.005 184.548 346.716 184.857C346.598 184.975 346.506 185.116 346.444 185.271C346.383 185.426 346.354 185.592 346.358 185.759C346.358 186.631 347.446 187.4 348.177 187.753H348.206C348.01 187.949 347.814 188.155 347.633 188.365C345.539 190.729 344.385 193.778 344.388 196.935C344.406 199.485 345.169 201.974 346.583 204.096C347.997 206.219 350.001 207.882 352.347 208.881L352.244 209.199C352.038 209.829 351.797 210.447 351.524 211.051C351.017 210.881 350.479 210.823 349.947 210.882C349.415 210.941 348.903 211.116 348.446 211.394C347.045 212.374 344.305 212.296 343.575 212.114C342.845 211.933 335.243 210.973 334.631 211.213C334.018 211.453 332.808 210.375 332.019 211.815C331.23 213.256 330.862 214.035 330.058 214.398C329.255 214.76 327.868 215.897 328.054 216.137C328.24 216.377 326.045 217.818 326.045 217.818C326.045 217.818 324.158 219.778 323.065 220.037C321.972 220.297 319.659 221.782 319.659 221.782L316.978 223.879C316.978 223.879 314.974 224.182 315.582 222.801C316.189 221.419 314.484 219.68 314.484 219.68C314.484 219.68 311.078 212.776 311.078 211.35C311.078 209.924 308.279 203.844 308.279 203.844L307.936 203.809L307.779 203.363C307.265 201.918 306.598 200.144 306.089 199.106C305.109 197.121 304.506 196.915 304.506 196.915C304.506 196.915 292.705 188.057 285.04 190.756C277.375 193.456 299.032 201.502 300.977 202.344C301.658 202.638 302.148 203.589 302.492 204.701C300.765 205.533 299.312 206.84 298.301 208.469C298.301 208.469 302.987 218.851 303.109 221.434C303.232 224.016 306.334 231.233 306.334 231.233C306.334 231.233 307.49 236.579 313.754 236.275C313.754 236.275 322.394 237.862 324.28 236.275C326.167 234.687 327.868 233.443 328.784 233.262C329.458 233.04 330.051 232.622 330.485 232.061C330.485 232.061 327.628 250.068 326.226 251.631C324.824 253.194 312.44 273.41 316.885 277.026C320.406 279.751 324.126 282.208 328.015 284.376C328.392 284.562 329.524 282.675 331.142 281.338C331.142 281.676 331.142 282.019 331.142 282.381C331.171 289.574 332.122 300.51 333.435 302.96C335.395 306.562 334.592 313.524 334.592 313.524C335.622 314.009 336.742 314.278 337.88 314.313C337.939 314.548 338.008 314.803 338.071 315.048C339.145 319.1 340.884 325.367 341.771 327.033C343.109 329.556 344.08 337.543 344.08 337.543C344.08 337.543 344.874 345.382 344.57 346.485C344.452 346.901 344.967 350.164 345.775 354.324C345.285 359.954 344.354 370.807 344.197 374.732C344.197 374.805 344.197 374.879 344.197 374.947V375.016C344.2 375.06 344.2 375.104 344.197 375.148C344.197 375.236 344.197 375.315 344.197 375.388C344.182 375.635 344.192 375.883 344.227 376.128C344.287 376.502 344.259 376.885 344.143 377.245C343.797 378.33 343.355 379.383 342.825 380.391C342.602 380.886 342.405 381.393 342.237 381.91C341.747 382.125 341.149 382.65 340.816 383.928C340.208 386.271 339.296 392.748 339.296 392.748C339.296 392.748 338.929 396.712 338.204 397.613C337.478 398.515 336.733 404.155 341.913 404.875C347.094 405.595 349.333 402.131 349.333 402.131L349.152 386.413V386.383C349.257 386.251 349.347 386.108 349.421 385.957V385.918C349.456 385.844 349.495 385.766 349.529 385.678L349.573 385.56L349.652 385.369C349.649 385.346 349.649 385.323 349.652 385.3C350.154 383.795 350.305 382.194 350.093 380.621V380.543V380.42C350.093 380.381 350.093 380.337 350.093 380.298V380.053C350.093 380.023 350.093 379.989 350.093 379.96C350.093 379.855 350.103 379.747 350.122 379.636C350.122 379.636 350.122 379.597 350.122 379.577L350.152 379.386V379.303C350.152 379.239 350.152 379.176 350.191 379.107C350.189 379.091 350.189 379.074 350.191 379.058C350.24 378.833 350.299 378.568 350.362 378.353V378.299L350.436 378.063C350.509 377.814 350.593 377.573 350.681 377.309V377.26C350.681 377.182 350.735 377.103 350.764 377.03V377C350.853 376.76 350.946 376.51 351.034 376.304L351.058 376.241L351.137 376.045L351.161 375.986L351.347 375.55L352.783 379.984C352.783 379.984 353.577 383.287 353.151 384.066C352.725 384.845 353.641 388.088 354.244 388.147L353.68 392.229C353.376 394.479 353.194 396.744 353.136 399.015C353.097 399.274 353.058 399.505 353.028 399.661C352.636 401.754 353.577 404.997 353.577 404.997C358.38 410.676 364.104 405.438 364.104 405.438C364.104 405.438 364.771 402.435 364.104 401.837C363.438 401.239 363.737 399.074 363.737 399.074C363.737 399.074 364.041 393.728 364.099 389.828C364.158 385.928 360.909 382.478 360.909 382.478L360.728 382.64C360.135 381.111 359.458 379.328 359.6 378.529C359.845 377.147 358.929 362.561 358.929 362.561C359.268 358.65 359.34 354.721 359.145 350.801C359.223 350.14 359.297 349.488 359.37 348.841C359.738 345.706 360.037 343.025 360.154 341.619V341.453C360.184 341.075 360.198 340.806 360.193 340.678C360.193 340.188 360.193 339.63 360.242 339.017C360.355 337.332 360.62 335.455 360.62 335.455L361.894 327.709C361.894 327.709 362.874 323.926 364.271 321.829L364.437 321.565C364.491 321.472 364.545 321.369 364.604 321.261L364.629 321.217C364.683 321.114 364.741 321.006 364.795 320.893L364.82 320.849C365.016 320.462 365.227 320.016 365.447 319.526C365.447 319.487 365.481 319.453 365.496 319.414L365.663 319.041C365.663 318.992 365.702 318.943 365.726 318.894C365.751 318.845 365.829 318.644 365.883 318.522C365.907 318.473 365.929 318.422 365.947 318.37C366.011 318.223 366.079 318.071 366.143 317.914L366.236 317.689C366.28 317.576 366.329 317.464 366.378 317.351L366.496 317.052C366.53 316.978 366.56 316.905 366.589 316.831L366.721 316.493C366.721 316.444 366.765 316.39 366.785 316.341C367.133 315.474 367.466 314.617 367.765 313.838C367.858 313.593 367.951 313.348 368.035 313.132C371.152 313.323 373.269 313.495 373.269 313.495C373.269 313.495 374.249 306.473 373.935 301.853C373.729 298.698 374.317 294.729 374.705 292.543C374.749 292.303 374.788 292.088 374.827 291.892L374.91 291.96C376.435 293.161 377.527 289.197 377.527 289.197C377.527 289.197 377.116 285.498 376.547 281.014L376.489 280.569C377.367 280.756 378.255 280.892 379.15 280.975C379.15 280.975 379.64 280.931 380.311 280.848C382.168 281.923 384.129 282.809 386.163 283.494L389.402 277.516C390.011 276.277 390.724 275.092 391.534 273.974C392.514 272.773 395.974 268.932 395.915 268.211C395.856 267.491 397.072 263.346 398.287 261.484C399.503 259.622 399.988 255.879 399.929 255.58ZM386.422 260.142C385.143 260.681 383.928 263.684 383.869 264.586C383.81 265.487 382.467 269.446 381.071 269.926C379.782 270.367 377.322 272.631 376.93 272.994C376.528 273.028 376.072 273.082 375.597 273.16C375.062 269.373 374.533 266.237 374.195 265.605C373.215 263.802 375.268 258.04 375.268 258.04C375.268 258.04 375.469 252.219 376.738 250.837C378.008 249.455 377.719 245.972 377.719 245.972C377.719 245.972 378.022 244.531 378.145 243.874C378.268 243.218 379.953 243.874 379.968 243.874C379.968 243.874 383.252 245.673 383.742 248.372C384.232 251.072 387.819 255.756 387.819 255.756C387.819 255.756 387.27 257.378 387.819 258.206C388.368 259.034 387.702 259.603 386.422 260.142Z" fill="url(#paint0_linear)"/>
<path d="M298.438 208.837C299.437 207.189 300.899 205.873 302.642 205.052C304.386 204.231 306.332 203.942 308.239 204.221V211.233H303.98L300.648 210.39L298.438 208.837Z" fill="#4C4981"/>
<path opacity="0.1" d="M298.438 208.837C299.437 207.189 300.899 205.873 302.642 205.052C304.386 204.231 306.332 203.942 308.239 204.221V211.233H303.98L300.648 210.39L298.438 208.837Z" fill="black"/>
<path d="M308.558 206.078L303.339 209.733C303.339 209.733 303.294 209.003 303.162 208.003C302.902 206.112 302.319 203.275 301.06 202.726C299.143 201.884 277.81 193.858 285.377 191.158C292.944 188.458 304.554 197.307 304.554 197.307C304.554 197.307 305.152 197.513 306.108 199.488C306.598 200.526 307.269 202.295 307.774 203.741C308.239 205.044 308.558 206.078 308.558 206.078Z" fill="#AE6E79"/>
<path d="M350.254 211.708L350.847 211.429L352.513 213.33L351.151 216.235L348.828 215.304L349.367 212.982L350.254 211.708Z" fill="#4C4981"/>
<path d="M342.359 381.88C342.359 381.88 340.859 381.704 340.261 384.041C339.664 386.378 338.762 392.861 338.762 392.861C338.762 392.861 338.404 396.815 337.684 397.716C336.963 398.618 336.248 404.248 341.34 404.963C346.431 405.678 348.652 402.224 348.652 402.224L348.47 386.511L342.359 381.88Z" fill="#444053"/>
<path d="M360.129 382.586C360.129 382.586 363.334 386.016 363.275 389.906C363.217 393.797 362.913 399.132 362.913 399.132C362.913 399.132 362.619 401.293 363.275 401.891C363.932 402.489 363.275 405.487 363.275 405.487C363.275 405.487 357.64 410.715 352.905 405.046C352.905 405.046 351.984 401.808 352.366 399.72C352.749 397.633 353.817 388.25 353.817 388.25L360.129 382.586Z" fill="#444053"/>
<path d="M368.069 310.937C368.069 310.937 364.834 319.982 363.452 322.079C362.07 324.176 361.119 327.959 361.119 327.959L359.86 335.686C359.614 337.413 359.473 339.154 359.438 340.899C359.497 342.638 356.321 367.98 356.321 367.98L351.288 374.394C351.288 374.394 349.073 378.887 349.431 380.763C349.789 382.64 349.191 385.619 348.451 386.516C348.451 386.516 348.333 392.395 348.152 393.703C347.97 395.012 348.813 398.74 348.152 399.397C347.49 400.053 338.683 399.76 338.443 398.677C338.203 397.594 339.521 392.385 339.521 392.385L340.301 387.353C340.301 387.353 341.859 384.6 341.501 383.698C341.144 382.797 342.158 380.704 342.217 380.523C342.276 380.342 343.898 377.407 343.599 376.27C343.3 375.133 345.486 350.958 345.486 350.958L351.656 307.64L368.069 310.937Z" fill="#AE6E79"/>
<path opacity="0.1" d="M368.069 310.937C368.069 310.937 367.579 312.299 366.907 314.088C365.839 316.91 364.3 320.796 363.452 322.079C362.075 324.176 361.114 327.959 361.114 327.959L359.855 335.691C359.611 337.419 359.472 339.16 359.438 340.904C359.438 341.59 358.978 345.966 358.39 351.007C357.483 358.715 356.321 367.985 356.321 367.985L351.288 374.399C351.288 374.399 351.033 374.889 350.715 375.663C350.083 377.133 349.191 379.519 349.431 380.749C349.789 382.606 349.191 385.599 348.451 386.501C348.451 386.501 348.328 392.381 348.152 393.689C347.975 394.997 348.813 398.721 348.152 399.382C347.49 400.044 338.683 399.745 338.443 398.667C338.203 397.589 339.521 392.376 339.521 392.376L340.301 387.339C340.301 387.339 341.859 384.585 341.496 383.684C341.134 382.782 342.158 380.69 342.217 380.509C342.276 380.327 343.898 377.392 343.599 376.256C343.369 375.388 344.579 361.194 345.143 354.462C345.334 352.345 345.456 350.968 345.456 350.968L350.764 313.701L351.195 310.697L351.626 307.65L368.069 310.937Z" fill="black"/>
<path d="M362.677 401.048C362.731 401.71 354.224 402.67 353.008 401.95C351.793 401.229 353.008 392.302 353.008 392.302L353.562 388.23C352.969 388.167 352.067 384.933 352.484 384.154C352.9 383.375 352.126 380.082 352.126 380.082L350.715 375.672L349.852 372.973C348.45 369.881 346.422 361.061 345.162 354.476C344.368 350.341 343.863 347.082 343.976 346.666C344.275 345.588 343.486 337.739 343.486 337.739C343.486 337.739 342.506 329.767 341.212 327.253C340.335 325.587 338.624 319.33 337.566 315.293C337.027 313.22 336.654 311.731 336.654 311.731C336.654 311.731 345.711 310.971 351.205 310.707C353.729 310.584 355.503 310.57 355.297 310.775C355.091 310.981 355.037 312.079 355.047 313.666C355.071 317.777 355.645 325.009 356.253 326.954C357.091 329.649 357.929 337.734 357.571 338.518C357.213 339.302 357.331 344.51 357.331 344.51C357.948 346.626 358.304 348.81 358.389 351.012C358.581 354.914 358.512 358.825 358.183 362.717C358.183 362.717 359.08 377.279 358.84 378.656C358.6 380.033 360.756 384.35 360.756 385.188C360.756 386.025 361.354 391.719 361.354 391.719C361.354 391.719 362.638 400.391 362.677 401.048Z" fill="#AE6E79"/>
<path d="M367.407 226.03L366.377 227.142L365.706 227.867L361.785 232.081L351.656 233.222L346.265 231.782L344.932 231.424C344.932 231.424 344.932 228.719 345.172 225.476C345.515 221.316 346.333 216.264 348.289 214.888C349.268 214.121 350.049 213.132 350.568 212.002C350.959 211.222 351.286 210.413 351.548 209.581C351.587 209.473 351.616 209.37 351.651 209.263C352.092 207.811 352.41 206.324 352.601 204.819C352.601 204.819 353.895 204.103 355.694 203.27C360.384 201.08 368.485 198.057 365.667 204.819C365.253 205.809 364.899 206.823 364.608 207.856C364.564 208.008 364.525 208.16 364.491 208.307C363.55 212.07 364.172 214.353 364.873 215.613C364.991 215.831 365.127 216.039 365.28 216.235C365.471 216.498 365.701 216.731 365.961 216.926L367.127 224.329L367.225 224.942L367.407 226.03Z" fill="#AE6E79"/>
<path opacity="0.1" d="M365.672 205.181C365.138 206.465 365.932 204.133 365.672 205.181C363.535 206.7 358.502 211.027 355.674 211.027C353.763 211.027 353.19 210.679 351.553 209.939C352.048 208.388 352.401 206.796 352.606 205.181C352.606 205.181 369.568 195.832 365.672 205.181Z" fill="black"/>
<path d="M369.99 197.307C369.988 200.534 368.792 203.646 366.632 206.044C364.472 208.442 361.502 209.957 358.292 210.296C357.841 210.341 357.386 210.37 356.925 210.37C354.341 210.37 351.815 209.604 349.666 208.169C347.517 206.733 345.843 204.693 344.854 202.306C343.865 199.919 343.606 197.293 344.11 194.759C344.615 192.225 345.859 189.897 347.686 188.071C349.513 186.244 351.841 185 354.376 184.496C356.91 183.992 359.537 184.25 361.925 185.239C364.312 186.228 366.353 187.902 367.788 190.05C369.224 192.198 369.99 194.724 369.99 197.307Z" fill="#AE6E79"/>
<path opacity="0.1" d="M371.847 255.213L369.985 260.068C369.985 260.068 368.471 260.132 366.109 260.205C358.135 260.46 340.566 260.784 339.782 258.736C339.606 258.216 339.513 257.672 339.507 257.124C339.404 254.002 340.86 249.21 340.86 249.21C340.86 249.21 341.698 239.622 341.698 239.205C341.698 238.789 340.977 232.071 340.977 232.071L342.418 226.681L346.432 223.864C346.432 223.864 348.231 226.623 349.309 226.858C350.387 227.093 351.828 228.421 351.828 228.421C351.828 228.421 355.361 230.577 356.503 229.376C357.645 228.176 366.511 222.904 366.511 222.904L371.186 228.058L371.847 255.213Z" fill="black"/>
<path d="M371.846 255.957L369.984 260.808C369.984 260.808 368.47 260.876 366.108 260.95H365.877C364.858 260.984 363.691 261.019 362.447 261.043C356.11 261.19 347.382 261.229 342.819 260.553C341.104 260.308 339.982 259.955 339.795 259.475C339.692 259.186 339.62 258.887 339.58 258.583C339.55 258.358 339.531 258.093 339.521 257.863C339.418 254.742 340.873 249.95 340.873 249.95C340.873 249.95 341.711 240.361 341.711 239.945C341.711 239.528 340.991 232.811 340.991 232.811L342.432 227.421L345.191 225.491L346.446 224.609C346.868 225.24 347.328 225.846 347.823 226.422C348.21 226.941 348.727 227.348 349.322 227.602C350.405 227.842 351.841 229.165 351.841 229.165C351.841 229.165 355.375 231.321 356.517 230.121C357.384 229.205 362.775 225.907 365.265 224.403C366.029 223.937 366.524 223.648 366.524 223.648L367.151 224.344L371.199 228.803L371.846 255.957Z" fill="white"/>
<path opacity="0.1" d="M308.558 206.078L303.339 209.733C303.339 209.733 303.294 209.003 303.162 208.003C305.74 206.916 307.308 204.51 307.759 203.741C308.239 205.044 308.558 206.078 308.558 206.078Z" fill="black"/>
<path d="M326.896 218.484L325.76 218.18C325.76 218.18 323.897 220.14 322.819 220.4C321.741 220.66 319.467 222.134 319.467 222.134L316.825 224.232C316.825 224.232 314.865 224.535 315.448 223.154C316.031 221.772 314.37 220.037 314.37 220.037C314.37 220.037 311.013 213.148 311.013 211.708C311.013 210.267 308.239 204.221 308.239 204.221C308.239 204.221 304.76 210.992 298.408 208.837C298.408 208.837 303.025 219.2 303.142 221.777C303.26 224.354 306.318 231.542 306.318 231.542C306.318 231.542 307.46 236.878 313.63 236.579C313.63 236.579 322.143 238.161 324 236.579C325.858 234.996 327.534 233.752 328.411 233.57C329.288 233.389 330.087 232.375 330.087 232.375V225.251L326.896 218.484Z" fill="#4C4981"/>
<path opacity="0.1" d="M316.229 225.251C316.229 225.251 317.728 230.827 316.768 231.424L316.229 225.251Z" fill="black"/>
<path opacity="0.1" d="M366.109 260.925C358.136 261.18 340.566 261.499 339.782 259.456C339.606 258.936 339.514 258.392 339.508 257.844L365.555 259.215L366.109 260.925Z" fill="black"/>
<path opacity="0.1" d="M368.068 310.937C368.068 310.937 367.578 312.299 366.907 314.088C363.599 313.887 359.218 313.676 355.057 313.647C353.587 313.647 352.146 313.647 350.783 313.696C347.892 313.784 345.392 314.019 343.8 314.47C341.786 315.09 339.681 315.361 337.576 315.273C337.037 313.201 336.664 311.711 336.664 311.711C336.664 311.711 345.721 310.952 351.215 310.687L351.646 307.64L368.068 310.937Z" fill="black"/>
<path d="M375.083 289.006L374.063 291.162C374.063 291.162 373.921 291.804 373.74 292.823C373.357 295.018 372.76 298.977 372.985 302.132C373.284 306.748 372.323 313.754 372.323 313.754C372.323 313.754 350.27 311.897 343.801 313.754C337.332 315.611 334.146 313.754 334.146 313.754C334.146 313.754 334.93 306.807 333.009 303.21C331.701 300.76 330.779 289.824 330.75 282.631C330.75 279.314 330.917 276.801 331.333 276.291C332.652 274.674 338.283 258.495 338.283 258.495L339.567 258.564L342.997 258.745L362.502 259.774L365.565 259.936L365.889 260.916L375.083 289.006Z" fill="#444053"/>
<path d="M384.791 281.813L384.973 283.734C384.973 283.734 375.313 280.588 375.803 276.722C376.293 272.856 375.803 273.292 375.803 273.292L383.566 273.949L384.791 281.813Z" fill="#4C4981"/>
<path opacity="0.1" d="M384.791 281.813L384.973 283.734C384.973 283.734 375.313 280.588 375.803 276.722C376.293 272.856 375.803 273.292 375.803 273.292L383.566 273.949L384.791 281.813Z" fill="black"/>
<path opacity="0.1" d="M322.672 226.799C323.659 227.637 324.821 228.241 326.074 228.568C325.711 228.489 325.374 228.32 325.093 228.078C324.402 227.588 323.746 227.054 323.079 226.534C322.54 226.113 321.869 225.412 321.207 225.241C321.64 225.809 322.131 226.332 322.672 226.799Z" fill="black"/>
<path opacity="0.1" d="M322.82 229.322C323.13 229.673 323.382 230.072 323.565 230.503C323.874 231.722 323.855 233.002 323.511 234.212L321.962 230.478C321.693 229.841 321.423 229.204 321.1 228.597C320.957 228.337 320.065 227.254 320.168 227.029C320.443 226.392 322.531 228.964 322.82 229.322Z" fill="black"/>
<path opacity="0.1" d="M366.031 249.999C367.086 249.871 368.074 249.41 368.849 248.681C367.256 248.882 365.746 249.509 364.178 249.837C362.722 250.176 361.196 250.035 359.826 249.436C361.63 250.318 364.109 250.347 366.031 249.999Z" fill="black"/>
<path opacity="0.1" d="M361.527 239.029C361.241 239.071 360.951 238.999 360.718 238.828C359.522 238.142 358.343 237.426 357.18 236.682C356.048 235.952 354.68 235.212 353.715 234.291C356.092 236.437 358.307 238.25 361.527 239.029Z" fill="black"/>
<path opacity="0.1" d="M364.849 251.738C365.477 251.767 366.106 251.716 366.721 251.587C367.343 251.457 367.893 251.096 368.26 250.577C368.037 250.526 367.804 250.563 367.608 250.68C365.709 251.479 363.624 251.729 361.59 251.4C362.565 251.817 363.815 251.734 364.849 251.738Z" fill="black"/>
<path opacity="0.1" d="M353.498 279.559C352.25 279.935 350.968 280.187 349.671 280.309C348.661 280.356 347.649 280.336 346.642 280.25L341.741 279.941L339.291 279.785C339.002 279.785 337.821 279.785 338.404 279.202C338.698 278.917 340.335 279.099 340.756 279.084C341.57 279.058 342.386 279.043 343.207 279.04C344.829 279.04 346.456 279.04 348.078 279.138C349.896 279.226 351.685 279.363 353.498 279.559Z" fill="black"/>
<path opacity="0.1" d="M347.82 281.985C346.986 281.95 345.913 282.445 345.055 282.553C344.096 282.666 343.129 282.704 342.164 282.666C340.254 282.62 338.367 282.235 336.592 281.529C340.331 281.72 344.08 281.833 347.82 281.985Z" fill="black"/>
<path opacity="0.1" d="M337.322 284.552C337.684 284.625 338.041 284.724 338.39 284.846C340.458 285.434 342.659 284.915 344.761 284.395C344.237 285.184 343.291 285.522 342.345 285.738C340.807 286.128 339.203 286.186 337.64 285.909C337.15 285.811 335.92 285.635 335.68 285.126C335.278 284.376 336.861 284.479 337.322 284.552Z" fill="black"/>
<path opacity="0.1" d="M348.917 288.418C349.537 288.545 350.149 288.709 350.749 288.908C353.077 289.486 355.493 288.693 357.831 288.159C360.641 287.521 363.523 287.254 366.403 287.365C365.888 287.365 365.07 287.816 364.565 287.967C363.903 288.168 363.232 288.355 362.56 288.521C361.242 288.845 359.904 289.109 358.556 289.3C355.836 289.693 353.082 289.813 350.338 289.658C349.083 289.589 346.907 289.717 345.834 289.085C346.762 288.533 347.844 288.299 348.917 288.418Z" fill="black"/>
<path opacity="0.1" d="M349.794 214.52C349.794 214.52 349.912 220.037 349.015 222.556C348.731 223.34 348.29 224.785 347.81 226.407C347.285 228.205 346.712 230.219 346.271 231.797C345.83 233.374 345.536 234.433 345.536 234.433C345.536 234.433 343.512 250.915 342.987 258.77C342.987 258.907 342.987 259.049 342.958 259.181C342.928 259.622 342.879 260.083 342.806 260.558C341.64 268.359 334.911 280.387 332.652 281.348C331.947 281.671 331.304 282.114 330.75 282.656C330.75 279.339 330.917 276.825 331.333 276.316C332.652 274.699 338.283 258.52 338.283 258.52L339.567 258.588C339.537 258.363 339.518 258.099 339.508 257.868C339.405 254.747 340.86 249.955 340.86 249.955C340.86 249.955 341.698 240.366 341.698 239.95C341.698 239.533 340.978 232.816 340.978 232.816L342.419 227.426L345.178 225.496C345.521 221.336 346.339 216.284 348.295 214.907C349.274 214.141 350.055 213.151 350.574 212.021C350.961 212.075 350.255 211.732 350.255 211.732L349.794 214.52Z" fill="black"/>
<path d="M350.848 211.429C350.348 211.258 349.817 211.2 349.292 211.259C348.768 211.319 348.263 211.494 347.814 211.772C346.432 212.751 343.737 212.668 343.016 212.492C342.296 212.315 334.807 211.35 334.195 211.59C333.582 211.83 332.396 210.752 331.617 212.193C330.838 213.633 330.48 214.408 329.701 214.765C328.922 215.123 327.54 216.265 327.74 216.505C327.941 216.745 325.78 218.18 325.78 218.18L330.152 232.39C330.152 232.39 327.334 250.362 325.957 251.92C324.579 253.478 312.352 273.67 316.728 277.266C320.193 279.99 323.86 282.447 327.696 284.616C328.186 284.856 329.911 281.622 332.308 280.603C334.704 279.584 342.139 266.1 342.6 258.432C343.06 250.764 345.177 233.688 345.177 233.688C345.177 233.688 347.755 224.339 348.652 221.821C349.549 219.302 349.431 213.785 349.431 213.785L350.848 211.429Z" fill="#4C4981"/>
<path opacity="0.1" d="M375.083 289.006L374.063 291.162C374.063 291.162 373.921 291.803 373.74 292.823C373.558 292.8 373.387 292.723 373.25 292.602C371.75 291.402 362.958 282.357 362.522 274.326C362.213 268.402 362.36 263.297 362.458 261.023C362.488 260.308 362.517 259.877 362.517 259.784C362.517 259.784 369.349 251.513 368.569 248.583C367.79 245.653 365.992 229.964 365.992 229.964L365.727 227.906L365.271 224.427L364.183 216.01L365.31 216.274C365.502 216.537 365.731 216.77 365.992 216.965L367.158 224.368L371.206 228.827L371.868 255.972L370.005 260.822C370.005 260.822 368.491 260.891 366.129 260.965H365.899L375.083 289.006Z" fill="black"/>
<path d="M378.856 244.198C378.856 244.198 377.18 243.536 377.063 244.198C376.945 244.859 376.641 246.29 376.641 246.29C376.641 246.29 376.94 249.769 375.661 251.146C374.382 252.523 374.191 258.334 374.191 258.334C374.191 258.334 372.172 264.086 373.127 265.884C373.475 266.536 374.014 269.804 374.554 273.724C374.897 276.174 375.235 278.864 375.534 281.323C376.078 285.792 376.484 289.491 376.484 289.491C376.484 289.491 375.401 293.445 373.902 292.245C372.402 291.044 363.61 281.999 363.179 273.969C362.885 268.329 363.002 263.429 363.1 261.014C363.14 259.99 363.179 259.412 363.179 259.412C363.179 259.412 370.01 251.141 369.231 248.206C368.452 245.271 366.653 229.587 366.653 229.587L366.34 227.162L366.002 224.555L365.923 223.982L364.84 215.652C365.031 215.696 371.755 217.215 372.642 218.102C373.529 218.989 379.013 220.258 379.013 220.258C379.84 220.482 380.592 220.924 381.19 221.538C381.788 222.151 382.211 222.914 382.414 223.746C382.468 223.913 382.507 224.089 382.547 224.271C383.267 227.75 383.037 228.166 383.527 228.769C384.017 229.371 378.856 244.198 378.856 244.198Z" fill="#4C4981"/>
<path opacity="0.1" d="M375.571 281.318C373.121 280.828 369.484 279.697 369.568 277.198C369.641 274.861 372.454 274.018 374.586 273.719C374.929 276.159 375.267 278.859 375.571 281.318Z" fill="black"/>
<path d="M383.174 280.074C383.076 280.284 382.684 280.466 382.125 280.627C380.814 280.939 379.483 281.157 378.141 281.279C378.141 281.279 369.809 280.618 369.927 276.84C370.015 274.13 373.779 273.41 375.891 273.248C376.359 273.205 376.828 273.185 377.298 273.19C377.298 273.19 383.532 279.3 383.174 280.074Z" fill="#AE6E79"/>
<path opacity="0.1" d="M383.173 280.074C383.075 280.284 382.683 280.466 382.124 280.627C379.953 277.722 376.924 273.993 375.439 273.665L375.89 273.248C376.358 273.205 376.827 273.185 377.297 273.19C377.297 273.19 383.531 279.3 383.173 280.074Z" fill="black"/>
<path d="M381.076 228.367L383.526 228.729C384.411 230.287 385.393 231.788 386.467 233.222C387.125 234.041 387.503 235.049 387.545 236.099C387.545 236.099 391.142 241.429 392.279 242.027C393.416 242.625 395.156 246.702 395.156 246.702C395.156 246.702 397.974 248.559 397.974 250.656C398.024 252.404 398.204 254.147 398.513 255.869C398.577 256.168 398.096 259.887 396.896 261.749C395.695 263.611 394.494 267.717 394.558 268.452C394.622 269.186 391.201 273.008 390.245 274.204C389.448 275.322 388.746 276.505 388.148 277.741L384.972 283.734C384.972 283.734 378.258 273.846 375.803 273.307C375.803 273.307 378.557 270.671 379.934 270.191C381.311 269.711 382.634 265.781 382.693 264.86C382.752 263.939 383.953 260.965 385.207 260.45C386.462 259.936 387.128 259.372 386.589 258.53C386.05 257.687 386.589 256.08 386.589 256.08C386.589 256.08 383.051 251.405 382.571 248.73C382.09 246.055 378.856 244.237 378.856 244.237L376.999 239.68L381.076 228.367Z" fill="#4C4981"/>
<path opacity="0.1" d="M389.989 250.734C391.345 249.589 393.052 248.943 394.826 248.902C393.689 249.097 392.494 249.347 391.66 250.141C391.333 250.485 391.039 250.859 390.783 251.258C390.499 251.665 388.186 254.605 387.843 254.139C387.269 253.458 389.524 251.131 389.989 250.734Z" fill="black"/>
<path opacity="0.1" d="M384.561 247.897C384.927 247.865 385.279 247.737 385.58 247.524C385.881 247.311 386.119 247.022 386.271 246.687C386.563 246.012 386.744 245.293 386.805 244.56C386.98 243.333 387.228 242.118 387.545 240.92C387.64 240.683 387.681 240.428 387.663 240.173C387.645 239.918 387.57 239.671 387.442 239.45C387.311 239.067 387.133 238.702 386.913 238.362C386.472 238.852 386.344 239.994 386.163 240.65C385.938 241.464 385.732 242.282 385.536 243.1C385.433 243.492 384.619 247.897 384.561 247.897Z" fill="black"/>
<path opacity="0.1" d="M382.439 223.707C382.197 224.023 381.919 224.309 381.61 224.56C380.63 225.339 379.331 225.995 379.209 227.225C379.243 227.625 379.193 228.027 379.062 228.406C378.748 228.945 377.979 228.896 377.366 228.793C376.849 228.746 376.354 228.564 375.93 228.264C375.288 227.715 375.229 226.735 374.739 226.044C374.442 225.688 374.066 225.405 373.641 225.217C373.216 225.029 372.753 224.942 372.289 224.961C371.373 224.932 370.461 225.138 369.545 225.177C368.956 225.207 368.365 225.167 367.785 225.059C367.594 225.03 367.404 224.991 367.217 224.942C366.807 224.841 366.407 224.705 366.021 224.535C365.821 224.456 365.626 224.364 365.438 224.261C364.824 223.946 364.256 223.55 363.747 223.085C362.85 222.262 362.105 221.125 362.179 219.905C362.223 219.155 362.561 218.464 362.669 217.725C363.036 215.608 361.63 213.609 360.106 212.095C359.498 211.492 358.851 210.909 358.243 210.297C357.297 209.424 356.55 208.358 356.053 207.17C355.644 205.907 355.51 204.57 355.661 203.251C355.798 201.913 355.836 200.567 355.773 199.223C355.323 194.461 351.255 190.81 347.187 188.826L347.006 188.733C348.213 187.348 349.698 186.234 351.365 185.462C353.032 184.69 354.842 184.279 356.679 184.254C358.516 184.23 360.337 184.593 362.024 185.32C363.711 186.048 365.225 187.122 366.468 188.474C367.711 189.826 368.655 191.425 369.238 193.167C369.821 194.908 370.03 196.753 369.851 198.581C369.673 200.409 369.111 202.178 368.201 203.774C367.292 205.37 366.057 206.756 364.575 207.842C364.531 207.994 364.492 208.146 364.458 208.293C363.517 212.056 364.139 214.339 364.84 215.598C365.031 215.642 371.755 217.161 372.642 218.048C373.529 218.935 379.013 220.204 379.013 220.204C379.846 220.426 380.604 220.868 381.207 221.485C381.81 222.101 382.236 222.869 382.439 223.707Z" fill="black"/>
<path d="M346.144 185.279C346.413 184.97 346.82 184.813 347.094 184.514C347.942 183.593 347.094 182.089 347.403 180.874C347.736 179.526 349.393 178.938 350.775 179.08C352.157 179.223 353.451 179.86 354.833 180.016C356.979 180.256 359.057 179.325 361.15 178.782C363.242 178.238 365.771 178.208 367.212 179.811C368.653 181.413 368.555 184.142 370.349 185.303C371.177 185.837 372.221 185.896 373.118 186.283C374.099 186.787 374.913 187.565 375.46 188.522C376.88 190.752 377.505 193.395 377.234 196.024C377.082 197.445 376.671 198.826 376.504 200.247C376.335 201.723 376.434 203.217 376.798 204.657C377.175 206.127 377.994 207.715 379.459 208.185C379.798 208.259 380.127 208.373 380.439 208.523C381.287 209.052 381.174 210.297 380.959 211.267L380.086 215.29C380.924 215.926 382.228 215.652 383.027 216.323C383.347 216.616 383.584 216.988 383.713 217.401C384.107 218.526 384.15 219.744 383.836 220.894C383.521 222.044 382.865 223.071 381.954 223.84C380.973 224.619 379.675 225.275 379.552 226.5C379.59 226.9 379.539 227.303 379.405 227.681C379.097 228.22 378.322 228.171 377.71 228.068C377.194 228.021 376.701 227.838 376.279 227.539C375.632 226.99 375.578 226.01 375.088 225.319C374.789 224.963 374.413 224.68 373.988 224.493C373.564 224.305 373.101 224.217 372.637 224.236C371.716 224.207 370.809 224.413 369.888 224.457C367.763 224.544 365.688 223.795 364.11 222.37C363.208 221.542 362.468 220.41 362.537 219.185C362.581 218.44 362.919 217.744 363.027 217.004C363.389 214.893 361.988 212.889 360.464 211.375C358.94 209.861 357.151 208.464 356.406 206.45C355.475 203.956 356.376 201.173 356.127 198.528C355.676 193.76 351.613 190.115 347.54 188.125C346.634 187.66 345.09 186.479 346.144 185.279Z" fill="#444053"/>
<path opacity="0.1" d="M378.194 226.427C377.547 225.873 377.493 224.898 377.003 224.207C376.705 223.851 376.329 223.567 375.904 223.379C375.48 223.19 375.017 223.101 374.553 223.119C373.632 223.09 372.72 223.296 371.804 223.34C369.671 223.433 367.587 222.681 366.006 221.248C365.104 220.424 364.369 219.288 364.438 218.068C364.482 217.318 364.82 216.622 364.928 215.887C365.295 213.771 363.889 211.767 362.365 210.253C360.841 208.739 359.057 207.342 358.307 205.328C357.381 202.839 358.307 200.056 358.032 197.405C357.577 192.638 353.514 188.993 349.446 187.003C348.496 186.538 346.952 185.357 348.005 184.157C348.27 183.848 348.677 183.691 348.951 183.392C349.799 182.476 348.951 180.967 349.265 179.757C349.325 179.516 349.43 179.288 349.574 179.085C348.549 179.276 347.613 179.855 347.363 180.835C347.065 182.05 347.903 183.554 347.055 184.475C346.78 184.774 346.373 184.931 346.104 185.234C345.05 186.435 346.594 187.621 347.545 188.081C351.617 190.071 355.68 193.721 356.131 198.483C356.381 201.134 355.479 203.917 356.41 206.411C357.155 208.42 358.944 209.841 360.468 211.335C361.992 212.83 363.409 214.848 363.031 216.965C362.825 217.682 362.661 218.41 362.541 219.146C362.473 220.366 363.213 221.502 364.114 222.325C365.693 223.76 367.776 224.512 369.907 224.418C370.828 224.374 371.735 224.173 372.656 224.197C373.121 224.18 373.583 224.269 374.008 224.457C374.432 224.646 374.808 224.929 375.107 225.285C375.597 225.976 375.651 226.956 376.298 227.504C376.72 227.802 377.214 227.983 377.729 228.029C378.341 228.141 379.116 228.181 379.424 227.647C379.534 227.429 379.582 227.184 379.562 226.941C379.069 226.893 378.597 226.715 378.194 226.427Z" fill="black"/>
<path d="M306.852 197.307H272.954V163.911H306.877L306.852 197.307ZM306.362 146.953H273.444C273.444 95.0548 322.785 98.0877 322.785 65.2546C322.785 47.1697 307.98 32.6811 289.891 32.6811C271.802 32.6811 257.002 48.3015 257.002 65.769H224.108C224.093 57.1279 225.784 48.5689 229.085 40.5827C232.385 32.5966 237.23 25.3403 243.342 19.2301C249.453 13.12 256.711 8.27601 264.699 4.97606C272.687 1.67611 281.248 -0.0149307 289.891 -8.62154e-05C326.225 -8.62154e-05 355.674 28.9818 355.674 65.2546C355.674 106.309 306.338 110.984 306.338 146.953H306.362Z" fill="white"/>
<path opacity="0.1" d="M137.781 187.361H129.038V178.728H137.781V187.361ZM137.649 174.377H129.171C129.171 161 141.888 161.779 141.888 153.308C141.884 152.199 141.661 151.103 141.232 150.08C140.804 149.058 140.178 148.13 139.39 147.35C138.603 146.57 137.67 145.952 136.643 145.532C135.617 145.113 134.518 144.9 133.41 144.905C131.171 144.956 129.039 145.873 127.462 147.463C125.885 149.053 124.985 151.191 124.951 153.43H116.473C116.529 148.982 118.331 144.733 121.492 141.601C124.652 138.469 128.917 136.704 133.367 136.687C137.817 136.669 142.095 138.401 145.28 141.508C148.464 144.616 150.3 148.85 150.391 153.298C150.367 163.881 137.649 165.087 137.649 174.357V174.377Z" fill="#6C63FF"/>
<path opacity="0.1" d="M203.981 247.338H195.238V238.73H203.981V247.338ZM203.853 234.359H195.375C195.375 220.978 208.092 221.762 208.092 213.29C208.088 212.182 207.865 211.086 207.436 210.064C207.008 209.042 206.382 208.114 205.594 207.334C204.807 206.554 203.873 205.937 202.847 205.518C201.821 205.099 200.722 204.886 199.614 204.892C197.366 204.932 195.221 205.846 193.634 207.439C192.047 209.032 191.143 211.179 191.111 213.427H182.633C182.689 208.979 184.492 204.73 187.652 201.598C190.812 198.466 195.077 196.701 199.527 196.684C203.977 196.667 208.255 198.398 211.44 201.506C214.625 204.613 216.46 208.847 216.551 213.295C216.566 223.878 203.853 225.089 203.853 234.359Z" fill="#6C63FF"/>
<path opacity="0.1" d="M244.237 141.161H237.9V134.934H244.237V141.161ZM244.143 131.749H237.998C237.998 122.057 247.216 122.621 247.216 116.486C247.212 115.683 247.05 114.889 246.739 114.148C246.428 113.408 245.975 112.736 245.404 112.171C244.833 111.606 244.157 111.159 243.413 110.855C242.67 110.551 241.874 110.397 241.071 110.401C239.444 110.434 237.894 111.097 236.748 112.251C235.601 113.404 234.948 114.958 234.925 116.584H228.779C228.766 113.325 230.049 110.194 232.345 107.881C234.641 105.567 237.762 104.26 241.022 104.247C244.281 104.234 247.413 105.516 249.727 107.811C252.041 110.107 253.349 113.227 253.362 116.486C253.352 124.154 244.143 125.031 244.143 131.749Z" fill="#6C63FF"/>
<path opacity="0.1" d="M352.465 149.951H348.882V146.424H352.465V149.951ZM352.411 144.635H348.917C348.917 139.157 354.126 139.476 354.126 136.007C354.126 135.553 354.036 135.104 353.861 134.685C353.686 134.266 353.43 133.887 353.108 133.568C352.785 133.249 352.402 132.997 351.981 132.827C351.56 132.657 351.11 132.572 350.656 132.577C349.737 132.596 348.862 132.971 348.213 133.622C347.565 134.274 347.195 135.152 347.182 136.07H343.707C343.748 134.26 344.494 132.537 345.786 131.268C347.079 129.999 348.816 129.285 350.628 129.278C352.439 129.271 354.182 129.972 355.484 131.23C356.787 132.489 357.546 134.206 357.601 136.017C357.62 140.323 352.411 140.838 352.411 144.635Z" fill="#6C63FF"/>
<path opacity="0.1" d="M407.236 310.403H403.654V306.875H407.236V310.403ZM407.182 305.087H403.708C403.708 299.604 408.922 299.928 408.922 296.458C408.916 295.543 408.546 294.668 407.894 294.025C407.243 293.382 406.363 293.023 405.447 293.029C404.528 293.046 403.652 293.421 403.003 294.073C402.355 294.725 401.985 295.603 401.973 296.522H398.498C398.539 294.712 399.285 292.988 400.577 291.72C401.87 290.451 403.607 289.737 405.419 289.73C407.23 289.723 408.973 290.423 410.275 291.682C411.578 292.941 412.337 294.658 412.392 296.468C412.411 300.795 407.202 301.29 407.202 305.087H407.182Z" fill="#6C63FF"/>
</g>
<defs>
<linearGradient id="paint0_linear" x1="341.683" y1="407.682" x2="341.683" y2="178.007" gradientUnits="userSpaceOnUse">
<stop stop-color="#808080" stop-opacity="0.25"/>
<stop offset="0.54" stop-color="#808080" stop-opacity="0.12"/>
<stop offset="1" stop-color="#808080" stop-opacity="0.1"/>
</linearGradient>
<clipPath id="clip0">
<rect width="492" height="410" fill="white"/>
</clipPath>
</defs>
</svg>
