<?xml version="1.0" encoding="UTF-8"?>
<svg width="1000px" height="895px" viewBox="0 0 1000 895" version="1.1" xmlns="http://www.w3.org/2000/svg" xmlns:xlink="http://www.w3.org/1999/xlink">
    <!-- Generator: Sketch 47.1 (45422) - http://www.bohemiancoding.com/sketch -->
    <title>Artboard 2 Copy 4</title>
    <desc>Created with Sketch.</desc>
    <defs></defs>
    <g id="Page-1" stroke="none" stroke-width="1" fill="#000000" fill-rule="evenodd">
        <g id="Artboard-2-Copy-4" fill="#000000">
            <g id="Group" transform="translate(500.500000, 447.500000) scale(-1, 1) translate(-500.500000, -447.500000) translate(1.000000, 0.000000)">
                <g id="Rectangle-7">
                    <path d="M196.235826,566.158031 L195.799778,566.156261 L0.837668237,894.906487 L200.740111,894.906487 C274.123036,894.906487 341.513832,854.403294 375.949887,789.601969 L493.697828,568.025412 C581.988272,567.956478 689.848544,567.828371 817.278645,567.641091 C738.196876,463.371925 664.317601,413.979916 595.64082,419.465065 C554.08697,422.828222 512.113384,425.170421 470.139798,425.170421 C433.083118,425.050308 403.521721,403.3099 393.927759,372.380866 C383.494325,338.629183 392.008966,310.162461 418.632212,285.779573 C466.602025,241.758249 555.40614,235.152048 617.227235,275.089538 C643.190896,291.905323 665.976557,313.645731 696.617274,338.388958 L500.840478,0.992239468 L196.235826,566.158031 Z" id="Combined-Shape"></path>
                    <path d="M998.69739,894.906487 L788.477441,894.906487 L788.477441,894.906487 C720.942,894.906487 658.405575,859.313873 623.918484,801.247735 L520.152602,626.536452 L838.752125,626.536452 L998.69739,894.906487 Z" id="Path-4-Copy"></path>
                </g>
            </g>
        </g>
    </g>
</svg>