<svg xmlns="http://www.w3.org/2000/svg" xmlns:xlink="http://www.w3.org/1999/xlink" viewBox="0 0 506.035 269.299">
  <defs>
    <style>
      .cls-1, .cls-3 {
        fill: #6c63ff;
      }

      .cls-1, .cls-2, .cls-7 {
        opacity: 0.1;
      }

      .cls-4 {
        fill: #3f3d56;
      }

      .cls-5 {
        fill: #65617d;
      }

      .cls-6 {
        opacity: 0.2;
      }

      .cls-8 {
        fill: url(#linear-gradient);
      }

      .cls-9 {
        fill: #d4dfec;
      }

      .cls-10 {
        fill: #fbbebe;
      }

      .cls-11 {
        fill: url(#linear-gradient-2);
      }

      .cls-12 {
        fill: #715eff;
      }

      .cls-13 {
        fill: none;
        stroke: #6c63ff;
        stroke-miterlimit: 10;
        stroke-width: 2px;
      }
    </style>
    <linearGradient id="linear-gradient" y1="0.5" x2="1.154" y2="0.5" gradientUnits="objectBoundingBox">
      <stop offset="0" stop-color="#715eff"/>
      <stop offset="0.473" stop-color="#ff6c56"/>
      <stop offset="1" stop-color="#ffdb2e"/>
    </linearGradient>
    <linearGradient id="linear-gradient-2" x1="0.5" y1="1" x2="0.5" y2="-0.001" gradientUnits="objectBoundingBox">
      <stop offset="0" stop-color="gray" stop-opacity="0.251"/>
      <stop offset="0.54" stop-color="gray" stop-opacity="0.122"/>
      <stop offset="1" stop-color="gray" stop-opacity="0.102"/>
    </linearGradient>
  </defs>
  <g id="SVG1" transform="translate(-0.011 -0.035)">
    <path id="Path_3" data-name="Path 3" class="cls-1" d="M546.6,385.887q-.846,1.822-1.686,3.6-1.312,2.755-2.59,5.4c-.379.782-.758,1.55-1.127,2.318-4.179,8.539-8.082,16.091-11.4,22.3a35.578,35.578,0,0,1-31.01,18.807l-73.7.8h-.777l-6.318.068-5.4.058-16.572.18h-.671l-8.436.092h-.258l-52,.564-46.416.486-5.4.058-33.532.365h-.039l-21.747.233h-.233l-68.766.744-20.571.224a42.8,42.8,0,0,1-12.961-1.856A41.983,41.983,0,0,1,106,428.3a97.167,97.167,0,0,1-19.6-33.416q-.938-2.668-1.75-5.4c-14.973-50.614,3.28-115.915,36.132-159.614q2.065-2.741,4.2-5.346l.034-.039c10.1-12.4,21.431-22.763,33.5-30.13,21.383-13.078,45.074-16.761,68.377-5.783a152.955,152.955,0,0,0,55.97,14.847c1.8.117,3.606.2,5.4.258,40.934,1.288,79.3-13.462,124.347-22.982,1.793-.379,3.591-.753,5.4-1.108,32.138-6.4,67.789-9.768,110.185-2.678a91.887,91.887,0,0,1,13,3.11q2.8.9,5.4,1.944c20.236,8.232,31.272,23.443,35.962,42.5q.666,2.653,1.152,5.4C592.03,275.712,567.678,340.745,546.6,385.887Z" transform="translate(-79.34 -172.91)"/>
    <g id="Group_2" data-name="Group 2" class="cls-2" transform="translate(5.308 6.661)">
      <path id="Path_4" data-name="Path 4" class="cls-3" d="M206.772,217V464.663l-20.571.224a42.8,42.8,0,0,1-12.961-1.856V247.13h.034C183.377,234.714,194.706,224.353,206.772,217Z" transform="translate(-132.909 -202.217)"/>
      <path id="Path_5" data-name="Path 5" class="cls-3" d="M627.56,284.385H164.6q2.065-2.741,4.2-5.346V279H626.408Q627.074,281.639,627.56,284.385Z" transform="translate(-128.468 -234.086)"/>
      <path id="Path_6" data-name="Path 6" class="cls-3" d="M1035.1,189.433V396.945h-1.686q-1.312,2.755-2.59,5.4c-.379.782-.758,1.55-1.128,2.318V187.47Q1032.5,188.374,1035.1,189.433Z" transform="translate(-573.15 -187.037)"/>
      <path id="Path_7" data-name="Path 7" class="cls-3" d="M770.494,186.58V446.212l-5.4.058V187.688C766.883,187.309,768.681,186.935,770.494,186.58Z" transform="translate(-437.134 -186.58)"/>
      <path id="Path_8" data-name="Path 8" class="cls-3" d="M503.509,235.878V472.829l-5.4.058V235.62C499.913,235.737,501.716,235.8,503.509,235.878Z" transform="translate(-299.9 -211.788)"/>
      <path id="Path_9" data-name="Path 9" class="cls-3" d="M550.517,618.52q-1.312,2.755-2.59,5.4H92q-.938-2.668-1.75-5.4Z" transform="translate(-90.25 -408.608)"/>
    </g>
    <rect id="Rectangle_11" data-name="Rectangle 11" class="cls-4" width="9.234" height="28.021" transform="translate(102.838 129.205)"/>
    <rect id="Rectangle_12" data-name="Rectangle 12" class="cls-4" width="9.234" height="29.645" transform="translate(351.332 127.747)"/>
    <path id="Path_10" data-name="Path 10" class="cls-5" d="M473.983,519v6.318l-73.829.68-.787.015-28.06.258-.671.01-8.529.073h-.253l-51.99.481-85.342.792h-.073l-21.7.2-.233,0-96.418.885v-7.29l22.671-13.607,45.487-.379.972,0,.321,0,.972-.015,21.84-.18.977,0,.311,0,.972,0,7-.058.185,0,17.276-.146h.141l134.81-1.137,3.3-.024h.33l2.517-.024,18.3-.151.972-.015.9-.01h.466l5.691-.044,1.127-.015,1.511-.01,4.738-.044,7.518-.063.972-.01,1.691-.01h.316l36.307-.311Z" transform="translate(-54.532 -259.642)"/>
    <path id="Path_11" data-name="Path 11" class="cls-6" d="M473.983,519v6.318l-73.829.68-.787.015-28.06.258-.671.01-8.529.073h-.253l-51.99.481-85.342.792h-.073l-21.7.2-.233,0-96.418.885v-7.29l22.671-13.607,45.487-.379.972,0,.321,0,.972-.015,21.84-.18.977,0,.311,0,.972,0,7-.058.185,0,17.276-.146h.141l134.81-1.137,3.3-.024h.33l2.517-.024,18.3-.151.972-.015.9-.01h.466l5.691-.044,1.127-.015,1.511-.01,4.738-.044,7.518-.063.972-.01,1.691-.01h.316l36.307-.311Z" transform="translate(-54.532 -259.642)"/>
    <path id="Path_12" data-name="Path 12" class="cls-4" d="M351.193,656.57v11.9a2.979,2.979,0,0,1-1.7,2.692,2.916,2.916,0,0,1-1.215.292l-16.961.36a2.915,2.915,0,0,1-1.312-.277,2.974,2.974,0,0,1-1.735-2.707V656.57Z" transform="translate(-207.291 -421.505)"/>
    <path id="Path_13" data-name="Path 13" class="cls-7" d="M351.193,656.57v11.9a2.979,2.979,0,0,1-1.7,2.692,2.916,2.916,0,0,1-1.215.292l-16.961.36a2.915,2.915,0,0,1-1.312-.277,2.974,2.974,0,0,1-1.735-2.707V656.57Z" transform="translate(-207.291 -421.505)"/>
    <path id="Path_14" data-name="Path 14" class="cls-4" d="M353.193,656.57v11.9a2.979,2.979,0,0,1-1.7,2.692,2.916,2.916,0,0,1-1.215.292l-16.961.36a2.916,2.916,0,0,1-1.312-.277,2.974,2.974,0,0,1-1.735-2.707V656.57Z" transform="translate(-208.319 -421.505)"/>
    <rect id="Rectangle_13" data-name="Rectangle 13" class="cls-4" width="22.923" height="15.308" transform="translate(330.921 235.065)"/>
    <rect id="Rectangle_14" data-name="Rectangle 14" class="cls-7" width="22.923" height="15.308" transform="translate(330.921 235.065)"/>
    <rect id="Rectangle_15" data-name="Rectangle 15" class="cls-4" width="22.923" height="15.308" transform="translate(329.949 235.065)"/>
    <path id="Path_15" data-name="Path 15" class="cls-7" d="M220.834,265.82V268.6l-9.234-.238V265.82Z" transform="translate(-108.762 -136.62)"/>
    <path id="Path_16" data-name="Path 16" class="cls-5" d="M323.113,268.412l-11.095,79.7a2.09,2.09,0,0,1-2.124,1.8l-88.836-2.3-1.686-.044a2.09,2.09,0,0,1-2.022-2.367l12.456-83.432A2.09,2.09,0,0,1,232.012,260l89.157,6.036a2.085,2.085,0,0,1,1.944,2.372Z" transform="translate(-150.266 -217.658)"/>
    <rect id="Rectangle_16" data-name="Rectangle 16" class="cls-5" width="99.465" height="84.234" rx="5.33" transform="translate(186.912 47.07)"/>
    <path id="Path_18" data-name="Path 18" class="cls-7" d="M732.164,262.82v1.842l-9.233.19V262.82Z" transform="translate(-371.598 -135.078)"/>
    <path id="Path_19" data-name="Path 19" class="cls-5" d="M799.346,342.25a1.5,1.5,0,0,1-1.458,1.594l-90.975,1.881a1.5,1.5,0,0,1-1.521-1.356l-7.819-81.294a1.5,1.5,0,0,1,1.419-1.638l90.285-4.49.972-.049a1.492,1.492,0,0,1,1.565,1.361Z" transform="translate(-397.118 -216.063)"/>
    <path id="Union_6" data-name="Union 6" class="cls-8" d="M-731.42-237.261l9.393-73.543,82.291,5.18-10.04,70.952Zm115.5,2.132v-70.141h90.391v70.141Zm114.043-72.731,82.455-4.053,6.964,73.868-81.8,1.943Z" transform="translate(807.53 359.011)"/>
    <path id="Path_21" data-name="Path 21" class="cls-7" d="M896.349,342.25a1.5,1.5,0,0,1-1.458,1.594l-8.611-86.9.972-.049a1.492,1.492,0,0,1,1.565,1.361Z" transform="translate(-494.121 -216.063)"/>
    <path id="Path_22" data-name="Path 22" class="cls-7" d="M232.027,259.994l-10.968,87.612-1.686-.044a2.09,2.09,0,0,1-2.022-2.367l12.456-83.432A2.09,2.09,0,0,1,232.027,259.994Z" transform="translate(-150.266 -217.652)"/>
    <rect id="Rectangle_18" data-name="Rectangle 18" class="cls-7" width="9.234" height="8.3" transform="translate(102.838 148.926)"/>
    <path id="Path_23" data-name="Path 23" class="cls-7" d="M273.853,483.65v2.415l-22.923.612V483.65Z" transform="translate(-128.979 -248.59)"/>
    <path id="Path_24" data-name="Path 24" class="cls-5" d="M358.142,483.24v81.741a1.944,1.944,0,0,1-1.871,1.92l-93.137,2.478h-.024a1.944,1.944,0,0,1-1.92-1.92V483.24a1.944,1.944,0,0,1,1.92-1.92h93.113A1.944,1.944,0,0,1,358.142,483.24Z" transform="translate(-172.81 -331.422)"/>
    <path id="Path_25" data-name="Path 25" class="cls-7" d="M263.134,481.32v88.059h-.024a1.944,1.944,0,0,1-1.92-1.92V483.24a1.944,1.944,0,0,1,1.92-1.92Z" transform="translate(-172.81 -331.422)"/>
    <path id="Path_26" data-name="Path 26" class="cls-9" d="M194.6,319.15h86.261V391.2L194.6,393.14Z" transform="translate(-100.024 -164.033)"/>
    <rect id="Rectangle_19" data-name="Rectangle 19" class="cls-7" width="9.234" height="8.466" transform="translate(351.332 148.926)"/>
    <path id="Path_27" data-name="Path 27" class="cls-7" d="M701.853,483.65v3.115l-22.924-.612v-2.5Z" transform="translate(-348.981 -248.59)"/>
    <path id="Path_28" data-name="Path 28" class="cls-5" d="M765.122,483.24v84.219a1.944,1.944,0,0,1-1.944,1.92h0L670.021,566.9a1.944,1.944,0,0,1-1.871-1.92V483.24a1.944,1.944,0,0,1,1.92-1.92h93.113A1.944,1.944,0,0,1,765.122,483.24Z" transform="translate(-381.997 -331.422)"/>
    <path id="Path_29" data-name="Path 29" class="cls-7" d="M865.634,483.24v84.22a1.944,1.944,0,0,1-1.944,1.92h0V481.32h0a1.944,1.944,0,0,1,1.944,1.92Z" transform="translate(-482.51 -331.422)"/>
    <path id="Path_30" data-name="Path 30" class="cls-9" d="M684.361,319.15H598.1V391.2l86.261,1.944Z" transform="translate(-307.432 -164.033)"/>
    <path id="Path_31" data-name="Path 31" class="cls-5" d="M560.642,483.24v81.741a1.944,1.944,0,0,1-1.871,1.92l-93.137,2.478h0a1.944,1.944,0,0,1-1.944-1.92V483.24a1.944,1.944,0,0,1,1.92-1.92h93.113A1.944,1.944,0,0,1,560.642,483.24Z" transform="translate(-276.9 -331.422)"/>
    <path id="Path_32" data-name="Path 32" class="cls-9" d="M397.1,319.15h86.261V391.2L397.1,393.14Z" transform="translate(-204.114 -164.033)"/>
    <path id="Path_33" data-name="Path 33" class="cls-7" d="M473.983,533.65v6.318l-73.829.68-.787.015-28.06.257-.671.01-8.529.073h-.253l-51.99.481-85.342.792h-.073l-21.7.2-.233,0-96.418.885v-7.29l98.415-.646h.233l19.92-.136h.092l137.57-.909h.141l.083,0h.228l2.328-.015h.71l36.2-.243,2.138-.01.476,0Z" transform="translate(-54.532 -274.291)"/>
    <circle id="Ellipse_1" data-name="Ellipse 1" class="cls-10" cx="24.945" cy="24.945" r="24.945" transform="translate(211.857 107.336)"/>
    <path id="Path_34" data-name="Path 34" class="cls-11" d="M383.74,531.248a.6.6,0,0,1,.049-.17c.486-1.745,1.351-4.695,2-7.052.083-.292.16-.578.233-.85.714-2.658,2.1-8.884,2.877-12.767.272-1.366.486-2.43.53-2.964a80.88,80.88,0,0,1,3.217-8.373c1.161-2.838,2.43-5.939,3.358-8.553a29.827,29.827,0,0,0,1.424-4.787,2.477,2.477,0,0,0,0-1.035,7.14,7.14,0,0,1-.233-1.7h0c-.112-3.013.787-7.776,2.177-9.773,1.7-2.43,2.916-11.5,2.916-11.5s2.517.364,2.916-1.716a2.992,2.992,0,0,0,.049-.68,3.6,3.6,0,0,0-.044-.539c-.433-3.032,7.154-6.259,11.42-6.954a9.547,9.547,0,0,1,1.458-.136,13.242,13.242,0,0,0,3.037-.7q.68-.209,1.458-.486c1.788-.6,3.927-1.4,6.2-2.274,8.534-3.31,18.866-7.776,18.866-7.776.073-.345.156-.675.248-1a13.466,13.466,0,0,1,7.946-9.2h0v-.972c0-1.677-.073-3.4-.146-5.122,0-.335-.029-.671-.049-1.006v-.549c0-.34-.034-.68-.053-1.016l-.087-.068a7.978,7.978,0,0,1-1.9-2.041,7.423,7.423,0,0,1-.69-1.458,44.556,44.556,0,0,1-1.157-5.224l-.087-.36a40.821,40.821,0,0,0-1.944-5.142c-1.074-2.634-1.9-5.346-2.721-8.092q-.748-2.493-1.511-5l-.768-2.547c-.146-.486-.292-.972-.4-1.458h0a6.425,6.425,0,0,1-.126-.68,4.861,4.861,0,0,1,.117-2.24,15.616,15.616,0,0,1,.641-1.458,3.827,3.827,0,0,0,.243-.671h0a1.463,1.463,0,0,0,.039-.156,2.753,2.753,0,0,0,.053-.525,8.976,8.976,0,0,0-.253-1.89.034.034,0,0,1,0-.024,1.224,1.224,0,0,0-.024-.131,12.4,12.4,0,0,1-.175-1.458,13.826,13.826,0,0,1,1.686-7.567l.092-.175a12.262,12.262,0,0,1,.894-1.351h0a6.822,6.822,0,0,1,.486-.593,1.941,1.941,0,0,1-2.7-.7,1.848,1.848,0,0,1-.112-.219c-.024-.058-.044-.122-.063-.185a3.971,3.971,0,0,1,1.03-3.426,8.985,8.985,0,0,1,2.79-2.284h0a1.862,1.862,0,0,1,.194-.1,8.317,8.317,0,0,1,1.283-.515h0a7.31,7.31,0,0,1,.792-.214l-1.8-.165-.729-.068a7.042,7.042,0,0,1,6.318-5.3h.525a5.7,5.7,0,0,1,.763.063,2.158,2.158,0,0,1-1.288-2.1,7,7,0,0,0,4.466,1.487h.185a14.575,14.575,0,0,1-.165-1.589h0a16.114,16.114,0,0,1,0-2.167,4.1,4.1,0,0,0,3.295,1.1l-1.011-1.409a4.612,4.612,0,0,0,3.188,1l.233-.024a3.4,3.4,0,0,0,.578-.112h.044c-.092-.117-.175-.238-.258-.365l-.029-.058a4.7,4.7,0,0,1-.486-1.016,3.206,3.206,0,0,1-.117-.423h0a4.253,4.253,0,0,1,.219-2.649c1.57,1.312,3.29,3.105,5.346,1.75s2.124-3.844,5.346-3.591a4.957,4.957,0,0,1,4.087,2.974,3.28,3.28,0,0,1,3.727-.85,3.329,3.329,0,0,1,1.886,3.348,6.716,6.716,0,0,1,4.058-.16c1.283.505,2.109,2.143,1.38,3.237a.689.689,0,0,1-.068.1c-.6.773-1.92,1.2-1.779,2.167l.2.146.632.457q3.718,2.682,7.241,5.637c1.205,1.011,2.488,2.226,2.571,3.805a4.2,4.2,0,0,1-.117,1.152h0c-.078.379-.185.758-.267,1.137a9.481,9.481,0,0,0-.165,2.94h0c.034.287.078.569.131.855.744,3.757,3.747,6.857,4.043,10.691v.272a8.641,8.641,0,0,1-.034,1.23c-.224,2.333-1.3,4.573-2.177,6.8-.053.136-.107.272-.156.408a67.7,67.7,0,0,0-3.4,13.685,48.711,48.711,0,0,1-.972,4.9,12.991,12.991,0,0,1-2.474,5.069,7.883,7.883,0,0,1-1.633,1.458,9.073,9.073,0,0,1-1.288.685v.029c.053.3.1.593.151.889.029.156.053.311.083.486h0a.065.065,0,0,0,0,.029c.408,2.3.875,4.549,1.366,6.687l.248,1.064c6.123,2.211,6.847,6.74,6.891,8.475a4.683,4.683,0,0,1,0,.695s9.234.243,12.878,2.916a9.882,9.882,0,0,0,2.192,1.118,40.323,40.323,0,0,0,4.5,1.4c.782.2,1.6.4,2.43.6,1.458.335,3,.661,4.5.972,3.98.8,7.727,1.458,9.627,1.944,4.534,1.147,14.9,11.09,14.9,11.09s1.215,10.031,2.43,11.493,3.4,6.6,3.4,6.6l8.038,14.292,3.4,6.012h2.187a3.718,3.718,0,0,1,1.56,1.021c.578.515,1.22,1.157,1.784,1.74l.933,1,.583.646s3.533.088,4.49,2.882c2.877-.083,6.41.107,8.884,1.215a6.882,6.882,0,0,1,.972.525,4.219,4.219,0,0,1,2.007,2.751,4.073,4.073,0,0,1,.087.7v.826c-.175,3.679-2.571,6.74-4.772,8.8l.155.277s-.073.175-.214.486c-.039.092-.087.194-.141.311h0c-.287.612-.744,1.531-1.341,2.6a30.769,30.769,0,0,1-4.651,6.4l-.141.146-28.06.258-.082-.1-5.443-6.493-2.707-3.227-.083-.1-.078.773-.262,2.576-.632,6.225-.034.311v.083l-.073.719.053-.719h-.141l-52,.486-85.347.943v.408h-.068v-.408l-21.747.233Z" transform="translate(-235.804 -262.884)"/>
    <path id="Path_35" data-name="Path 35" class="cls-10" d="M571.349,493.513s-48.354,5.832-43.738,0c1.672-2.109,2.133-8.359,2.041-15.478-.029-2.163-.107-4.4-.219-6.634-.535-10.691-1.822-21.14-1.822-21.14s42.28-19.925,37.42-4.131c-1.944,6.381-1.307,15.342.17,23.754.432,2.454.933,4.86,1.458,7.144a167.567,167.567,0,0,0,4.69,16.484Z" transform="translate(-309.597 -310.204)"/>
    <path id="Path_36" data-name="Path 36" class="cls-7" d="M571.349,531.413s-48.354,5.832-43.738,0c1.672-2.109,2.133-8.359,2.041-15.478,7.372-3.149,16.752-.8,16.752-.8,9.875-1.968,16.207-1.584,20.255-.2a167.565,167.565,0,0,0,4.69,16.484Z" transform="translate(-309.597 -348.105)"/>
    <path id="Path_37" data-name="Path 37" class="cls-12" d="M406,617.649v-.408l85.347-.928,52-.486h.146l-.054.719.073-.719h.092v-.083l.666-6.536.253-2.474.078-.773.068-.646,3-10.016,3-10,2.527-8.422,3.859-12.869s-2.187-5.1-3.4-6.561-2.43-11.42-2.43-11.42-10.371-9.88-14.9-11.017c-1.9-.486-5.652-1.132-9.637-1.944-1.492-.3-3.023-.622-4.5-.972-.831-.19-1.647-.389-2.43-.588a42.712,42.712,0,0,1-4.5-1.39A10.053,10.053,0,0,1,513.075,529c-3.572-2.619-12.524-2.916-12.869-2.916h0a.212.212,0,0,1,0-.034v-.044a5,5,0,0,0,0-.612,3.9,3.9,0,0,0-.044-.68.614.614,0,0,0-.034-.243c-.024-.175-.054-.36-.1-.554a2.4,2.4,0,0,0-.058-.258,8.359,8.359,0,0,0-.607-1.7c-.034-.078-.078-.16-.117-.238a8.866,8.866,0,0,0-.826-1.278c-.063-.083-.131-.17-.2-.253a9.506,9.506,0,0,0-1.322-1.283c-.131-.1-.267-.209-.408-.306a2.272,2.272,0,0,0-.248-.175l-.433-.282-.4-.233c-.355-.194-.729-.384-1.137-.564-.126-.058-.262-.112-.4-.165s-.35-.136-.53-.2h-.029l-.365-.146c-.277-.092-.559-.175-.855-.258l-.452-.117-.486-.112-.486-.1c-.486-.1-1.006-.185-1.55-.253l-.554-.068-.569-.058-.588-.049-.836-.049-.972-.034A60.6,60.6,0,0,0,472.84,517.1a35.119,35.119,0,0,0-8.868-.818h-.423l-.486.029h-.311l-.627.058a4.66,4.66,0,0,0-.632.073c-.209.029-.428.054-.637.088l-.321.053c-.316.054-.637.112-.972.18q-.16.029-.321.073c-.423.092-.846.2-1.263.331-.209.058-.418.126-.627.2-.107.029-.209.068-.311.107l-.311.112-.306.122-.365.146c-.185.078-.364.16-.544.248-.1.044-.2.092-.3.146s-.2.1-.292.151a13.481,13.481,0,0,0-3.018,2.129l-.248.238-.243.248c-.083.083-.16.17-.238.258a11.579,11.579,0,0,0-.885,1.093c-.078.1-.151.2-.224.311a12.988,12.988,0,0,0-.836,1.419c-.063.117-.121.238-.18.355a15.9,15.9,0,0,0-.972,2.551q-.136.486-.248.972s-10.288,4.539-18.822,7.824c-2.27.875-4.408,1.667-6.2,2.265-.52.175-1.006.335-1.458.486a12.98,12.98,0,0,1-3.037.7,9.554,9.554,0,0,0-1.458.136c-3.922.637-10.643,3.4-11.377,6.177a1.792,1.792,0,0,0-.049.68v.053c.486,3.4-2.916,2.916-2.916,2.916s-1.215,8.991-2.916,11.42c-1.23,1.75-2.07,5.652-2.177,8.6h0a9.531,9.531,0,0,0,.214,2.736v.068c.194.651-.272,2.43-1.064,4.709-.86,2.5-2.114,5.613-3.319,8.548-1.818,4.432-3.528,8.456-3.635,9.34-.044.394-.17,1.1-.345,2.007-.71,3.7-2.284,10.755-3.062,13.607-.578,2.129-1.419,5.044-2,7.047a.681.681,0,0,1-.049.17l21.786-.214v.408h.068Z" transform="translate(-236.025 -349.115)"/>
    <path id="Path_38" data-name="Path 38" class="cls-7" d="M445.44,607.57s27.7,14.336,37.663,12.635Z" transform="translate(-267.519 -396.318)"/>
    <path id="Path_39" data-name="Path 39" class="cls-7" d="M561.44,595.57s26.972,8.748,35.962,9.962S561.44,595.57,561.44,595.57Z" transform="translate(-327.146 -390.15)"/>
    <path id="Path_40" data-name="Path 40" class="cls-7" d="M567.9,527.433c-14.093,2.6-40.628,2.036-52.1,1.643,4.2-15.065,24.7-9.943,24.7-9.943C565.875,514.068,567.819,524.575,567.9,527.433Z" transform="translate(-303.686 -350.16)"/>
    <path id="Path_41" data-name="Path 41" class="cls-3" d="M567.9,525.433c-14.093,2.6-40.628,2.036-52.1,1.643,4.2-15.065,24.7-9.943,24.7-9.943C565.875,512.068,567.819,522.575,567.9,525.433Z" transform="translate(-303.686 -349.132)"/>
    <path id="Path_42" data-name="Path 42" class="cls-10" d="M776.94,671.862s16.6-2.551,16.927,4.738-8.466,12.383-8.466,12.383Z" transform="translate(-437.918 -429.144)"/>
    <path id="Path_43" data-name="Path 43" class="cls-7" d="M565.5,469.885a22.85,22.85,0,0,1-2.187.846c-5.239,1.808-10.521,3.63-16.037,4.291s-11.3.078-16.115-2.673a13.971,13.971,0,0,1-1.458-.948c-.535-10.691-1.822-21.14-1.822-21.14s42.28-19.925,37.42-4.131C563.366,452.511,564.022,461.473,565.5,469.885Z" transform="translate(-309.895 -310.204)"/>
    <path id="Path_44" data-name="Path 44" class="cls-4" d="M529.6,358.164a4.6,4.6,0,0,1-4.043-.85l1.011,1.4a4.116,4.116,0,0,1-3.295-1.093,16.561,16.561,0,0,0,.156,3.766,7.056,7.056,0,0,1-4.646-1.458,2.148,2.148,0,0,0,1.283,2.095,6.969,6.969,0,0,0-7.581,5.2l2.537.233a8.975,8.975,0,0,0-5.074,3.1,3.931,3.931,0,0,0-1.03,3.4c.34,1.186,1.983,1.944,2.877,1.1a13.578,13.578,0,0,0-2.965,11.075,7.031,7.031,0,0,1,.224,2.556,21.692,21.692,0,0,1-.918,2.279,7.2,7.2,0,0,0,.408,4.374l2.279,7.494c.826,2.707,1.647,5.419,2.726,8.038a39.893,39.893,0,0,1,1.944,5.108c.612,2.352.637,4.928,1.944,6.983a9.687,9.687,0,0,0,3.489,3.076c4.806,2.751,10.614,3.334,16.115,2.673s10.779-2.483,16.013-4.291a15.071,15.071,0,0,0,3.324-1.458c3.62-2.372,4.427-7.222,5.1-11.493a65.264,65.264,0,0,1,3.543-14c1.059-2.668,2.43-5.375,2.2-8.232-.3-3.8-3.3-6.872-4.043-10.6a9.235,9.235,0,0,1,.034-3.776,8.579,8.579,0,0,0,.384-2.284c-.083-1.565-1.366-2.77-2.571-3.776q-3.922-3.276-8.1-6.191c-.141-.972,1.181-1.39,1.779-2.158.846-1.084-.029-2.8-1.312-3.31a6.717,6.717,0,0,0-4.058.16,3.2,3.2,0,0,0-5.613-2.483,4.957,4.957,0,0,0-4.092-2.955c-3.222-.253-3.285,2.211-5.346,3.567s-3.761-.433-5.346-1.735A4.51,4.51,0,0,0,529.6,358.164Z" transform="translate(-299.636 -264.873)"/>
    <path id="Path_45" data-name="Path 45" class="cls-3" d="M752.24,653.621s-.433,1.03-1.229,2.522a33.534,33.534,0,0,1-4.374,6.4l-.131.141h-.787l-28.06.258h-.671l-.083-.1-5.443-6.459-2.051-2.435-.083-.1-.175-.2-.1-.117-.126-.151-3.99-4.733,1.458-6.075,2.483-10.235.063-.248.486-1.944.345-1.458,1.157-4.753L714.9,607.58l7.047,3.645,7.431,13.121,3.99,7.047h2.187c.413,0,1.361.8,2.313,1.715.34.326.68.671.972.972.865.894,1.55,1.662,1.55,1.662s3.543.078,4.5,2.867a3.407,3.407,0,0,1,.122.413,19.578,19.578,0,0,0,1.229,3.188c.627,1.366,1.414,2.916,2.211,4.466,1.482,2.843,2.989,5.55,3.543,6.532l.068.121Z" transform="translate(-400.908 -396.323)"/>
    <path id="Path_46" data-name="Path 46" class="cls-7" d="M568.639,651.188l-.049.695v.049l-.083,1.118-.646,9-.782,10.837-.223,3.052-.486,6.531v.083l-52,.486-85.332.923v.408h-.068v-.544l.219-6.979.418-13.636.36-11.561.034-1.152a5.117,5.117,0,0,1,5.55-4.942c2.294.194,5.273.433,8.835.685l1.458.107c20.571,1.429,58.589,3.276,96.952.972.807-.044,1.618-.092,2.43-.151,5.948-.374,11.892-.855,17.777-1.458a5.117,5.117,0,0,1,5.637,5.458Z" transform="translate(-259.053 -415.831)"/>
    <path id="Path_47" data-name="Path 47" class="cls-4" d="M429.08,686.437v-.408l85.347-.928,52-.486h.146v-.083l.486-6.532.209-2.916.8-10.988.627-8.7v-.214a5.162,5.162,0,0,0-.054-1.2.144.144,0,0,0,0-.049,5.049,5.049,0,0,0-.972-2.255,5.122,5.122,0,0,0-4.578-1.944c-5.885.6-11.829,1.084-17.777,1.458-.812.058-1.623.107-2.43.151-38.363,2.279-76.381.433-96.952-.972l-1.458-.107c-3.562-.253-6.541-.486-8.835-.685a5.122,5.122,0,0,0-5.462,4.145,5.355,5.355,0,0,0-.088.8l-.33,10.769-.452,13.641-.214,6.979v.544Z" transform="translate(-259.109 -417.903)"/>
    <path id="Path_48" data-name="Path 48" class="cls-7" d="M568.857,660.53l-.6,7.45-.889,11.1-.224,2.78-.486,6.225-.029.311v.083h0l-.073.719.053-.719h-.141l-52,.486-85.362.923v-.136l.238-6.979.486-13.636.311-9.063a3.091,3.091,0,0,1,1.487-2.551,3.037,3.037,0,0,1,1.837-.437c1.021.083,2.274.18,3.737.287,2.376.175,5.307.379,8.718.593,6.318.4,14.244.826,23.327,1.176,25.271.972,59.386,1.3,91.791-1.54,1.458-.126,2.964-.267,4.437-.408a3.043,3.043,0,0,1,1.691.321,2.5,2.5,0,0,1,.418.262,2.986,2.986,0,0,1,.972,1.2,1.745,1.745,0,0,1,.121.3A3.052,3.052,0,0,1,568.857,660.53Z" transform="translate(-259.125 -421.767)"/>
    <path id="Path_49" data-name="Path 49" class="cls-7" d="M353.193,677.87v1.55a2.979,2.979,0,0,1-1.7,2.692L332,682.487a2.974,2.974,0,0,1-1.735-2.707v-1.458Z" transform="translate(-208.319 -432.454)"/>
    <path id="Path_50" data-name="Path 50" class="cls-4" d="M271.742,511.113l-25.392.486v-4.213l25.392-.486Z" transform="translate(-126.624 -260.541)"/>
    <path id="Path_51" data-name="Path 51" class="cls-7" d="M271.742,511.113l-25.392.486v-4.213l25.392-.486Z" transform="translate(-126.624 -260.541)"/>
    <path id="Path_52" data-name="Path 52" class="cls-4" d="M273.742,511.113l-25.392.486v-4.213l25.392-.486Z" transform="translate(-127.652 -260.541)"/>
    <g id="Group_3" data-name="Group 3" class="cls-2" transform="translate(208.481 89.588)">
      <path id="Path_53" data-name="Path 53" d="M551.9,359.329a4.739,4.739,0,0,1-.919-2.109,4.612,4.612,0,0,0,.2,2.235A4.371,4.371,0,0,0,551.9,359.329Z" transform="translate(-530.223 -357.22)"/>
      <path id="Path_54" data-name="Path 54" d="M540.04,366.3a17.075,17.075,0,0,1-.18-1.8v1.8Z" transform="translate(-524.534 -360.962)"/>
      <path id="Path_55" data-name="Path 55" d="M621.695,397.252a8.915,8.915,0,0,1,.175-1.288,8.741,8.741,0,0,0,.389-2.279,3,3,0,0,0-.078-.515c-.083.447-.214.894-.311,1.336A9.3,9.3,0,0,0,621.695,397.252Z" transform="translate(-566.582 -375.699)"/>
      <path id="Path_56" data-name="Path 56" d="M600.919,368.064l.53.384a9.577,9.577,0,0,0,1.249-1.079,1.783,1.783,0,0,0,.185-1.769,1.46,1.46,0,0,1-.185.311C602.1,366.679,600.778,367.1,600.919,368.064Z" transform="translate(-555.915 -361.528)"/>
      <path id="Path_57" data-name="Path 57" d="M518.313,380.29a5.987,5.987,0,0,0-.423,1.108,8.826,8.826,0,0,1,2.43-.918Z" transform="translate(-513.241 -369.078)"/>
      <path id="Path_58" data-name="Path 58" d="M531.579,368.778a7.2,7.2,0,0,1-.914-.6,2.064,2.064,0,0,0,.044.573A5.759,5.759,0,0,1,531.579,368.778Z" transform="translate(-519.806 -362.854)"/>
      <path id="Path_59" data-name="Path 59" d="M567.611,428.33c-.2,2.357-1.3,4.626-2.187,6.862a65.229,65.229,0,0,0-3.543,14c-.675,4.272-1.458,9.122-5.1,11.488a14.581,14.581,0,0,1-3.319,1.458c-5.239,1.813-10.521,3.63-16.037,4.291s-11.3.083-16.115-2.668a9.72,9.72,0,0,1-3.489-3.076c-1.3-2.056-1.322-4.631-1.944-6.983a39.951,39.951,0,0,0-1.944-5.113c-1.074-2.615-1.9-5.346-2.721-8.033q-1.142-3.747-2.279-7.5a14.008,14.008,0,0,1-.554-2.308,8.711,8.711,0,0,0,.554,3.766q1.137,3.757,2.279,7.5c.821,2.707,1.647,5.419,2.721,8.033a39.955,39.955,0,0,1,1.944,5.112c.612,2.352.637,4.928,1.944,6.983a9.721,9.721,0,0,0,3.489,3.076c4.811,2.751,10.614,3.329,16.115,2.668S548.2,465.41,553.46,463.6a14.577,14.577,0,0,0,3.319-1.458c3.62-2.367,4.427-7.217,5.1-11.488a65.23,65.23,0,0,1,3.543-14c1.059-2.663,2.43-5.37,2.2-8.232C567.621,428.388,567.611,428.359,567.611,428.33Z" transform="translate(-508.324 -393.772)"/>
      <path id="Path_60" data-name="Path 60" d="M510.172,420v-.053a6.8,6.8,0,0,0-.224-2.551,12.956,12.956,0,0,1-.19-1.613,13.3,13.3,0,0,0,.19,3.071C510.026,419.23,510.114,419.614,510.172,420Z" transform="translate(-509.052 -387.321)"/>
      <path id="Path_61" data-name="Path 61" d="M511.878,396.962a13.491,13.491,0,0,1,1.268-1.784c-.889.85-2.532.092-2.877-1.089a2.833,2.833,0,0,0,0,1.458,2.133,2.133,0,0,0,1.609,1.414Z" transform="translate(-509.275 -376.172)"/>
    </g>
    <path id="Path_62" data-name="Path 62" class="cls-7" d="M762.716,656.57s1.541,5.589,0,10.448S762.716,656.57,762.716,656.57Z" transform="translate(-430.254 -421.505)"/>
    <path id="Path_63" data-name="Path 63" class="cls-7" d="M775.565,668.3s.646,7.1-.812,8.354S775.565,668.3,775.565,668.3Z" transform="translate(-436.543 -427.535)"/>
    <line id="Line_1" data-name="Line 1" class="cls-13" y1="0.486" x2="49.38" transform="translate(96.71 166.154)"/>
    <line id="Line_2" data-name="Line 2" class="cls-13" y1="0.481" x2="49.38" transform="translate(96.71 172.219)"/>
    <line id="Line_3" data-name="Line 3" class="cls-13" y1="0.486" x2="49.38" transform="translate(96.71 178.279)"/>
  </g>
</svg>
