<svg xmlns="http://www.w3.org/2000/svg" xmlns:xlink="http://www.w3.org/1999/xlink" viewBox="0 0 363.711 425.17">
  <defs>
    <style>
      .cls-1, .cls-4 {
        fill: #6c63ff;
      }

      .cls-1, .cls-7 {
        opacity: 0.1;
      }

      .cls-2 {
        fill: #ffdb2e;
      }

      .cls-3 {
        fill: #ff6c56;
      }

      .cls-5 {
        fill: url(#linear-gradient);
      }

      .cls-6 {
        fill: #4c4981;
      }

      .cls-8 {
        fill: #ae6e79;
      }

      .cls-9 {
        fill: #444053;
      }

      .cls-10 {
        fill: #fff;
      }

      .cls-11 {
        fill: url(#linear-gradient-2);
      }
    </style>
    <linearGradient id="linear-gradient" x1="0.5" y1="1" x2="0.5" gradientUnits="objectBoundingBox">
      <stop offset="0" stop-color="gray" stop-opacity="0.251"/>
      <stop offset="0.54" stop-color="gray" stop-opacity="0.122"/>
      <stop offset="1" stop-color="gray" stop-opacity="0.102"/>
    </linearGradient>
    <linearGradient id="linear-gradient-2" x1="0.5" x2="0.5" y2="1" gradientUnits="objectBoundingBox">
      <stop offset="0" stop-color="#715eff"/>
      <stop offset="0.473" stop-color="#ff6c56"/>
      <stop offset="1" stop-color="#ffdb2e"/>
    </linearGradient>
  </defs>
  <g id="undraw_questions_75e0" transform="translate(-90.871 0)">
    <ellipse id="Ellipse_24" data-name="Ellipse 24" class="cls-1" cx="52.112" cy="5.137" rx="52.112" ry="5.137" transform="translate(310.426 414.896)"/>
    <path id="Path_126" data-name="Path 126" class="cls-2" d="M341.61,800.389s24.521-1.479,21.63,15.706a4.185,4.185,0,0,1-2.18,4.415s-.041-1.275-2.515-.844a11.071,11.071,0,0,1-2.662.132,5.553,5.553,0,0,1-3.257-1.347h0s-6.9-2.845-9.573-14.115c0,0-1.987-2.454-1.905-3.089l4.136,1.768s-1.412,2.988-.3,5.467c0,0,.132-5.356.93-5.233.158.025,2.149,1.016,2.149,1.016s-2.434,5.2-.6,8.978c0,0-.7-6.407,1.357-8.6l2.917,1.7s-2.845,5.371-.915,9.751c0,0-.508-6.722,1.524-9.339l2.642,2.032s-2.673,5.295-1.042,8.933c0,0,.208-7.83,1.611-8.419a15.843,15.843,0,0,1,2.663,2.876s-1.829,3.841-.7,5.869c0,0,.7-5.213,1.27-5.239,0,0,2.3,3.455,2.541,5.823a12.573,12.573,0,0,0-1.987-6.153,6.936,6.936,0,0,1,3.526,1.824s-.361-2.444-4.09-2.657c0,0-1.9-2.617-2.414-2.779,0,0,3.714-.31,5.965.691,0,0-1.982-2.307-6.646-1.26l-2.607-2.124s4.893-.671,6.961.071c0,0-2.383-2.032-7.662-.554l-2.835-1.7a25.653,25.653,0,0,1,6.651-.574s-2.622-1.413-7.484.117l-2.032-.91s3.049-.6,3.948-.7.94-.34.94-.34a10.578,10.578,0,0,0-5.737.635S341.534,800.684,341.61,800.389Z" transform="translate(-217.619 -409.75)"/>
    <ellipse id="Ellipse_25" data-name="Ellipse 25" class="cls-1" cx="17.357" cy="2.932" rx="17.357" ry="2.932" transform="translate(123.523 409.327)"/>
    <path id="Path_127" data-name="Path 127" class="cls-3" d="M277.148,777.653s13.826-.833,12.195,8.856a2.353,2.353,0,0,1-1.225,2.49s-.025-.716-1.418-.473a6.164,6.164,0,0,1-1.5.071,3.08,3.08,0,0,1-1.839-.757h0s-3.882-1.611-5.406-7.962c0,0-1.118-1.387-1.077-1.743l2.337,1.016a4.2,4.2,0,0,0-.173,3.084s.076-3.023.508-2.952c.091,0,1.214.584,1.214.584s-1.372,2.932-.335,5.081c0,0-.4-3.613.762-4.853l1.641.96s-1.6,3.049-.508,5.5c0,0-.279-3.791.859-5.264l1.489,1.159s-1.524,2.983-.584,5.035c0,0,.117-4.415.909-4.746a9.053,9.053,0,0,1,1.5,1.621s-1.016,2.165-.391,3.308c0,0,.391-2.937.716-2.952A9.714,9.714,0,0,1,288.25,788a7.112,7.112,0,0,0-1.118-3.47,3.877,3.877,0,0,1,1.987,1.016s-.2-1.377-2.307-1.5a8.985,8.985,0,0,0-1.357-1.565,8.5,8.5,0,0,1,3.364.386s-1.118-1.3-3.75-.711l-1.468-1.2a12.16,12.16,0,0,1,3.928.041s-1.346-1.148-4.324-.31l-1.6-.96a14.52,14.52,0,0,1,3.745-.32s-1.474-.8-4.217.066l-1.143-.508s1.723-.34,2.226-.391.534-.193.534-.193a5.992,5.992,0,0,0-3.237.361A13.4,13.4,0,0,1,277.148,777.653Z" transform="translate(-186.007 -398.573)"/>
    <ellipse id="Ellipse_26" data-name="Ellipse 26" class="cls-1" cx="9.786" cy="1.656" rx="9.786" ry="1.656" transform="translate(90.877 389.608)"/>
    <path id="Path_128" data-name="Path 128" class="cls-4" d="M946.523,795.978s16.692-1.016,14.735,10.67a2.866,2.866,0,0,1-1.484,3.008s-.031-.869-1.712-.574a7.525,7.525,0,0,1-1.814.087,3.735,3.735,0,0,1-2.215-.915h0s-4.695-1.936-6.519-9.608c0,0-1.351-1.672-1.3-2.1l2.815,1.2a5.064,5.064,0,0,0-.2,3.724s.091-3.648.63-3.557c.112,0,1.463.7,1.463.7s-1.656,3.557-.407,6.1c0,0-.472-4.359.925-5.853l1.982,1.153s-1.936,3.658-.62,6.641c0,0-.341-4.573,1.016-6.356l1.8,1.4s-1.819,3.6-.711,6.1c0,0,.147-5.325,1.1-5.731a10.955,10.955,0,0,1,1.809,1.956s-1.245,2.617-.473,4c0,0,.473-3.557.864-3.557a11.8,11.8,0,0,1,1.727,3.963,8.541,8.541,0,0,0-1.346-4.187,4.72,4.72,0,0,1,2.4,1.24s-.244-1.661-2.79-1.809a10.824,10.824,0,0,0-1.636-1.89,10.278,10.278,0,0,1,4.065.467s-1.351-1.565-4.527-.854l-1.773-1.448s3.328-.457,4.741.046c0,0-1.626-1.387-5.218-.376l-1.931-1.153a17.588,17.588,0,0,1,4.527-.391s-1.783-.96-5.081.081l-1.382-.62s2.078-.411,2.688-.473.64-.234.64-.234a7.214,7.214,0,0,0-3.9.432A16.9,16.9,0,0,1,946.523,795.978Z" transform="translate(-515.248 -407.585)"/>
    <ellipse id="Ellipse_27" data-name="Ellipse 27" class="cls-1" cx="11.814" cy="1.997" rx="11.814" ry="1.997" transform="translate(430.955 401.116)"/>
    <path id="Path_129" data-name="Path 129" class="cls-5" d="M797.134,475.407a36.227,36.227,0,0,1-.554-5.416c0-2.18-2.962-4.111-2.962-4.111s-1.829-4.233-3.049-4.857-4.984-6.163-4.984-6.163a5.036,5.036,0,0,0-1.133-2.988,42.954,42.954,0,0,1-3.084-4.654c-.508-.62-.254-1.057-1.016-4.67a5.615,5.615,0,0,0-.142-.544.714.714,0,0,0-.081-.234,6.1,6.1,0,0,0,1.438-6.316,2.539,2.539,0,0,0-.721-1.118c-.859-.7-2.231-.412-3.115-1.077l.94-4.156c.224-1.016.34-2.3-.549-2.85a4.61,4.61,0,0,0-1.047-.351c-1.524-.508-2.408-2.119-2.8-3.669a12.574,12.574,0,0,1-.3-4.573c.173-1.474.6-2.906.762-4.385a12.042,12.042,0,0,0-1.865-7.794,6,6,0,0,0-2.464-2.327c-.94-.422-2.032-.508-2.911-1.016-1.89-1.2-1.794-4.065-3.3-5.706S760,394.8,757.8,395.359s-4.39,1.524-6.646,1.286c-1.453-.163-2.815-.823-4.273-.976a4.5,4.5,0,0,0-1.25.056v-.046a2.711,2.711,0,0,0-2.322,1.814,2.772,2.772,0,0,0-.071.742c0,.594.142,1.214.152,1.783a1.7,1.7,0,0,1-.411,1.255c-.29.31-.717.473-1.016.793a1.27,1.27,0,0,0-.371.935c0,.9,1.128,1.7,1.885,2.068h.031c-.2.2-.407.417-.595.635a13.383,13.383,0,0,0-3.364,8.887,13.566,13.566,0,0,0,8.252,12.388l-.107.33a18.977,18.977,0,0,1-.747,1.921,3.806,3.806,0,0,0-3.191.356c-1.453,1.016-4.294.935-5.051.747s-8.638-1.184-9.273-.935-1.89-.869-2.708.625-1.2,2.3-2.032,2.678-2.271,1.555-2.078,1.8-2.083,1.743-2.083,1.743-1.956,2.032-3.089,2.3a18.145,18.145,0,0,0-3.531,1.809l-2.779,2.175s-2.078.315-1.448-1.118-1.138-3.237-1.138-3.237-3.531-7.159-3.531-8.638-2.9-7.784-2.9-7.784l-.356-.036-.162-.462c-.534-1.5-1.225-3.338-1.753-4.415-1.016-2.058-1.641-2.271-1.641-2.271s-12.235-9.187-20.182-6.387,14.507,11.143,16.524,12.017a3.81,3.81,0,0,1,1.57,2.444,10.455,10.455,0,0,0-4.344,3.907s4.857,10.767,4.984,13.445,3.343,10.162,3.343,10.162,1.2,5.543,7.693,5.228c0,0,8.958,1.646,10.914,0s3.719-2.937,4.67-3.125a3.684,3.684,0,0,0,1.763-1.245s-2.962,18.673-4.416,20.294-14.293,22.585-9.684,26.335a92.058,92.058,0,0,0,11.539,7.622c.391.193,1.565-1.763,3.242-3.15V503.2c.031,7.459,1.016,18.8,2.378,21.341,2.032,3.735,1.2,10.955,1.2,10.955a8.637,8.637,0,0,0,3.409.818c.061.244.132.508.2.762,1.113,4.2,2.917,10.7,3.836,12.428,1.387,2.617,2.393,10.9,2.393,10.9s.823,8.13.508,9.273a54.558,54.558,0,0,0,1.25,8.13h0c-.508,5.838-1.473,17.093-1.636,21.163h0v.295a1.226,1.226,0,0,1,0,.137v.249h0a3.812,3.812,0,0,0,.03.767,2.488,2.488,0,0,1-.086,1.159,20.221,20.221,0,0,1-1.367,3.262,15.506,15.506,0,0,0-.61,1.575,2.847,2.847,0,0,0-1.474,2.093c-.63,2.429-1.575,9.146-1.575,9.146s-.381,4.111-1.133,5.046-1.524,6.783,3.846,7.53,7.693-2.845,7.693-2.845l-.188-16.3v-.03a2.482,2.482,0,0,0,.28-.442v-.041c.036-.076.076-.157.112-.249l.046-.122.081-.2a.289.289,0,0,1,0-.071,10.776,10.776,0,0,0,.457-4.852v-.686a1.933,1.933,0,0,1,.03-.335v-.061l.031-.2v-.086a.375.375,0,0,1,.041-.2.221.221,0,0,1,0-.051c.051-.234.112-.508.178-.732v-.056l.076-.244h0c.076-.259.162-.508.254-.782v-.051a.711.711,0,0,1,.087-.239v-.03c.091-.249.188-.508.279-.722l.026-.066.081-.2.025-.061.193-.452h0l1.489,4.6s.823,3.425.381,4.233.508,4.172,1.133,4.232l-.584,4.233a64.808,64.808,0,0,0-.564,7.037c-.041.269-.081.508-.112.671a15.26,15.26,0,0,0,.569,5.533c4.979,5.889,10.914.457,10.914.457s.691-3.115,0-3.735-.381-2.866-.381-2.866.315-5.544.376-9.588S756.679,607,756.679,607l-.188.168c-.615-1.585-1.316-3.435-1.169-4.263.254-1.433-.7-16.559-.7-16.559a89.74,89.74,0,0,0,.224-12.195h0c.081-.686.157-1.362.234-2.032.381-3.252.691-6.031.813-7.489h0v-.173c.031-.391.046-.671.041-.8,0-.508,0-1.087.051-1.723.117-1.748.391-3.694.391-3.694l1.321-8.033a25.112,25.112,0,0,1,2.464-6.1l.173-.274h0c.056-.1.112-.2.173-.315l.025-.046c.056-.107.117-.218.173-.335l.026-.046c.2-.4.422-.864.65-1.372,0-.041.036-.076.051-.117l.173-.386a.4.4,0,0,1,.066-.152c.026-.051.107-.259.163-.386a1.465,1.465,0,0,0,.066-.158c.066-.152.137-.31.2-.473l.1-.234c.046-.117.1-.234.147-.351l.122-.31c.036-.076.066-.152.1-.229l.137-.351c0-.051.046-.107.066-.157.361-.9.706-1.789,1.016-2.6h0c.1-.254.193-.508.279-.732,3.232.2,5.427.376,5.427.376a74.479,74.479,0,0,0,.691-12.073,44.854,44.854,0,0,1,.8-9.654c.046-.249.086-.473.127-.676l.086.071c1.58,1.245,2.714-2.866,2.714-2.866s-.427-3.836-1.016-8.485l-.061-.462a23.857,23.857,0,0,0,2.759.422s.508-.046,1.2-.132a33.333,33.333,0,0,0,6.067,2.744l3.359-6.2a25.213,25.213,0,0,1,2.21-3.674c1.016-1.245,4.6-5.228,4.542-5.975a21.031,21.031,0,0,1,2.459-6.976A15.407,15.407,0,0,0,797.134,475.407Zm-14,4.73c-1.326.559-2.586,3.674-2.647,4.609s-1.453,5.04-2.9,5.538c-1.336.457-3.887,2.8-4.294,3.181-.417.036-.889.091-1.382.173a48.414,48.414,0,0,0-1.453-7.835c-1.016-1.87,1.113-7.845,1.113-7.845s.208-6.036,1.524-7.469,1.016-5.046,1.016-5.046.315-1.494.442-2.175,1.875,0,1.89,0h0s3.4,1.865,3.912,4.664,4.228,7.657,4.228,7.657-.569,1.682,0,2.541S784.457,479.578,783.131,480.137Z" transform="translate(-382.49 -210.367)"/>
    <path id="Path_130" data-name="Path 130" class="cls-6" d="M707,453.092a10.162,10.162,0,0,1,10.162-4.786v7.271h-4.416l-3.455-.874Z" transform="translate(-397.58 -236.526)"/>
    <path id="Path_131" data-name="Path 131" class="cls-7" d="M707,453.092a10.162,10.162,0,0,1,10.162-4.786v7.271h-4.416l-3.455-.874Z" transform="translate(-397.58 -236.526)"/>
    <path id="Path_132" data-name="Path 132" class="cls-8" d="M702.76,436.708l-5.411,3.79s-.046-.757-.183-1.794c-.269-1.961-.874-4.9-2.18-5.472-1.987-.874-24.1-9.2-16.26-12s19.882,6.377,19.882,6.377.62.213,1.611,2.261c.508,1.077,1.2,2.911,1.728,4.41C702.43,435.635,702.76,436.708,702.76,436.708Z" transform="translate(-382.847 -223.002)"/>
    <path id="Path_133" data-name="Path 133" class="cls-6" d="M713.259,431.8l.615-.29,1.727,1.971-1.412,3.013-2.408-.965.559-2.408Z" transform="translate(-350.116 -212.256)"/>
    <path id="Path_134" data-name="Path 134" class="cls-9" d="M791.42,811s-1.555-.183-2.175,2.241-1.555,9.146-1.555,9.146-.371,4.1-1.118,5.035-1.489,6.773,3.79,7.515,7.581-2.84,7.581-2.84l-.188-16.3Z" transform="translate(-436.463 -414.982)"/>
    <path id="Path_135" data-name="Path 135" class="cls-9" d="M825,812.44s3.323,3.557,3.262,7.591-.376,9.568-.376,9.568-.3,2.241.376,2.861,0,3.729,0,3.729-5.843,5.422-10.752-.457a15.542,15.542,0,0,1-.559-5.523c.4-2.165,1.5-11.895,1.5-11.895Z" transform="translate(-451.614 -415.693)"/>
    <path id="Path_136" data-name="Path 136" class="cls-8" d="M819.316,662.9s-3.354,9.38-4.786,11.554a24.877,24.877,0,0,0-2.419,6.1l-1.306,8.013a44.727,44.727,0,0,0-.437,5.406c.061,1.8-3.232,28.083-3.232,28.083l-5.218,6.651s-2.3,4.659-1.926,6.605-.249,5.035-1.016,5.965c0,0-.122,6.1-.31,7.454s.686,5.224,0,5.9-9.817.376-10.065-.747,1.118-6.524,1.118-6.524l.808-5.218s1.616-2.856,1.245-3.791.681-3.1.742-3.293,1.743-3.232,1.433-4.41S795.9,704.4,795.9,704.4l6.4-44.922Z" transform="translate(-437.704 -340.454)"/>
    <path id="Path_137" data-name="Path 137" class="cls-7" d="M819.316,662.909s-.508,1.412-1.2,3.267a63.213,63.213,0,0,1-3.582,8.287,25.2,25.2,0,0,0-2.424,6.1l-1.306,8.018a45.07,45.07,0,0,0-.432,5.406c0,.711-.477,5.249-1.087,10.477-.94,7.993-2.144,17.606-2.144,17.606l-5.218,6.651s-.264.508-.594,1.311c-.655,1.524-1.58,4-1.331,5.274.371,1.926-.249,5.03-1.016,5.965,0,0-.127,6.1-.31,7.454s.686,5.218,0,5.9-9.817.376-10.065-.742,1.118-6.524,1.118-6.524l.808-5.223s1.616-2.856,1.24-3.791.686-3.1.747-3.293,1.743-3.231,1.433-4.41c-.239-.9,1.016-15.619,1.6-22.6.2-2.2.325-3.623.325-3.623l5.5-38.647.447-3.115.447-3.16Z" transform="translate(-437.704 -340.464)"/>
    <path id="Path_138" data-name="Path 138" class="cls-8" d="M811.961,759.335c.056.686-8.765,1.682-10.025.935s0-10,0-10l.574-4.222c-.615-.066-1.55-3.42-1.118-4.227s-.371-4.223-.371-4.223l-1.463-4.573-.894-2.8c-1.453-3.206-3.557-12.352-4.863-19.181a55.519,55.519,0,0,1-1.23-8.1c.31-1.118-.508-9.258-.508-9.258s-1.016-8.267-2.358-10.874c-.91-1.728-2.683-8.216-3.78-12.4-.559-2.149-.945-3.694-.945-3.694s9.39-.788,15.086-1.062c2.617-.127,4.456-.142,4.243.071a7.728,7.728,0,0,0-.259,3c.026,4.263.62,11.763,1.25,13.78.869,2.795,1.738,11.178,1.367,11.991s-.249,6.214-.249,6.214a27.944,27.944,0,0,1,1.1,6.743,91.147,91.147,0,0,1-.213,12.139s.93,15.1.681,16.529,1.987,5.9,1.987,6.773.62,6.773.62,6.773S811.92,758.654,811.961,759.335Z" transform="translate(-435.937 -343.443)"/>
    <path id="Path_139" data-name="Path 139" class="cls-8" d="M825.172,467.457,824.1,468.61l-.7.752-4.065,4.37-10.5,1.184-5.589-1.494-1.382-.371s0-2.8.249-6.168c.356-4.314,1.2-9.552,3.232-10.98a8.073,8.073,0,0,0,2.363-2.993,16.842,16.842,0,0,0,1.016-2.51c.041-.112.071-.218.107-.33a28.08,28.08,0,0,0,.986-4.609s1.341-.742,3.206-1.606c4.863-2.271,13.262-5.406,10.34,1.606a27.413,27.413,0,0,0-1.1,3.15c-.046.158-.086.315-.122.467-.976,3.9-.33,6.27.4,7.576h0a4.727,4.727,0,0,0,.422.645,3.391,3.391,0,0,0,.706.716l1.209,7.677.1.635Z" transform="translate(-444.245 -233.061)"/>
    <path id="Path_140" data-name="Path 140" class="cls-7" d="M830.019,446.2c-.554,1.331.269-1.087,0,0-2.215,1.575-7.434,6.062-10.366,6.062a8.146,8.146,0,0,1-4.273-1.128,27.723,27.723,0,0,0,1.093-4.934S834.058,436.5,830.019,446.2Z" transform="translate(-450.891 -233.423)"/>
    <path id="Path_141" data-name="Path 141" class="cls-8" d="M826.772,421.186a13.556,13.556,0,0,1-12.129,13.47c-.467.046-.94.076-1.418.076a13.546,13.546,0,1,1,13.546-13.546Z" transform="translate(-443.168 -216.576)"/>
    <path id="Path_142" data-name="Path 142" class="cls-7" d="M824.325,520.045l-1.931,5.035s-1.57.066-4.019.142c-8.267.264-26.483.6-27.3-1.524a5.4,5.4,0,0,1-.284-1.672c-.107-3.237,1.4-8.206,1.4-8.206s.869-9.944.869-10.376-.747-7.4-.747-7.4l1.494-5.589,4.161-2.922s1.865,2.861,2.983,3.1a7.751,7.751,0,0,1,2.612,1.621s3.663,2.236,4.847.991,10.376-6.712,10.376-6.712l4.847,5.345Z" transform="translate(-438.795 -255.386)"/>
    <path id="Path_143" data-name="Path 143" class="cls-10" d="M824.34,521.565l-1.931,5.03s-1.57.071-4.019.147h-.239c-1.057.036-2.266.071-3.557.1-6.57.152-15.619.193-20.35-.508-1.778-.254-2.942-.62-3.135-1.118a4.487,4.487,0,0,1-.224-.925c-.031-.234-.051-.508-.061-.747-.107-3.237,1.4-8.206,1.4-8.206s.869-9.944.869-10.376-.747-7.4-.747-7.4l1.494-5.589,2.861-2,1.3-.915a19.5,19.5,0,0,0,1.428,1.88,3.8,3.8,0,0,0,1.555,1.225,7.774,7.774,0,0,1,2.612,1.621s3.663,2.236,4.847.991c.9-.95,6.488-4.37,9.07-5.93.793-.483,1.306-.783,1.306-.783l.651.721,4.2,4.624Z" transform="translate(-438.81 -256.134)"/>
    <path id="Path_144" data-name="Path 144" class="cls-7" d="M722.234,449.854l-5.411,3.791s-.046-.757-.183-1.794a10.953,10.953,0,0,0,4.766-4.42C721.9,448.782,722.234,449.854,722.234,449.854Z" transform="translate(-402.322 -236.148)"/>
    <path id="Path_146" data-name="Path 146" class="cls-7" d="M743.3,491.33s1.555,5.782.559,6.4Z" transform="translate(-415.435 -257.742)"/>
    <path id="Path_147" data-name="Path 147" class="cls-7" d="M818.38,561.046c-8.267.264-26.483.595-27.3-1.524a5.4,5.4,0,0,1-.285-1.672l27.006,1.423Z" transform="translate(-438.8 -290.463)"/>
    <path id="Path_148" data-name="Path 148" class="cls-7" d="M817.56,662.9s-.508,1.413-1.2,3.267c-3.43-.208-7.972-.427-12.286-.457-1.524,0-3.018,0-4.431.051a33.389,33.389,0,0,0-7.24.8,19.2,19.2,0,0,1-6.453.833c-.559-2.149-.945-3.694-.945-3.694s9.39-.788,15.086-1.062l.447-3.16Z" transform="translate(-435.947 -340.454)"/>
    <path id="Path_149" data-name="Path 149" class="cls-9" d="M818.893,590.82l-1.057,2.236s-.147.666-.335,1.723a44.034,44.034,0,0,0-.783,9.654,76.37,76.37,0,0,1-.686,12.052s-22.865-1.926-29.572,0-10.01,0-10.01,0,.813-7.2-1.179-10.935c-1.357-2.54-2.312-13.881-2.342-21.34,0-3.44.173-6.047.6-6.575,1.367-1.677,7.2-18.454,7.2-18.454l1.331.071,3.557.188,20.223,1.067,3.176.168.335,1.016Z" transform="translate(-430.01 -291.117)"/>
    <path id="Path_150" data-name="Path 150" class="cls-6" d="M874.161,598.2l.188,1.992s-10.015-3.262-9.507-7.271,0-3.557,0-3.557l8.048.681Z" transform="translate(-475.212 -305.957)"/>
    <path id="Path_151" data-name="Path 151" class="cls-7" d="M874.161,598.2l.188,1.992s-10.015-3.262-9.507-7.271,0-3.557,0-3.557l8.048.681Z" transform="translate(-475.212 -305.957)"/>
    <path id="Path_152" data-name="Path 152" class="cls-7" d="M754.979,492.926a8.922,8.922,0,0,0,3.526,1.834,2.3,2.3,0,0,1-1.016-.508c-.716-.508-1.4-1.062-2.088-1.6a6.557,6.557,0,0,0-1.941-1.341A10.7,10.7,0,0,0,754.979,492.926Z" transform="translate(-420.433 -257.732)"/>
    <path id="Path_153" data-name="Path 153" class="cls-7" d="M754.081,497.237a4.488,4.488,0,0,1,.772,1.225,7.4,7.4,0,0,1-.056,3.846l-1.606-3.872c-.279-.661-.559-1.321-.894-1.951-.147-.269-1.072-1.392-.965-1.626C751.616,494.2,753.781,496.866,754.081,497.237Z" transform="translate(-419.382 -259.426)"/>
    <path id="Path_154" data-name="Path 154" class="cls-7" d="M838.693,540.517a5.173,5.173,0,0,0,2.922-1.367c-1.651.208-3.216.859-4.842,1.2a7.193,7.193,0,0,1-4.512-.417A11.094,11.094,0,0,0,838.693,540.517Z" transform="translate(-459.194 -281.264)"/>
    <path id="Path_155" data-name="Path 155" class="cls-7" d="M827.889,514.693a1.132,1.132,0,0,1-.838-.208q-1.86-1.067-3.669-2.225a24.37,24.37,0,0,1-3.592-2.48C822.254,512.005,824.551,513.885,827.889,514.693Z" transform="translate(-453.06 -266.818)"/>
    <path id="Path_156" data-name="Path 156" class="cls-7" d="M839.239,544.2a7.736,7.736,0,0,0,1.941-.158,2.6,2.6,0,0,0,1.6-1.047.915.915,0,0,0-.676.107,11.4,11.4,0,0,1-6.24.747A9.01,9.01,0,0,0,839.239,544.2Z" transform="translate(-460.965 -283.145)"/>
    <path id="Path_157" data-name="Path 157" class="cls-7" d="M804.039,601.649a20.374,20.374,0,0,1-3.968.777,23.962,23.962,0,0,1-3.14-.061l-5.081-.32-2.541-.163c-.3,0-1.524,0-.92-.6.3-.295,2-.107,2.439-.122q1.265-.041,2.541-.046c1.682,0,3.369,0,5.051.1C800.3,601.3,802.159,601.445,804.039,601.649Z" transform="translate(-437.533 -311.742)"/>
    <path id="Path_158" data-name="Path 158" class="cls-7" d="M796.491,606.662a20.526,20.526,0,0,0-2.866.589,19.051,19.051,0,0,1-3,.117,16.718,16.718,0,0,1-5.777-1.179C788.727,606.388,792.614,606.505,796.491,606.662Z" transform="translate(-435.874 -314.241)"/>
    <path id="Path_159" data-name="Path 159" class="cls-7" d="M784.627,612.2a8.328,8.328,0,0,1,1.108.3c2.144.61,4.426.071,6.605-.467a3.876,3.876,0,0,1-2.505,1.392,11.618,11.618,0,0,1-4.878.178c-.508-.1-1.783-.285-2.032-.813C782.508,612.02,784.15,612.126,784.627,612.2Z" transform="translate(-434.894 -317.118)"/>
    <path id="Path_160" data-name="Path 160" class="cls-7" d="M806.906,619.168a16.539,16.539,0,0,1,1.9.508c2.413.6,4.918-.224,7.342-.777a34.181,34.181,0,0,1,8.887-.823,8.8,8.8,0,0,0-1.906.625c-.686.208-1.382.4-2.078.574-1.367.335-2.754.609-4.151.808a42.684,42.684,0,0,1-8.521.371c-1.3-.071-3.557.061-4.669-.594A5.147,5.147,0,0,1,806.906,619.168Z" transform="translate(-445.15 -320.075)"/>
    <path id="Union_5" data-name="Union 5" class="cls-9" d="M-55.645-2472.719c-1.554-1.245-10.67-10.625-11.118-18.952-.3-5.848-.183-10.93-.081-13.434.041-1.062.081-1.661.081-1.661s7.084-8.577,6.276-11.621S-63.16-2537.7-63.16-2537.7l-.325-2.515-.351-2.7-.081-.595-1.123-8.637c.2.045,7.169,1.621,8.089,2.54s6.606,2.236,6.606,2.236a4.971,4.971,0,0,1,3.526,3.618c.056.173.1.355.137.544.729,3.519.52,4.017.98,4.619l.036.005a44.2,44.2,0,0,0,3.049,4.659,5.084,5.084,0,0,1,1.118,2.982s3.73,5.528,4.909,6.148,2.982,4.847,2.982,4.847,2.922,1.926,2.922,4.1a36.447,36.447,0,0,0,.559,5.406,15.34,15.34,0,0,1-1.677,6.1,20.791,20.791,0,0,0-2.424,6.951c.066.762-3.481,4.726-4.472,5.965a25.336,25.336,0,0,0-2.174,3.668l-3.292,6.215s-6.962-10.254-9.507-10.812c0,0,2.856-2.734,4.283-3.232s2.8-4.573,2.861-5.528,1.306-4.04,2.606-4.573,1.992-1.118,1.433-1.992,0-2.541,0-2.541-3.668-4.847-4.167-7.622-3.851-4.659-3.851-4.659l-.02-.048c-.192-.073-1.726-.635-1.84.008-.122.686-.437,2.17-.437,2.17s.31,3.607-1.016,5.035-1.525,7.454-1.525,7.454-2.093,5.965-1.1,7.83c.361.676.92,4.064,1.479,8.13.356,2.541.707,5.33,1.016,7.88.564,4.634.986,8.471.986,8.471s-.846,3.09-2.086,3.09A.942.942,0,0,1-55.645-2472.719Zm-47.9-7.911a90.2,90.2,0,0,1-11.372-7.622c-4.538-3.729,8.14-24.668,9.568-26.283s4.349-20.254,4.349-20.254l-.066-.214v.2a3.763,3.763,0,0,1-1.738,1.239c-.909.188-2.647,1.48-4.573,3.12s-10.751,0-10.751,0a7.014,7.014,0,0,1-7.581-5.224s-3.172-7.454-3.293-10.126-4.908-13.42-4.908-13.42c6.584,2.236,10.192-4.786,10.192-4.786s2.876,6.27,2.876,7.763,3.48,8.638,3.48,8.638,1.723,1.8,1.118,3.232,1.428,1.118,1.428,1.118l2.739-2.175a17.766,17.766,0,0,1,3.475-1.8c1.118-.269,3.049-2.3,3.049-2.3l.021.006v0s2.241-1.489,2.033-1.738,1.224-1.433,2.032-1.8,1.179-1.175,1.986-2.667a1.391,1.391,0,0,1,1.849-.691,1.507,1.507,0,0,0,.824.066c.635-.249,8.4.752,9.146.935s3.542.269,4.974-.747a3.7,3.7,0,0,1,3.146-.355l-1.469,2.443s.122,5.722-.807,8.333-3.6,12.307-3.6,12.307-2.2,17.708-2.673,25.66-8.186,21.935-10.669,22.991c-2.4,1.019-4.146,4.175-4.723,4.175A.13.13,0,0,1-103.549-2480.63Z" transform="translate(443.304 2775.78)"/>
    <path id="Path_161" data-name="Path 161" class="cls-7" d="M792.675,466.631s.122,5.721-.808,8.333c-.295.813-.752,2.312-1.25,3.994-.544,1.865-1.138,3.953-1.6,5.589s-.762,2.734-.762,2.734-2.1,17.093-2.642,25.238a1.979,1.979,0,0,1-.031.427c-.03.457-.081.935-.157,1.428-1.209,8.089-8.186,20.563-10.528,21.559a6.975,6.975,0,0,0-1.971,1.357c0-3.44.173-6.046.6-6.575,1.367-1.677,7.205-18.455,7.205-18.455l1.331.071c-.031-.234-.051-.508-.061-.747-.107-3.237,1.4-8.206,1.4-8.206s.869-9.944.869-10.376-.747-7.4-.747-7.4l1.494-5.589,2.861-2c.356-4.314,1.2-9.552,3.232-10.98a8.073,8.073,0,0,0,2.363-2.993c.4.056-.33-.3-.33-.3Z" transform="translate(-430.01 -244.171)"/>
    <path id="Path_163" data-name="Path 163" class="cls-7" d="M850.6,548.168l-1.057,2.236s-.148.665-.335,1.722a.95.95,0,0,1-.508-.229c-1.555-1.245-10.67-10.624-11.122-18.952-.32-6.143-.168-11.438-.066-13.8.03-.742.061-1.189.061-1.286h0s7.083-8.577,6.275-11.615-2.673-19.308-2.673-19.308l-.274-2.134-.473-3.608L839.3,472.47l1.169.274a3.388,3.388,0,0,0,.706.716l1.209,7.678,4.2,4.624.686,28.149-1.931,5.03s-1.57.071-4.019.147h-.239Z" transform="translate(-461.713 -248.465)"/>
    <path id="Path_165" data-name="Path 165" class="cls-7" d="M858.363,598.131c-2.541-.508-6.311-1.682-6.224-4.273.076-2.424,2.993-3.3,5.2-3.608C857.7,592.78,858.048,595.58,858.363,598.131Z" transform="translate(-468.971 -306.4)"/>
    <path id="Path_166" data-name="Path 166" class="cls-8" d="M866.6,596.308c-.1.219-.508.406-1.087.574a29.308,29.308,0,0,1-4.131.676s-8.638-.686-8.516-4.6c.091-2.81,3.994-3.557,6.183-3.724a14.293,14.293,0,0,1,1.458-.061S866.974,595.505,866.6,596.308Z" transform="translate(-469.331 -305.868)"/>
    <path id="Path_167" data-name="Path 167" class="cls-7" d="M872.138,596.308c-.1.219-.508.406-1.087.574-2.251-3.013-5.391-6.88-6.931-7.22l.467-.432a14.293,14.293,0,0,1,1.458-.061S872.509,595.505,872.138,596.308Z" transform="translate(-474.866 -305.868)"/>
    <path id="Path_169" data-name="Path 169" class="cls-7" d="M891.562,541.5a8.064,8.064,0,0,1,5.015-1.9,6.116,6.116,0,0,0-3.282,1.286,7.751,7.751,0,0,0-.909,1.159c-.295.422-2.693,3.47-3.049,2.988C888.742,544.325,891.08,541.912,891.562,541.5Z" transform="translate(-487.222 -281.486)"/>
    <path id="Path_170" data-name="Path 170" class="cls-7" d="M882.73,527.978a2.149,2.149,0,0,0,1.773-1.255,7.037,7.037,0,0,0,.554-2.205,32.908,32.908,0,0,1,.767-3.775,1.748,1.748,0,0,0-.107-1.524,5.152,5.152,0,0,0-.549-1.128,6.764,6.764,0,0,0-.777,2.373c-.234.844-.447,1.692-.651,2.541C883.634,523.41,882.791,527.978,882.73,527.978Z" transform="translate(-484.02 -270.905)"/>
    <path id="Path_171" data-name="Path 171" class="cls-7" d="M842.836,448.571a5.236,5.236,0,0,1-.859.884c-1.016.808-2.363,1.489-2.49,2.764a2.971,2.971,0,0,1-.152,1.225c-.325.559-1.123.508-1.758.4a3.048,3.048,0,0,1-1.489-.549c-.666-.569-.727-1.585-1.235-2.3a3.135,3.135,0,0,0-2.541-1.123c-.95-.03-1.9.183-2.845.224a7.823,7.823,0,0,1-1.824-.122,5.807,5.807,0,0,1-.589-.122,7.59,7.59,0,0,1-1.24-.422,5.478,5.478,0,0,1-.6-.284,8.032,8.032,0,0,1-1.753-1.219,4.358,4.358,0,0,1-1.626-3.3c.046-.777.4-1.494.508-2.261.381-2.195-1.077-4.268-2.658-5.838-.63-.625-1.3-1.23-1.931-1.865a9.294,9.294,0,0,1-2.271-3.242,9.653,9.653,0,0,1-.406-4.065,28.053,28.053,0,0,0,.117-4.177c-.467-4.939-4.685-8.724-8.9-10.782l-.188-.1a13.541,13.541,0,1,1,18.216,19.816c-.046.158-.086.315-.122.467-.975,3.9-.33,6.27.4,7.576h0c.2.046,7.169,1.621,8.089,2.541s6.605,2.236,6.605,2.236a4.969,4.969,0,0,1,3.552,3.633Z" transform="translate(-446.326 -216.584)"/>
    <path id="Path_172" data-name="Path 172" class="cls-9" d="M803.984,402.89c.279-.32.7-.483.986-.793.879-.955,0-2.515.32-3.775.345-1.4,2.063-2.007,3.5-1.86s2.774.808,4.207.97c2.225.249,4.38-.716,6.549-1.28s4.792-.594,6.285,1.067,1.392,4.492,3.252,5.7a18.5,18.5,0,0,0,2.871,1.016,5.9,5.9,0,0,1,2.429,2.322,12.165,12.165,0,0,1,1.839,7.779c-.158,1.474-.585,2.906-.757,4.38a12.755,12.755,0,0,0,.3,4.573c.391,1.524,1.24,3.171,2.759,3.658a4.65,4.65,0,0,1,1.016.351c.879.549.762,1.839.539,2.845l-.9,4.172c.869.661,2.22.376,3.049,1.072a2.54,2.54,0,0,1,.711,1.118,6.1,6.1,0,0,1-1.824,6.677c-1.016.808-2.363,1.489-2.49,2.759a2.865,2.865,0,0,1-.152,1.224c-.32.559-1.123.508-1.758.4a3.049,3.049,0,0,1-1.484-.549c-.671-.569-.727-1.585-1.235-2.3a3.145,3.145,0,0,0-2.541-1.123c-.955-.031-1.895.183-2.85.229a8.425,8.425,0,0,1-5.99-2.165,4.374,4.374,0,0,1-1.631-3.3c.046-.772.4-1.494.508-2.261.376-2.19-1.077-4.268-2.657-5.838s-3.435-3.018-4.207-5.106c-.965-2.586-.031-5.472-.29-8.216-.468-4.944-4.68-8.724-8.9-10.787C804.492,405.36,802.892,404.135,803.984,402.89Z" transform="translate(-445.105 -210.754)"/>
    <path id="Path_173" data-name="Path 173" class="cls-7" d="M837.176,446.2c-.671-.574-.727-1.585-1.235-2.3a3.156,3.156,0,0,0-2.541-1.128c-.955-.031-1.9.183-2.85.229a8.4,8.4,0,0,1-6.011-2.17,4.358,4.358,0,0,1-1.626-3.3c.046-.777.4-1.5.508-2.261.381-2.2-1.077-4.273-2.657-5.843s-3.43-3.018-4.207-5.107c-.96-2.581,0-5.467-.284-8.216-.473-4.944-4.685-8.724-8.9-10.787-.986-.483-2.586-1.707-1.494-2.952.274-.32.7-.483.981-.793.879-.95,0-2.515.325-3.77a2.073,2.073,0,0,1,.32-.7,2.71,2.71,0,0,0-2.292,1.814c-.31,1.26.559,2.82-.32,3.775-.285.31-.706.473-.986.788-1.092,1.245.508,2.474,1.494,2.952,4.222,2.063,8.435,5.848,8.9,10.787.259,2.749-.676,5.635.29,8.221.772,2.083,2.627,3.557,4.207,5.107s3.049,3.643,2.657,5.838a19.486,19.486,0,0,0-.508,2.261,4.363,4.363,0,0,0,1.631,3.3,8.379,8.379,0,0,0,6.006,2.17c.955-.046,1.9-.254,2.85-.229a3.16,3.16,0,0,1,2.541,1.128c.508.716.564,1.733,1.235,2.3a3.048,3.048,0,0,0,1.484.544c.635.117,1.438.157,1.758-.4a1.374,1.374,0,0,0,.142-.732A2.921,2.921,0,0,1,837.176,446.2Z" transform="translate(-445.066 -211.396)"/>
    <path id="Path_174" data-name="Path 174" class="cls-11" d="M641.119,236.22H605.973V201.588h35.171ZM640.611,184h-34.13c0-53.819,51.156-50.674,51.156-84.722a33.931,33.931,0,0,0-34.1-33.779c-18.754,0-34.1,16.2-34.1,34.313h-34.1a68.086,68.086,0,0,1,68.2-68.2c37.671,0,68.2,30.055,68.2,67.67,0,42.574-51.151,47.422-51.151,84.722Z" transform="translate(-322.975 -31.61)"/>
  </g>
</svg>
