<svg id="undraw_winners_2yls" xmlns="http://www.w3.org/2000/svg" xmlns:xlink="http://www.w3.org/1999/xlink" viewBox="0 0 785.974 378.542">
  <defs>
    <style>
      .cls-1 {
        fill: url(#linear-gradient);
      }

      .cls-2 {
        fill: #3f3d56;
      }

      .cls-17, .cls-3 {
        fill: #818181;
      }

      .cls-4 {
        fill: #be6f72;
      }

      .cls-17, .cls-5, .cls-7, .cls-8 {
        opacity: 0.1;
      }

      .cls-6 {
        fill: #e3e8f4;
      }

      .cls-8 {
        fill: #fff;
      }

      .cls-9 {
        fill: url(#linear-gradient-2);
      }

      .cls-10 {
        fill: url(#linear-gradient-3);
      }

      .cls-11 {
        fill: #f86d70;
      }

      .cls-12 {
        fill: #fbbebe;
      }

      .cls-13 {
        fill: #575757;
      }

      .cls-14 {
        fill: #444053;
      }

      .cls-15 {
        fill: #e8e8f0;
      }

      .cls-16 {
        fill: #6c63ff;
      }
    </style>
    <linearGradient id="linear-gradient" x1="0.5" y1="1" x2="0.5" gradientUnits="objectBoundingBox">
      <stop offset="0" stop-color="gray" stop-opacity="0.251"/>
      <stop offset="0.54" stop-color="gray" stop-opacity="0.122"/>
      <stop offset="1" stop-color="gray" stop-opacity="0.102"/>
    </linearGradient>
    <linearGradient id="linear-gradient-2" x1="0.5" x2="0.5" y2="1" gradientUnits="objectBoundingBox">
      <stop offset="0" stop-color="#715eff"/>
      <stop offset="0.473" stop-color="#ff6c56"/>
      <stop offset="1" stop-color="#ffdb2e"/>
    </linearGradient>
    <linearGradient id="linear-gradient-3" x1="0" y1="0.5" x2="1" y2="0.5" xlink:href="#linear-gradient"/>
  </defs>
  <path id="Path_183" data-name="Path 183" class="cls-1" d="M883.713,376.573a7.7,7.7,0,0,0-3.374-1.479c-1.293-.3-2.613-.484-3.927-.691l-17.02-2.454a20.05,20.05,0,0,0-5.213-.277,6.616,6.616,0,0,0-4.535,2.351,3.535,3.535,0,0,0-.788,2.212,5.84,5.84,0,0,0,.774,2.3,7.7,7.7,0,0,1,.422,1.016,23.244,23.244,0,0,0,.608,2.316,1.96,1.96,0,0,0,.29.456.728.728,0,0,1,0,.118c-.187.954.415,1.949.145,2.869-.235.788-1,1.265-1.486,1.922a2.889,2.889,0,0,0-.069,3.187c.518.8,1.458,1.348,1.728,2.268.353,1.21-.6,2.378-1.452,3.311a51.307,51.307,0,0,0-4.328,5.455,3.379,3.379,0,0,0-.692,1.625c-.076,1.2,1.079,2.261.878,3.457-.159.94-1.078,1.514-1.873,2.074-2.938,1.936-5.3,5.047-5.531,8.566a30,30,0,0,0-6.692-15.209,10.879,10.879,0,0,1-2.482-3.892c-.152-.6-.18-1.244-.387-1.825-.691-1.832-2.89-2.62-3.85-4.307-.691-1.189-.691-2.717-1.549-3.761s-2.205-1.279-2.945-2.288a14.616,14.616,0,0,1-.94-2.129,4.653,4.653,0,0,0-1.279-1.535,3.687,3.687,0,0,0-.318-.228,1.1,1.1,0,0,0,.367-.816c0-.809-.8-1.341-1.5-1.742-.9-.512-1.777-1.065-2.634-1.638a6.159,6.159,0,0,0,2.357-1.929,6.338,6.338,0,0,0,.9-4.148,5.235,5.235,0,0,0-1.238-3.173c-.435-.463-.982-.8-1.438-1.231-1.182-1.155-1.583-2.862-2.074-4.438-.65-2.074-1.666-4.252-3.56-5.351-.913-.532-1.977-.781-2.869-1.341a2.5,2.5,0,0,1-1.328-2.634c.208-.691.85-1.168,1.286-1.756a3.5,3.5,0,0,0-.878-4.839c-.511-.325-1.141-.608-1.245-1.2a2.2,2.2,0,0,1-1.6-1.7,6.565,6.565,0,0,1,0-2.461q.27-1.929.533-3.844a2.5,2.5,0,0,0,1.922,0,16.9,16.9,0,0,0,2.074,2.71,27.075,27.075,0,0,1,4.839,8.4c.394,1.106.8,2.344,1.818,2.931.352.2.754.3,1.1.518a4.1,4.1,0,0,1,1.078,1.106c.83,1.1,1.659,2.192,2.482,3.291l.042.166a.963.963,0,0,0,.111.276.918.918,0,0,0,.594.3c2.544.588,5.4,1.127,7.6-.263,1.991-1.244,2.862-3.705,4.549-5.351,1.2-1.168,2.89-2.074,3.229-3.719a12.231,12.231,0,0,1-1.189-.436c.345-.346.691-.747,1.161-1.2a14.636,14.636,0,0,0,1.839-2.191,14.125,14.125,0,0,0,1.383-3.1q2-5.7,4.01-11.4c.636-1.8,1.272-3.609,2.074-5.358.83-1.894,1.811-3.712,2.717-5.572a73.965,73.965,0,0,0,5.378-15.14,5.529,5.529,0,0,0,.214-2.205,5.814,5.814,0,0,0-1.963-2.987,14.416,14.416,0,0,0-2.945-2.44,4.839,4.839,0,0,0-3.692-.595c-1.77.518-2.883,2.33-3.291,4.148a43.482,43.482,0,0,0-.428,5.531c-.249,2.662-1.162,5.233-1.383,7.9-.118,1.542,0,3.1-.187,4.646a16.949,16.949,0,0,1-2.074,5.724,37.051,37.051,0,0,1-8.939,11.02c-.422.353-.857.691-1.272,1.072a6.571,6.571,0,0,1,.09-.9,5.408,5.408,0,0,0-.878.311,2.636,2.636,0,0,0-.1-1.037c-.553-1.652-3.014-2.074-3.457-3.754a7.669,7.669,0,0,1-.117-1.258c-.145-1.473-1.148-2.717-1.493-4.148-.318-1.32-.076-2.765-.691-3.989a11.148,11.148,0,0,0-1.839-2.074,8.137,8.137,0,0,1-1.749-3.3c-.09-.339-.173-.691-.27-1.03a4.72,4.72,0,0,0-.249-2.274c-.629-1.562-2.254-2.565-2.841-4.148-.456-1.231-.256-2.765-1.12-3.719a4.044,4.044,0,0,0-1.638-.989,36.455,36.455,0,0,0-9.865-2.33c-1.894-.173-3.982-.27-5.337-1.6-1.583-1.549-1.659-4.335-3.512-5.531-1.632-1.058-3.941-.277-5.206,1.21a6.592,6.592,0,0,0-.525.691,7.4,7.4,0,0,1-.145-2.834c0-.235.048-.477.069-.691a13.827,13.827,0,0,0,7.494-5.918v.041l.083.214c.2.5.519.989.989,1.044h0a1.382,1.382,0,0,0,.857-.311,7.086,7.086,0,0,0,1.147-1q.263-.29.5-.6a7.841,7.841,0,0,0,.816-1.383,8.215,8.215,0,0,0,.691-2.316c.124-.8.138-1.625.277-2.426a14.893,14.893,0,0,1,.5-1.832c.069-.2.138-.4.2-.6s.152-.47.221-.691a16.029,16.029,0,0,0,.691-4.383v-.747a7.294,7.294,0,0,0-2.323-5.15c-1.189-.975-2.765-1.383-3.636-2.7a12.862,12.862,0,0,1-1.023-3.063,6.914,6.914,0,0,0-5.434-4.888,6.049,6.049,0,0,0-4.3,1.182h0l-.1.076h0a6.914,6.914,0,0,0-1.714,1.908,5.7,5.7,0,0,1-2.434-1.383c-.691-.643-1.224-1.452-1.922-2.074a4.943,4.943,0,0,0-4.922-1.037,5.882,5.882,0,0,0-3.519,4.03c-.38,1.424-.311,3.063-1.106,4.252-.615.926-1.625,1.383-2.33,2.226a4.188,4.188,0,0,0-.871,1.846h0a5.009,5.009,0,0,0-.118,1.155h0a2.108,2.108,0,0,0,.041.512v.083a3.681,3.681,0,0,0,.118.56h0a4.837,4.837,0,0,0,1.03,1.894,4.549,4.549,0,0,0,1.666,1.2,6.748,6.748,0,0,0,.8.256l.823.187.29.069a13.786,13.786,0,0,0-.387,12.174,5.6,5.6,0,0,1-.069.581,47.81,47.81,0,0,0,.359,8.151,4.375,4.375,0,0,1-.5,3.1,5.888,5.888,0,0,1-1,.892c.374-.484.754-.961,1.141-1.438a4.93,4.93,0,0,0-3.9-1.009,18.067,18.067,0,0,0-7.6,2.323c-1.548.892-3.138,2.074-4.908,1.867-1.044-.117-2.074-.691-3.09-.415a6.262,6.262,0,0,0-1.583.94,2.143,2.143,0,0,1-1.3.4c-1.086-1.334-2.765-2.24-4.065-3.325a32.027,32.027,0,0,1-4.044-4.335c-2.24-2.7-4.473-5.413-6.671-8.144-1.853-2.3-3.754-4.777-4.079-7.715a7.536,7.536,0,0,1-.048-.878,22.325,22.325,0,0,1,.526-4.148,2.078,2.078,0,0,0,0-1c-.208-.691-1-.947-1.687-1.1h0c.09-.532.152-1.078.187-1.6.387-5.945-.034-11.988,1.224-17.808a12.105,12.105,0,0,1,2.869-6.132c2.523-2.551,6.747-3.166,8.683-6.187,1.618-2.516.975-6.077-1.058-8.3a10.471,10.471,0,0,0-8.144-3.014,4.2,4.2,0,0,0-2.371.636,5.036,5.036,0,0,0-1.438,2.185l-2.966,7.21a43.629,43.629,0,0,0-2.171,5.793c-.83,3.028-1.016,6.222-1.673,9.277,0,2.351-1.514,5.282-2.344,7.446-.926,2.433-1.929,4.839-2.765,7.321-.207.622-.933,2.468-1.383,4.148a2.532,2.532,0,0,0-.47.353,12.546,12.546,0,0,0-.982,1.459c-.629.83-1.652,1.272-2.344,2.074s-.837,2.274.125,2.675a2.821,2.821,0,0,0,.6.131,2.344,2.344,0,0,1,.373.062c1.037.29,1.445,1.6,1.293,2.675s-.691,2.074-.781,3.152c-.187,1.908.933,3.685,2.012,5.289a45.586,45.586,0,0,0,3.692,4.971c.975,1.092,2.074,2.074,3.056,3.125,3.74,3.844,6.713,8.337,10.072,12.513a27.757,27.757,0,0,0,4.1,4.3,30.887,30.887,0,0,0,3.1,2.136l5.78,3.664a6.333,6.333,0,0,0,2.185,1.03,2.9,2.9,0,0,0,.774,0c.034.173.062.339.1.512.449,1.811,1.438,3.457,1.549,5.3s-.055,3.733.076,5.6c.124,1.721.5,3.457.6,5.15.194,3.263-.608,6.485-1.382,9.679-1.168,4.673-1.874,9.443-4.148,13.681a8.045,8.045,0,0,0-1.382,3.692,1.916,1.916,0,0,0,.041.484h0l-1.037.588c-.3.173-.608.346-.885.525-1.314.857-2.717,1.8-3.256,3.284-.436,1.2-.235,2.565-.76,3.726a1.66,1.66,0,0,1-.083.152c-.553,1.078-1.652,1.88-1.9,3.063h0c-.187.906.173,1.867,0,2.765v.035a9.989,9.989,0,0,0-.373,1.383,1.653,1.653,0,0,0,.041.456,2.633,2.633,0,0,0,.83,1.348,5.527,5.527,0,0,0,.809.643q.443.29.912.539l.18.1c.263.138.525.27.8.394l.18.076c.311.138.629.263.947.373l.221.069c.249.083.5.159.76.221l.173.055.159.035.691.145.256.049q.456.076.933.124h.276c.235,0,.463.034.692.041h1.265a7.728,7.728,0,0,0,.975-.09h.1c.29-.041.581-.09.871-.152l.221-.048c.27-.062.539-.124.809-.207l.145-.042c.325-.1.65-.2.968-.325a25.386,25.386,0,0,0,3.194-1.583c.691-.38,1.383-.767,2.074-1.12a16.12,16.12,0,0,1,1.576-.691,8.9,8.9,0,0,1,4.148-.691,16.245,16.245,0,0,1,2.074.422v.228q.843,4.978,1.666,9.955a20.263,20.263,0,0,1,2.862-1.721,6.352,6.352,0,0,0-.366,1.555,6.146,6.146,0,0,0,0,1.237,2.686,2.686,0,0,1-.194,1.9c-.242.318-.691.5-.823.857a2.925,2.925,0,0,0-.069,1.127,1.8,1.8,0,0,1-1.646,1.673,2.627,2.627,0,0,1-1.044,3.083,3.654,3.654,0,0,0-.8.525,2.39,2.39,0,0,0-.463,1.044,18.475,18.475,0,0,1-5.413,8.9,17.38,17.38,0,0,0-2.675,2.613,11.885,11.885,0,0,0-1.21,2.385q-2.765,6.761-5.613,13.529a30.026,30.026,0,0,0-2.406,7.805c-.83,7.452-7.466,13.771-6.222,21.168a10.369,10.369,0,0,0,2.157,5.054,12.721,12.721,0,0,0,5.531,3.394,100.69,100.69,0,0,0,16.55,4.348l8.793,1.8a38.458,38.458,0,0,0,5.24.83c2.122.145,4.3-.055,6.367.484a19.759,19.759,0,0,0,3.823,1.016c1.134.062,2.53-.18,3.2.747s.152,2.15.788,2.973c1.023,1.307,3.519,0,4.632,1.231a5.733,5.733,0,0,1,.691,1.528,2.766,2.766,0,0,0,.691.871,5.856,5.856,0,0,1,.083,1.182,20.391,20.391,0,0,1-1,4.715q-1.244,4.21-2.482,8.427a18.648,18.648,0,0,0-.691,3.042,7.281,7.281,0,0,0,0,1.507,4.138,4.138,0,0,0,2.482,3.6,4.548,4.548,0,0,0,3.359-.415,14.837,14.837,0,0,0,2.765-1.867,18.879,18.879,0,0,0,3.989-4.106c3.457-5.171,2.337-12.167,4.763-17.884,1.611-3.816,4.749-6.913,5.793-10.937a4.374,4.374,0,0,0,.083-2.364c-.435-1.383-1.908-2.171-3.284-2.669h-.062a28.348,28.348,0,0,0-3.457-.989c-.29-.062-.588-.111-.885-.159a5.427,5.427,0,0,1-1.528-1.991,4.642,4.642,0,0,0-.325-1.2,1.245,1.245,0,0,0-1-.553c-.691-.069-1.618.18-2.371.124-1.542-.111-2.565-1.624-3.948-2.323a8.06,8.06,0,0,0-4.355-.422,4.031,4.031,0,0,1-1.576-.1,5.926,5.926,0,0,1-1.659-1.141,6.955,6.955,0,0,0-6.09-1.224,6.639,6.639,0,0,1-2.074.47c-1.348-.076-2.3-1.279-3.3-2.191-2.724-2.5-6.6-3.152-9.907-4.791a2.261,2.261,0,0,1-1.189-1.023c-.38-.94.477-1.88,1.251-2.523l5.683-4.722c6.222-5.171,14-9.063,16.889-16.647a9.633,9.633,0,0,1,1.383-2.841,3.854,3.854,0,0,1,.767-.691,5.807,5.807,0,0,1,4.251-.83,14.359,14.359,0,0,1,5.005,2.185q3.712,2.247,7.224,4.839a63.9,63.9,0,0,1,6.6,5.42c3.63,3.457,6.651,7.556,10.031,11.282s7.245,7.2,11.939,8.987,10.37,1.707,14.4-1.286c4.653-3.457,6.146-9.637,7.321-15.306,2.593-2.5,3.374-6.312,4.639-9.678.8-2.136,1.811-4.148,2.669-6.277,1.023-2.5,1.825-5.088,2.627-7.667a36.871,36.871,0,0,0,1.839-8c.332-4.307-.823-8.89.387-12.935a47.651,47.651,0,0,0,4.618-1.777c2.337-.767,4.839-.643,7.314-.629h.159a3.775,3.775,0,0,0,2.434-.574,3.874,3.874,0,0,0,1-2.945C885.863,381.26,885.7,378.287,883.713,376.573ZM783.548,258.647a5.137,5.137,0,0,1-1.749.124Z" transform="translate(-341.927 -226.257)"/>
  <path id="Path_188" data-name="Path 188" class="cls-2" d="M882.751,457.147c-2.074,4.376-.581,9.554-.954,14.393a36.677,36.677,0,0,1-1.839,7.978c-.8,2.572-1.6,5.15-2.627,7.646-.857,2.074-1.873,4.148-2.669,6.263-1.265,3.374-2.074,7.169-4.639,9.678-1.175,5.655-2.668,11.836-7.321,15.264-4.044,2.987-9.679,3.09-14.4,1.286s-8.558-5.261-11.939-8.987-6.4-7.784-10.031-11.255A62.928,62.928,0,0,0,819.716,494q-3.512-2.551-7.224-4.8a14.47,14.47,0,0,0-5.005-2.178,5.807,5.807,0,0,0-4.252.83,3.858,3.858,0,0,0-.767.691,9.514,9.514,0,0,0-1.383,2.834c-2.9,7.563-10.694,11.448-16.916,16.606l-5.683,4.708c-.774.643-1.631,1.583-1.251,2.516a2.261,2.261,0,0,0,1.189,1.023c3.3,1.631,7.183,2.288,9.907,4.777,1,.913,1.949,2.115,3.3,2.185a6.622,6.622,0,0,0,2.074-.463,6.974,6.974,0,0,1,6.091,1.217,5.927,5.927,0,0,0,1.659,1.141,4.034,4.034,0,0,0,1.577.1,8.416,8.416,0,0,1,4.355.422c1.32.657,2.406,2.205,3.947,2.316.754.055,1.652-.194,2.371-.125a1.244,1.244,0,0,1,1,.553,4.574,4.574,0,0,1,.325,1.189c.283.975,1.237,1.569,1.86,2.371a6.551,6.551,0,0,1,1,4.459,19.028,19.028,0,0,1-6.056,12.734,7.5,7.5,0,0,1-3.726,2.074,3.457,3.457,0,0,1-3.692-1.638,5.684,5.684,0,0,0-.691-1.521c-1.113-1.224-3.609.076-4.632-1.231-.636-.816-.18-2.122-.788-2.966s-2.074-.691-3.2-.74a20.277,20.277,0,0,1-3.823-1.016c-2.074-.539-4.245-.339-6.367-.484a38.444,38.444,0,0,1-5.24-.83l-8.793-1.8a104.236,104.236,0,0,1-16.55-4.335,13.317,13.317,0,0,1-5.531-3.387,10.369,10.369,0,0,1-2.157-5.047c-1.251-7.376,5.385-13.681,6.222-21.113a29.617,29.617,0,0,1,2.406-7.784q2.813-6.747,5.613-13.5a12.019,12.019,0,0,1,1.175-2.392,17.343,17.343,0,0,1,2.675-2.606,18.411,18.411,0,0,0,5.413-8.877,2.392,2.392,0,0,1,.463-1.044,3.885,3.885,0,0,1,.8-.518,2.627,2.627,0,0,0,1.044-3.076,1.8,1.8,0,0,0,1.646-1.673,2.887,2.887,0,0,1,.069-1.12c.166-.359.581-.539.823-.857a2.672,2.672,0,0,0,.193-1.894,6.183,6.183,0,0,1,0-1.237,6.356,6.356,0,0,1,1.853-3.865c1.652-1.625,4-1.2,6.284-1.59a35.988,35.988,0,0,0,6.637-2.122,65.2,65.2,0,0,1,18.742-4.335,40.919,40.919,0,0,1,18.928,3.014,10.769,10.769,0,0,1,2.44,1.383,4.623,4.623,0,0,1,1.279,1.528,14.27,14.27,0,0,0,.94,2.122c.74,1.009,2.136,1.334,2.945,2.288s.878,2.565,1.548,3.747c.961,1.687,3.187,2.468,3.851,4.3.207.581.235,1.217.387,1.818a10.4,10.4,0,0,0,2.482,3.885,29.872,29.872,0,0,1,6.692,15.209c.221-3.505,2.579-6.609,5.531-8.545.795-.519,1.714-1.092,1.873-2.033.2-1.189-.954-2.247-.878-3.457a3.39,3.39,0,0,1,.691-1.618,51.193,51.193,0,0,1,4.328-5.441c.85-.933,1.8-2.074,1.452-3.3-.27-.919-1.21-1.459-1.729-2.261a2.876,2.876,0,0,1,.069-3.18c.484-.657,1.251-1.134,1.486-1.915.27-.919-.332-1.915-.145-2.862a3.539,3.539,0,0,1,1.424-1.846,8.709,8.709,0,0,1,8.883-2.2c3.235.449,6.865,1.141,8.69,3.851C883.028,452.764,883.622,455.336,882.751,457.147Z" transform="translate(-353.879 -294.229)"/>
  <path id="Path_197" data-name="Path 197" class="cls-3" d="M813.913,331.779a12.271,12.271,0,0,1,2.185-5.344c1.265-1.479,3.574-2.261,5.206-1.2,1.853,1.2,1.929,3.982,3.512,5.531,1.383,1.327,3.457,1.431,5.337,1.6a36.19,36.19,0,0,1,9.865,2.323,4.031,4.031,0,0,1,1.638.982c.864.982.691,2.489,1.12,3.712.588,1.576,2.212,2.579,2.841,4.148.691,1.742,0,3.692-.581,5.482-1.044,3.215-1.7,6.554-2.717,9.782a21.78,21.78,0,0,1-4.839,8.842c-1.051,1.078-2.613,2.074-4,1.431l-.532,3.837a6.516,6.516,0,0,0,0,2.454,2.2,2.2,0,0,0,1.6,1.7c.1.595.733.878,1.244,1.2a3.457,3.457,0,0,1,.878,4.839c-.436.588-1.078,1.051-1.286,1.749a2.485,2.485,0,0,0,1.327,2.627c.9.553,1.956.809,2.869,1.341,1.894,1.092,2.91,3.242,3.56,5.33.484,1.576.885,3.284,2.074,4.431.456.436,1,.767,1.438,1.224a5.247,5.247,0,0,1,1.238,3.173,6.3,6.3,0,0,1-.9,4.148c-1.383,1.977-3.961,2.565-6.222,3.457-3.671,1.507-6.692,4.2-9.927,6.5a10.593,10.593,0,0,1-4.528,2.129c-2.24.3-4.445-.691-6.7-.781a16.633,16.633,0,0,0-4,.526l-4.148.9c.221-3.215-1.548-6.436-2.537-9.5a47.2,47.2,0,0,1-1.77-17.974,140.758,140.758,0,0,1,2.89-17.933c.85-4.148.767-8.483,2.074-12.513,1.224-3.878,2.973-7.6,3.616-11.642C816.8,343.76,812.434,338.222,813.913,331.779Z" transform="translate(-372.562 -256.658)"/>
  <path id="Path_198" data-name="Path 198" class="cls-3" d="M857.795,352.972a7.6,7.6,0,0,1,.8,2.247,8.106,8.106,0,0,0,1.749,3.291,11.342,11.342,0,0,1,1.839,2.074c.636,1.2.394,2.668.691,3.982.346,1.431,1.348,2.676,1.493,4.148a7.591,7.591,0,0,0,.117,1.258c.449,1.673,2.911,2.074,3.457,3.747.366,1.085-.263,2.268-.145,3.408a3,3,0,0,1,.062,1.078,2.191,2.191,0,0,1-.788,1.009,15.9,15.9,0,0,0-4.549,8.1,46.117,46.117,0,0,0-1.044,9.354l-2.7-3.574a4.112,4.112,0,0,0-1.078-1.106c-.346-.207-.747-.311-1.1-.518-1.023-.581-1.424-1.811-1.818-2.917a26.968,26.968,0,0,0-4.839-8.379c-1.1-1.293-2.378-2.592-2.62-4.272a7.877,7.877,0,0,1,.125-2.309c.691-4.528,1.431-9.167,3.636-13.184,1.03-1.88,2.364-3.581,3.353-5.489C855.092,353.649,856.025,350.359,857.795,352.972Z" transform="translate(-384.996 -265.068)"/>
  <path id="Path_199" data-name="Path 199" class="cls-3" d="M746.524,338.006a3.16,3.16,0,0,1-.429,1.659,2.185,2.185,0,0,1-2.185.691,6.319,6.319,0,0,1-2.185-1.023q-2.89-1.825-5.779-3.657a31.986,31.986,0,0,1-3.1-2.129,27.71,27.71,0,0,1-4.1-4.293c-3.36-4.148-6.333-8.648-10.073-12.444-1.016-1.037-2.074-2.033-3.056-3.118a45.523,45.523,0,0,1-3.692-4.964c-1.078-1.6-2.2-3.367-2.012-5.275.11-1.078.629-2.074.781-3.145s-.256-2.378-1.293-2.669a2.341,2.341,0,0,0-.373-.062,2.818,2.818,0,0,1-.6-.131c-.961-.4-.816-1.887-.124-2.668s1.714-1.217,2.344-2.074a12.52,12.52,0,0,1,.982-1.459,3.74,3.74,0,0,1,1.611-.809,24.929,24.929,0,0,1,12.271-.463c.691.152,1.479.429,1.687,1.1a2.027,2.027,0,0,1,0,1,22.251,22.251,0,0,0-.525,4.148,7.34,7.34,0,0,0,.048.871c.325,2.931,2.226,5.413,4.079,7.7,2.2,2.724,4.431,5.427,6.671,8.123a31.934,31.934,0,0,0,4.044,4.321c1.383,1.148,3.173,2.074,4.252,3.546.878,1.189.594,2.814.691,4.245a94.258,94.258,0,0,1,.069,12.983Z" transform="translate(-341.924 -245.754)"/>
  <path id="Path_208" data-name="Path 208" class="cls-3" d="M874.794,384.46a12.091,12.091,0,0,0,8.475,13.363c-.339,1.638-2.032,2.544-3.228,3.713-1.687,1.638-2.558,4.093-4.549,5.337-2.219,1.383-5.074.843-7.6.263a.926.926,0,0,1-.595-.311.847.847,0,0,1-.11-.27c-.837-3.063-1.383-6.333-.526-9.4.692-2.613,2.351-4.839,3.678-7.148S871.787,385.22,874.794,384.46Z" transform="translate(-390.844 -275.091)"/>
  <path id="Path_209" data-name="Path 209" class="cls-3" d="M774.821,327.11a17.976,17.976,0,0,0-7.6,2.316c-1.548.885-3.138,2.074-4.908,1.86-1.044-.118-2.074-.691-3.09-.415a6.065,6.065,0,0,0-1.583.94,1.791,1.791,0,0,1-1.742.277l-.691,9.568c-.263,3.636-.518,7.349.353,10.9.449,1.811,1.438,3.457,1.548,5.3s-.055,3.726.076,5.586c.125,1.721.5,3.415.6,5.136a32.683,32.683,0,0,1-1.383,9.63c-1.168,4.66-1.873,9.423-4.148,13.64a8.047,8.047,0,0,0-1.383,3.685,1.889,1.889,0,0,0,.041.484c-.691.38-1.334.74-1.922,1.113-1.314.85-2.717,1.8-3.256,3.27-.435,1.2-.235,2.565-.76,3.719s-1.728,1.977-1.991,3.222c-.187.906.173,1.86,0,2.765a11.813,11.813,0,0,0-.38,1.431,3,3,0,0,0,1.68,2.44,13.532,13.532,0,0,0,4.148,1.825l4.127-16.384h0a132.1,132.1,0,0,0,9.354-21.756,46.791,46.791,0,0,1,2.7-7.162,33.66,33.66,0,0,0,2.074-4.065,30.628,30.628,0,0,0,1-5.468,38.25,38.25,0,0,1,1.625-6.312,27.093,27.093,0,0,0,1.763-6.761c.228-3.332-.982-6.851.3-9.934a13.212,13.212,0,0,1,2.109-3.173c1.784-2.185,3.408-4.473,5.192-6.657C777.745,327.131,776.2,327.027,774.821,327.11Z" transform="translate(-352.682 -257.381)"/>
  <path id="Path_184" data-name="Path 184" class="cls-4" d="M809.894,327.393a7.6,7.6,0,0,1-2.876,1.528l-4.9,1.756c-2.662.954-5.441,1.915-8.248,1.569-1.569-.194-8.3-1.182-9.312-2.406-1.549-1.894,3.878-4.68,5.731-6.277a7.832,7.832,0,0,0,1.161-1.023,4.169,4.169,0,0,0,.5-3.09,47.711,47.711,0,0,1-.36-8.137,16.4,16.4,0,0,1,.277-1.929c.691-3.18,3.65-2.019,5.987-1.175a46.811,46.811,0,0,1,8.123,3.519,5.829,5.829,0,0,1,2,1.7c1.023,1.549.615,3.581.449,5.531-.145,1.514-.138,2.966.809,4.065a10.488,10.488,0,0,1,1.307,1.383A2.592,2.592,0,0,1,809.894,327.393Z" transform="translate(-365.55 -251.269)"/>
  <path id="Path_185" data-name="Path 185" class="cls-4" d="M720.343,253.153c.691-3.063.844-6.222,1.673-9.257a43.391,43.391,0,0,1,2.171-5.773l3.049-7.114a5.018,5.018,0,0,1,1.438-2.178,4.258,4.258,0,0,1,2.371-.636,10.564,10.564,0,0,1,8.144,3.007c2.033,2.191,2.676,5.738,1.058,8.247-1.936,3.021-6.16,3.629-8.683,6.173a12.086,12.086,0,0,0-2.869,6.118c-1.258,5.807-.837,11.829-1.224,17.76-.124,1.846-.484,3.954-2.074,4.908a6.049,6.049,0,0,1-3.1.6l-4.535.076c-.76,0-3.519.477-4.023-.1-.885-1,1.134-5.994,1.5-7.107.816-2.468,1.818-4.874,2.765-7.3C718.829,258.421,720.343,255.5,720.343,253.153Z" transform="translate(-343.706 -226.853)"/>
  <path id="Path_186" data-name="Path 186" class="cls-2" d="M848.485,575.676c-1.044,4-4.182,7.107-5.793,10.916-2.426,5.7-1.334,12.679-4.763,17.836a18.848,18.848,0,0,1-3.989,4.113,14.823,14.823,0,0,1-2.765,1.86,4.549,4.549,0,0,1-3.36.415,4.138,4.138,0,0,1-2.482-3.595,7.266,7.266,0,0,1,0-1.5,18.6,18.6,0,0,1,.691-3.035q1.244-4.2,2.482-8.407a20.36,20.36,0,0,0,1-4.7c.09-1.742-1.016-4.01-.546-5.634.214-.733,1.016-1.383,1.383-2a11.576,11.576,0,0,0,1.189-2.828c.567-1.929.954-3.989,2.143-5.614a13.178,13.178,0,0,1,2.7-2.523,7.149,7.149,0,0,1,2.572-1.445,6.3,6.3,0,0,1,2.765.131,27.15,27.15,0,0,1,3.457.982h.062c1.383.5,2.848,1.265,3.284,2.662A4.348,4.348,0,0,1,848.485,575.676Z" transform="translate(-378.209 -332.191)"/>
  <path id="Path_187" data-name="Path 187" class="cls-2" d="M948.753,450.063a3.831,3.831,0,0,1-1,2.938,3.775,3.775,0,0,1-2.434.574h-.186c-2.468,0-4.978-.138-7.314.629-1.777.588-3.408,1.666-5.261,1.88-2.551.29-4.95-1.106-7.21-2.323a71.719,71.719,0,0,0-6.547-3.111c-1.466-.6-4.459-.989-5.164-2.593a23.673,23.673,0,0,1-.609-2.309,7.627,7.627,0,0,0-.422-1.016,5.844,5.844,0,0,1-.774-2.288,3.532,3.532,0,0,1,.788-2.212,6.629,6.629,0,0,1,4.528-2.33,20.046,20.046,0,0,1,5.212.277l17.021,2.447c1.314.187,2.634.373,3.927.691a7.7,7.7,0,0,1,3.374,1.479C948.691,444.485,948.857,447.45,948.753,450.063Z" transform="translate(-404.921 -291.569)"/>
  <path id="Path_189" data-name="Path 189" class="cls-5" d="M948.744,450.063a3.831,3.831,0,0,1-1,2.938,3.775,3.775,0,0,1-2.434.574h-.187c.283-1.438,2.032-2.261,2.337-3.719a3.291,3.291,0,0,0-.76-2.51c-1.479-2-3.858-3.1-6.222-3.913a41.216,41.216,0,0,0-20.781-1.555,20.922,20.922,0,0,0-5.461,1.68,17.761,17.761,0,0,0-1.659,1.175,5.843,5.843,0,0,1-.774-2.288,3.532,3.532,0,0,1,.788-2.212,6.629,6.629,0,0,1,4.528-2.33,20.043,20.043,0,0,1,5.212.276l17.02,2.447a39.815,39.815,0,0,1,3.927.691,7.7,7.7,0,0,1,3.374,1.479C948.682,444.484,948.848,447.45,948.744,450.063Z" transform="translate(-404.912 -291.569)"/>
  <path id="Path_190" data-name="Path 190" class="cls-5" d="M848.485,576.225c-1.044,4-4.182,7.107-5.793,10.916-2.426,5.7-1.334,12.679-4.763,17.836a18.844,18.844,0,0,1-3.989,4.114,14.826,14.826,0,0,1-2.765,1.86,4.549,4.549,0,0,1-3.36.415,4.138,4.138,0,0,1-2.482-3.595,7.266,7.266,0,0,1,0-1.5l.042.111c.6,1.452,1.583,2.973,3.132,3.228a4.236,4.236,0,0,0,3.194-1.127c2.281-1.832,3.609-4.563,4.874-7.2a29.938,29.938,0,0,0,2.337-5.966c.276-1.175.408-2.378.691-3.553,1.313-5.71,5.786-10.37,6.775-16.156a3.957,3.957,0,0,0,.055-1.21,6.111,6.111,0,0,0-.595-1.507,7.464,7.464,0,0,1-.525-1.673c1.383.5,2.848,1.265,3.284,2.661A4.35,4.35,0,0,1,848.485,576.225Z" transform="translate(-378.209 -332.74)"/>
  <path id="Path_191" data-name="Path 191" class="cls-5" d="M824.286,546.078a10.018,10.018,0,0,1-3.118,4.259,15.21,15.21,0,0,1-6.713,2.9A6.679,6.679,0,0,1,811,553.2c-1.535-.532-2.641-1.97-4.21-2.385a28.864,28.864,0,0,0-3.457-.2c-2.039-.284-3.622-1.839-5.268-3.083-5.04-3.788-11.656-5.012-16.7-8.8a1.551,1.551,0,0,1-.539-.56,1.667,1.667,0,0,1-.1-.781,15.9,15.9,0,0,1,1.514-6.644,23.181,23.181,0,0,1,2.848-4.058c4.515-5.531,9.049-11.1,14.456-15.769a21.9,21.9,0,0,1,7.6-4.666c1.59-.491,4.729-.954,6.664-.124a3.844,3.844,0,0,0-.767.691,9.516,9.516,0,0,0-1.383,2.834c-2.91,7.57-10.7,11.455-16.923,16.613l-5.683,4.708c-.774.643-1.631,1.583-1.251,2.516a2.26,2.26,0,0,0,1.189,1.023c3.3,1.632,7.183,2.288,9.907,4.777,1,.913,1.949,2.115,3.3,2.185a6.617,6.617,0,0,0,2.074-.463,6.975,6.975,0,0,1,6.09,1.217,5.923,5.923,0,0,0,1.659,1.141,4.031,4.031,0,0,0,1.576.1,8.411,8.411,0,0,1,4.355.422c1.32.657,2.406,2.205,3.947,2.316C822.668,546.258,823.567,545.995,824.286,546.078Z" transform="translate(-364.449 -312.506)"/>
  <path id="Path_192" data-name="Path 192" class="cls-2" d="M748.916,417.111c-1.313.843-2.71,1.8-3.249,3.263-.442,1.2-.235,2.565-.767,3.726s-1.728,1.97-1.991,3.215c-.187.906.18,1.86,0,2.765a11.882,11.882,0,0,0-.38,1.438c-.069,1.03.816,1.867,1.68,2.44a14.034,14.034,0,0,0,12.562,1.383,56.788,56.788,0,0,0,5.282-2.7,10.446,10.446,0,0,1,5.69-1.383c1.141.125,2.233.539,3.374.691a3.54,3.54,0,0,0,3.159-.94,3.938,3.938,0,0,0,.691-1.638,24.485,24.485,0,0,0-.387-11.635c-.913-3.816-2.3-7.487-3.27-11.282a51.766,51.766,0,0,0-2.378-8.358c-1.155-2.662-3.1-5.137-5.814-6.153a1.084,1.084,0,0,0-.691-.09,1.177,1.177,0,0,0-.449.332,21.258,21.258,0,0,0-4.742,7.978c-1.085,3.311-1.383,6.823-2.378,10.149a10.394,10.394,0,0,1-2.074,4.293A23.693,23.693,0,0,1,748.916,417.111Z" transform="translate(-352.66 -277.366)"/>
  <path id="Path_193" data-name="Path 193" class="cls-5" d="M774.992,429.326a4.033,4.033,0,0,1-.726,1.638,3.505,3.505,0,0,1-3.159.933c-1.134-.138-2.226-.56-3.367-.691a10.424,10.424,0,0,0-5.689,1.383c-1.77.885-3.457,1.984-5.289,2.7a13.957,13.957,0,0,1-8.386.477,13.531,13.531,0,0,1-4.148-1.825,2.974,2.974,0,0,1-1.68-2.44,11.817,11.817,0,0,1,.38-1.431c.18-.906-.18-1.86,0-2.765.263-1.244,1.466-2.074,1.991-3.222s.325-2.523.76-3.719c.539-1.472,1.943-2.42,3.256-3.27a24.831,24.831,0,0,0,3.927-2.53,3.892,3.892,0,0,0,.367-.512,12.45,12.45,0,0,0,1.645-3.809c1.016-3.332,1.293-6.837,2.371-10.156a21.3,21.3,0,0,1,4.749-7.971,1.045,1.045,0,0,1,.443-.332,1.106,1.106,0,0,1,.691.083c2.71,1.023,4.653,3.5,5.814,6.16a54.447,54.447,0,0,1,2.378,8.351c.968,3.8,2.357,7.48,3.27,11.289A24.6,24.6,0,0,1,774.992,429.326Z" transform="translate(-352.666 -277.344)"/>
  <path id="Path_194" data-name="Path 194" class="cls-5" d="M811.7,318.947a13.826,13.826,0,0,1-16.841-7.6,16.352,16.352,0,0,1,.277-1.929c.691-3.18,3.65-2.019,5.987-1.175a46.808,46.808,0,0,1,8.123,3.519,5.826,5.826,0,0,1,2,1.7C812.274,314.986,811.866,317.018,811.7,318.947Z" transform="translate(-368.815 -251.279)"/>
  <ellipse id="Ellipse_34" data-name="Ellipse 34" class="cls-4" cx="13.826" cy="13.826" rx="13.826" ry="13.826" transform="translate(424.884 39.974)"/>
  <path id="Path_195" data-name="Path 195" class="cls-5" d="M842.925,451.362c0,1.148-1.555,1.514-2.71,1.452-4.148-.242-8.206-1.383-12.312-1.037-5.192.47-9.962,3.339-15.168,3.6-2,.1-4.044-.194-6.021.173-2.558.477-4.839,2.032-7.445,2.254-2.261.194-4.494-.657-6.754-.567A10.854,10.854,0,0,0,788,458.524a6.353,6.353,0,0,1,1.853-3.865c1.652-1.625,4-1.2,6.284-1.59a36,36,0,0,0,6.637-2.122,65.2,65.2,0,0,1,18.741-4.335,40.92,40.92,0,0,1,18.922,2.993,10.762,10.762,0,0,1,2.44,1.383A1.08,1.08,0,0,1,842.925,451.362Z" transform="translate(-366.697 -294.236)"/>
  <path id="Path_196" data-name="Path 196" class="cls-6" d="M793.892,337.644l-5.6-2.074-2.364-.871a11.434,11.434,0,0,0-3.014-.8c-2.71-.207-5.261,1.6-6.706,3.9a21.068,21.068,0,0,0-2.454,7.722q-.954,5.489-1.618,11.02a71.974,71.974,0,0,0-.726,10.052c.159,8.559,1.97,17,3.961,25.33a89.092,89.092,0,0,1,2.205,11.234c.166,1.562.242,3.132.408,4.7.18,1.763.47,3.5.76,5.254l1.666,9.934a13.133,13.133,0,0,1,6.982-2.841c2.261-.083,4.5.76,6.754.567,2.593-.214,4.888-1.77,7.446-2.247,1.977-.366,4.016-.076,6.028-.173,5.2-.263,9.976-3.139,15.161-3.6,4.113-.373,8.2.788,12.319,1.03,1.148.069,2.7-.3,2.7-1.452,0-.8-.8-1.334-1.5-1.735a73.966,73.966,0,0,1-9.367-6.685c-2.724-2.157-5.489-4.369-7.363-7.287-4.514-7.017-2.966-16.509-6.816-23.913-3.132-6.015,0-13.9,0-20.677a31.453,31.453,0,0,0-2.648-15.479l-2.689-6.81a1.112,1.112,0,0,0-.318-.518,1.058,1.058,0,0,0-.615-.187,6.485,6.485,0,0,0-4.466,1.431c-1.265,1.03-2.074,2.509-3.318,3.581C797.341,337.229,795.585,338.266,793.892,337.644Z" transform="translate(-361.576 -258.596)"/>
  <path id="Path_200" data-name="Path 200" class="cls-4" d="M885.7,378.69a11.151,11.151,0,0,0,3.222-5.268l4.01-11.372c.636-1.8,1.272-3.6,2.074-5.351.829-1.887,1.811-3.706,2.717-5.531a73.773,73.773,0,0,0,5.371-15.036,5.576,5.576,0,0,0,.214-2.205,5.8,5.8,0,0,0-1.963-2.98,14.378,14.378,0,0,0-2.945-2.433,4.839,4.839,0,0,0-3.692-.595c-1.77.518-2.883,2.33-3.291,4.148a43.309,43.309,0,0,0-.429,5.531c-.249,2.655-1.161,5.22-1.383,7.881-.118,1.542,0,3.1-.187,4.632a16.913,16.913,0,0,1-2.074,5.717,37.114,37.114,0,0,1-8.939,10.992,14.378,14.378,0,0,0-2.682,2.579,8.418,8.418,0,0,0-1.293,3.222,7.419,7.419,0,0,0,.56,5.233c1.127,1.922,3.291,2.765,5.358,3.194C883.143,381.628,883.785,380.674,885.7,378.69Z" transform="translate(-393.302 -257.596)"/>
  <path id="Path_201" data-name="Path 201" class="cls-2" d="M805.675,272.884a6.45,6.45,0,0,1,6.263-3.394,6.913,6.913,0,0,1,5.434,4.881,12.618,12.618,0,0,0,1.023,3.056c.857,1.334,2.447,1.721,3.636,2.689a7.28,7.28,0,0,1,2.323,5.143,15.559,15.559,0,0,1-.92,5.814,18.491,18.491,0,0,0-.691,2.433c-.138.8-.152,1.618-.276,2.42a7.881,7.881,0,0,1-3.173,5.233,1.382,1.382,0,0,1-.857.311c-.539-.062-.871-.691-1.071-1.258-1.1-3.173-.837-7.052-2.862-9.582a10.475,10.475,0,0,0-3.277-2.44,4.227,4.227,0,0,0-1.673-.629,4.4,4.4,0,0,0-2.419.885,15.064,15.064,0,0,1-4.784,2.115,5.876,5.876,0,0,1-4.943-1.065c-.954-.788-1.652-1.97-2.71-2.586s-2.164-.581-3.208-1a4.75,4.75,0,0,1-1.922-7.245c.691-.83,1.715-1.3,2.33-2.219.8-1.189.726-2.821,1.106-4.245a5.841,5.841,0,0,1,3.519-4.017,4.943,4.943,0,0,1,4.922,1.03c.692.622,1.244,1.424,1.922,2.074a5.531,5.531,0,0,0,5.116,1.383" transform="translate(-366.882 -239.118)"/>
  <path id="Path_202" data-name="Path 202" class="cls-5" d="M829.339,421.181a2.682,2.682,0,0,0-.733,2.931c.152.325,7.286-1.051,8.04-1.155,1.88-.27,5.178-.138,6.443-1.86,2.254-3.049-4.729-2.371-6.007-2.261C834.648,419.044,831.192,419.376,829.339,421.181Z" transform="translate(-379.18 -285.659)"/>
  <path id="Path_203" data-name="Path 203" class="cls-2" d="M727.2,292.1a22.261,22.261,0,0,0-.526,4.148c-2.074.422-4.231-.27-6.222-.961l-5.717-1.95a1.625,1.625,0,0,0-2.185.408,48.411,48.411,0,0,1-3.457,3.837,2.82,2.82,0,0,1-.6-.131c-.961-.4-.816-1.887-.124-2.668s1.714-1.217,2.344-2.074a12.516,12.516,0,0,1,.982-1.459,3.74,3.74,0,0,1,1.611-.809,24.93,24.93,0,0,1,12.271-.463c.691.152,1.479.429,1.687,1.1A2.028,2.028,0,0,1,727.2,292.1Z" transform="translate(-341.945 -245.754)"/>
  <path id="Path_204" data-name="Path 204" class="cls-5" d="M727.2,292.1a22.261,22.261,0,0,0-.526,4.148c-2.074.422-4.231-.27-6.222-.961l-5.717-1.95a1.625,1.625,0,0,0-2.185.408,48.411,48.411,0,0,1-3.457,3.837,2.82,2.82,0,0,1-.6-.131c-.961-.4-.816-1.887-.124-2.668s1.714-1.217,2.344-2.074a12.516,12.516,0,0,1,.982-1.459,3.74,3.74,0,0,1,1.611-.809,24.93,24.93,0,0,1,12.271-.463c.691.152,1.479.429,1.687,1.1A2.028,2.028,0,0,1,727.2,292.1Z" transform="translate(-341.945 -245.754)"/>
  <path id="Path_205" data-name="Path 205" class="cls-5" d="M805.39,481.931a3.45,3.45,0,0,1,2.413,1.811L799.8,481.71l-4.148-1.058c-.733-.187-3.36-.4-3.844-.975-.691-.843,1.763-.263,2.205-.2,1.341.2,2.682.408,4.016.65C800.544,480.576,802.963,481.316,805.39,481.931Z" transform="translate(-367.834 -304.343)"/>
  <path id="Path_206" data-name="Path 206" class="cls-5" d="M808.538,490.9c-.691-.463-2.675-.408-3.526-.608-1.244-.3-2.468-.691-3.692-1.072-2.482-.809-4.943-1.728-7.494-2.323-.47-.1-2.074-.131-2-.726s1.6-.8,1.984-.83c2.261-.166,5.081.892,7.183,1.645A31.65,31.65,0,0,1,808.538,490.9Z" transform="translate(-367.878 -306.226)"/>
  <path id="Path_207" data-name="Path 207" class="cls-5" d="M804.209,472.1c-2.537-.691-4.839-2.268-7.452-2.572a3.029,3.029,0,0,1-1.9-.581,2.241,2.241,0,0,1-.615-1.106,12.878,12.878,0,0,1,5.371,1.348,16.89,16.89,0,0,1,2.517,1.341C802.709,470.878,803.58,471.895,804.209,472.1Z" transform="translate(-368.623 -300.825)"/>
  <g id="Group_24" data-name="Group 24" class="cls-7" transform="translate(421.739 31.492)">
    <path id="Path_210" data-name="Path 210" d="M816.961,271.81l-.864.062-.1.069A5.111,5.111,0,0,0,816.961,271.81Z" transform="translate(-797.079 -271.81)"/>
    <path id="Path_211" data-name="Path 211" d="M824.33,290.573a18.627,18.627,0,0,1-.885,4.037,18.489,18.489,0,0,0-.691,2.433c-.138.8-.152,1.618-.277,2.42A7.882,7.882,0,0,1,819.3,304.7a1.382,1.382,0,0,1-.857.311c-.539-.062-.871-.691-1.072-1.258-1.1-3.173-.836-7.052-2.862-9.582a10.475,10.475,0,0,0-3.277-2.44,4.224,4.224,0,0,0-1.673-.629,4.4,4.4,0,0,0-2.42.885,15.062,15.062,0,0,1-4.784,2.115,5.876,5.876,0,0,1-4.943-1.065c-.954-.788-1.652-1.97-2.71-2.586s-2.164-.581-3.208-1a4.722,4.722,0,0,1-2.7-3.083,2.009,2.009,0,0,1-.055-.263,4.838,4.838,0,0,0,.055,2.337,4.721,4.721,0,0,0,2.7,3.083,23.323,23.323,0,0,1,3.208,1c.989.574,1.756,1.8,2.71,2.586a5.877,5.877,0,0,0,4.943,1.065,15.066,15.066,0,0,0,4.784-2.115,4.4,4.4,0,0,1,2.42-.885,4.226,4.226,0,0,1,1.673.629,10.476,10.476,0,0,1,3.228,2.461c2.026,2.53,1.763,6.409,2.862,9.582.2.574.532,1.2,1.072,1.258a1.383,1.383,0,0,0,.906-.332,7.881,7.881,0,0,0,3.18-5.254c.124-.8.138-1.618.277-2.42a18.458,18.458,0,0,1,.691-2.433,15.564,15.564,0,0,0,.92-5.814C824.358,290.766,824.344,290.67,824.33,290.573Z" transform="translate(-788.631 -276.221)"/>
  </g>
  <path id="Path_213" data-name="Path 213" class="cls-8" d="M648.135,486.324c38.092-14.974,58.278-41.61,68.641-62.067,12.084-23.851,13.73-44.245,13.792-45.116l.47-6.312h4.839l-.47,6.312c-.062.857-1.707,21.265-13.792,45.116-10.37,20.456-30.55,47.093-68.641,62.067q-4.459,1.763-9.264,3.3l-.47-1.472Q645.743,487.257,648.135,486.324Z" transform="translate(-322.013 -271.501)"/>
  <rect id="Rectangle_32" data-name="Rectangle 32" class="cls-5" width="130.431" height="7.95" transform="translate(218.691 315.168)"/>
  <path id="Path_217" data-name="Path 217" class="cls-8" d="M505.981,640.2c42.267-15,50.833-54.124,52.54-69.6a63.7,63.7,0,0,0,.436-6.443h-6.913a63.679,63.679,0,0,1-.436,6.443c-1.735,15.479-10.3,54.614-52.54,69.6l-4.148,5.531V709.1h6.913V645.726Z" transform="translate(-276.229 -330.558)"/>
  <path id="Path_218" data-name="Path 218" class="cls-5" d="M466.26,372.81h11.7v11.752H467.3Q466.668,378.755,466.26,372.81Z" transform="translate(-267.383 -271.495)"/>
  <path id="Path_219" data-name="Path 219" class="cls-5" d="M528.508,520.521l-3.567,11.2q-4.8-1.535-9.264-3.3A123.851,123.851,0,0,1,502.77,509.26,130.663,130.663,0,0,0,528.508,520.521Z" transform="translate(-278.653 -313.614)"/>
  <path id="Path_220" data-name="Path 220" class="cls-5" d="M638.51,520.525a130.959,130.959,0,0,0,25.731-11.255,124.317,124.317,0,0,1-12.907,19.17q-4.459,1.763-9.257,3.291Z" transform="translate(-320.553 -313.617)"/>
  <path id="Path_221" data-name="Path 221" class="cls-5" d="M707.02,372.81q-.408,5.945-1.037,11.752H695.33V372.81Z" transform="translate(-338.092 -271.495)"/>
  <path id="Path_222" data-name="Path 222" class="cls-5" d="M593.959,570.593a44.68,44.68,0,0,1-17,0,63.654,63.654,0,0,0,.436-6.443h16.129a63.584,63.584,0,0,0,.436,6.443Z" transform="translate(-301.553 -330.558)"/>
  <path id="Union_7" data-name="Union 7" class="cls-9" d="M66.859-3315.858v-63.374l4.148-5.531c42.268-15,50.833-54.123,52.541-69.6q.08-.676.146-1.354c-12.865-2.427-24.866-10.378-35.345-22.59q-1.691-.619-3.336-1.269c-38.092-14.974-58.272-41.611-68.641-62.067-12.084-23.85-13.73-44.258-13.793-45.115l-.47-6.312H2.29v-.014h46.83q-.651-9.565-.691-19.467h167.3c-.023,6.591-.258,13.092-.692,19.468h46.832l-.471,6.311c-.069.858-1.707,21.265-13.792,45.116-10.37,20.456-30.55,47.1-68.648,62.073q-1.509.6-3.057,1.167c-10.516,12.291-22.573,20.29-35.5,22.711q.065.672.145,1.342c1.735,15.479,10.3,54.614,52.54,69.6l4.2,5.531v63.374Zm122-181.221q1.513-.814,3.006-1.668a113.4,113.4,0,0,0,26.025-20.566,117.637,117.637,0,0,0,19.022-27.245,128.459,128.459,0,0,0,11.822-34.774H214C210.4-3548.351,201.413-3519.106,188.857-3497.079ZM27.246-3546.558c10.529,20.594,25.62,36.6,45.04,47.8q1.493.855,3.008,1.67c-12.556-22.027-21.544-51.268-25.136-84.249H15.39A128.488,128.488,0,0,0,27.246-3546.558Z" transform="translate(151.832 3694.4)"/>
  <path id="Path_224" data-name="Path 224" class="cls-8" d="M483.123,344.65H468.26c.3,87.148,37.628,157.621,83.65,157.621a45.163,45.163,0,0,0,7.432-.629C516.8,494.535,483.407,427.055,483.123,344.65Z" transform="translate(-268 -262.802)"/>
  <rect id="Rectangle_33" data-name="Rectangle 33" class="cls-2" width="88.717" height="22.814" transform="translate(239.548 339.427)"/>
  <path id="Path_225" data-name="Path 225" class="cls-8" d="M501.238,596.611h84.569V593.5H497.09v22.814h4.148Z" transform="translate(-257.542 -254.073)"/>
  <path id="Path_226" data-name="Path 226" class="cls-10" d="M331.529,415.462c-1.6-.532-11-7.971-11.711-11.338s4.971-34.732,4.971-34.732a12.763,12.763,0,0,1-1.383-.1v-.5l1.168-41.2s4.791-27.653-4.258-26.042-3.374,26.042-3.374,26.042-1.03,12.4-1.756,16.122c-.691,3.588-3.858,18.2-1.7,22.744a4.967,4.967,0,0,0,.263.47h0s.359,15.589-3.547,17.718c-3.726,2.026-5.275,12.223-5.406,13.135l-.2-.083h0a10.83,10.83,0,0,1-2.883-2.634c-.083-.1-.145-.214-.221-.325a15.225,15.225,0,0,0-4.687-23.774,9.817,9.817,0,0,0-.919-3.816c-1.8-3.844-11.753-8.87-18.825-8.987-3.263-.1-5.938.83-6.913,3.381-.5,1.293-.346,2.765-.553,4.107-.415,2.765-2.191,4.929-4.473,6.65a28.041,28.041,0,0,0-2.98-2.869c-2.309-1.77-6.913-7.6-6.913-7.6s-14.372-14.884-15.437-18.963-15.423-28.572-18.617-24.307,11,22.855,11,22.855,2.7,6.754,4.77,9.036,17.974,25.371,17.974,25.371l.76,1.576c-3.36,1.77-6.429,4.023-7.515,7.535-1.59,5.171,1.887,10.37,4.293,15.209,4.687,9.444,5.358,21.486-.691,30.114-5.42,7.618-14.822,11.241-23.622,14.407a23.249,23.249,0,0,0,14.932,4.957c-2.032,5.89-9.236,7.84-15.375,8.932,3.221,3.1,7.833,4.224,12.257,4.908a36.723,36.723,0,0,0,6.561.519h.539l.539-.042a18.78,18.78,0,0,0,2.233-.283,11.734,11.734,0,0,0,7.929-5.213c1.383-2.413,1.867-5.7,4.376-6.913a5.6,5.6,0,0,1,2.074-.491h1.348l10.46.1h1.334c2.952-.069,6.1-.581,7.6-3.021a8.378,8.378,0,0,0,.947-3.837c.221-3.311,0-6.72.09-10.059.892,6.077,1.825,15.548-.394,19.046a32.491,32.491,0,0,1-6.485,7.031,12.452,12.452,0,0,0-1.715,1.756c-.339.242-.539.373-.539.373l-.214.643a12.173,12.173,0,0,0-1.687,3.913,2.718,2.718,0,0,0-.131,1.113c.242.491-1.728,2.516-1.155,3.367-4.922,5.773-5.855,14.518-5.855,14.518l-8.987,13.647c-4.618,12.133-11.531,13.377-11.531,13.377s-16.239-10.9-16.682-11.428-6.651-3.194-6.651-3.194a7.037,7.037,0,0,0-3.194-2.917c-2.129-.885-2.309-4.148-2.309-4.148-.263-7.708-4.791-8.3-4.791-8.3a14.71,14.71,0,0,0-8.579,1.528l-.65.048c-3.139.256-6.913.539-11.061.816-11.538.76-14.283,8.234-14.283,8.234a2.3,2.3,0,0,0,.443,3.325c1.86,1.728,13.764,0,14.269-.042a7.728,7.728,0,0,1-2.71-.187c1.874-.069,4.452-.138,6.651-.138h.532a28.765,28.765,0,0,0-.2,3.512c0,2.212,6.118,3.63,6.118,3.63l18.631,16.592s11.711,5.233,19.163,12.762,14.041,1.03,14.041,1.03c7.888-1.95,30.584-29.388,30.6-29.416h0c0,.8.477,27.487,1.383,32.845h0a3.552,3.552,0,0,0,.2.8c1.065,2.3-.36,8.593-.975,11.248a31.246,31.246,0,0,0-.449,6.733s-8.51,32.492-7.805,35.347-4.611,16.122-4.611,16.122v11.061l.926-.048a5.989,5.989,0,0,0-.332.553l-.062.117a39.34,39.34,0,0,0,9.492.885c3.816-.353,10.37,2.938,10.37,2.938s2.219,1.051,9.049,1.493,6.83-3.014,6.83-3.014c-.781-4.708-11.573-6.284-11.9-6.333-.871-.546-1.687-1.141-2.357-1.652l-.138-.111a2.948,2.948,0,0,0,.118-.318c1.155-4.7-5.233-6.74-5.233-6.74v-1.148c4.148-2.129,4.971-16.744,4.971-16.744s6.222-18.071,7.093-21.085,0-7.528,0-7.528l.622-3.9a19.176,19.176,0,0,0,1.334-3.187,7.875,7.875,0,0,1,1.507-3.719c.975-1.155-1.065-3.9-1.065-3.9l1.777-4.6v-5.054l4.148-18.334s4.349-21.355,2.841-28.344,1.777-10.543,1.777-10.543a8.693,8.693,0,0,1-.913.415,26.385,26.385,0,0,0,1.072-2.945l9.333,1.155v.138h3.367s-1.065-13.135-1.065-18.431,3.588-24.3,3.588-24.3S333.125,415.995,331.529,415.462ZM290.1,400.129c0,.519-.048,1.058-.083,1.611l-.187.283-.346-.29-.422.657-.124.062c-.913-.47-1.383-3.159-2.039-2.579l-.09.076c-.145-.166-.29-.214-.442-.076l-.138.117v-.615a15.551,15.551,0,0,0,3.871.491C290.1,399.956,290.1,400.046,290.1,400.129Zm31.04,61.168h.2l-.332.871C321.048,461.878,321.089,461.594,321.138,461.3ZM287.063,618.068l-1.272-.318.691-.117.643.422.076.055Zm13-1.86c-.422-.221-.85-.477-1.265-.74C298.933,615.545,299.479,615.828,300.06,616.208Z" transform="translate(-178.583 -249.474)"/>
  <path id="Path_227" data-name="Path 227" class="cls-11" d="M357.083,390.03l-8.372,21.818h2.032l-7.874,6.277,14.214,1.77Z" transform="translate(-209.938 -191.266)"/>
  <path id="Path_228" data-name="Path 228" class="cls-5" d="M357.083,390.03l-8.372,21.818-2.109-.567-3.733,6.844,14.214,1.77Z" transform="translate(-209.938 -191.266)"/>
  <path id="Path_229" data-name="Path 229" class="cls-11" d="M344.44,392.517h13.128l4.818-39.647H344.44Z" transform="translate(-210.422 -179.796)"/>
  <path id="Path_230" data-name="Path 230" class="cls-5" d="M344.44,392.517h13.128l4.818-39.647H344.44Z" transform="translate(-210.422 -179.796)"/>
  <path id="Path_231" data-name="Path 231" class="cls-12" d="M334.753,470.834l2.834-.477,6.512-1.106s19.557-4.411,23.595-4.77a25.2,25.2,0,0,0,7.079-2.019c1.058-.456,1.728-.8,1.728-.8l-7.045-12.865-10.93-8.1s-6.913-1.473-9.838-5.5a6.478,6.478,0,0,1-.906-6.139c1.784-5.531-10.653,5.289-10.653,5.289s.117,2.593,0,5.9c0,.65-.062,1.327-.111,2.019a13.631,13.631,0,0,1-.111,1.383c-.3,3.284-.926,6.664-2.157,8.683C331.746,457.263,334.753,470.834,334.753,470.834Z" transform="translate(-226.377 -288.371)"/>
  <path id="Path_232" data-name="Path 232" class="cls-5" d="M338.79,440.642h.277c.5,0,.9-1.058,1.383-1.106,3.892-.373,7.445-1.189,9.913-3.947a6.485,6.485,0,0,1-.906-6.132c1.784-5.531-10.653,5.282-10.653,5.282S338.935,437.338,338.79,440.642Z" transform="translate(-228.035 -288.494)"/>
  <path id="Path_233" data-name="Path 233" class="cls-12" d="M316.89,416.9a15.147,15.147,0,0,0,15.154,15.154,10.559,10.559,0,0,0,1.479-.069A15.154,15.154,0,1,0,316.89,416.9Z" transform="translate(-221.275 -280.426)"/>
  <path id="Path_234" data-name="Path 234" class="cls-2" d="M291.337,388.885a18.64,18.64,0,0,0-.546,4.086c-.74,4.915-5.738,7.86-10.259,9.92s-9.623,4.5-11.061,9.25c-1.576,5.136,1.867,10.287,4.259,15.105,4.659,9.388,5.323,21.362-.691,29.948-5.344,7.6-14.656,11.213-23.422,14.38a23.09,23.09,0,0,0,14.829,4.936c-2.012,5.855-9.167,7.8-15.264,8.877,3.2,3.083,7.784,4.2,12.174,4.881a27.6,27.6,0,0,0,9.679.18,11.628,11.628,0,0,0,7.867-5.185c1.383-2.4,1.853-5.669,4.348-6.879a7.866,7.866,0,0,1,3.546-.518l10.37.11c3.228,0,7.051-.249,8.717-3.007a8.3,8.3,0,0,0,.94-3.816c.449-6.8-.857-13.992,1.943-20.2.843-1.874-4.57-4.839-4-6.823a63.733,63.733,0,0,0,2.42-19.295c0-5.5,3.574-10.232,6.526-14.87s5.42-10.494,3.09-15.472C314.171,388.94,294.441,380.872,291.337,388.885Z" transform="translate(-200.374 -275.416)"/>
  <path id="Path_235" data-name="Path 235" class="cls-12" d="M330.13,754.982l2.641,1.749.408.27.076.049,3.132,2.074,7.314,1.231,6.429-.443s1.853-3.871-1.058-3.781a6.052,6.052,0,0,1-2.655-.768l-.4-.2h0c-.422-.221-.843-.47-1.258-.733h0c-.864-.546-1.68-1.141-2.337-1.646-.968-.746-1.611-1.313-1.611-1.313Z" transform="translate(-225.362 -388.379)"/>
  <path id="Path_236" data-name="Path 236" class="cls-5" d="M334,758.469l.408.27.076.048,3.132,2.074,7.314,1.231,6.429-.443s1.853-3.871-1.058-3.781a6.058,6.058,0,0,1-2.655-.767c.512.4.94.837.982,1.2.117.989-4.756,2.765-4.756,2.765L337,759.25s-1.168-.332-2.765-.747l-.152-.042Z" transform="translate(-226.557 -390.117)"/>
  <path id="Path_237" data-name="Path 237" class="cls-2" d="M317,759.724a38.919,38.919,0,0,0,9.423.878c3.788-.353,10.315,2.91,10.315,2.91s2.205,1.037,8.987,1.479,6.782-3,6.782-3c-.774-4.68-11.49-6.222-11.822-6.291h0a13.158,13.158,0,0,1,1.258.733h0c.76.5,1.583,1.148,1.645,1.673.118.982-4.756,2.765-4.756,2.765l-6.872-1.811s-1.168-.339-2.765-.754h-.152a58.969,58.969,0,0,0-7.2-1.486,5,5,0,0,0-4.784,2.765A.821.821,0,0,0,317,759.724Z" transform="translate(-221.309 -389.685)"/>
  <path id="Path_238" data-name="Path 238" class="cls-12" d="M188.54,578.162l2.993,2.3s.871-.041,2.171-.083h.415c1.86-.069,4.424-.138,6.6-.138a20.975,20.975,0,0,1,4.21.235c1.493.526,4.148-8.544,4.148-8.544l-3-.691-1-.235-.691-.166-2.44-.574-7.4.843-5.2,3.346Z" transform="translate(-181.656 -332.444)"/>
  <path id="Path_239" data-name="Path 239" class="cls-5" d="M188.54,578.162l2.993,2.3s.871-.042,2.171-.083a2.621,2.621,0,0,1-1.383-1.237c-1.936-5.372,7.667-7.667,7.667-7.667l4.473-.194.871-.041h.691l-1-.235-.691-.166-2.44-.574-7.4.843-5.2,3.346Z" transform="translate(-181.656 -332.444)"/>
  <path id="Path_240" data-name="Path 240" class="cls-2" d="M179.572,579.36c1.811,1.673,13.674,0,14.172-.041a7.467,7.467,0,0,1-2.689-.187,2.966,2.966,0,0,1-2.074-1.486c-1.936-5.379,7.667-7.667,7.667-7.667l4.473-.194.864-.041,10.874-.47.525-2.993s-3.533.332-9.077.774c-3.118.256-6.913.539-11.013.809-11.455.76-14.179,8.192-14.179,8.192A2.3,2.3,0,0,0,179.572,579.36Z" transform="translate(-178.592 -331.215)"/>
  <path id="Path_241" data-name="Path 241" class="cls-12" d="M372.12,368.637a3.063,3.063,0,0,0,.263.47l2.641,3.871,6.872.691.076-2.724,1.155-40.982s4.756-27.487-4.231-25.9-3.346,25.9-3.346,25.9S374.526,342.3,373.807,346C373.109,349.584,369.977,364.143,372.12,368.637Z" transform="translate(-238.096 -250.253)"/>
  <path id="Path_242" data-name="Path 242" class="cls-12" d="M350.14,543.505l1.956,3.346,4.376,7.487s7.936,2.91,9.969.691c1.113-1.21,2.316-5.434,3.159-8.987.691-2.876,1.154-5.3,1.154-5.3Z" transform="translate(-231.539 -323.331)"/>
  <path id="Path_247" data-name="Path 247" class="cls-2" d="M206.64,574.6c0,2.205,6.077,3.615,6.077,3.615l18.507,16.474s11.628,5.2,19.025,12.686,13.923,1.058,13.923,1.058c7.84-1.936,30.418-29.25,30.418-29.25s.525,31.192,1.583,33.481-.353,8.545-.968,11.192a31.112,31.112,0,0,0-.442,6.692s-8.455,32.333-7.75,35.154-4.584,16.039-4.584,16.039v11.013s20.705-.8,21.846-5.462-5.192-6.7-5.192-6.7v-1.148c4.148-2.115,4.929-16.647,4.929-16.647s6.174-17.974,7.051-20.968,0-7.494,0-7.494l.615-3.871A19.331,19.331,0,0,0,313,627.29a7.841,7.841,0,0,1,1.5-3.7c.968-1.148-1.058-3.878-1.058-3.878l1.763-4.584V610.11l4.148-18.237s4.321-21.237,2.821-28.2,1.763-10.48,1.763-10.48c-7.072,3.705-10.639-4.542-11.808-8.089-.3-.912-.442-1.521-.442-1.521s-9.713-3.581-18.756-2.724A21.584,21.584,0,0,0,287.545,542c-10.045,3.616-11.628,18.589-11.628,18.589l-8.9,13.571c-4.583,12.071-11.455,13.3-11.455,13.3S239.443,576.63,238.973,576.1s-6.609-3.173-6.609-3.173a6.983,6.983,0,0,0-3.173-2.9c-2.115-.885-2.288-4.148-2.288-4.148-.263-7.667-4.756-8.3-4.756-8.3C206.55,556.277,206.64,572.4,206.64,574.6Z" transform="translate(-187.243 -323.328)"/>
  <path id="Path_259" data-name="Path 259" class="cls-13" d="M326.7,440.17s-2.461-3.871-3.871-2.821-1.963-3.173-2.765-2.468-3.159,2.668-4.148-.076c-.774-2.185-9.125-16-12.506-21.562l-1.417-2.323s-9.513,4.756-11.808,3.173v3.346l1.943.18,10.37,19.357s3.27,5.192,3.042,7,4.148,9.741,4.888,10.266,8.3,9.34,8.3,9.34,3.878,19.032.532,24.321a32.407,32.407,0,0,1-6.381,7.065,12.333,12.333,0,0,0-4.148,6.651,2.628,2.628,0,0,0-.125,1.106c.256.526-2.032,2.821-.975,3.526s2.482,5.655,2.482,5.655,4.936-7.929,7.6-9.16S323.8,485.3,323.8,485.3s.968-9.554,1.051-15.721S324.622,440.17,326.7,440.17Z" transform="translate(-213.03 -283.259)"/>
  <path id="Path_243" data-name="Path 243" class="cls-5" d="M350.14,543.521l1.956,3.346a2.323,2.323,0,0,0,.332-.353c2.212-2.821,11.953-.6,17.172-.422.691-2.876,1.154-5.3,1.154-5.3Z" transform="translate(-231.539 -323.347)"/>
  <path id="Path_244" data-name="Path 244" class="cls-5" d="M206.16,578.994a20.944,20.944,0,0,1,4.21.235c1.493.525,4.148-8.545,4.148-8.545l-4-.94,10.874-.47.525-2.993s-3.533.332-9.077.774a11.4,11.4,0,0,0-3.021,2.523l-.166.207A18.12,18.12,0,0,0,206.16,578.994Z" transform="translate(-187.095 -331.215)"/>
  <path id="Path_245" data-name="Path 245" class="cls-5" d="M330.13,754.97l3.049,2.018c4.549-.823,8.7-2.115,9.195-4.148a.657.657,0,0,0,0-.1c-.968-.747-1.611-1.314-1.611-1.314Z" transform="translate(-225.362 -388.367)"/>
  <path id="Path_246" data-name="Path 246" class="cls-5" d="M317.09,760.094a105.607,105.607,0,0,0,11.988-1.286,58.911,58.911,0,0,0-7.211-1.5A4.972,4.972,0,0,0,317.09,760.094Z" transform="translate(-221.337 -390.173)"/>
  <rect id="Rectangle_34" data-name="Rectangle 34" class="cls-11" width="9.513" height="29.512" transform="translate(118.601 208.193) rotate(180)"/>
  <rect id="Rectangle_35" data-name="Rectangle 35" class="cls-5" width="9.513" height="29.512" transform="translate(118.601 208.193) rotate(180)"/>
  <path id="Path_248" data-name="Path 248" class="cls-5" d="M372.44,397.41a.416.416,0,0,0,0,.062,3.07,3.07,0,0,0,.263.47l2.641,3.871,6.872.691.076-2.724C380.148,399.615,375.267,399.028,372.44,397.41Z" transform="translate(-238.422 -279.088)"/>
  <path id="Path_250" data-name="Path 250" class="cls-5" d="M336.12,468.928a15.084,15.084,0,0,0,2.3,6.042l6.512-1.106s19.557-4.411,23.595-4.77a25.21,25.21,0,0,0,7.079-2.019,31.22,31.22,0,0,0-8.745-14.345l-2.482-2.3a41.582,41.582,0,0,0-12.513-8c.29.242,20.809,17.76,16.315,21.2s-16.592-4.929-16.592-4.929l-13.757-11.822-.5-.429-.795,1.237a11.548,11.548,0,0,1,1.182.567A20.242,20.242,0,0,1,347.4,460.28C350.23,469.786,336.12,468.928,336.12,468.928Z" transform="translate(-227.211 -292.985)"/>
  <path id="Path_251" data-name="Path 251" class="cls-14" d="M330,543.325s13.038,7.224,16.2,3.173c.691-.892,2.15-1.279,3.968-1.383-.3-.913-.443-1.521-.443-1.521s-9.713-3.581-18.755-2.724C330.38,542.364,330,543.325,330,543.325Z" transform="translate(-225.322 -323.331)"/>
  <path id="Path_252" data-name="Path 252" class="cls-15" d="M336,446.47l14.255,12.264s12.05,8.393,16.592,4.929-16.322-21.2-16.322-21.2h0a42.171,42.171,0,0,1,12.506,7.978l2.482,2.3c6.526,6.049,8,6.049,8.22,14.939.055,2.191-.691,5.337-1.265,5.9-2.115,2.074-3.595,17.138-3.27,18.9s-3.941,16.979-2.558,21.21-17.283-2.115-20.442,1.943-16.2-3.173-16.2-3.173,7.224-18.507,8.987-19.737,3.878-10.75,0-15.154a16.438,16.438,0,0,1-4.224-8.635s14.1.871,11.275-8.635a19.951,19.951,0,0,0-10.84-12.6Z" transform="translate(-225.322 -292.994)"/>
  <path id="Path_253" data-name="Path 253" class="cls-5" d="M359.593,493.38s-5.468,10.308-12.541,12.983c-.228.083-.449.159-.691.228C338.978,508.838,360.146,496.574,359.593,493.38Z" transform="translate(-229.889 -308.712)"/>
  <path id="Path_254" data-name="Path 254" class="cls-12" d="M250.49,351.109s2.641,6.7,4.756,8.987,17.795,25.2,17.795,25.2l1.327,2.765,1.141,2.357,10.045-1.058.691-4.051-.387-.47a47.459,47.459,0,0,0-5.607-5.876c-2.288-1.756-6.872-7.57-6.872-7.57s-14.269-14.808-15.327-18.859-15.333-28.344-18.5-24.141S250.49,351.109,250.49,351.109Z" transform="translate(-197.26 -257.634)"/>
  <g id="Group_25" data-name="Group 25" class="cls-7" transform="translate(64.706 110.103)">
    <path id="Path_255" data-name="Path 255" d="M289.85,519.087a7.875,7.875,0,0,0-3.547.511c-2.489,1.21-2.959,4.48-4.341,6.879a11.626,11.626,0,0,1-7.874,5.185,17.58,17.58,0,0,1-1.908.263,21.668,21.668,0,0,0,6.056-.263,11.626,11.626,0,0,0,7.874-5.185c1.383-2.4,1.853-5.669,4.341-6.879a5.532,5.532,0,0,1,2.074-.484Z" transform="translate(-272.18 -426.741)"/>
    <path id="Path_256" data-name="Path 256" d="M327.71,424.836c0-5.5,3.574-10.232,6.519-14.87s5.42-10.494,3.09-15.472c-1.991-4.252-13.992-9.955-20.919-8.828,6.782.878,15.14,5.344,16.771,8.828,2.33,4.978-.145,10.833-3.09,15.472s-6.533,9.374-6.519,14.87a64.536,64.536,0,0,1-2.427,19.295c-.56,1.97,4.839,4.95,4.01,6.816-2.807,6.222-1.493,13.4-1.943,20.2a8.4,8.4,0,0,1-.947,3.816c-1.383,2.274-4.217,2.862-6.975,2.987h2.413c3.222,0,7.045-.249,8.711-3.007a8.4,8.4,0,0,0,.947-3.816c.449-6.8-.864-13.985,1.943-20.2.843-1.867-4.57-4.839-4.01-6.816A63.769,63.769,0,0,0,327.71,424.836Z" transform="translate(-285.484 -385.521)"/>
  </g>
  <path id="Path_257" data-name="Path 257" class="cls-5" d="M290.12,413.462l1.141,2.357,10.045-1.058L302,410.71l-.387-.47C300.538,410.765,292.512,414.63,290.12,413.462Z" transform="translate(-213.012 -283.049)"/>
  <path id="Path_260" data-name="Path 260" class="cls-5" d="M307.676,569.21s7.4,1.383,10.37,3.519-11.275-3.346-11.275-3.346Z" transform="translate(-218.151 -332.12)"/>
  <path id="Path_261" data-name="Path 261" class="cls-5" d="M333.83,596.35s7.722,6.436,6.339,12.25-4.95,20.442-4.95,20.442Z" transform="translate(-226.504 -340.497)"/>
  <path id="Path_262" data-name="Path 262" class="cls-5" d="M231.582,578.45s-10.881,1.189-10.176,2.6,10.176-1.3,10.176-1.3Z" transform="translate(-191.791 -334.972)"/>
  <path id="Path_263" data-name="Path 263" class="cls-5" d="M354.561,654.268s.691.878-3.346,0-1.058-3.588-1.058-3.588Z" transform="translate(-231.217 -357.268)"/>
  <path id="Path_264" data-name="Path 264" class="cls-5" d="M350.987,673.286s-5.531.878-8.5,0S350.987,673.286,350.987,673.286Z" transform="translate(-229.026 -364.125)"/>
  <path id="Path_265" data-name="Path 265" class="cls-5" d="M332.245,742.151s-.968-1.058-5.814.878-6.782,2.026-8.192,1.383S332.245,742.151,332.245,742.151Z" transform="translate(-221.664 -385.414)"/>
  <path id="Path_266" data-name="Path 266" class="cls-5" d="M343.252,576.28l-6.872,9.561S340.079,577.469,343.252,576.28Z" transform="translate(-227.291 -334.302)"/>
  <path id="Path_267" data-name="Path 267" class="cls-5" d="M322.533,449.15s-.3,3.173-4.729,4.411-5.275,2.24-5.275,2.24" transform="translate(-219.929 -295.059)"/>
  <path id="Path_268" data-name="Path 268" class="cls-5" d="M305,415.88s-5.849,4.148-11.953,3.27" transform="translate(-213.916 -284.79)"/>
  <path id="Path_269" data-name="Path 269" class="cls-5" d="M316.78,542.736s1.708,1.071,5.807-3.616" transform="translate(-221.241 -322.831)"/>
  <path id="Path_270" data-name="Path 270" class="cls-5" d="M376.055,469.938a3,3,0,0,0-.989-2.323l-1.148-1.383a5.323,5.323,0,0,0-.754-.774c-.691-.532-1.576-.691-2.3-1.168" transform="translate(-237.938 -299.733)"/>
  <path id="Path_274" data-name="Path 274" class="cls-16" d="M1313.537,402.574a1.037,1.037,0,1,0-1.037-1.037A1.037,1.037,0,0,0,1313.537,402.574Z" transform="translate(-528.6 -280.042)"/>
  <path id="Path_249" data-name="Path 249" class="cls-3" d="M368.851,398.18s.353,15.5-3.526,17.615-5.385,13.135-5.385,13.135,11.753,7.729,14.373,11.13,8.635,11.5,7.4,13.439,3,10.75,3,10.75-7.757,15.859-5.994,21.853,1.936,21.846,1.936,21.846H384s-1.058-13.038-1.058-18.327,3.519-24.141,3.519-24.141,1.59-18.5,0-19.025-10.923-7.929-11.628-11.282,4.936-34.566,4.936-34.566S372.55,400.3,368.851,398.18Z" transform="translate(-234.564 -279.326)"/>
  <path id="Path_258" data-name="Path 258" class="cls-17" d="M327.466,440.17s-2.468-3.871-3.878-2.821-1.956-3.173-2.765-2.468-3.166,2.668-4.148-.076c-.767-2.185-9.119-16-12.506-21.562-.871-1.438-1.417-2.323-1.417-2.323s-9.513,4.756-11.8,3.173v3.346l1.936.18,10.37,19.357s3.263,5.192,3.042,7,4.182,9.741,4.888,10.266,8.3,9.34,8.3,9.34,3.878,19.032.525,24.321a36.079,36.079,0,0,1-9.16,9.16s-1.749,5.109-1.493,5.641-2.033,2.821-.975,3.526,2.468,5.634,2.468,5.634,4.936-7.929,7.6-9.16,6.084-17.449,6.084-17.449.975-9.554,1.051-15.721S325.35,440.17,327.466,440.17Z" transform="translate(-213.268 -283.259)"/>
</svg>
