<?xml version="1.0" encoding="utf-8"?>
<!-- Generator: Adobe Illustrator 18.1.1, SVG Export Plug-In . SVG Version: 6.00 Build 0)  -->
<svg version="1.1" id="Layer_1" xmlns="http://www.w3.org/2000/svg" xmlns:xlink="http://www.w3.org/1999/xlink" x="0px" y="0px"
	 viewBox="0 0 120 16" enable-background="new 0 0 120 16" xml:space="preserve">
<g>
	<g>
		<path fill="none" stroke="#6AB9BE" stroke-width="2.1218" stroke-linecap="round" d="M106.6,14.3"/>
	</g>
	<g>
		<g>
			<path fill="#6AB9BE" d="M5.2,8.4c-0.1,0-0.2,0-0.3-0.1c-0.1,0-0.3-0.1-0.4-0.1C3.5,7.9,2.7,7.6,1.9,7.1c-1-0.7-1.6-1.6-1.6-2.7
				c-0.1-1.2,0.3-2.3,1-3.1C2.2,0.5,3.5,0,5.1,0c2.7,0,4.2,1.8,4.3,2c0.4,0.5,0.3,1.1-0.2,1.5C8.8,3.8,8.1,3.7,7.7,3.3
				c0-0.1-0.9-1.1-2.7-1.2l0,0c-0.9,0-1.7,0.2-2.2,0.7C2.5,3.2,2.4,3.7,2.4,4.3c0,0.3,0.1,0.7,0.7,1.1C3.7,5.7,4.5,6,5,6.2
				c0.1,0,0.3,0.1,0.5,0.2c0.6,0.2,0.8,0.8,0.7,1.4C6,8.1,5.6,8.4,5.2,8.4z"/>
		</g>
	</g>
	<g>
		<g>
			<path fill="#6AB9BE" d="M81.7,15.2c-0.1,0-0.3,0-0.4-0.1c-0.5-0.2-0.8-0.8-0.6-1.4l5.4-13C86.4,0.2,87,0,87.6,0.2
				c0.5,0.2,0.8,0.8,0.6,1.4l-5.4,13C82.5,15,82.1,15.2,81.7,15.2z"/>
		</g>
		<g>
			<path fill="#6AB9BE" d="M90.9,11.2h-7.5c-0.6,0-1.1-0.5-1.1-1.1c0-0.6,0.5-1.1,1.1-1.1h7.5c0.6,0,1.1,0.5,1.1,1.1
				C92,10.7,91.5,11.2,90.9,11.2z"/>
		</g>
	</g>
	<g>
		<path fill="#F16C24" d="M92.6,15.2c-0.4,0-0.8-0.2-1-0.7l-5.4-13c-0.2-0.5,0-1.2,0.6-1.4c0.5-0.2,1.2,0,1.4,0.6l5.4,13
			c0.2,0.5,0,1.2-0.6,1.4C92.9,15.2,92.7,15.2,92.6,15.2z"/>
	</g>
	<g>
		<g>
			<path fill="#F16C24" d="M5.1,15.3c-0.1,0-0.1,0-0.2,0c-3-0.1-4.6-1.9-4.7-2.1c-0.4-0.5-0.3-1.1,0.2-1.5c0.5-0.4,1.1-0.3,1.5,0.2
				c0,0,0.3,0.3,0.8,0.7c0.7,0.4,1.5,0.7,2.3,0.7l0,0c0,0,0.1,0,0.1,0c1.1,0,2.1-0.3,2.6-0.9c0.4-0.4,0.5-0.9,0.4-1.6
				C7.9,9.5,6.6,8.9,5,8.4L4.8,8.3C4.3,8.1,4,7.5,4.1,7c0.2-0.6,0.8-0.8,1.3-0.7l0.2,0.1c0.9,0.3,1.9,0.7,2.7,1.2
				c1.1,0.7,1.7,1.6,1.9,2.8c0.2,1.3-0.1,2.4-0.9,3.3C8.4,14.7,6.9,15.3,5.1,15.3z"/>
		</g>
	</g>
	<g>
		<g>
			<path fill="#6AB9BE" d="M60.5,8.4c-0.1,0-0.2,0-0.3-0.1c-0.1,0-0.3-0.1-0.4-0.1c-0.9-0.3-1.7-0.6-2.4-1.1c-1-0.7-1.6-1.6-1.6-2.7
				c-0.1-1.2,0.3-2.3,1-3.1C57.6,0.5,58.9,0,60.5,0c2.7,0,4.2,1.8,4.3,2c0.4,0.5,0.3,1.1-0.2,1.5c-0.5,0.4-1.1,0.3-1.5-0.2
				c0-0.1-0.9-1.1-2.7-1.2l0,0c-0.9,0-1.7,0.2-2.2,0.7c-0.3,0.4-0.5,0.9-0.5,1.5c0,0.3,0.1,0.7,0.7,1.1c0.6,0.4,1.3,0.6,1.9,0.8
				c0.1,0,0.3,0.1,0.5,0.2c0.6,0.2,0.8,0.8,0.7,1.4C61.4,8.1,61,8.4,60.5,8.4z"/>
		</g>
	</g>
	<g>
		<g>
			<path fill="#F16C24" d="M60.5,15.3c-0.1,0-0.1,0-0.2,0c-3-0.1-4.6-1.9-4.7-2.1c-0.4-0.5-0.3-1.1,0.2-1.5c0.5-0.4,1.1-0.3,1.5,0.2
				c0,0,0.3,0.3,0.8,0.7c0.7,0.4,1.5,0.7,2.3,0.7l0,0c0,0,0.1,0,0.1,0c1.1,0,2.1-0.3,2.6-0.9c0.4-0.4,0.5-0.9,0.4-1.6
				c-0.2-1.2-1.5-1.7-3.1-2.3l-0.2-0.1c-0.6-0.2-0.8-0.8-0.7-1.3c0.2-0.6,0.8-0.8,1.3-0.7l0.2,0.1c0.9,0.3,1.9,0.7,2.7,1.2
				c1.1,0.7,1.7,1.6,1.9,2.8c0.2,1.3-0.1,2.4-0.9,3.3C63.8,14.7,62.3,15.3,60.5,15.3z"/>
		</g>
	</g>
	<g>
		<path fill="#6AB9BE" d="M13.9,15.2c-0.6,0-1.1-0.5-1.1-1.1V9.6c0-0.6,0.5-1.1,1.1-1.1S15,9,15,9.6v4.6
			C15,14.8,14.5,15.2,13.9,15.2z"/>
	</g>
	<g>
		<path fill="#6AB9BE" d="M22.7,15.2c-0.3,0-0.7-0.2-0.9-0.5l-5.5-7.9c-0.3-0.5-0.2-1.1,0.3-1.5c0.5-0.3,1.1-0.2,1.5,0.3l5.5,7.9
			c0.3,0.5,0.2,1.1-0.3,1.5C23.1,15.2,22.9,15.2,22.7,15.2z"/>
	</g>
	<g>
		<path fill="#F16C24" d="M13.9,10.7c-0.1,0-0.3,0-0.4-0.1c-0.4-0.2-0.7-0.6-0.7-1V1.2c0-0.6,0.5-1.1,1.1-1.1c0.6,0,1.1,0.5,1.1,1.1
			V7l6.4-6.5c0.4-0.4,1.1-0.4,1.5,0c0.4,0.4,0.4,1.1,0,1.5l-8.2,8.4C14.5,10.6,14.2,10.7,13.9,10.7z"/>
	</g>
	<g>
		<path fill="#6AB9BE" d="M27.5,6.1c-0.6,0-1.1-0.5-1.1-1.1V1.2c0-0.6,0.5-1.1,1.1-1.1s1.1,0.5,1.1,1.1V5
			C28.5,5.6,28.1,6.1,27.5,6.1z"/>
	</g>
	<g>
		<path fill="#F16C24" d="M27.5,15.2c-0.6,0-1.1-0.5-1.1-1.1V5c0-0.6,0.5-1.1,1.1-1.1s1.1,0.5,1.1,1.1v9.2
			C28.5,14.8,28.1,15.2,27.5,15.2z"/>
	</g>
	<g>
		
			<path fill="none" stroke="#F16C24" stroke-width="2.1218" stroke-linecap="round" stroke-linejoin="round" stroke-miterlimit="10" d="
			M40.9,14.2"/>
	</g>
	<g>
		<path fill="#6AB9BE" d="M33.3,15.2c-0.6,0-1.1-0.5-1.1-1.1v-13c0-0.6,0.5-1.1,1.1-1.1s1.1,0.5,1.1,1.1v13
			C34.4,14.8,33.9,15.2,33.3,15.2z"/>
	</g>
	<g>
		<path fill="#F16C24" d="M40.9,15.2h-7.6c-0.6,0-1.1-0.5-1.1-1.1c0-0.6,0.5-1.1,1.1-1.1h7.6c0.6,0,1.1,0.5,1.1,1.1
			C41.9,14.8,41.5,15.2,40.9,15.2z"/>
	</g>
	<g>
		<path fill="#F16C24" d="M45,15.2c-0.6,0-1.1-0.5-1.1-1.1v-13c0-0.6,0.5-1.1,1.1-1.1S46,0.6,46,1.2v13C46,14.8,45.5,15.2,45,15.2z"
			/>
	</g>
	<g>
		<g>
			<g>
				<path fill="#F16C24" d="M97.3,15.2c-0.6,0-1.1-0.5-1.1-1.1v-13c0-0.6,0.5-1.1,1.1-1.1s1.1,0.5,1.1,1.1v13
					C98.3,14.8,97.9,15.2,97.3,15.2z"/>
			</g>
		</g>
		<g>
			<path fill="#F16C24" d="M102.4,10.1h-5.1c-0.6,0-1.1-0.5-1.1-1.1c0-0.6,0.5-1.1,1.1-1.1h5.1c0.6,0,1.1,0.5,1.1,1.1
				C103.4,9.6,103,10.1,102.4,10.1z"/>
		</g>
	</g>
	<g>
		<g>
			<path fill="#F16C24" d="M72.7,8.8h-4.1c-0.6,0-1.1-0.5-1.1-1.1s0.5-1.1,1.1-1.1h4.1c0.6,0,1.1,0.5,1.1,1.1S73.3,8.8,72.7,8.8z"/>
		</g>
		<g>
			<path fill="#F16C24" d="M68.6,15.2c-0.6,0-1.1-0.5-1.1-1.1v-13c0-0.6,0.5-1.1,1.1-1.1s1.1,0.5,1.1,1.1v13
				C69.7,14.8,69.2,15.2,68.6,15.2z"/>
		</g>
	</g>
	<g>
		<g>
			<path fill="#6AB9BE" d="M76.8,8.8h-4.1c-0.6,0-1.1-0.5-1.1-1.1s0.5-1.1,1.1-1.1h4.1c0.6,0,1.1,0.5,1.1,1.1S77.4,8.8,76.8,8.8z"/>
		</g>
		<g>
			<path fill="#6AB9BE" d="M76.8,15.2c-0.6,0-1.1-0.5-1.1-1.1v-13c0-0.6,0.5-1.1,1.1-1.1s1.1,0.5,1.1,1.1v13
				C77.8,14.8,77.4,15.2,76.8,15.2z"/>
		</g>
	</g>
	<g>
		<path fill="#6AB9BE" d="M52.5,15.2H45c-0.6,0-1.1-0.5-1.1-1.1c0-0.6,0.5-1.1,1.1-1.1h7.6c0.6,0,1.1,0.5,1.1,1.1
			C53.6,14.8,53.1,15.2,52.5,15.2z"/>
	</g>
	<g>
		<path fill="#6AB9BE" d="M105.5,15.2c-0.4,0-0.7-0.2-0.9-0.5l-3.1-5.2c-0.2-0.3-0.2-0.6-0.1-0.9c0.1-0.3,0.3-0.5,0.6-0.6
			c0.1,0,2.2-1.1,2.2-3c0-0.8-0.2-1.5-0.6-2c-0.5-0.6-1.4-0.9-2.6-0.9h-3.7c-0.6,0-1.1-0.5-1.1-1.1s0.5-1.1,1.1-1.1h3.7
			c1.8,0,3.2,0.5,4.1,1.6c0.8,0.8,1.2,2,1.2,3.4c0,2.1-1.4,3.5-2.5,4.3l2.5,4.3c0.3,0.5,0.1,1.2-0.4,1.5
			C105.8,15.2,105.7,15.2,105.5,15.2z"/>
	</g>
	<g>
		<path fill="#6AB9BE" d="M118.9,15.2h-8c-0.6,0-1.1-0.5-1.1-1.1V7.7c0-0.6,0.5-1.1,1.1-1.1s1.1,0.5,1.1,1.1v5.4h6.9
			c0.6,0,1.1,0.5,1.1,1.1C120,14.8,119.5,15.2,118.9,15.2z"/>
	</g>
	<g>
		<path fill="#F16C24" d="M117.8,8.8H111c-0.6,0-1.1-0.5-1.1-1.1V1.2c0-0.6,0.5-1.1,1.1-1.1h8c0.6,0,1.1,0.5,1.1,1.1
			s-0.5,1.1-1.1,1.1H112v4.4h5.8c0.6,0,1.1,0.5,1.1,1.1C118.9,8.3,118.4,8.8,117.8,8.8z"/>
	</g>
</g>
</svg>
