<?xml version="1.0" encoding="utf-8"?>
<!-- Generator: Adobe Illustrator 19.0.0, SVG Export Plug-In . SVG Version: 6.00 Build 0)  -->
<svg version="1.1" xmlns="http://www.w3.org/2000/svg" xmlns:xlink="http://www.w3.org/1999/xlink" x="0px" y="0px"
	 viewBox="0 0 2219 696" style="enable-background:new 0 0 2219 696;" xml:space="preserve">
<style type="text/css">
	.st0{display:none;}
	.st1{display:inline;}
	.st2{fill:#FFD261;}
	.st3{fill:#FFBE1D;}
	.st4{fill:#F79737;}
	.st5{fill:#EF663C;}
	.st6{fill:#D13474;}
	.st7{fill:#9B2F77;}
	.st8{fill:#642866;}
	.st9{clip-path:url(#SVGID_2_);}
	.st10{fill:#E9F401;}
	.st11{display:none;fill:#E9F401;}
	.st12{display:none;fill:#E7F405;}
	.st13{fill:#C2F02D;}
	.st14{fill:#6CE78A;}
	.st15{fill:#3BE1BF;}
	.st16{fill:#7BBCFE;}
	.st17{clip-path:url(#SVGID_6_);}
	.st18{fill:#FF6A48;}
	.st19{fill:#EF489C;}
	.st20{fill:#C146A4;}
	.st21{fill:#97469E;}
</style>
<g id="Layer_1" class="st0">
	<path d="M1974-77c83.9,20.3,205,65.6,292,174c9.5,11.9,18.2,23.9,26,36L1974-77z"/>
	<g class="st1">
		<circle class="st2" cx="170" cy="-123" r="40"/>
		<circle class="st3" cx="302" cy="-121" r="42"/>
		<circle class="st4" cx="421" cy="-102" r="51"/>
		<circle class="st5" cx="575" cy="-108" r="45"/>
		<circle class="st6" cx="751.2" cy="-110.2" r="68.8"/>
		<circle class="st7" cx="949" cy="-122" r="41"/>
		<circle class="st8" cx="1111.5" cy="-103.5" r="49.5"/>
	</g>
	<g class="st1">
		<defs>
			<path id="SVGID_1_" d="M407.3,555.7c-0.4-1-2.5,10-4.7,25.5l-4.1,27.3l7.9,0.3c4.4,0.2,8.2,0.1,8.5-0.2
				C415.5,608,408.4,558.4,407.3,555.7z M1597.9,551.7c-2.4-2.6-5.8-3.7-9.4-3c-1.2,0.2-3,1.3-4,2.5c-1.8,1.9-1.9,4.4-1.9,37.9
				c0,35.4,0,35.9,2.2,38c3.2,3.3,9.9,3,13-0.5l2.3-2.7V589C1600.1,554.2,1600.1,554.1,1597.9,551.7z M1728.4,550.1
				c-5.2-1.5-10.3-1.4-10.9,0.2c-0.2,0.7-0.3,8.5-0.2,17.2l0.3,16l5.9-0.2c4.9-0.2,6.4-0.7,8.5-2.8c2.4-2.3,2.6-3.4,2.9-12.3
				C1735.4,555.6,1734,551.6,1728.4,550.1z M1597.9,551.7c-2.4-2.6-5.8-3.7-9.4-3c-1.2,0.2-3,1.3-4,2.5c-1.8,1.9-1.9,4.4-1.9,37.9
				c0,35.4,0,35.9,2.2,38c3.2,3.3,9.9,3,13-0.5l2.3-2.7V589C1600.1,554.2,1600.1,554.1,1597.9,551.7z M407.3,555.7
				c-0.4-1-2.5,10-4.7,25.5l-4.1,27.3l7.9,0.3c4.4,0.2,8.2,0.1,8.5-0.2C415.5,608,408.4,558.4,407.3,555.7z M1728.4,550.1
				c-5.2-1.5-10.3-1.4-10.9,0.2c-0.2,0.7-0.3,8.5-0.2,17.2l0.3,16l5.9-0.2c4.9-0.2,6.4-0.7,8.5-2.8c2.4-2.3,2.6-3.4,2.9-12.3
				C1735.4,555.6,1734,551.6,1728.4,550.1z M1597.9,551.7c-2.4-2.6-5.8-3.7-9.4-3c-1.2,0.2-3,1.3-4,2.5c-1.8,1.9-1.9,4.4-1.9,37.9
				c0,35.4,0,35.9,2.2,38c3.2,3.3,9.9,3,13-0.5l2.3-2.7V589C1600.1,554.2,1600.1,554.1,1597.9,551.7z M407.3,555.7
				c-0.4-1-2.5,10-4.7,25.5l-4.1,27.3l7.9,0.3c4.4,0.2,8.2,0.1,8.5-0.2C415.5,608,408.4,558.4,407.3,555.7z M1728.4,550.1
				c-5.2-1.5-10.3-1.4-10.9,0.2c-0.2,0.7-0.3,8.5-0.2,17.2l0.3,16l5.9-0.2c4.9-0.2,6.4-0.7,8.5-2.8c2.4-2.3,2.6-3.4,2.9-12.3
				C1735.4,555.6,1734,551.6,1728.4,550.1z M2152.1,662.4c-4-5.2-8.1-10.2-12.1-15.5c-5.2-6.8-10.9-13.2-16.2-20
				c-5.6-7.2-10.7-14.6-16.2-21.8c-8.4-11-16.9-22-25.3-32.9c-9.7-12.6-19-25.6-29.3-37.7c-0.9-1-1.9-2.1-2.1-3.5
				c-0.5-4,5-8.3,7.3-10.7c3.9-4,7.8-7.8,11.8-11.8c23.2-23.2,24.1-24.6,21.4-33c-3-9.2-7.1-18.1-11.6-26.7
				c-4.3-8.3-9.3-16.5-12.3-25.5c-1-2.9,0.5-5.1,1.8-7.7c1.8-3.6,3.6-7.3,5.3-11.1c3.3-7.4,6.2-14.9,8.8-22.5
				c0.6-1.7,1.2-3.6,2.6-4.8c1-0.9,2.2-1.4,3.5-1.9c16-6.4,33.1-10.5,48.8-17.7c1.2-0.6,2.6-1.2,3.6-2.1c5.2-4.8,5.2-4.9,5.2-45.7
				s0-40.9-5.2-45.7c-2.1-2-8.9-4.5-42.8-16.3c-2.6-0.9-5.1-1.8-7.7-2.7c-1.5-0.5-3.4-0.9-4.8-1.7c-3-1.7-3.8-8.1-4.9-11.1
				c-3.3-9.1-7.2-17.9-11.4-26.7c-0.4-0.8-4.2-6.5-3.8-7.2c4.5-8.9,8.8-17.9,13-27c4.2-8.8,8.5-17.4,11.7-26.6
				c3.2-9.3,3-9.6-26.2-38.8c-19.8-19.8-26.8-26.2-30.1-27.4c-6.5-2.5-5.3-2.9-56.2,21.4l-6.9,3.3l-8.5-4.2
				c-4.7-2.4-14.8-6.7-22.4-9.5c-13.7-5.2-13.8-5.3-15.3-9.3c-2.6-7.3-9.5-26.8-13.6-38.5c-2.1-6.3-4.9-12.5-6.1-13.9
				c-4.9-5.2-4.9-5.2-45.8-5.2c-40.9,0-40.9,0-45.8,5.2c-1.2,1.4-4,7.6-6.1,13.9c-4.1,11.7-11,31.2-13.6,38.5
				c-1.5,4-1.6,4.1-15.3,9.3c-7.6,2.8-17.7,7.1-22.4,9.5l-8.5,4.2l-6.9-3.3c-50.9-24.3-49.7-23.9-56.2-21.4
				c-3.3,1.2-10.3,7.6-30.1,27.4c-29.2,29.2-29.4,29.5-26.2,38.8c5.4,15.6,13.5,30.4,20.7,45.3c1.1,2.3,2.3,4.7,2.7,7.3
				c0.6,4.2-1.6,7.1-3.5,10.6c-2.5,4.7-4.1,9.9-7.2,14.2c-2.7,3.7-6.3,6.6-10,9.4c-5.2,3.9-10.2,7.9-15.3,11.9
				c-4.7,3.7-9.4,8-14.8,10.6c-3.8,1.9-7.8,3.2-11.7,4.7c-0.5,0.2-7.8,2.7-7.8,2.2c0-0.2,0.8-2,1.8-4.1c1.1-2,3.1-7.1,4.6-11.4
				c2.6-7.1,3-7.7,6.4-8.6c12.5-3.5,29.9-10.5,32-12.8c2.2-2.5,2.2-3,2.2-27.4s0-24.9-2.2-27.4c-2.1-2.3-19.5-9.3-32-12.8
				c-3.4-0.9-3.8-1.5-6.3-8.6c-1.5-4.3-4-10.3-5.6-13.4c-1.6-3.2-2.9-6.2-2.9-6.9c0-0.6,2.5-6.3,5.6-12.7
				c8.1-16.9,10.5-23.7,9.5-26.4c-1.2-3.1-32.4-34-35.8-35.4c-4.8-2-10.4,1.8-14.6,3.7c-7.1,3.1-14.1,6.6-21.1,10
				c-0.9,0.4-1.8,0.8-2.7,0.9c-1.1,0.1-2.2-0.4-3.3-0.8c-6.5-2.8-13.1-5.5-19.7-8.3c-1.7-0.7-3.4-1.5-4.7-2.8
				c-1.3-1.3-1.9-3.1-2.5-4.9c-2.9-8.1-5-17.6-9-25.2c-2.9-5.5-8.3-7.3-14.3-7.2c-8.7,0.1-17.3,0.2-26,0.2
				c-7.3,0.1-16.9-1.8-20.5,6.3c-3.6,8-6.6,16.4-9,24.8c-1.2,4.3-2.8,6.5-6.9,8.3c-4.3,1.8-8.7,3.7-13,5.5
				c-3.1,1.3-7.8,4.7-11.3,4.1c-1.8-0.3-3.4-1.2-5.1-2c-5.8-3-11.6-5.9-17.5-8.5c-4.2-1.9-10.6-6.1-15.3-4
				c-5.6,2.5-10.7,9.2-15,13.4c-4.9,4.8-9.7,9.6-14.5,14.6c-3,3.2-6.3,5.8-6.3,10.6c0,3,1.3,5.9,2.6,8.6c2.3,4.9,4.6,9.7,6.9,14.6
				c2.1,4.4,4.9,8.9,4.6,14c-0.2,3.9-2.2,7.1-3.7,10.6c-1.7,3.9-3.3,7.8-5,11.7c-0.5,1.2-1.1,2.5-2.1,3.4c-2,1.7-5,1.5-7.4,0.5
				c-6.4-2.4-12.7-5-19.1-7.4c-4.4-1.7-8.8-3.4-12.4-6.5c-5.1-4.3-7.7-10.6-11.3-16.1c-4.4-6.7-9.1-13.3-13.6-20
				c-9.5-14.3-19.1-28.5-28.8-42.6c-3-4.5-6.1-9.5-9.2-14.3c-1.4-2.2-3.1-4.5-5.7-5.1c-1.7-0.4-3.5,0.2-5.2,0.8
				c-5.6,2.8-12.4,4-18.3,6.3c-6.4,2.4-12.8,4.6-19.2,6.9c-12.9,4.5-25.8,8.7-38.7,13.1c-1.8,0.6-3.6,1.2-5.4,1.8
				c-5,1.7-11.3,3.1-15.6,6.1c-4.3,3-7.4,7.6-10.9,11.4c-18,19.4-36.6,38.4-54,58.3c-1.6,1.8-3.1,3.6-4.6,5.4
				c-2.9,3.4-5.7,6.9-9.1,9.8c-3.9,3.2-8,4.5-12.8,5.7c-5.9,1.4-11.7,3-17.6,4.5c-11.6,3-23.1,6-34.7,8.9
				c-8.4,2.1-17.3,3.4-25.4,6.5c-7.2,2.7-10.5,8.7-12.4,11.1c-9.8,12.4-39.4,51.5-78.8,105c-0.6,1.3-3.2,6.1-8.2,7.2
				c-2.4,0.5-4.5,0-6.6-0.8c-5.8-2.2-8.4-5.8-15.7-11c-5.7-4.1-11.4-8.2-17.1-12.2c-1.4-0.9-2.8-1.9-4.5-1.9
				c-2.2,0.1-3.9,1.9-5.3,3.6c-6.8,8.6-12.6,18.1-18.6,27.3c-6.5,9.8-13,19.6-19.5,29.4c-1.2,1.7-1.5,2.7-3.6,3
				c-1.2,0.2-2.5,0.2-3.8,0.3c-3.1,0.2-6.3,0.3-9.5,0.3c-4.6,0.1-9.3,0-13.9,0c-13.6,0-27.4-0.9-41-0.2c-5.3,0.3-10.8,0.3-15.8-1.5
				c-4.7-1.7-8.7-4.9-12.6-8c-16.3-12.9-32.6-25.7-49-38.4c-2.5-1.9-5-3.9-7.5-5.8c-3.1-2.4-6.3-4.9-9.4-7.3c-2.6-2-5.3-4.1-7.9-6.1
				c-1.5-1.1-3.1-2.3-5-2.4c-2.2,0-4,1.6-5.6,3.2c-18.1,17.7-35.8,35.9-53.7,53.8c-7.9,7.9-15.7,15.8-23.6,23.7l-29.7-1.6
				c-16.4-1-37-2.2-45.7-2.7l-15.9-1l-4.1,2.6c-6.6,4.5-12.8,9.6-19.2,14.4c-13.6,10.3-28.4,19.9-40.6,31.9c-9,8.8-18,17.8-27,26.6
				c-14.5,14.4-29,28.9-43.5,43.4c-18.3,18.2-36.5,36.5-54.8,54.7c-1,1-2,2-2.9,2.9L66.3,666h1283.4c24.5,0,49,0,73.5,0h68.6
				c27.5,0,55,0,82.4,0c14.4,0,28.9,0,43.3,0c27.3,0,54.5,0,81.8,0c9.7,0,19.4,0,29.1,0c27.4,0,54.9,0,82.4,0c19.2,0,38.4,0,57.6,0
				c27.5,0,54.9,0,82.4-0.1c20.4,0,40.8,0,61.2-0.1c27.4,0,54.8-0.1,82.3-0.2c6.4,0,12.8-0.1,19.1-0.1c12.1-0.1,24.1-0.2,36.2-0.4
				C2151.6,664.9,2153.9,664.8,2152.1,662.4z M297.1,644h-17v-47h-20v47h-17V534h17l1,23.7l0.3,23.8l9.4,0.3l9.3,0.3V534h17V644z
				 M429.8,643.8c-4.8,0.2-8.3-0.1-8.7-0.8c-0.3-0.5-1.2-5-1.9-10l-1.3-9H407c-6,0-10.9,0.3-10.9,0.6c0,1-2.1,14.9-2.6,17.1
				c-0.4,2.1-1,2.3-7.9,2.3c-4.1,0-7.5-0.4-7.5-0.8c0-0.5,3.8-24.7,8.5-53.8c4.7-29.1,8.5-53.5,8.5-54.2c0-0.9,3.2-1.2,12.5-1.2
				c6.9,0,12.5,0.1,12.5,0.2c0.1,0.2,4,24.8,8.9,54.8l8.7,54.5L429.8,643.8z M549.7,551.4c-3.1-3.5-9.9-3.8-13.2-0.5
				c-2.2,2.1-2.2,2.6-2.2,38.1s0,36,2.2,38.1c3.3,3.3,10,3,13.2-0.5c2.1-2.5,2.3-3.7,2.3-13.2V603h16.4l-0.4,12.2
				c-0.3,10.3-0.8,13.1-2.7,17.1c-6,12.1-23.8,16.3-37.3,8.7c-4.3-2.4-5.8-4-8.1-8.7l-2.8-5.8V589c0-36.2,0.1-37.7,2.1-42
				c5.5-11.3,16.4-15.9,30.7-12.9c12.1,2.5,17.4,10.3,18.2,26.6l0.5,10.3h-16.5v-8.4C552.1,555.2,551.8,553.8,549.7,551.4z
				 M695.6,612.8c6.5,16.3,11.9,30,12.2,30.5c0.2,0.4-3.5,0.7-8.4,0.7h-8.8l-8.4-22.1l-8.4-22l-2.8,4.8c-2.8,4.8-2.9,4.9-2.9,22V644
				h-17V534h17v23.7c0,13,0.3,23.3,0.8,22.9c0.4-0.4,5.5-11,11.3-23.4l10.7-22.7l8.5-0.3l8.6-0.3l-12,24.6L683.9,583L695.6,612.8z
				 M805.1,644h-17V534h17V644z M945.1,644h-17.6l-10.4-38.3c-5.7-21-10.7-38.9-11.1-39.7c-0.5-0.8-0.9,16.4-0.9,38.2V644h-15V534
				h21.5l8.4,31.3c4.6,17.1,8.7,31.9,9.2,32.7s0.9-13.2,0.9-31.3V534h15V644z M1078.1,548.9l-9,0.3l-9,0.3v47.2l-0.2,47.3h-16.8v-95
				h-18v-15h53V548.9z M1212.1,644h-17v-47h-20v47h-17V534h17l1,23.7l0.3,23.8l9.4,0.3l9.3,0.3V534h17V644z M1344.1,548.9l-15,0.3
				l-15,0.3v31l12,0.3l12,0.3V596h-24l0.2,16.2l0.3,16.3l14.8,0.3l14.7,0.3V644h-47V534h47V548.9z M1482.1,644h-17.6l-10.4-38.3
				c-5.7-21-10.7-38.9-11.1-39.7c-0.5-0.8-0.9,16.4-0.9,38.2V644h-15V534h21.5l8.4,31.3c4.6,17.1,8.7,31.9,9.2,32.7
				s0.9-13.2,0.9-31.3V534h15V644z M1507.6,206.2c-3.6,19-12.9,32.4-28.5,41c-8.7,4.9-17.6,7.1-28,7.1c-28.8,0-50.9-18.7-56.5-48.1
				c-1.7-8.8-1.7-9.6,0-18.5c3.6-18.9,12.9-32.3,28.5-40.9c13.3-7.4,27.9-9.2,43.5-5.2c11.6,3,24.9,12.2,31.3,21.8
				c4.8,7.2,7.9,14.9,9.7,24.3C1509.3,196.6,1509.3,197.4,1507.6,206.2z M1611.9,635.6c-3.6,5.3-11.6,8.8-20.2,8.9
				c-12.6,0-21.8-5.8-24.8-15.7c-1.8-6.1-1.9-73.5,0-79.6c1.5-4.8,6.1-10.6,10.3-12.8c7.8-4,19.2-4,27.4,0.1c2.8,1.4,6,3.9,7.3,5.9
				c4.8,7.1,5.2,10.5,5.2,46.6S1616.7,628.5,1611.9,635.6z M1736.4,644l-0.7-3.1c-0.3-1.7-0.6-9.8-0.6-17.9c0-8.2-0.5-16.1-1.1-17.9
				c-1.4-4-5.4-6.1-11.9-6.1h-5v45h-17V533.8l17.8,0.4c16,0.3,18.1,0.6,22.4,2.7c8.6,4.1,11.2,10.4,11.3,26.6
				c0,13-1.7,18.7-7.2,23.6c-3.7,3.2-3.7,3.3,0.9,5.9c0.9,0.5,2.6,3,3.8,5.6c1.9,3.7,2.3,6.7,2.6,16.2c0.3,6.5,0.6,15.6,0.8,20.5
				l0.3,8.7H1736.4z M1884.1,549h-18v95h-17v-95h-18v-15h53V549z M1952.3,319.2c-1.1,10.2-1.2,10.6-3.7,19.3
				c-2.9,10-12.4,27.6-17.6,32.4l-2.3,2.1l-1.5-2.3c-0.9-1.3-2.2-3-2.9-3.8c-3.5-4-6.2-7.5-6.2-8.2c0-0.4-0.8-1.5-1.7-2.5
				c-2.6-2.7-6.5-7.6-13.9-17.4c-3.5-4.8-6.9-9-7.5-9.3c-0.5-0.4-3.6,2.1-6.8,5.4c-3.1,3.3-5.6,6-5.6,6.1c0.2,0-2.9,3.3-6.8,7.3
				c-4,4.1-9.5,9.9-12.4,13c-2.8,3.2-5.5,5.7-6,5.7c-1.1,0-3.4-2.8-5.2-6.3c-0.8-1.5-1.8-2.7-2.3-2.7s-1.3-1.1-1.8-2.5
				s-1.4-2.5-2-2.5c-0.5,0-1-0.7-1-1.5s-0.4-1.5-0.8-1.5c-0.5,0-3.7-3.9-7-8.8c-8.9-12.5-9.7-13.7-14.2-19c-0.6-0.6-0.8-1.2-0.4-1.2
				c0.4,0-0.7-1.4-2.5-3c-1.7-1.7-3.1-3.7-3.1-4.5s-0.5-1.5-1-1.5c-0.6,0-1.4-0.8-1.7-1.7c-1.1-2.8-5.3-6.2-7-5.6
				c-0.8,0.3-3.6,2.6-6.2,5.2c-2.7,2.5-7.6,7.1-11,10.1c-3.4,3-8.7,7.9-11.7,10.8c-5.2,5.1-8.3,6.2-8.5,3c0-0.7-0.3-2.2-0.5-3.3
				c-1.9-7.7-2.6-21.2-1.6-29.8c0.6-5,1.3-9.9,1.5-10.7s0.7-3.3,1.2-5.5c0.9-5,8-20.2,13-28c7.5-11.8,25.2-26.2,39.6-32.3
				c4.1-1.8,18.8-5.5,25.4-6.6c7.3-1.1,26.2,0.3,35.5,2.7c11.7,3,15,4.3,25.3,10.6C1939,248.8,1956.4,284.5,1952.3,319.2z
				 M2018.1,644h-17v-47h-20v47h-17V534h17l1,23.7l0.3,23.8l9.4,0.3l9.3,0.3V534h17V644z"/>
		</defs>
		<clipPath id="SVGID_2_">
			<use xlink:href="#SVGID_1_"  style="overflow:visible;"/>
		</clipPath>
		<g class="st9">
			<g>
				<path class="st10" d="M2494.1,888.7c189.1-286.3,27.1-639.1,9.8-675.3c-13-13.4-26.1-26.8-39.1-40.1
					c-81.5,2.8-198,15.4-329.9,60.6c-51.4,17.6-147.7,54.7-252,123c-214.9,140.6-511.6,444.8-432,636.1
					c26.8,64.5,87.4,94.3,144.5,122.5C1864.3,1247.9,2301.4,1180.4,2494.1,888.7z"/>
				<path class="st11" d="M2334.7,235.5c4.2-18.1-31.9-41.9-68.4-61.4c-76.1-0.2-519.1,4.2-740,278.6
					c-68.6,85.2-66.6,135.4-111.1,255.9c-55.4,150.3-135.9,207-111.2,237.6c22.5,27.9,87.9,5.9,183.2-4.7
					c272.5-30.5,430,83.4,466.5,30.7c41.5-60.1-169.8-171.2-149-342.4c26-213.6,398.4-357.5,443.3-362c17.1-1.7,27.3-4.8,47.6-11.1
					C2330.5,246,2333.9,238.9,2334.7,235.5z"/>
				<path class="st12" d="M2315.8,163.8c3.7,81.7-599.2,42.5-769.3,330.6c-109.7,185.8,43.5,368-80.6,477
					c-121.7,106.8-406.3,52.5-454.3-61.4c-53.9-128.1,180.5-358.2,245.5-421.5c4.7-4.6,8.4-8.1,10.9-10.6
					C1609.8,149.5,2070.2,43,2276.7,130.7C2302.3,141.6,2315.3,152,2315.8,163.8z"/>
				<path class="st13" d="M2484.9,116.5c3.7,7.8,1.1,14.6,6.8,22.8c12.4,17.8,43.4,12.1,44,15c1.9,9.2-330.1,54.2-535.8,151.5
					c-147.7,69.9-343.7,220.4-501.1,588.1c-178,4-356,8-534.1,12c151.1-211.5,311.5-350.2,426-435c0,0,470.4-348.5,1023.1-375
					c0,0,3-0.1,3-0.1l0,0C2430.3,95.2,2474.6,95,2484.9,116.5z"/>
				<path class="st14" d="M2488.6,87c8.6,7.9,14.4,17.4,14.4,17.4c0,0,0,0,0,0c3,5,4.3,8.6,4.3,8.6c4.3,11.6,3.6,22.1,2.7,28.3
					c-52.9-0.1-136.5,1.6-238.1,11.8c-36.2,3.1-88.5,8.7-150.9,19.4c0,0-194.3,33.4-368.2,104.2c-185,75.4-478.6,282.3-750.1,630.1
					c-147,3-294,6-441,9c105.4-126,271.3-296.8,510.1-450c143.6-92.2,256.7-141.5,402-204C2215-57.1,2484.1,82.8,2488.6,87z"/>
				<path class="st15" d="M2422.1,67.4c0,0,18.5,11.4,18.5,11.4l0,0c5,3.2,8.2,5.5,8.2,5.5c7.6,5.3,13.9,10,18.8,13.9
					c-241.1-10-758.8,2.9-1291,310.4C893.1,572.3,695.2,767.9,567.5,918.6c-147,1.2-293.9,2.4-440.9,3.6
					c74.1-101,190.3-235.1,363.8-363.6c141.5-104.9,263.9-162.3,401.2-226.7c127.5-59.8,290.9-126.8,487.3-185
					C1591.4,74,1776,37.4,1915.9,17.8C1915.9,17.8,2262.5-30.8,2422.1,67.4z"/>
				<path class="st16" d="M2338.5,1.1c13.8,8,26.7,16.8,26.7,16.8c7.6,5.3,13.9,10,18.8,13.9c-311.1-13.6-936.2,5-1575.2,370
					c-273.6,156.3-480.5,336.5-630.1,492c-136-2.4-272-4.9-408-7.3c22.1-63.6,63.5-154.2,146.7-243.4c44.8-48,84-76.8,165.4-137.4
					c296.5-221.1,265.8-205,299.6-225.6c136.1-83,206.2-81.8,786-238.6c78.3-21.2,141.6-38.6,179.7-49.2
					C1348.1-7.7,2034.4-173.9,2338.5,1.1z"/>
			</g>
		</g>
	</g>
	<g class="st1">
		<rect x="42" class="st0" width="2177" height="685"/>
	</g>
</g>
<g id="Layer_3" class="st0">
	<g class="st1">
		<defs>
			<path id="SVGID_3_" d="M357.8,566.5c-0.4-1-2.5,10-4.7,25.5l-4.1,27.3l7.9,0.3c4.4,0.2,8.2,0.1,8.5-0.2
				C366,618.8,358.9,569.2,357.8,566.5z M1548.4,562.5c-2.4-2.6-5.8-3.7-9.4-3c-1.2,0.2-3,1.3-4,2.5c-1.8,1.9-1.9,4.4-1.9,37.9
				c0,35.4,0,35.9,2.2,38c3.2,3.3,9.9,3,13-0.5l2.3-2.7v-34.9C1550.6,565,1550.6,564.9,1548.4,562.5z M1678.9,560.9
				c-5.2-1.5-10.3-1.4-10.9,0.2c-0.2,0.7-0.3,8.5-0.2,17.2l0.3,16l5.9-0.2c4.9-0.2,6.4-0.7,8.5-2.8c2.4-2.3,2.6-3.4,2.9-12.3
				C1685.9,566.4,1684.5,562.4,1678.9,560.9z M1548.4,562.5c-2.4-2.6-5.8-3.7-9.4-3c-1.2,0.2-3,1.3-4,2.5c-1.8,1.9-1.9,4.4-1.9,37.9
				c0,35.4,0,35.9,2.2,38c3.2,3.3,9.9,3,13-0.5l2.3-2.7v-34.9C1550.6,565,1550.6,564.9,1548.4,562.5z M357.8,566.5
				c-0.4-1-2.5,10-4.7,25.5l-4.1,27.3l7.9,0.3c4.4,0.2,8.2,0.1,8.5-0.2C366,618.8,358.9,569.2,357.8,566.5z M1678.9,560.9
				c-5.2-1.5-10.3-1.4-10.9,0.2c-0.2,0.7-0.3,8.5-0.2,17.2l0.3,16l5.9-0.2c4.9-0.2,6.4-0.7,8.5-2.8c2.4-2.3,2.6-3.4,2.9-12.3
				C1685.9,566.4,1684.5,562.4,1678.9,560.9z M1548.4,562.5c-2.4-2.6-5.8-3.7-9.4-3c-1.2,0.2-3,1.3-4,2.5c-1.8,1.9-1.9,4.4-1.9,37.9
				c0,35.4,0,35.9,2.2,38c3.2,3.3,9.9,3,13-0.5l2.3-2.7v-34.9C1550.6,565,1550.6,564.9,1548.4,562.5z M357.8,566.5
				c-0.4-1-2.5,10-4.7,25.5l-4.1,27.3l7.9,0.3c4.4,0.2,8.2,0.1,8.5-0.2C366,618.8,358.9,569.2,357.8,566.5z M1678.9,560.9
				c-5.2-1.5-10.3-1.4-10.9,0.2c-0.2,0.7-0.3,8.5-0.2,17.2l0.3,16l5.9-0.2c4.9-0.2,6.4-0.7,8.5-2.8c2.4-2.3,2.6-3.4,2.9-12.3
				C1685.9,566.4,1684.5,562.4,1678.9,560.9z M2102.6,673.2c-4-5.2-8.1-10.2-12.1-15.5c-5.2-6.8-10.9-13.2-16.2-20
				c-5.6-7.2-10.7-14.6-16.2-21.8c-8.4-11-16.9-22-25.3-32.9c-9.7-12.6-19-25.6-29.3-37.7c-0.9-1-1.9-2.1-2.1-3.5
				c-0.5-4,5-8.3,7.3-10.7c3.9-4,7.8-7.8,11.8-11.8c23.2-23.2,24.1-24.6,21.4-33c-3-9.2-7.1-18.1-11.6-26.7
				c-4.3-8.3-9.3-16.5-12.3-25.5c-1-2.9,0.5-5.1,1.8-7.7c1.8-3.6,3.6-7.3,5.3-11.1c3.3-7.4,6.2-14.9,8.8-22.5
				c0.6-1.7,1.2-3.6,2.6-4.8c1-0.9,2.2-1.4,3.5-1.9c16-6.4,33.1-10.5,48.8-17.7c1.2-0.6,2.6-1.2,3.6-2.1c5.2-4.8,5.2-4.9,5.2-45.7
				s0-40.9-5.2-45.7c-2.1-2-8.9-4.5-42.8-16.3c-2.6-0.9-5.1-1.8-7.7-2.7c-1.5-0.5-3.4-0.9-4.8-1.7c-3-1.7-3.8-8.1-4.9-11.1
				c-3.3-9.1-7.2-17.9-11.4-26.7c-0.4-0.8-4.2-6.5-3.8-7.2c4.5-8.9,8.8-17.9,13-27c4.2-8.8,8.5-17.4,11.7-26.6
				c3.2-9.3,3-9.6-26.2-38.8c-19.8-19.8-26.8-26.2-30.1-27.4c-6.5-2.5-5.3-2.9-56.2,21.4l-6.9,3.3l-8.5-4.2
				c-4.7-2.4-14.8-6.7-22.4-9.5c-13.7-5.2-13.8-5.3-15.3-9.3c-2.6-7.3-9.5-26.8-13.6-38.5c-2.1-6.3-4.9-12.5-6.1-13.9
				c-4.9-5.2-4.9-5.2-45.8-5.2c-40.9,0-40.9,0-45.8,5.2c-1.2,1.4-4,7.6-6.1,13.9c-4.1,11.7-11,31.2-13.6,38.5
				c-1.5,4-1.6,4.1-15.3,9.3c-7.6,2.8-17.7,7.1-22.4,9.5l-8.5,4.2l-6.9-3.3c-50.9-24.3-49.7-23.9-56.2-21.4
				c-3.3,1.2-10.3,7.6-30.1,27.4c-29.2,29.2-29.4,29.5-26.2,38.8c5.4,15.6,13.5,30.4,20.7,45.3c1.1,2.3,2.3,4.7,2.7,7.3
				c0.6,4.2-1.6,7.1-3.5,10.6c-2.5,4.7-4.1,9.9-7.2,14.2c-2.7,3.7-6.3,6.6-10,9.4c-5.2,3.9-10.2,7.9-15.3,11.9
				c-4.7,3.7-9.4,8-14.8,10.6c-3.8,1.9-7.8,3.2-11.7,4.7c-0.5,0.2-7.8,2.7-7.8,2.2c0-0.2,0.8-2,1.8-4.1c1.1-2,3.1-7.1,4.6-11.4
				c2.6-7.1,3-7.7,6.4-8.6c12.5-3.5,29.9-10.5,32-12.8c2.2-2.5,2.2-3,2.2-27.4s0-24.9-2.2-27.4c-2.1-2.3-19.5-9.3-32-12.8
				c-3.4-0.9-3.8-1.5-6.3-8.6c-1.5-4.3-4-10.3-5.6-13.4c-1.6-3.2-2.9-6.2-2.9-6.9c0-0.6,2.5-6.3,5.6-12.7
				c8.1-16.9,10.5-23.7,9.5-26.4c-1.2-3.1-32.4-34-35.8-35.4c-4.8-2-10.4,1.8-14.6,3.7c-7.1,3.1-14.1,6.6-21.1,10
				c-0.9,0.4-1.8,0.8-2.7,0.9c-1.1,0.1-2.2-0.4-3.3-0.8c-6.5-2.8-13.1-5.5-19.7-8.3c-1.7-0.7-3.4-1.5-4.7-2.8
				c-1.3-1.3-1.9-3.1-2.5-4.9c-2.9-8.1-5-17.6-9-25.2c-2.9-5.5-8.3-7.3-14.3-7.2c-8.7,0.1-17.3,0.2-26,0.2
				c-7.3,0.1-16.9-1.8-20.5,6.3c-3.6,8-6.6,16.4-9,24.8c-1.2,4.3-2.8,6.5-6.9,8.3c-4.3,1.8-8.7,3.7-13,5.5
				c-3.1,1.3-7.8,4.7-11.3,4.1c-1.8-0.3-3.4-1.2-5.1-2c-5.8-3-11.6-5.9-17.5-8.5c-4.2-1.9-10.6-6.1-15.3-4
				c-5.6,2.5-10.7,9.2-15,13.4c-4.9,4.8-9.7,9.6-14.5,14.6c-3,3.2-6.3,5.8-6.3,10.6c0,3,1.3,5.9,2.6,8.6c2.3,4.9,4.6,9.7,6.9,14.6
				c2.1,4.4,4.9,8.9,4.6,14c-0.2,3.9-2.2,7.1-3.7,10.6c-1.7,3.9-3.3,7.8-5,11.7c-0.5,1.2-1.1,2.5-2.1,3.4c-2,1.7-5,1.5-7.4,0.5
				c-6.4-2.4-12.7-5-19.1-7.4c-4.4-1.7-8.8-3.4-12.4-6.5c-5.1-4.3-7.7-10.6-11.3-16.1c-4.4-6.7-9.1-13.3-13.6-20
				c-9.5-14.3-19.1-28.5-28.8-42.6c-3-4.5-6.1-9.5-9.2-14.3c-1.4-2.2-3.1-4.5-5.7-5.1c-1.7-0.4-3.5,0.2-5.2,0.8
				c-5.6,2.8-12.4,4-18.3,6.3c-6.4,2.4-12.8,4.6-19.2,6.9c-12.9,4.5-25.8,8.7-38.7,13.1c-1.8,0.6-3.6,1.2-5.4,1.8
				c-5,1.7-11.3,3.1-15.6,6.1c-4.3,3-7.4,7.6-10.9,11.4c-18,19.4-36.6,38.4-54,58.3c-1.6,1.8-3.1,3.6-4.6,5.4
				c-2.9,3.4-5.7,6.9-9.1,9.8c-3.9,3.2-8,4.5-12.8,5.7c-5.9,1.4-11.7,3-17.6,4.5c-11.6,3-23.1,6-34.7,8.9
				c-8.4,2.1-17.3,3.4-25.4,6.5c-7.2,2.7-10.5,8.7-12.4,11.1c-9.8,12.4-39.4,51.5-78.8,105c-0.6,1.3-3.2,6.1-8.2,7.2
				c-2.4,0.5-4.5,0-6.6-0.8c-5.8-2.2-8.4-5.8-15.7-11c-5.7-4.1-11.4-8.2-17.1-12.2c-1.4-0.9-2.8-1.9-4.5-1.9
				c-2.2,0.1-3.9,1.9-5.3,3.6c-6.8,8.6-12.6,18.1-18.6,27.3c-6.5,9.8-13,19.6-19.5,29.4c-1.2,1.7-1.5,2.7-3.6,3
				c-1.2,0.2-2.5,0.2-3.8,0.3c-3.1,0.2-6.3,0.3-9.5,0.3c-4.6,0.1-9.3,0-13.9,0c-13.6,0-27.4-0.9-41-0.2c-5.3,0.3-10.8,0.3-15.8-1.5
				c-4.7-1.7-8.7-4.9-12.6-8c-16.3-12.9-32.6-25.7-49-38.4c-2.5-1.9-5-3.9-7.5-5.8c-3.1-2.4-6.3-4.9-9.4-7.3c-2.6-2-5.3-4.1-7.9-6.1
				c-1.5-1.1-3.1-2.3-5-2.4c-2.2,0-4,1.6-5.6,3.2c-18.1,17.7-35.8,35.9-53.7,53.8c-7.9,7.9-15.7,15.8-23.6,23.7l-29.7-1.6
				c-16.4-1-37-2.2-45.7-2.7l-15.9-1l-4.1,2.6c-6.6,4.5-12.8,9.6-19.2,14.4c-13.6,10.3-28.4,19.9-40.6,31.9
				c-9,8.8-18,17.8-26.9,26.6c-14.5,14.4-29,28.9-43.5,43.4c-18.3,18.2-36.5,36.5-54.8,54.7c-1,1-2,2-2.9,2.9L16.8,676.8h1283.4
				c24.5,0,49,0,73.5,0h68.6c27.5,0,55,0,82.4,0c14.4,0,28.9,0,43.3,0c27.3,0,54.5,0,81.8,0c9.7,0,19.4,0,29.1,0
				c27.4,0,54.9,0,82.4,0c19.2,0,38.4,0,57.6,0c27.5,0,54.9,0,82.4-0.1c20.4,0,40.8,0,61.2-0.1c27.4,0,54.8-0.1,82.3-0.2
				c6.4,0,12.8-0.1,19.1-0.1c12.1-0.1,24.1-0.2,36.2-0.4C2102.2,675.7,2104.5,675.6,2102.6,673.2z M247.6,654.8h-17v-47h-20v47h-17
				v-110h17l1,23.7l0.3,23.8l9.4,0.3l9.3,0.3v-48.1h17V654.8z M380.3,654.6c-4.8,0.2-8.3-0.1-8.7-0.8c-0.3-0.5-1.2-5-1.9-10l-1.3-9
				h-10.9c-6,0-10.9,0.3-10.9,0.6c0,1-2.1,14.9-2.6,17.1c-0.4,2.1-1,2.3-7.9,2.3c-4.1,0-7.5-0.4-7.5-0.8c0-0.5,3.8-24.7,8.5-53.8
				c4.7-29.1,8.5-53.5,8.5-54.2c0-0.9,3.2-1.2,12.5-1.2c6.9,0,12.5,0.1,12.5,0.2c0.1,0.2,4,24.8,8.9,54.8l8.7,54.5L380.3,654.6z
				 M500.3,562.2c-3.1-3.5-9.9-3.8-13.2-0.5c-2.2,2.1-2.2,2.6-2.2,38.1s0,36,2.2,38.1c3.3,3.3,10,3,13.2-0.5
				c2.1-2.5,2.3-3.7,2.3-13.2v-10.4h16.4l-0.4,12.2c-0.3,10.3-0.8,13.1-2.7,17.1c-6,12.1-23.8,16.3-37.3,8.7c-4.3-2.4-5.8-4-8.1-8.7
				l-2.8-5.8v-37.5c0-36.2,0.1-37.7,2.1-42c5.5-11.3,16.4-15.9,30.7-12.9c12.1,2.5,17.4,10.3,18.2,26.6l0.5,10.3h-16.5v-8.4
				C502.6,566,502.3,564.6,500.3,562.2z M646.1,623.6c6.5,16.3,11.9,30,12.2,30.5c0.2,0.4-3.5,0.7-8.4,0.7h-8.8l-8.4-22.1l-8.4-22
				l-2.8,4.8c-2.8,4.8-2.9,4.9-2.9,22v17.3h-17v-110h17v23.7c0,13,0.3,23.3,0.8,22.9c0.4-0.4,5.5-11,11.3-23.4l10.7-22.7l8.5-0.3
				l8.6-0.3l-12,24.6l-12.1,24.5L646.1,623.6z M755.6,654.8h-17v-110h17V654.8z M895.6,654.8H878l-10.4-38.3
				c-5.7-21-10.7-38.9-11.1-39.7c-0.5-0.8-0.9,16.4-0.9,38.2v39.8h-15v-110h21.5l8.4,31.3c4.6,17.1,8.7,31.9,9.2,32.7
				s0.9-13.2,0.9-31.3v-32.7h15V654.8z M1028.6,559.7l-9,0.3l-9,0.3v47.2l-0.2,47.3h-16.8v-95h-18v-15h53V559.7z M1162.6,654.8h-17
				v-47h-20v47h-17v-110h17l1,23.7l0.3,23.8l9.4,0.3l9.3,0.3v-48.1h17V654.8z M1294.6,559.7l-15,0.3l-15,0.3v31l12,0.3l12,0.3v14.9
				h-24l0.2,16.2l0.3,16.3l14.8,0.3l14.7,0.3v14.9h-47v-110h47V559.7z M1432.6,654.8H1415l-10.4-38.3c-5.7-21-10.7-38.9-11.1-39.7
				c-0.5-0.8-0.9,16.4-0.9,38.2v39.8h-15v-110h21.5l8.4,31.3c4.6,17.1,8.7,31.9,9.2,32.7s0.9-13.2,0.9-31.3v-32.7h15V654.8z
				 M1458.1,217c-3.6,19-12.9,32.4-28.5,41c-8.7,4.9-17.6,7.1-28,7.1c-28.8,0-50.9-18.7-56.5-48.1c-1.7-8.8-1.7-9.6,0-18.5
				c3.6-18.9,12.9-32.3,28.5-40.9c13.3-7.4,27.9-9.2,43.5-5.2c11.6,3,24.9,12.2,31.3,21.8c4.8,7.2,7.9,14.9,9.7,24.3
				C1459.8,207.4,1459.8,208.2,1458.1,217z M1562.4,646.4c-3.6,5.3-11.6,8.8-20.2,8.9c-12.6,0-21.8-5.8-24.8-15.7
				c-1.8-6.1-1.9-73.5,0-79.6c1.5-4.8,6.1-10.6,10.3-12.8c7.8-4,19.2-4,27.4,0.1c2.8,1.4,6,3.9,7.3,5.9c4.8,7.1,5.2,10.5,5.2,46.6
				S1567.2,639.3,1562.4,646.4z M1686.9,654.8l-0.7-3.1c-0.3-1.7-0.6-9.8-0.6-17.9c0-8.2-0.5-16.1-1.1-17.9c-1.4-4-5.4-6.1-11.9-6.1
				h-5v45h-17V544.6l17.8,0.4c16,0.3,18.1,0.6,22.4,2.7c8.6,4.1,11.2,10.4,11.3,26.6c0,13-1.7,18.7-7.2,23.6
				c-3.7,3.2-3.7,3.3,0.9,5.9c0.9,0.5,2.6,3,3.8,5.6c1.9,3.7,2.3,6.7,2.6,16.2c0.3,6.5,0.6,15.6,0.8,20.5l0.3,8.7H1686.9z
				 M1834.6,559.8h-18v95h-17v-95h-18v-15h53V559.8z M1902.8,330c-1.1,10.2-1.2,10.6-3.7,19.3c-2.9,10-12.4,27.6-17.6,32.4l-2.3,2.1
				l-1.5-2.3c-0.9-1.3-2.2-3-2.9-3.8c-3.5-4-6.2-7.5-6.2-8.2c0-0.4-0.8-1.5-1.7-2.5c-2.6-2.7-6.5-7.6-13.9-17.4
				c-3.5-4.8-6.9-9-7.5-9.3c-0.5-0.4-3.6,2.1-6.8,5.4c-3.1,3.3-5.6,6-5.6,6.1c0.2,0-2.9,3.3-6.8,7.3c-4,4.1-9.5,9.9-12.4,13
				c-2.8,3.2-5.5,5.7-6,5.7c-1.1,0-3.4-2.8-5.2-6.3c-0.8-1.5-1.8-2.7-2.3-2.7s-1.3-1.1-1.8-2.5s-1.4-2.5-2-2.5c-0.5,0-1-0.7-1-1.5
				s-0.4-1.5-0.8-1.5c-0.5,0-3.7-3.9-7-8.8c-8.9-12.5-9.7-13.7-14.2-19c-0.6-0.6-0.8-1.2-0.4-1.2c0.4,0-0.7-1.4-2.5-3
				c-1.7-1.7-3.1-3.7-3.1-4.5s-0.5-1.5-1-1.5c-0.6,0-1.4-0.8-1.7-1.7c-1.1-2.8-5.3-6.2-7-5.6c-0.8,0.3-3.6,2.6-6.2,5.2
				c-2.7,2.5-7.6,7.1-11,10.1c-3.4,3-8.7,7.9-11.7,10.8c-5.2,5.1-8.3,6.2-8.5,3c0-0.7-0.3-2.2-0.5-3.3c-1.9-7.7-2.6-21.2-1.6-29.8
				c0.6-5,1.3-9.9,1.5-10.7s0.7-3.3,1.2-5.5c0.9-5,8-20.2,13-28c7.5-11.8,25.2-26.2,39.6-32.3c4.1-1.8,18.8-5.5,25.4-6.6
				c7.3-1.1,26.2,0.3,35.5,2.7c11.7,3,15,4.3,25.3,10.6C1889.5,259.6,1906.9,295.3,1902.8,330z M1968.6,654.8h-17v-47h-20v47h-17
				v-110h17l1,23.7l0.3,23.8l9.4,0.3l9.3,0.3v-48.1h17V654.8z"/>
		</defs>
		<use xlink:href="#SVGID_3_"  style="overflow:visible;fill:#642866;"/>
		<clipPath id="SVGID_4_">
			<use xlink:href="#SVGID_3_"  style="overflow:visible;"/>
		</clipPath>
	</g>
</g>
<g id="Layer_2">
	<g>
		<defs>
			<path id="SVGID_5_" d="M362.8,571.2c-0.4-1.1-2.7,10.6-5,27.1l-4.4,29l8.4,0.3c4.7,0.2,8.7,0.1,9-0.2
				C371.5,626.8,363.9,574.1,362.8,571.2z M1629.4,566.9c-2.6-2.8-6.2-3.9-10-3.2c-1.3,0.2-3.2,1.4-4.3,2.7c-1.9,2-2,4.7-2,40.3
				c0,37.7,0,38.2,2.3,40.4c3.4,3.5,10.5,3.2,13.8-0.5l2.4-2.9v-37.1C1631.7,569.6,1631.7,569.5,1629.4,566.9z M1768.2,565.2
				c-5.5-1.6-11-1.5-11.6,0.2c-0.2,0.7-0.3,9-0.2,18.3l0.3,17l6.3-0.2c5.2-0.2,6.8-0.7,9-3c2.6-2.4,2.8-3.6,3.1-13.1
				C1775.7,571.1,1774.2,566.8,1768.2,565.2z M1629.4,566.9c-2.6-2.8-6.2-3.9-10-3.2c-1.3,0.2-3.2,1.4-4.3,2.7c-1.9,2-2,4.7-2,40.3
				c0,37.7,0,38.2,2.3,40.4c3.4,3.5,10.5,3.2,13.8-0.5l2.4-2.9v-37.1C1631.7,569.6,1631.7,569.5,1629.4,566.9z M362.8,571.2
				c-0.4-1.1-2.7,10.6-5,27.1l-4.4,29l8.4,0.3c4.7,0.2,8.7,0.1,9-0.2C371.5,626.8,363.9,574.1,362.8,571.2z M1768.2,565.2
				c-5.5-1.6-11-1.5-11.6,0.2c-0.2,0.7-0.3,9-0.2,18.3l0.3,17l6.3-0.2c5.2-0.2,6.8-0.7,9-3c2.6-2.4,2.8-3.6,3.1-13.1
				C1775.7,571.1,1774.2,566.8,1768.2,565.2z M1629.4,566.9c-2.6-2.8-6.2-3.9-10-3.2c-1.3,0.2-3.2,1.4-4.3,2.7c-1.9,2-2,4.7-2,40.3
				c0,37.7,0,38.2,2.3,40.4c3.4,3.5,10.5,3.2,13.8-0.5l2.4-2.9v-37.1C1631.7,569.6,1631.7,569.5,1629.4,566.9z M362.8,571.2
				c-0.4-1.1-2.7,10.6-5,27.1l-4.4,29l8.4,0.3c4.7,0.2,8.7,0.1,9-0.2C371.5,626.8,363.9,574.1,362.8,571.2z M1768.2,565.2
				c-5.5-1.6-11-1.5-11.6,0.2c-0.2,0.7-0.3,9-0.2,18.3l0.3,17l6.3-0.2c5.2-0.2,6.8-0.7,9-3c2.6-2.4,2.8-3.6,3.1-13.1
				C1775.7,571.1,1774.2,566.8,1768.2,565.2z M2219,684.7c-4.3-5.5-8.7-10.9-12.9-16.4c-5.5-7.3-11.6-14.1-17.2-21.3
				c-5.9-7.6-11.4-15.5-17.3-23.2c-9-11.7-17.9-23.4-26.9-35c-10.3-13.4-20.2-27.2-31.1-40.1c-0.9-1.1-2-2.3-2.2-3.7
				c-0.6-4.2,5.3-8.9,7.8-11.4c4.1-4.2,8.4-8.4,12.5-12.5c24.7-24.7,25.6-26.2,22.8-35.1c-3.2-9.8-7.6-19.2-12.3-28.4
				c-4.6-8.9-9.9-17.5-13.1-27.1c-1-3.1,0.5-5.4,1.9-8.2c2-3.9,3.8-7.8,5.6-11.8c3.5-7.8,6.6-15.8,9.4-23.9c0.6-1.9,1.3-3.8,2.7-5.1
				c1-1,2.4-1.5,3.7-2c17.1-6.8,35.2-11.1,51.9-18.8c1.3-0.6,2.7-1.2,3.8-2.2c5.5-5.1,5.5-5.2,5.5-48.6s0-43.5-5.5-48.6
				c-2.2-2.1-9.5-4.8-45.5-17.3c-2.7-1-5.5-1.9-8.2-2.9c-1.6-0.6-3.6-0.9-5.1-1.8c-3.2-1.8-4.1-8.7-5.2-11.8
				c-3.6-9.7-7.7-19.1-12.1-28.4c-0.4-0.9-4.4-6.9-4.1-7.6c4.7-9.5,9.3-19.1,13.9-28.7c4.4-9.3,9-18.6,12.4-28.3
				c3.4-9.9,3.2-10.2-27.9-41.3c-21.1-21.1-28.5-27.9-32-29.1c-6.9-2.7-5.6-3.1-59.8,22.8l-7.3,3.5l-9-4.5
				c-5-2.6-15.7-7.1-23.8-10.1c-14.6-5.5-14.7-5.6-16.3-9.9c-2.8-7.8-10.1-28.5-14.5-41c-2.2-6.7-5.2-13.3-6.5-14.8
				c-5.2-5.5-5.2-5.5-48.7-5.5c-43.5,0-43.5,0-48.7,5.5c-1.3,1.5-4.3,8.1-6.5,14.8c-4.4,12.4-11.7,33.2-14.5,41
				c-1.6,4.3-1.7,4.4-16.3,9.9c-8.1,3-18.8,7.6-23.8,10.1l-9,4.5l-7.3-3.5c-54.1-25.9-52.9-25.4-59.8-22.8c-3.5,1.3-11,8.1-32,29.1
				c-31.1,31.1-31.3,31.4-27.9,41.3c5.7,16.6,14.4,32.3,22,48.1c1.2,2.5,2.4,5,2.8,7.8c0.7,4.4-1.7,7.5-3.7,11.2
				c-2.6,5-4.3,10.6-7.6,15.1c-2.8,4-6.7,7-10.6,10c-5.5,4.1-10.9,8.4-16.3,12.7c-5,3.9-9.9,8.5-15.7,11.3c-4,2-8.3,3.4-12.5,5
				c-0.5,0.2-8.3,2.8-8.3,2.4c0-0.2,0.9-2.1,1.9-4.4c1.2-2.1,3.3-7.6,4.9-12.1c2.8-7.6,3.2-8.2,6.8-9.1c13.3-3.7,31.8-11.2,34-13.6
				c2.3-2.7,2.3-3.2,2.3-29.1s0-26.5-2.3-29.1c-2.2-2.4-20.7-9.9-34-13.6c-3.6-1-4-1.6-6.7-9.1c-1.6-4.6-4.3-11-6-14.3
				c-1.7-3.4-3.1-6.6-3.1-7.3c0-0.6,2.7-6.7,6-13.5c8.6-18,11.2-25.2,10.1-28.1c-1.3-3.3-34.5-36.2-38.1-37.7
				c-5.1-2.1-11.1,1.9-15.5,4c-7.6,3.3-15,7.1-22.4,10.6c-0.9,0.4-1.9,0.9-2.9,0.9c-1.2,0.1-2.4-0.4-3.5-0.9
				c-7-2.9-13.9-5.9-20.9-8.8c-1.8-0.8-3.7-1.6-5-3c-1.4-1.4-2-3.3-2.7-5.2c-3.1-8.6-5.3-18.7-9.6-26.8c-3.1-5.9-8.9-7.8-15.2-7.7
				c-9.2,0.1-18.4,0.2-27.7,0.2c-7.7,0.1-17.9-1.9-21.9,6.7c-3.9,8.6-7.1,17.4-9.6,26.4c-1.3,4.6-3,7-7.4,8.8
				c-4.6,1.9-9.2,3.9-13.8,5.8c-3.3,1.4-8.2,5-12,4.3c-1.9-0.3-3.7-1.3-5.4-2.2c-6.1-3.2-12.3-6.3-18.7-9.1
				c-4.5-2-11.3-6.5-16.3-4.3c-5.9,2.6-11.3,9.8-15.9,14.2c-5.2,5.1-10.4,10.3-15.4,15.5c-3.2,3.4-6.7,6.2-6.7,11.3
				c0,3.2,1.4,6.3,2.8,9.2c2.4,5.2,4.9,10.4,7.3,15.5c2.2,4.7,5.2,9.5,4.9,14.9c-0.2,4.1-2.4,7.6-3.9,11.2
				c-1.8,4.2-3.6,8.3-5.4,12.5c-0.6,1.3-1.2,2.7-2.3,3.6c-2.1,1.8-5.3,1.6-7.9,0.6c-6.8-2.6-13.6-5.3-20.3-7.9
				c-4.6-1.8-9.4-3.7-13.2-6.9c-5.4-4.6-8.2-11.3-12.1-17.1c-4.7-7.1-9.7-14.1-14.4-21.2c-10.1-15.2-20.3-30.3-30.6-45.4
				c-3.2-4.7-6.5-10.1-9.8-15.2c-1.5-2.3-3.3-4.8-6-5.4c-1.8-0.4-3.7,0.2-5.5,0.8c-6,3-13.1,4.3-19.4,6.7
				c-6.8,2.6-13.6,4.9-20.4,7.3c-13.7,4.7-27.4,9.3-41.2,13.9c-1.9,0.6-3.8,1.3-5.7,2c-5.3,1.8-12,3.3-16.6,6.5
				c-4.6,3.2-7.8,8.1-11.6,12.1c-19.1,20.6-38.9,40.8-57.4,62.1c-1.7,1.9-3.3,3.8-4.9,5.8c-3,3.6-6,7.4-9.7,10.4
				c-4.1,3.4-8.5,4.8-13.6,6c-6.3,1.5-12.5,3.1-18.7,4.7c-12.3,3.2-24.6,6.4-36.9,9.4c-8.9,2.2-18.4,3.6-27,6.9
				c-7.6,2.9-11.2,9.3-13.1,11.8c-10.4,13.2-41.9,54.8-83.8,111.6c-0.7,1.4-3.4,6.5-8.7,7.6c-2.6,0.6-4.8,0-7-0.8
				c-6.1-2.3-9-6.1-16.7-11.7c-6-4.4-12.1-8.7-18.2-13c-1.4-1-3-2-4.7-2c-2.4,0.1-4.2,2-5.6,3.9c-7.3,9.2-13.4,19.3-19.8,29.1
				c-6.9,10.4-13.8,20.9-20.8,31.3c-1.2,1.9-1.6,2.9-3.8,3.2c-1.3,0.2-2.7,0.3-4,0.3c-3.4,0.2-6.7,0.3-10.1,0.3
				c-4.9,0.1-9.9,0-14.8,0c-14.4,0-29.2-1-43.6-0.2c-5.6,0.3-11.5,0.3-16.8-1.6c-5-1.8-9.2-5.2-13.4-8.5
				c-17.3-13.7-34.7-27.3-52.2-40.8c-2.7-2.1-5.3-4.1-8-6.2c-3.3-2.6-6.7-5.2-10-7.8c-2.8-2.2-5.6-4.3-8.4-6.5
				c-1.6-1.2-3.3-2.5-5.3-2.5c-2.3,0-4.3,1.7-5.9,3.4c-19.3,18.9-38.1,38.2-57.1,57.3c-8.4,8.4-16.7,16.8-25.1,25.2l-31.6-1.7
				c-17.4-1.1-39.4-2.3-48.6-2.9l-16.9-1.1l-4.4,2.8c-7,4.7-13.6,10.2-20.4,15.3c-14.5,10.9-30.2,21.1-43.2,33.9
				c-9.6,9.4-19.1,18.9-28.7,28.4c-15.5,15.4-30.9,30.7-46.3,46.1c-19.4,19.4-38.9,38.8-58.3,58.2c-1,1-2.1,2.1-3.1,3.1L0,688.5
				h1365.3c26.1,0,52.1,0,78.2,0h72.9c29.2,0,58.5,0,87.7,0c15.4,0,30.7,0,46.1,0c29,0,58,0,87,0c10.3,0,20.6,0,30.9,0
				c29.2,0,58.4,0,87.6,0c20.4,0,40.9,0,61.3,0c29.2,0,58.4,0,87.6-0.1c21.7,0,43.4-0.1,65.1-0.1c29.2-0.1,58.3-0.1,87.5-0.2
				c6.8,0,13.6-0.1,20.3-0.1c12.8-0.1,25.7-0.2,38.5-0.4C2218.5,687.4,2220.9,687.3,2219,684.7z M245.5,665.1h-18.1v-50h-21.3v50
				h-18.1v-117h18.1l1.1,25.2l0.3,25.3l10,0.3l9.9,0.3v-51.2h18.1V665.1z M386.7,664.9c-5.1,0.2-8.8-0.1-9.3-0.9
				c-0.3-0.5-1.3-5.3-2-10.6l-1.4-9.6h-11.6c-6.4,0-11.6,0.3-11.6,0.6c0,1.1-2.2,15.9-2.8,18.2c-0.4,2.2-1.1,2.4-8.4,2.4
				c-4.4,0-8-0.4-8-0.9c0-0.5,4-26.3,9-57.2c5-31,9-56.9,9-57.7c0-1,3.4-1.3,13.3-1.3c7.3,0,13.3,0.1,13.3,0.2
				c0.1,0.2,4.3,26.4,9.5,58.3l9.3,58L386.7,664.9z M514.3,566.6c-3.4-3.7-10.6-4-14-0.5c-2.4,2.2-2.4,2.8-2.4,40.5s0,38.3,2.4,40.5
				c3.5,3.5,10.7,3.2,14-0.5c2.3-2.7,2.5-3.9,2.5-14v-11.1h17.5l-0.4,13c-0.3,11-0.9,13.9-2.9,18.2c-6.4,12.9-25.4,17.3-39.7,9.3
				c-4.5-2.6-6.1-4.3-8.6-9.3l-3-6.2v-39.9c0-38.5,0.1-40.1,2.3-44.7c5.8-12,17.5-16.9,32.7-13.7c12.8,2.7,18.5,11,19.3,28.3l0.5,11
				h-17.6v-8.9C516.8,570.7,516.5,569.2,514.3,566.6z M669.5,631.9c6.9,17.3,12.7,31.9,13,32.4c0.2,0.4-3.7,0.7-8.9,0.7h-9.4
				l-8.9-23.5l-8.9-23.4l-3,5.1c-3,5.1-3.1,5.2-3.1,23.4v18.4h-18.1v-117h18.1v25.2c0,13.8,0.3,24.8,0.9,24.4
				c0.4-0.4,5.9-11.7,12-24.9l11.4-24.1l9-0.3l9.1-0.3l-12.8,26.2L657,600.2L669.5,631.9z M786,665.1h-18.1v-117H786V665.1z
				 M934.9,665.1h-18.7l-11.1-40.7c-6.1-22.3-11.4-41.4-11.8-42.2c-0.5-0.9-1,17.4-1,40.6v42.3h-16v-117h22.9l8.9,33.3
				c4.9,18.2,9.3,33.9,9.8,34.8s1-14,1-33.3v-34.8h16V665.1z M1076.4,563.9l-9.5,0.3l-9.6,0.3v50.2l-0.2,50.3h-17.9V564.1H1020v-16
				h56.4V563.9z M1218.9,665.1h-18.1v-50h-21.3v50h-18.1v-117h18.1l1.1,25.2l0.3,25.3l10,0.3l9.9,0.3v-51.2h18.1V665.1z
				 M1359.4,563.9l-15.9,0.3l-16,0.3v33l12.8,0.3l12.7,0.3v15.9h-25.5l0.2,17.2l0.3,17.3l15.7,0.3l15.6,0.3v15.9h-50v-117h50V563.9z
				 M1506.2,665.1h-18.7l-11.1-40.7c-6.1-22.3-11.4-41.4-11.8-42.2c-0.5-0.9-1,17.4-1,40.6v42.3h-16v-117h22.9l8.9,33.3
				c4.9,18.2,9.3,33.9,9.8,34.8c0.5,0.9,1-14,1-33.3v-34.8h16V665.1z M1533.3,199.4c-3.8,20.2-13.7,34.5-30.3,43.6
				c-9.3,5.2-18.7,7.6-29.8,7.6c-30.6,0-54.1-19.9-60.1-51.2c-1.8-9.4-1.8-10.2,0-19.7c3.8-20.1,13.7-34.4,30.3-43.5
				c14.1-7.9,29.7-9.8,46.3-5.5c12.3,3.2,26.5,13,33.3,23.2c5.1,7.7,8.4,15.9,10.3,25.9C1535.1,189.2,1535.1,190,1533.3,199.4z
				 M1644.3,656.2c-3.8,5.6-12.3,9.4-21.5,9.5c-13.4,0-23.2-6.2-26.4-16.7c-1.9-6.5-2-78.2,0-84.7c1.6-5.1,6.5-11.3,11-13.6
				c8.3-4.3,20.4-4.3,29.1,0.1c3,1.5,6.4,4.1,7.8,6.3c5.1,7.6,5.5,11.2,5.5,49.6C1649.8,645,1649.4,648.6,1644.3,656.2z
				 M1776.7,665.1l-0.7-3.3c-0.3-1.8-0.6-10.4-0.6-19c0-8.7-0.5-17.1-1.2-19c-1.5-4.3-5.7-6.5-12.7-6.5h-5.3v47.9h-18.1V547.9
				l18.9,0.4c17,0.3,19.3,0.6,23.8,2.9c9.1,4.4,11.9,11.1,12,28.3c0,13.8-1.8,19.9-7.7,25.1c-3.9,3.4-3.9,3.5,1,6.3
				c1,0.5,2.8,3.2,4,6c2,3.9,2.4,7.1,2.8,17.2c0.3,6.9,0.6,16.6,0.9,21.8l0.3,9.3H1776.7z M1933.8,564.1h-19.1v101.1h-18.1V564.1
				h-19.1v-16h56.4V564.1z M2006.4,319.6c-1.2,10.9-1.3,11.3-3.9,20.5c-3.1,10.6-13.2,29.4-18.7,34.5l-2.4,2.2l-1.6-2.4
				c-1-1.4-2.3-3.2-3.1-4c-3.7-4.3-6.6-8-6.6-8.7c0-0.4-0.9-1.6-1.8-2.7c-2.8-2.9-6.9-8.1-14.8-18.5c-3.7-5.1-7.3-9.6-8-9.9
				c-0.5-0.4-3.8,2.2-7.2,5.7c-3.3,3.5-6,6.4-6,6.5c0.2,0-3.1,3.5-7.2,7.8c-4.3,4.4-10.1,10.5-13.2,13.8c-3,3.4-5.9,6.1-6.4,6.1
				c-1.2,0-3.6-3-5.5-6.7c-0.9-1.6-1.9-2.9-2.4-2.9c-0.5,0-1.4-1.2-1.9-2.7c-0.5-1.5-1.5-2.7-2.1-2.7c-0.5,0-1.1-0.7-1.1-1.6
				c0-0.9-0.4-1.6-0.9-1.6c-0.5,0-3.9-4.1-7.4-9.4c-9.5-13.3-10.3-14.6-15.1-20.2c-0.6-0.6-0.9-1.3-0.4-1.3c0.4,0-0.7-1.5-2.7-3.2
				c-1.8-1.8-3.3-3.9-3.3-4.8c0-0.9-0.5-1.6-1.1-1.6c-0.6,0-1.5-0.9-1.8-1.8c-1.2-3-5.6-6.6-7.4-6c-0.9,0.3-3.8,2.8-6.6,5.5
				c-2.9,2.7-8.1,7.6-11.7,10.7c-3.6,3.2-9.3,8.4-12.4,11.5c-5.5,5.4-8.8,6.6-9,3.2c0-0.7-0.3-2.3-0.5-3.5c-2-8.2-2.8-22.6-1.7-31.7
				c0.6-5.3,1.4-10.5,1.6-11.4c0.2-0.9,0.7-3.5,1.3-5.9c1-5.3,8.5-21.5,13.8-29.8c8-12.6,26.8-27.9,42.1-34.4c4.4-1.9,20-5.9,27-7
				c7.8-1.2,27.9,0.3,37.8,2.9c12.4,3.2,16,4.6,26.9,11.3C1992.3,244.7,2010.8,282.7,2006.4,319.6z M2076.4,665.1h-18.1v-50H2037v50
				H2019v-117h18.1l1.1,25.2l0.3,25.3l10,0.3l9.9,0.3v-51.2h18.1V665.1z"/>
		</defs>
		<clipPath id="SVGID_6_">
			<use xlink:href="#SVGID_5_"  style="overflow:visible;"/>
		</clipPath>
		<g class="st17">
			<g>
				<path class="st4" d="M2541.5,942c201.2-304.6,28.8-679.8,10.4-718.4c-13.9-14.2-27.7-28.5-41.6-42.7
					c-86.7,3-210.6,16.4-350.9,64.5c-54.7,18.7-157.1,58.2-268.1,130.9c-228.6,149.6-544.3,473.2-459.6,676.7
					c28.6,68.6,93,100.3,153.8,130.3C1871.5,1324.1,2336.5,1252.4,2541.5,942z"/>
				<path class="st11" d="M2371.9,247.1c4.5-19.3-33.9-44.6-72.7-65.3c-80.9-0.3-552.2,4.4-787.2,296.4
					c-73,90.7-70.9,144-118.2,272.2c-59,159.9-144.6,220.2-118.3,252.8c24,29.7,93.5,6.3,194.9-5c289.9-32.5,457.5,88.7,496.2,32.7
					c44.2-63.9-180.7-182.1-158.5-364.2c27.7-227.2,423.8-380.4,471.6-385.1c18.2-1.8,29-5.1,50.6-11.8
					C2367.4,258.3,2371,250.7,2371.9,247.1z"/>
				<path class="st12" d="M2351.8,170.8c3.9,87-637.5,45.2-818.4,351.7c-116.7,197.7,46.3,391.5-85.7,507.4
					c-129.4,113.6-432.2,55.8-483.2-65.3c-57.4-136.3,192-381.1,261.2-448.4c5-4.9,9-8.7,11.6-11.3
					c363.6-349.3,853.3-462.5,1073-369.3C2337.4,147.2,2351.2,158.3,2351.8,170.8z"/>
				<path class="st18" d="M2531.7,120.6c4,8.3,1.2,15.6,7.2,24.3c13.2,18.9,46.2,12.9,46.8,15.9c2,9.7-351.1,57.6-570,161.2
					c-157.1,74.3-365.7,234.4-533,625.6c-189.4,4.3-378.8,8.5-568.1,12.8c160.7-225,331.4-372.6,453.2-462.8
					c0,0,500.5-370.7,1088.4-399c0,0,3.2-0.1,3.2-0.1l0,0C2473.6,97.8,2520.8,97.6,2531.7,120.6z"/>
				<path class="st19" d="M2535.7,89.2c9.1,8.4,15.3,18.5,15.3,18.5c0,0,0,0,0,0c3.2,5.3,4.6,9.1,4.6,9.1
					c4.6,12.3,3.9,23.5,2.8,30.1c-56.3-0.1-145.2,1.7-253.3,12.6c-38.5,3.3-94.2,9.3-160.5,20.7c0,0-206.7,35.5-391.7,110.9
					c-196.8,80.2-509.1,300.4-798,670.3c-156.4,3.2-312.8,6.4-469.2,9.6c112.2-134.1,288.7-315.8,542.6-478.8
					c152.8-98.1,273.1-150.5,427.7-217C2244.6-64.2,2530.8,84.7,2535.7,89.2z"/>
				<path class="st20" d="M2464.9,68.3c0,0,19.7,12.1,19.7,12.1l0,0c5.3,3.4,8.7,5.8,8.7,5.8c8.1,5.6,14.8,10.7,20,14.8
					c-256.5-10.7-807.3,3-1373.4,330.2c-301.6,174.3-512,382.3-647.9,542.6c-156.4,1.3-312.7,2.6-469.1,3.8
					c78.8-107.4,202.5-250.1,387-386.9c150.5-111.6,280.8-172.7,426.8-241.2C972.2,286,1146.1,214.7,1355,152.8
					c226.1-77.4,422.6-116.4,571.3-137.2C1926.3,15.5,2295-36.2,2464.9,68.3z"/>
				<path class="st21" d="M2376-2.2c14.7,8.5,28.4,17.9,28.4,17.9c8.1,5.6,14.8,10.7,20,14.8c-330.9-14.4-996,5.3-1675.8,393.6
					c-291,166.2-511.1,358-670.3,523.5c-144.7-2.6-289.4-5.2-434.1-7.8c23.5-67.6,67.6-164.1,156.1-259
					c47.6-51.1,89.4-81.7,175.9-146.2c315.5-235.2,282.7-218.1,318.7-240c144.8-88.3,219.4-87.1,836.2-253.8
					c83.3-22.5,150.6-41.1,191.2-52.4C1322.3-11.6,2052.4-188.4,2376-2.2z"/>
			</g>
		</g>
	</g>
</g>
</svg>
